<svg xmlns="http://www.w3.org/2000/svg" width="347" height="424" viewBox="0 0 347 424">
  <g id="Group_29745" data-name="Group 29745" transform="translate(-44 -168)">
    <g id="Group_29532" data-name="Group 29532" transform="translate(1816.021 620.794)">
      <path id="Path_137903" data-name="Path 137903" d="M-1570.831-335.669h3.281a6.563,6.563,0,0,0,6.563-6.562,6.563,6.563,0,0,0-6.563-6.563h-57.424a8.213,8.213,0,0,0-8.2,8.2v.791a21.7,21.7,0,0,1-2.4,9.731,71.092,71.092,0,0,0-7.444,31.581v46.493a1.641,1.641,0,0,0,1.64,1.64h78.752a1.641,1.641,0,0,0,1.641-1.64v-46.493a70.732,70.732,0,0,0-9.844-35.963Zm0-6.562a3.281,3.281,0,0,1,3.281-3.282,3.281,3.281,0,0,1,3.281,3.282,3.281,3.281,0,0,1-3.281,3.281h-3.281Zm-13.126,88.6h-55.783v-44.853a67.78,67.78,0,0,1,7.1-30.116,24.955,24.955,0,0,0,2.745-11.2v-.791a4.922,4.922,0,0,1,4.922-4.922h51.742a6.512,6.512,0,0,0-.881,3.282v7.78a70.722,70.722,0,0,0-9.844,35.963Zm5.207,0,6.278-7.322,6.277,7.322Zm14.481-44.848v42.054l-6.562-7.655v-7.6a1.641,1.641,0,0,0-1.641-1.64,1.641,1.641,0,0,0-1.641,1.64v7.6l-6.563,7.661v-42.064a67.458,67.458,0,0,1,6.563-28.977v16.406a1.641,1.641,0,0,0,1.641,1.641,1.641,1.641,0,0,0,1.641-1.641v-16.406A67.439,67.439,0,0,1-1564.269-298.483Z" transform="translate(0 0)" fill="#424242"/>
      <path id="Path_137904" data-name="Path 137904" d="M-1496.872-239.33a1.641,1.641,0,0,0,1.641-1.641v-9.844a1.641,1.641,0,0,0-1.641-1.64,1.641,1.641,0,0,0-1.641,1.64v9.844A1.641,1.641,0,0,0-1496.872-239.33Z" transform="translate(-75.6 -50.4)" fill="#424242"/>
      <path id="Path_137905" data-name="Path 137905" d="M-1572.68-310.947h-34.454a1.641,1.641,0,0,0-1.557,1.122l-3.281,9.844a1.64,1.64,0,0,0,.226,1.478,1.641,1.641,0,0,0,1.331.681h34.454a1.642,1.642,0,0,0,1.555-1.122l3.282-9.844a1.63,1.63,0,0,0-.224-1.476A1.639,1.639,0,0,0-1572.68-310.947Zm-4.464,9.844h-31l2.189-6.562h30.995Z" transform="translate(-16.199 -19.8)" fill="#424242"/>
      <path id="Path_137906" data-name="Path 137906" d="M-1576.964-273.259a1.641,1.641,0,0,0,1.641-1.64,1.641,1.641,0,0,0-1.641-1.641h-19.688a1.641,1.641,0,0,0-1.64,1.641,1.641,1.641,0,0,0,1.64,1.64Z" transform="translate(-23.4 -37.8)" fill="#424242"/>
      <path id="Path_137907" data-name="Path 137907" d="M-1586.33-321.428h19.688a1.641,1.641,0,0,0,1.641-1.641,1.641,1.641,0,0,0-1.641-1.64h-19.688a1.641,1.641,0,0,0-1.64,1.64A1.641,1.641,0,0,0-1586.33-321.428Z" transform="translate(-28.8 -12.6)" fill="#424242"/>
      <path id="Path_137908" data-name="Path 137908" d="M-1497.769-212.554a2.447,2.447,0,0,0-2.447,2.451,2.454,2.454,0,0,0,2.455,2.451,2.451,2.451,0,0,0,2.45-2.451,2.451,2.451,0,0,0-2.45-2.451Z" transform="translate(-74.709 -71.275)" fill="#424242"/>
      <path id="Path_137909" data-name="Path 137909" d="M-1579.417-195.462h-3.245a.359.359,0,0,0-.324.205,8.93,8.93,0,0,1-2.847,3.424,8.942,8.942,0,0,1-10.988-.344l2.805-.051a.36.36,0,0,0,.251-.11.358.358,0,0,0,.1-.255l-.055-3.023a.364.364,0,0,0-.364-.351l-8.2.149a.36.36,0,0,0-.251.11.359.359,0,0,0-.1.255l.149,8.2a.357.357,0,0,0,.358.351h.007l3.022-.054a.359.359,0,0,0,.251-.109.36.36,0,0,0,.1-.255l-.03-1.633a12.647,12.647,0,0,0,5.634,2.408,12.937,12.937,0,0,0,2.054.165,12.583,12.583,0,0,0,7.441-2.418,12.624,12.624,0,0,0,3.93-4.669,12.938,12.938,0,0,0,.636-1.515.356.356,0,0,0-.046-.324A.357.357,0,0,0-1579.417-195.462Z" transform="translate(-21.13 -79.952)" fill="#8fd89f"/>
      <path id="Path_137910" data-name="Path 137910" d="M-1609.66-225.986a1.669,1.669,0,0,0,1.669,1.669,1.669,1.669,0,0,0,1.669-1.669,9.471,9.471,0,0,0-9.461-9.461,9.471,9.471,0,0,0-9.461,9.461,9.417,9.417,0,0,0,.63,3.377,1.669,1.669,0,0,0,1.559,1.073,1.659,1.659,0,0,0,.6-.111,1.669,1.669,0,0,0,.962-2.155,6.094,6.094,0,0,1-.41-2.184,6.13,6.13,0,0,1,6.123-6.123A6.13,6.13,0,0,1-1609.66-225.986Z" transform="translate(-9.3 -59.298)" fill="#8fd89f"/>
      <path id="Path_137911" data-name="Path 137911" d="M-1561.2-233.283a9.471,9.471,0,0,0-9.461,9.461,1.669,1.669,0,0,0,1.669,1.669,1.669,1.669,0,0,0,1.669-1.669,6.13,6.13,0,0,1,6.123-6.123,6.13,6.13,0,0,1,6.123,6.123,6.052,6.052,0,0,1-1.352,3.832,1.669,1.669,0,0,0,.254,2.347,1.663,1.663,0,0,0,1.045.369,1.667,1.667,0,0,0,1.3-.622,9.485,9.485,0,0,0,2.09-5.925A9.471,9.471,0,0,0-1561.2-233.283Z" transform="translate(-37.856 -60.43)" fill="#8fd89f"/>
    </g>
    <ellipse id="Ellipse_377" data-name="Ellipse 377" cx="38.5" cy="38" rx="38.5" ry="38" transform="translate(314 516)" fill="#f69f8e"/>
    <ellipse id="Ellipse_380" data-name="Ellipse 380" cx="28.5" cy="29" rx="28.5" ry="29" transform="translate(44 214)" fill="#f69f8e"/>
    <circle id="Ellipse_378" data-name="Ellipse 378" cx="23.5" cy="23.5" r="23.5" transform="translate(314 298)" fill="#f69f8e"/>
    <circle id="Ellipse_379" data-name="Ellipse 379" cx="16.5" cy="16.5" r="16.5" transform="translate(84 396)" fill="#f69f8e"/>
    <circle id="Ellipse_381" data-name="Ellipse 381" cx="9.5" cy="9.5" r="9.5" transform="translate(187 168)" fill="#f69f8e"/>
  </g>
</svg>
