<svg xmlns="http://www.w3.org/2000/svg" width="372" height="262.159" viewBox="0 0 372 262.159">
  <g id="Group_28394" data-name="Group 28394" transform="translate(-2231.46 1512.64)">
    <g id="Group_434" data-name="Group 434" transform="translate(2360.777 -1512.64)">
      <g id="Group_1" data-name="Group 1">
        <g id="Path_6" data-name="Path 6" transform="translate(2.881)">
          <path id="Path_136955" data-name="Path 136955" d="M2694.571-1488.6a15.933,15.933,0,0,0-12.037-12.625h0a15.934,15.934,0,0,0-19.109,11.894,15.764,15.764,0,0,0,.221,7.97,11.31,11.31,0,0,1,4.333-.844,11.483,11.483,0,0,1,7.371-14.472,11.463,11.463,0,0,1,3.575-.563,11.51,11.51,0,0,1,2.611.3h0a11.529,11.529,0,0,1,8.709,9.127l2.015,1.8Z" transform="translate(-2663.017 1501.64)" fill="#8fd89f"/>
        </g>
        <g id="Path_8" data-name="Path 8" transform="translate(32.914 46.587)">
          <path id="Path_136956" data-name="Path 136956" d="M2788.494-1349.558h-3.286a13.485,13.485,0,0,1-4.309,5.182h0a13.6,13.6,0,0,1-17.617-1.42l-2.221.04.072,3.964a17.91,17.91,0,0,0,8.911,4.169,18.305,18.305,0,0,0,2.906.233,17.909,17.909,0,0,0,10.523-3.42h0a17.79,17.79,0,0,0,5.557-6.6,18.339,18.339,0,0,0,.9-2.145Z" transform="translate(-2761.061 1349.558)" fill="#8fd89f"/>
        </g>
        <g id="Path_9" data-name="Path 9" transform="translate(28.523 45.854)">
          <path id="Path_136957" data-name="Path 136957" d="M2758.735-1347.55l-.08-4.4-8.155.148-3.773.068.043,2.371.173,9.557,4.4-.079-.065-3.566-.072-3.964,2.22-.04Z" transform="translate(-2746.727 1351.949)" fill="#8fd89f"/>
        </g>
        <g id="Path_10" data-name="Path 10" transform="translate(65.249 3.004)">
          <path id="Path_136958" data-name="Path 136958" d="M2871.313-1477.919a12.225,12.225,0,0,1,11.879-9.485,12.221,12.221,0,0,1,12.076,10.315l1.972,1.8,2.357-2.585a16.6,16.6,0,0,0-19.027-13.741,16.6,16.6,0,0,0-13.845,18.278,12,12,0,0,1,4.282-1.939A12.238,12.238,0,0,1,2871.313-1477.919Z" transform="translate(-2866.616 1491.832)" fill="#8fd89f"/>
        </g>
        <g id="Group_451" data-name="Group 451" transform="translate(0 10.892)">
          <g id="Path_1" data-name="Path 1" transform="translate(0 4.537)">
            <path id="Path_136959" data-name="Path 136959" d="M2655.743-1425.476q-2.129-2.653-2.13-8.03,0-5.263,2.148-7.932a6.962,6.962,0,0,1,5.711-2.671,8.438,8.438,0,0,1,3.624.735,5.829,5.829,0,0,1,2.458,2.09h.232v-9.989h5.3v27.988h-4.534l-.349-2.671h-.27a6.23,6.23,0,0,1-2.6,2.342,8.092,8.092,0,0,1-3.6.794A7.257,7.257,0,0,1,2655.743-1425.476Zm12.039-7.646v-.62q0-5.768-4.335-5.768a3.848,3.848,0,0,0-3.367,1.413,7.4,7.4,0,0,0-1.006,4.277v.7a7.393,7.393,0,0,0,1.006,4.277,3.847,3.847,0,0,0,3.367,1.411q4.334,0,4.335-5.692Z" transform="translate(-2653.613 1451.272)" fill="#f38262"/>
          </g>
          <g id="Path_2" data-name="Path 2" transform="translate(21.754 11.653)">
            <path id="Path_136960" data-name="Path 136960" d="M2727.185-1409.343q-2.555-2.593-2.555-8.052t2.555-8.052q2.555-2.593,7.78-2.594t7.8,2.594q2.573,2.6,2.574,8.052t-2.574,8.052q-2.576,2.595-7.8,2.594T2727.185-1409.343Zm11.536-3.232a7.282,7.282,0,0,0,1.161-4.51v-.619a7.281,7.281,0,0,0-1.161-4.51,4.47,4.47,0,0,0-3.756-1.491,4.407,4.407,0,0,0-3.735,1.491,7.369,7.369,0,0,0-1.142,4.51v.619a7.369,7.369,0,0,0,1.142,4.51,4.407,4.407,0,0,0,3.735,1.49A4.47,4.47,0,0,0,2738.721-1412.574Z" transform="translate(-2724.63 1428.04)" fill="#f38262"/>
          </g>
          <g id="Path_3" data-name="Path 3" transform="translate(44.142 11.647)">
            <path id="Path_136961" data-name="Path 136961" d="M2797.713-1427.585h4.529l.392,2.671h.271a7.743,7.743,0,0,1,6.35-3.134,6.89,6.89,0,0,1,4.935,1.7q1.8,1.7,1.8,5.458v13.666h-5.3v-12.544a3.108,3.108,0,0,0-2.537-3.59,3.107,3.107,0,0,0-.988-.01,3.891,3.891,0,0,0-2.961,1.257,4.379,4.379,0,0,0-1.181,3.116v11.768h-5.306Z" transform="translate(-2797.713 1428.059)" fill="#f38262"/>
          </g>
          <g id="Path_4" data-name="Path 4" transform="translate(63.4 8.574)">
            <path id="Path_136962" data-name="Path 136962" d="M2862.053-1408.591a4.317,4.317,0,0,1-1.469-3.368q0-2.712,3.134-4.142a3.254,3.254,0,0,1-1.974-3.059,2.962,2.962,0,0,1,1.006-2.225,5.652,5.652,0,0,1,2.594-1.336,6.012,6.012,0,0,1-2.98-5.5,6.123,6.123,0,0,1,2.342-5.071q2.343-1.861,6.678-1.861a13.018,13.018,0,0,1,4.1.581,4.547,4.547,0,0,0,1.685-1.763,4.032,4.032,0,0,0,.523-1.763h5.19a5,5,0,0,1-1.142,3.427,5.846,5.846,0,0,1-3.231,1.762,6.141,6.141,0,0,1,1.936,4.685,6.206,6.206,0,0,1-2.265,5.071,9.972,9.972,0,0,1-6.485,1.86h-3.1a1.777,1.777,0,0,0-1.1.31,1.011,1.011,0,0,0-.407.851,1.049,1.049,0,0,0,.348.793,1.3,1.3,0,0,0,.929.329h9.252a5.092,5.092,0,0,1,3.754,1.511,5.337,5.337,0,0,1,1.51,3.948,5.583,5.583,0,0,1-1.007,3.291,6.5,6.5,0,0,1-2.749,2.207,9.331,9.331,0,0,1-3.832.774h-9.64A5.209,5.209,0,0,1,2862.053-1408.591Zm13.162-2.361a2.669,2.669,0,0,0,1.665-.5,1.692,1.692,0,0,0,.3-2.374,1.7,1.7,0,0,0-.246-.258,2.364,2.364,0,0,0-1.49-.465h-7.472a2.19,2.19,0,0,0-1.452.5,1.589,1.589,0,0,0-.6,1.273,1.655,1.655,0,0,0,.58,1.316,2.169,2.169,0,0,0,1.469.5Zm-1.007-14.808a3.607,3.607,0,0,0,0-4.916,4.089,4.089,0,0,0-2.825-.871,4.015,4.015,0,0,0-2.808.871,3.661,3.661,0,0,0,0,4.916,4.016,4.016,0,0,0,2.808.872,4.091,4.091,0,0,0,2.825-.872Z" transform="translate(-2860.582 1438.094)" fill="#f38262"/>
          </g>
          <g id="Path_5" data-name="Path 5" transform="translate(86.835 13.942)">
            <path id="Path_136963" data-name="Path 136963" d="M2938.885-1403.259q-1.8-1.7-1.8-5.458v-11.849h5.3v10.729a3.109,3.109,0,0,0,2.54,3.59,3.113,3.113,0,0,0,.986.01,3.89,3.89,0,0,0,2.96-1.258,4.377,4.377,0,0,0,1.181-3.116v-9.957h5.3v18.548h-4.529l-.392-2.672h-.27a7.744,7.744,0,0,1-6.35,3.134A6.884,6.884,0,0,1,2938.885-1403.259Z" transform="translate(-2937.085 1420.569)" fill="#f38262"/>
          </g>
          <g id="Path_7" data-name="Path 7" transform="translate(24.361)">
            <path id="Path_136964" data-name="Path 136964" d="M2733.14-1462.306l5.207,4.652,2.72,2.43,1.7-1.908,5.377-6.019-3.282-2.93-1.838,2.056-2.311,2.587-2.014-1.8-2.63-2.35Z" transform="translate(-2733.14 1466.082)" fill="#f38262"/>
          </g>
          <g id="Path_11" data-name="Path 11" transform="translate(87.991 3.617)">
            <path id="Path_136965" data-name="Path 136965" d="M2953.223-1454.273l-2.127,2.332-2.354,2.584-1.972-1.8-2.946-2.685-1.679,1.839-1.288,1.413,1.288,1.175,4.2,3.832,2.677,2.441,1.742-1.911,5.706-6.26Z" transform="translate(-2940.857 1454.273)" fill="#f38262"/>
          </g>
        </g>
      </g>
    </g>
    <g id="Group_28010" data-name="Group 28010" transform="translate(2244.093 -1417.443)">
      <g id="Group_28008" data-name="Group 28008" transform="translate(0 0)">
        <g id="Group_28002" data-name="Group 28002">
          <path id="Path_136966" data-name="Path 136966" d="M2273.9-1225.66c2.437-2.426,6.632-.511,9.035,1.949,6.132,6.276,9.559,16,17.9,18.741,1.642.54,3.387.76,4.972,1.449a13.1,13.1,0,0,1,5.97,6.072c2.749,5.133,3.455,11.078,5.19,16.636s5.04,11.232,10.563,13.075c2.673.892,5.645.8,8.183,2.021,5.282,2.543,6.506,9.364,7.221,15.182s2.392,12.674,7.906,14.664c1.488.536,3.116.637,4.559,1.283,3.473,1.556,4.855,5.674,5.832,9.352q5.37,20.234,9.189,40.837a5.535,5.535,0,0,1-.062,3.266c-.584,1.3-2.033,1.931-3.359,2.449l-10.035,3.925c-1.8.706-3.726,1.424-5.632,1.074-2.061-.38-3.68-1.929-5.15-3.423q-9.727-9.879-18.488-20.648c-3.6-4.426-7.238-9.423-7.219-15.128.01-2.988,1.045-5.927.837-8.907-.775-11.093-16.588-14.639-20.919-24.882-2.791-6.6-.138-14.574-3.02-21.136-3.321-7.563-13.394-11.944-13.435-20.2-.014-2.73,1.166-5.334,1.373-8.056.643-8.43-7.608-14.529-11.442-22.064C2272.645-1220.531,2271.993-1223.764,2273.9-1225.66Z" transform="translate(-2272.698 1226.78)" fill="#b4ac15"/>
        </g>
        <g id="Group_28003" data-name="Group 28003" transform="translate(5.805 5.409)">
          <path id="Path_136967" data-name="Path 136967" d="M2376.6-1066.066a.5.5,0,0,1-.5-.431c-1.364-9.273-8.542-16.276-15.485-23.048l-.253-.246c-4.291-4.187-8.545-9.244-7.56-15a18.441,18.441,0,0,1,1.592-4.489,19.734,19.734,0,0,0,1.44-3.844c.411-1.867,1.027-8.5-8.287-15.386-1.247-.922-2.577-1.818-3.863-2.683-4.017-2.7-8.17-5.5-10.716-9.7a33.8,33.8,0,0,1-3.376-9.291c-.849-3.318-1.728-6.748-3.629-9.576a31.239,31.239,0,0,0-5.92-6.019c-2.789-2.369-5.673-4.819-7.174-8.241a24.443,24.443,0,0,1-1.338-4.612c-.123-.56-.25-1.14-.389-1.7-2.836-11.412-11.994-20.57-19.352-27.929a.5.5,0,0,1,0-.713.5.5,0,0,1,.713,0c7.447,7.447,16.714,16.714,19.617,28.4.143.575.271,1.161.4,1.728a23.566,23.566,0,0,0,1.277,4.424c1.407,3.209,4.077,5.477,6.9,7.878a31.974,31.974,0,0,1,6.1,6.224c2,2.972,2.9,6.488,3.769,9.888a33.013,33.013,0,0,0,3.261,9.018c2.431,4.008,6.49,6.741,10.417,9.383,1.3.872,2.634,1.773,3.9,2.709,6.614,4.893,9.856,11.028,8.672,16.413a20.439,20.439,0,0,1-1.508,4.045,17.431,17.431,0,0,0-1.516,4.241c-.907,5.3,3.167,10.108,7.271,14.111l.252.246c6.733,6.568,14.365,14.012,15.778,23.623a.5.5,0,0,1-.426.572A.558.558,0,0,1,2376.6-1066.066Z" transform="translate(-2291.647 1209.122)" fill="#242638"/>
        </g>
        <g id="Group_28004" data-name="Group 28004" transform="translate(21.882 49.017)">
          <path id="Path_136968" data-name="Path 136968" d="M2367.583-1046.448a.5.5,0,0,1-.468-.316c-.592-1.471-1.329-3.3-2.767-4.267a8.784,8.784,0,0,0-3.687-1.09,9.657,9.657,0,0,1-4.1-1.248c-1.626-1.089-2.382-2.893-3.113-4.637-.271-.647-.552-1.317-.869-1.925a11.368,11.368,0,0,0-8.03-5.833.5.5,0,0,1-.413-.581.5.5,0,0,1,.581-.413,12.393,12.393,0,0,1,8.755,6.36c.337.646.626,1.335.906,2,.7,1.681,1.37,3.269,2.744,4.19a8.788,8.788,0,0,0,3.684,1.089,9.655,9.655,0,0,1,4.1,1.251c1.7,1.137,2.5,3.128,3.14,4.727a.5.5,0,0,1-.279.656A.5.5,0,0,1,2367.583-1046.448Z" transform="translate(-2344.131 1066.766)" fill="#242638"/>
        </g>
        <g id="Group_28005" data-name="Group 28005" transform="translate(15.755 29.714)">
          <path id="Path_136969" data-name="Path 136969" d="M2334.642-1123.563a.5.5,0,0,1-.431-.242c-.878-1.441-2.726-2.065-4.593-2.525l-.043-.01c-1.892-.466-4.037-.994-5.336-2.621a.5.5,0,0,1,.08-.708.5.5,0,0,1,.709.079c1.085,1.359,2.968,1.823,4.788,2.272l.042.01c2.076.512,4.145,1.226,5.213,2.979a.5.5,0,0,1-.168.693A.5.5,0,0,1,2334.642-1123.563Z" transform="translate(-2324.13 1129.78)" fill="#242638"/>
        </g>
        <g id="Group_28006" data-name="Group 28006" transform="translate(34.466 33.576)">
          <path id="Path_136970" data-name="Path 136970" d="M2389.445-1098.427l-.047,0a.5.5,0,0,1-.455-.548c.287-3.084-.729-6.015-1.805-9.12a26.056,26.056,0,0,1-1.926-8.573.5.5,0,0,1,.5-.5h0a.5.5,0,0,1,.5.507,25.312,25.312,0,0,0,1.87,8.236c1.064,3.069,2.164,6.242,1.856,9.543A.505.505,0,0,1,2389.445-1098.427Z" transform="translate(-2385.212 1117.171)" fill="#242638"/>
        </g>
        <g id="Group_28007" data-name="Group 28007" transform="translate(34.503 77.248)">
          <path id="Path_136971" data-name="Path 136971" d="M2408.129-969a.5.5,0,0,1-.268-.077,12.224,12.224,0,0,0-9.293-1.482c-.358.089-.723.2-1.077.3a16.662,16.662,0,0,1-1.745.453,9.214,9.214,0,0,1-8.378-2.951c-.609-.685-1.03-.948-1.288-.805a.5.5,0,0,1-.686-.2.5.5,0,0,1,.2-.685c1.089-.6,2.136.574,2.53,1.017a8.19,8.19,0,0,0,7.442,2.63,15.684,15.684,0,0,0,1.64-.428c.365-.109.74-.221,1.121-.316a13.25,13.25,0,0,1,10.073,1.607.5.5,0,0,1,.158.7A.5.5,0,0,1,2408.129-969Z" transform="translate(-2385.332 974.607)" fill="#242638"/>
        </g>
      </g>
      <g id="Group_28009" data-name="Group 28009" transform="translate(57.488 64.101)">
        <path id="Path_136972" data-name="Path 136972" d="M2465.736-995.413a.5.5,0,0,1-.5-.461,29.092,29.092,0,0,0-2.379-8.138c-.281-.7-.572-1.427-.843-2.145-1.174-3.111-2.362-7.175-1.116-11.017a.5.5,0,0,1,.635-.324.5.5,0,0,1,.324.635c-1.149,3.544-.016,7.393,1.1,10.35.268.708.556,1.429.835,2.125a29.855,29.855,0,0,1,2.448,8.427.5.5,0,0,1-.459.546Z" transform="translate(-2460.366 1017.523)" fill="#242638"/>
      </g>
    </g>
    <g id="Group_28020" data-name="Group 28020" transform="translate(2299.381 -1440.508)">
      <g id="Group_28011" data-name="Group 28011" transform="translate(0)">
        <path id="Path_136973" data-name="Path 136973" d="M2454.461-1301.652c1.82-1.333,4.122.7,5.256,2.841,2.894,5.452,3.664,12.92,8.385,16.212.93.648,1.967,1.086,2.841,1.831a9.923,9.923,0,0,1,2.822,5.28c.981,4.094.6,8.435.907,12.668s1.551,8.8,4.676,11c1.512,1.065,3.341,1.477,4.725,2.755,2.881,2.659,2.7,7.708,2.346,11.961s-.263,9.4,2.836,11.7c.836.621,1.817.955,2.611,1.647,1.91,1.666,2.2,4.817,2.291,7.591q.528,15.256.058,30.525a4.558,4.558,0,0,1-.482,2.312,3.279,3.279,0,0,1-2.385,1.2l-6.666,1.176a5.718,5.718,0,0,1-3.588-.143,7.234,7.234,0,0,1-2.681-3.263q-4.6-8.592-8.488-17.663c-1.6-3.727-3.141-7.868-2.353-11.923.412-2.123,1.445-4.047,1.723-6.2,1.036-8.015-8.144-13.083-9.4-21.066-.807-5.144,1.9-10.388,1.031-15.519-1-5.914-6.559-10.652-5.46-16.534.363-1.944,1.438-3.606,1.936-5.509,1.54-5.892-2.672-11.559-3.989-17.536C2453-1298.205,2453.04-1300.61,2454.461-1301.652Z" transform="translate(-2453.185 1302.077)" fill="#847b0b"/>
      </g>
      <g id="Group_28019" data-name="Group 28019" transform="translate(4.146 12.986)">
        <g id="Group_28012" data-name="Group 28012" transform="translate(1.695)">
          <path id="Path_136974" data-name="Path 136974" d="M2498.32-1155.654a.287.287,0,0,1-.286-.275l-.458-11.543c-.1-2.443-.207-5.213-1.3-7.571a19.833,19.833,0,0,0-1.688-2.794c-.391-.573-.794-1.165-1.153-1.775a16.381,16.381,0,0,1-1.5-12.976c.143-.459.308-.918.468-1.362a13.96,13.96,0,0,0,.839-3.013c.447-3.739-2.2-7.129-4.847-9.953l-.1-.106c-2.626-2.8-5.6-5.972-5.794-9.923a15.922,15.922,0,0,1,.256-3.12,17.122,17.122,0,0,0,.259-2.756c-.049-3.046-1.753-5.815-3.4-8.493-1.793-2.913-3.646-5.926-3.418-9.341a16.3,16.3,0,0,1,.393-2.364c.11-.507.224-1.031.3-1.547.735-4.968-1.756-9.783-4.6-14.689a.287.287,0,0,1,.1-.392.287.287,0,0,1,.391.1c2.9,5,5.432,9.909,4.67,15.06-.08.535-.2,1.069-.308,1.585a15.907,15.907,0,0,0-.381,2.28c-.215,3.233,1.51,6.035,3.335,9,1.688,2.744,3.434,5.58,3.486,8.784a17.519,17.519,0,0,1-.266,2.85,15.575,15.575,0,0,0-.251,3.008c.182,3.741,3.082,6.832,5.639,9.559l.1.106c2.738,2.92,5.472,6.44,5,10.413a14.371,14.371,0,0,1-.868,3.139c-.158.438-.321.891-.46,1.338a15.8,15.8,0,0,0,1.451,12.515c.35.594.748,1.178,1.134,1.743a20.367,20.367,0,0,1,1.734,2.876c1.136,2.462,1.248,5.292,1.348,7.789l.458,11.543a.287.287,0,0,1-.275.3Z" transform="translate(-2472.255 1259.686)" fill="#fff"/>
        </g>
        <g id="Group_28013" data-name="Group 28013" transform="translate(18.751 42.198)">
          <path id="Path_136975" data-name="Path 136975" d="M2528.439-1110.2a.29.29,0,0,1-.078-.011.286.286,0,0,1-.2-.354,9.848,9.848,0,0,0-.007-4.048,12.306,12.306,0,0,1-.126-3.73,8.744,8.744,0,0,1,1.538-3.464.287.287,0,0,1,.4-.073.287.287,0,0,1,.073.4,8.173,8.173,0,0,0-1.445,3.235,11.851,11.851,0,0,0,.129,3.556,10.425,10.425,0,0,1-.01,4.282A.287.287,0,0,1,2528.439-1110.2Z" transform="translate(-2527.932 1121.931)" fill="#fff"/>
        </g>
        <g id="Group_28014" data-name="Group 28014" transform="translate(9.908 12.391)">
          <path id="Path_136976" data-name="Path 136976" d="M2500.012-1201a.286.286,0,0,1-.275-.205,16.262,16.262,0,0,1-.19-8.566c.243-.974.581-1.947.908-2.888.74-2.13,1.438-4.141,1.181-6.255a.287.287,0,0,1,.25-.319.282.282,0,0,1,.319.25c.273,2.245-.48,4.415-1.209,6.512-.323.929-.657,1.89-.894,2.839a15.684,15.684,0,0,0,.184,8.264.287.287,0,0,1-.193.356A.282.282,0,0,1,2500.012-1201Z" transform="translate(-2499.064 1219.234)" fill="#fff"/>
        </g>
        <g id="Group_28015" data-name="Group 28015" transform="translate(0 14.987)">
          <path id="Path_136977" data-name="Path 136977" d="M2472.9-1203.32a.285.285,0,0,1-.263-.174,10.167,10.167,0,0,0-2.913-3.427,11.383,11.383,0,0,1-2.977-3.429.286.286,0,0,1,.135-.382.286.286,0,0,1,.382.135,10.961,10.961,0,0,0,2.839,3.247,10.73,10.73,0,0,1,3.062,3.632.287.287,0,0,1-.151.376A.284.284,0,0,1,2472.9-1203.32Z" transform="translate(-2466.721 1210.761)" fill="#fff"/>
        </g>
        <g id="Group_28016" data-name="Group 28016" transform="translate(5.992 46.639)">
          <path id="Path_136978" data-name="Path 136978" d="M2503.226-1090.9h-.033a.418.418,0,0,1-.36-.256.339.339,0,0,1,.072-.349c-1.958-2.535-4.706-4.385-7.366-6.176q-.685-.462-1.365-.925c-3.06-2.1-6.387-4.746-7.87-8.437a.286.286,0,0,1,.159-.372.287.287,0,0,1,.373.159c1.426,3.55,4.674,6.126,7.663,8.178.45.309.905.615,1.361.922,2.739,1.845,5.571,3.752,7.592,6.423a.566.566,0,0,1,.111.644A.379.379,0,0,1,2503.226-1090.9Zm.094-.212h0Zm-.273-.189h0Z" transform="translate(-2486.282 1107.433)" fill="#fff"/>
        </g>
        <g id="Group_28017" data-name="Group 28017" transform="translate(23.208 66.226)">
          <path id="Path_136979" data-name="Path 136979" d="M2542.787-1028.894a.286.286,0,0,1-.286-.267c-.161-2.31.68-4.715,2.649-7.57.446-.647.924-1.289,1.385-1.909a26.592,26.592,0,0,0,3-4.685.285.285,0,0,1,.379-.141.286.286,0,0,1,.142.38A27,27,0,0,1,2547-1038.3c-.459.616-.933,1.253-1.374,1.892-1.89,2.742-2.7,5.031-2.549,7.2a.286.286,0,0,1-.265.306Z" transform="translate(-2542.482 1043.492)" fill="#fff"/>
        </g>
        <g id="Group_28018" data-name="Group 28018" transform="translate(13.422 80.926)">
          <path id="Path_136980" data-name="Path 136980" d="M2524.522-983.231h-.03a.286.286,0,0,1-.255-.315c.092-.88-.542-1.742-1.941-2.634-1.033-.659-2.126-1.28-3.184-1.882a28.912,28.912,0,0,1-7.488-5.385,4.845,4.845,0,0,1-1.074-1.68.287.287,0,0,1,.184-.361.286.286,0,0,1,.361.184,4.316,4.316,0,0,0,.955,1.475,28.479,28.479,0,0,0,7.344,5.27c1.064.6,2.165,1.23,3.209,1.9,1.6,1.021,2.321,2.06,2.2,3.177A.286.286,0,0,1,2524.522-983.231Z" transform="translate(-2510.537 995.505)" fill="#fff"/>
        </g>
      </g>
    </g>
    <g id="Group_28030" data-name="Group 28030" transform="translate(2231.46 -1350.24)">
      <g id="Group_28021" data-name="Group 28021" transform="translate(0 0)">
        <path id="Path_136981" data-name="Path 136981" d="M2231.6-1005.864c.743-2.125,3.789-1.752,5.929-.635,5.463,2.848,10.319,8.555,16.064,8.593,1.131.007,2.231-.219,3.372-.1a9.9,9.9,0,0,1,5.306,2.747c3.122,2.812,5.267,6.6,7.91,9.907s6.252,6.362,10.066,6.4c1.845.021,3.583-.674,5.445-.406,3.873.558,6.58,4.812,8.693,8.512s5.1,7.881,8.95,8.022c1.038.038,2.034-.243,3.079-.122,2.513.29,4.53,2.721,6.177,4.948q9.061,12.25,17.309,25.075a4.55,4.55,0,0,1,.91,2.175,3.27,3.27,0,0,1-1.283,2.337l-4.817,4.737a5.712,5.712,0,0,1-3.032,1.911,7.227,7.227,0,0,1-4.051-1.168q-8.641-4.467-16.969-9.729c-3.421-2.162-7.032-4.7-8.677-8.476-.861-1.98-1.1-4.146-2.089-6.075-3.68-7.178-14.1-6.156-19.641-12.014-3.573-3.775-4.312-9.618-7.927-13.348-4.167-4.3-11.418-5.053-13.84-10.512-.8-1.8-.856-3.779-1.523-5.625-2.064-5.718-8.733-8-13.2-12.168C2232.345-1002.2,2231.02-1004.2,2231.6-1005.864Z" transform="translate(-2231.461 1007.399)" fill="#d1c63b"/>
      </g>
      <g id="Group_28029" data-name="Group 28029" transform="translate(11.162 9.125)">
        <g id="Group_28022" data-name="Group 28022">
          <path id="Path_136982" data-name="Path 136982" d="M2347.836-906.623a.232.232,0,0,1-.187-.093l-6.9-9.235c-1.464-1.959-3.124-4.179-5.362-5.509a19.857,19.857,0,0,0-2.976-1.347c-.644-.25-1.31-.509-1.949-.807a16.3,16.3,0,0,1-8.547-9.79c-.142-.458-.266-.928-.385-1.384a13.929,13.929,0,0,0-1.018-2.963c-1.757-3.347-5.864-4.645-9.65-5.473l-.141-.031c-3.734-.816-7.965-1.741-10.346-4.867a15.887,15.887,0,0,1-1.548-2.7,17.085,17.085,0,0,0-1.35-2.421c-1.771-2.49-4.745-3.807-7.621-5.081-3.114-1.379-6.334-2.805-8.069-5.729a16.258,16.258,0,0,1-1.01-2.16c-.2-.48-.4-.976-.629-1.445-2.212-4.518-6.992-7.075-12.114-9.506a.233.233,0,0,1-.111-.311.233.233,0,0,1,.311-.111c5.2,2.468,10.054,5.069,12.333,9.722.237.483.442.987.642,1.474a15.852,15.852,0,0,0,.98,2.1c1.659,2.8,4.669,4.129,7.857,5.54,2.934,1.3,5.967,2.643,7.813,5.237a17.434,17.434,0,0,1,1.389,2.487,15.583,15.583,0,0,0,1.5,2.624c2.277,2.989,6.419,3.895,10.074,4.694l.142.031c3.891.851,8.117,2.194,9.963,5.712a14.311,14.311,0,0,1,1.056,3.062c.119.45.241.916.379,1.364a15.822,15.822,0,0,0,8.3,9.506c.625.292,1.283.547,1.92.795a20.186,20.186,0,0,1,3.045,1.381c2.317,1.378,4.007,3.637,5.5,5.631l6.9,9.235a.234.234,0,0,1-.047.327A.233.233,0,0,1,2347.836-906.623Z" transform="translate(-2267.897 977.61)" fill="#242638"/>
        </g>
        <g id="Group_28023" data-name="Group 28023" transform="translate(39.195 24.168)">
          <path id="Path_136983" data-name="Path 136983" d="M2401.267-888.3a.234.234,0,0,1-.221-.159,9.866,9.866,0,0,0-2.305-3.344,12.244,12.244,0,0,1-2.2-2.984,8.661,8.661,0,0,1-.688-3.7.233.233,0,0,1,.233-.233h0a.233.233,0,0,1,.233.234,8.217,8.217,0,0,0,.645,3.5,11.9,11.9,0,0,0,2.125,2.865,10.364,10.364,0,0,1,2.4,3.509.233.233,0,0,1-.147.3A.236.236,0,0,1,2401.267-888.3Z" transform="translate(-2395.849 898.715)" fill="#242638"/>
        </g>
        <g id="Group_28024" data-name="Group 28024" transform="translate(15.876 4.095)">
          <path id="Path_136984" data-name="Path 136984" d="M2328.376-948.168a.233.233,0,0,1-.147-.052,16.178,16.178,0,0,1-4.984-6.916c-.35-.937-.622-1.927-.885-2.886-.6-2.176-1.161-4.231-2.576-5.833a.233.233,0,0,1,.021-.329.233.233,0,0,1,.33.021c1.486,1.683,2.091,3.887,2.676,6.018.26.948.53,1.929.873,2.846a15.7,15.7,0,0,0,4.84,6.716.233.233,0,0,1,.035.328A.232.232,0,0,1,2328.376-948.168Z" transform="translate(-2319.725 964.242)" fill="#242638"/>
        </g>
        <g id="Group_28025" data-name="Group 28025" transform="translate(7.08 13.286)">
          <path id="Path_136985" data-name="Path 136985" d="M2299.976-931.457a.232.232,0,0,1-.125-.036,10.168,10.168,0,0,0-4.356-1.179,11.332,11.332,0,0,1-4.368-1.13.233.233,0,0,1-.086-.319.233.233,0,0,1,.319-.086,10.981,10.981,0,0,0,4.191,1.071,10.675,10.675,0,0,1,4.55,1.249.233.233,0,0,1,.072.322A.233.233,0,0,1,2299.976-931.457Z" transform="translate(-2291.01 934.239)" fill="#242638"/>
        </g>
        <g id="Group_28026" data-name="Group 28026" transform="translate(29.907 35.932)">
          <path id="Path_136986" data-name="Path 136986" d="M2388.4-856.1a.326.326,0,0,1-.188-.057.287.287,0,0,1-.115-.292c0-.01,0-.019.007-.028-3.064-1-6.393-.963-9.613-.933-.565.005-1.129.012-1.69.011-3.686,0-7.888-.3-11.17-2.481a.234.234,0,0,1-.065-.323.233.233,0,0,1,.323-.065c3.179,2.112,7.3,2.4,10.912,2.4.57,0,1.122-.006,1.686-.011,3.292-.031,6.7-.064,9.859.987.26.086.4.228.419.422a.328.328,0,0,1-.169.314A.394.394,0,0,1,2388.4-856.1Zm.156-.263h0Z" transform="translate(-2365.529 860.311)" fill="#242638"/>
        </g>
        <g id="Group_28027" data-name="Group 28027" transform="translate(60.926 38.333)">
          <path id="Path_136987" data-name="Path 136987" d="M2469.185-836.506a.232.232,0,0,1-.182-.088c-1.431-1.8-2.1-4.243-2.091-7.691,0-.784.031-1.581.061-2.352a26.584,26.584,0,0,0-.18-5.562.233.233,0,0,1,.189-.27.233.233,0,0,1,.27.189,26.878,26.878,0,0,1,.186,5.66c-.029.767-.059,1.56-.059,2.335-.005,3.337.627,5.688,1.989,7.4a.233.233,0,0,1-.037.328A.233.233,0,0,1,2469.185-836.506Z" transform="translate(-2466.788 852.472)" fill="#242638"/>
        </g>
        <g id="Group_28028" data-name="Group 28028" transform="translate(55.407 59.933)">
          <path id="Path_136988" data-name="Path 136988" d="M2466.888-779.616a.234.234,0,0,1-.206-.122c-.431-.8-1.456-1.155-3.134-1.1-1.223.042-2.475.149-3.686.253a28.817,28.817,0,0,1-9.187-.195,4.764,4.764,0,0,1-1.813-.766.233.233,0,0,1-.043-.327.234.234,0,0,1,.327-.043,4.352,4.352,0,0,0,1.639.682,28.443,28.443,0,0,0,9.038.183c1.217-.1,2.475-.211,3.709-.254,1.874-.064,3.036.374,3.561,1.341a.233.233,0,0,1-.094.316A.229.229,0,0,1,2466.888-779.616Z" transform="translate(-2448.771 781.961)" fill="#242638"/>
        </g>
      </g>
    </g>
    <g id="Group_28039" data-name="Group 28039" transform="translate(2492.895 -1422.582)">
      <g id="Group_28037" data-name="Group 28037" transform="translate(0)">
        <g id="Group_28031" data-name="Group 28031">
          <path id="Path_136989" data-name="Path 136989" d="M3181.641-1242.436c-2.437-2.426-6.631-.511-9.034,1.949-6.133,6.277-9.559,16-17.9,18.742-1.642.54-3.387.76-4.972,1.449a13.1,13.1,0,0,0-5.971,6.072c-2.749,5.133-3.455,11.077-5.19,16.635s-5.04,11.232-10.563,13.075c-2.672.892-5.645.8-8.183,2.021-5.282,2.543-6.506,9.364-7.221,15.182s-2.393,12.674-7.906,14.663c-1.487.537-3.116.637-4.559,1.284-3.473,1.556-4.856,5.673-5.832,9.352q-5.37,20.234-9.189,40.836a5.536,5.536,0,0,0,.063,3.266c.583,1.3,2.033,1.93,3.359,2.449l10.035,3.925c1.8.706,3.726,1.424,5.632,1.073,2.061-.38,3.68-1.929,5.15-3.422q9.726-9.879,18.488-20.648c3.6-4.426,7.238-9.423,7.22-15.128-.01-2.988-1.045-5.927-.837-8.907.775-11.093,16.588-14.639,20.919-24.882,2.791-6.6.138-14.574,3.019-21.136,3.321-7.563,13.394-11.944,13.435-20.2.013-2.729-1.165-5.334-1.373-8.056-.644-8.43,7.608-14.529,11.442-22.065C3182.894-1237.306,3183.546-1240.54,3181.641-1242.436Z" transform="translate(-3084.907 1243.556)" fill="#b4ac15"/>
        </g>
        <g id="Group_28032" data-name="Group 28032" transform="translate(6.67 5.409)">
          <path id="Path_136990" data-name="Path 136990" d="M3107.186-1082.841a.464.464,0,0,1-.074-.005.5.5,0,0,1-.426-.572c1.413-9.611,9.045-17.054,15.778-23.623l.252-.246c4.1-4,8.178-8.812,7.271-14.112a17.49,17.49,0,0,0-1.516-4.24,20.472,20.472,0,0,1-1.508-4.045c-1.184-5.385,2.058-11.521,8.672-16.413,1.266-.936,2.6-1.837,3.9-2.709,3.926-2.642,7.986-5.375,10.416-9.383a33.032,33.032,0,0,0,3.262-9.019c.871-3.4,1.772-6.917,3.769-9.888a31.972,31.972,0,0,1,6.1-6.225c2.826-2.4,5.5-4.669,6.9-7.878a23.629,23.629,0,0,0,1.276-4.422c.125-.568.254-1.154.4-1.73,2.9-11.684,12.17-20.952,19.617-28.4a.5.5,0,0,1,.712,0,.5.5,0,0,1,0,.713c-7.358,7.359-16.516,16.517-19.352,27.929-.139.562-.267,1.142-.39,1.7a24.358,24.358,0,0,1-1.338,4.611c-1.5,3.422-4.385,5.872-7.174,8.241a31.26,31.26,0,0,0-5.92,6.019c-1.9,2.827-2.779,6.258-3.628,9.576a33.814,33.814,0,0,1-3.376,9.291c-2.546,4.2-6.7,6.993-10.716,9.7-1.286.866-2.616,1.76-3.863,2.683-9.313,6.89-8.7,13.519-8.287,15.386a19.706,19.706,0,0,0,1.441,3.844,18.475,18.475,0,0,1,1.592,4.489c.985,5.759-3.269,10.816-7.561,15l-.252.246c-6.942,6.772-14.121,13.774-15.485,23.048A.5.5,0,0,1,3107.186-1082.841Z" transform="translate(-3106.681 1225.898)" fill="#242638"/>
        </g>
        <g id="Group_28033" data-name="Group 28033" transform="translate(52.096 49.017)">
          <path id="Path_136991" data-name="Path 136991" d="M3255.477-1063.222a.506.506,0,0,1-.188-.037.5.5,0,0,1-.279-.656c.644-1.6,1.445-3.59,3.141-4.727a9.654,9.654,0,0,1,4.1-1.25,8.8,8.8,0,0,0,3.685-1.089c1.374-.92,2.04-2.508,2.744-4.19.279-.667.569-1.356.906-2a12.4,12.4,0,0,1,8.756-6.36.506.506,0,0,1,.581.413.5.5,0,0,1-.413.581,11.368,11.368,0,0,0-8.03,5.833c-.318.608-.6,1.277-.87,1.925-.731,1.745-1.488,3.549-3.113,4.638a9.672,9.672,0,0,1-4.1,1.248,8.779,8.779,0,0,0-3.687,1.091c-1.33.892-2.04,2.46-2.768,4.266A.5.5,0,0,1,3255.477-1063.222Z" transform="translate(-3254.973 1083.54)" fill="#242638"/>
        </g>
        <g id="Group_28034" data-name="Group 28034" transform="translate(71.163 29.714)">
          <path id="Path_136992" data-name="Path 136992" d="M3317.721-1140.338a.5.5,0,0,1-.261-.074.5.5,0,0,1-.168-.693c1.068-1.753,3.136-2.468,5.213-2.979l.042-.01c1.821-.448,3.7-.912,4.789-2.272a.5.5,0,0,1,.708-.079.5.5,0,0,1,.079.709c-1.3,1.627-3.444,2.155-5.336,2.621l-.042.01c-1.867.46-3.715,1.084-4.593,2.525A.5.5,0,0,1,3317.721-1140.338Z" transform="translate(-3317.217 1146.556)" fill="#242638"/>
        </g>
        <g id="Group_28035" data-name="Group 28035" transform="translate(58.681 33.576)">
          <path id="Path_136993" data-name="Path 136993" d="M3277.022-1115.2a.5.5,0,0,1-.5-.457c-.308-3.3.793-6.474,1.856-9.543a25.309,25.309,0,0,0,1.87-8.237.5.5,0,0,1,.5-.507h0a.5.5,0,0,1,.5.5,26.058,26.058,0,0,1-1.926,8.573c-1.076,3.1-2.092,6.036-1.8,9.12a.5.5,0,0,1-.455.549Z" transform="translate(-3276.469 1133.947)" fill="#242638"/>
        </g>
        <g id="Group_28036" data-name="Group 28036" transform="translate(40.128 77.248)">
          <path id="Path_136994" data-name="Path 136994" d="M3216.411-985.773a.5.5,0,0,1-.428-.236.5.5,0,0,1,.159-.695,13.247,13.247,0,0,1,10.073-1.607c.38.095.756.207,1.12.316a15.684,15.684,0,0,0,1.641.428,8.192,8.192,0,0,0,7.442-2.629c.394-.443,1.442-1.621,2.53-1.017a.5.5,0,0,1,.2.685.5.5,0,0,1-.685.2c-.258-.143-.679.12-1.288.805a9.217,9.217,0,0,1-8.378,2.951,16.754,16.754,0,0,1-1.747-.454c-.353-.105-.718-.214-1.076-.3a12.221,12.221,0,0,0-9.292,1.482A.5.5,0,0,1,3216.411-985.773Z" transform="translate(-3215.906 991.382)" fill="#242638"/>
        </g>
      </g>
      <g id="Group_28038" data-name="Group 28038" transform="translate(34.571 64.101)">
        <path id="Path_136995" data-name="Path 136995" d="M3198.27-1012.189l-.044,0a.5.5,0,0,1-.459-.546,29.825,29.825,0,0,1,2.448-8.427c.279-.7.567-1.417.835-2.125,1.116-2.957,2.25-6.806,1.1-10.351a.5.5,0,0,1,.324-.635.5.5,0,0,1,.635.324c1.245,3.842.057,7.906-1.117,11.017-.27.718-.562,1.443-.842,2.144a29.094,29.094,0,0,0-2.379,8.138A.5.5,0,0,1,3198.27-1012.189Z" transform="translate(-3197.765 1034.298)" fill="#242638"/>
      </g>
    </g>
    <g id="Group_28049" data-name="Group 28049" transform="translate(2494.289 -1445.647)">
      <g id="Group_28040" data-name="Group 28040">
        <path id="Path_136996" data-name="Path 136996" d="M3129.434-1318.427c-1.819-1.333-4.122.7-5.256,2.841-2.893,5.452-3.663,12.92-8.385,16.212-.93.648-1.966,1.085-2.841,1.831a9.921,9.921,0,0,0-2.822,5.28c-.981,4.094-.6,8.435-.907,12.668s-1.551,8.8-4.676,11c-1.511,1.065-3.341,1.477-4.725,2.755-2.882,2.659-2.7,7.708-2.346,11.961s.263,9.4-2.836,11.7c-.836.621-1.818.954-2.611,1.647-1.91,1.666-2.2,4.817-2.291,7.591q-.528,15.256-.058,30.525a4.566,4.566,0,0,0,.482,2.313,3.279,3.279,0,0,0,2.386,1.2l6.666,1.176a5.722,5.722,0,0,0,3.588-.143,7.244,7.244,0,0,0,2.681-3.264q4.6-8.592,8.487-17.663c1.6-3.727,3.141-7.868,2.353-11.922-.413-2.124-1.445-4.047-1.723-6.2-1.036-8.015,8.144-13.083,9.4-21.066.807-5.145-1.9-10.388-1.031-15.519,1-5.914,6.559-10.652,5.46-16.534-.363-1.944-1.438-3.606-1.935-5.508-1.54-5.892,2.671-11.559,3.989-17.536C3130.9-1314.981,3130.856-1317.385,3129.434-1318.427Z" transform="translate(-3089.459 1318.852)" fill="#847b0b"/>
      </g>
      <g id="Group_28048" data-name="Group 28048" transform="translate(6.294 12.986)">
        <g id="Group_28041" data-name="Group 28041" transform="translate(2.764)">
          <path id="Path_136997" data-name="Path 136997" d="M3119.313-1172.429h-.011a.287.287,0,0,1-.275-.3l.458-11.543c.1-2.5.212-5.327,1.348-7.789a20.372,20.372,0,0,1,1.735-2.876c.385-.565.784-1.149,1.133-1.743a15.8,15.8,0,0,0,1.451-12.516c-.139-.447-.3-.9-.46-1.338a14.343,14.343,0,0,1-.868-3.139c-.475-3.972,2.26-7.493,5-10.412l.1-.105c2.558-2.728,5.457-5.819,5.639-9.56a15.53,15.53,0,0,0-.25-3.007,17.5,17.5,0,0,1-.265-2.85c.052-3.2,1.8-6.041,3.486-8.784,1.826-2.967,3.551-5.77,3.335-9a15.846,15.846,0,0,0-.382-2.28c-.112-.516-.228-1.05-.307-1.585-.762-5.151,1.774-10.063,4.67-15.06a.287.287,0,0,1,.391-.1.286.286,0,0,1,.1.391c-2.844,4.906-5.335,9.721-4.6,14.689.076.516.19,1.04.3,1.547a16.283,16.283,0,0,1,.393,2.364c.228,3.415-1.626,6.428-3.418,9.341-1.647,2.678-3.351,5.447-3.4,8.493a17,17,0,0,0,.26,2.756,15.982,15.982,0,0,1,.256,3.12c-.192,3.951-3.168,7.124-5.794,9.924l-.1.105c-2.647,2.824-5.293,6.214-4.846,9.953a13.923,13.923,0,0,0,.838,3.013c.16.444.325.9.468,1.363a16.379,16.379,0,0,1-1.5,12.976c-.359.61-.763,1.2-1.153,1.775a19.835,19.835,0,0,0-1.688,2.794c-1.088,2.359-1.2,5.128-1.3,7.572l-.459,11.543A.286.286,0,0,1,3119.313-1172.429Z" transform="translate(-3119.027 1276.461)" fill="#fff"/>
        </g>
        <g id="Group_28042" data-name="Group 28042" transform="translate(9.901 42.198)">
          <path id="Path_136998" data-name="Path 136998" d="M3143.979-1126.975a.287.287,0,0,1-.276-.208,10.422,10.422,0,0,1-.01-4.282,11.865,11.865,0,0,0,.129-3.556,8.178,8.178,0,0,0-1.445-3.235.287.287,0,0,1,.073-.4.287.287,0,0,1,.4.073,8.733,8.733,0,0,1,1.539,3.464,12.3,12.3,0,0,1-.125,3.73,9.844,9.844,0,0,0-.007,4.048.286.286,0,0,1-.2.354A.275.275,0,0,1,3143.979-1126.975Z" transform="translate(-3142.326 1138.706)" fill="#fff"/>
        </g>
        <g id="Group_28043" data-name="Group 28043" transform="translate(17.705 12.391)">
          <path id="Path_136999" data-name="Path 136999" d="M3170.052-1217.774a.292.292,0,0,1-.081-.012.286.286,0,0,1-.193-.356,15.693,15.693,0,0,0,.184-8.265c-.237-.949-.571-1.91-.894-2.839-.729-2.1-1.482-4.267-1.209-6.512a.282.282,0,0,1,.319-.25.287.287,0,0,1,.25.319c-.258,2.113.441,4.125,1.181,6.255.327.941.665,1.915.908,2.888a16.264,16.264,0,0,1-.191,8.567A.286.286,0,0,1,3170.052-1217.774Z" transform="translate(-3167.802 1236.009)" fill="#fff"/>
        </g>
        <g id="Group_28044" data-name="Group 28044" transform="translate(24.343 14.987)">
          <path id="Path_137000" data-name="Path 137000" d="M3189.756-1220.1a.29.29,0,0,1-.112-.023.287.287,0,0,1-.152-.376,10.724,10.724,0,0,1,3.062-3.632,10.978,10.978,0,0,0,2.84-3.247.286.286,0,0,1,.382-.134.287.287,0,0,1,.135.382,11.4,11.4,0,0,1-2.978,3.429,10.149,10.149,0,0,0-2.913,3.427A.286.286,0,0,1,3189.756-1220.1Z" transform="translate(-3189.47 1227.536)" fill="#fff"/>
        </g>
        <g id="Group_28045" data-name="Group 28045" transform="translate(7.482 46.639)">
          <path id="Path_137001" data-name="Path 137001" d="M3134.822-1107.67a.377.377,0,0,1-.335-.192.565.565,0,0,1,.11-.643c2.021-2.671,4.853-4.578,7.592-6.422.455-.307.91-.613,1.36-.922,2.99-2.052,6.237-4.628,7.663-8.178a.287.287,0,0,1,.372-.159.287.287,0,0,1,.159.373c-1.483,3.691-4.811,6.336-7.87,8.437-.452.31-.908.617-1.365.925-2.66,1.791-5.409,3.642-7.366,6.176a.338.338,0,0,1,.072.349.418.418,0,0,1-.361.255Zm-.094-.212h0Z" transform="translate(-3134.428 1124.208)" fill="#fff"/>
        </g>
        <g id="Group_28046" data-name="Group 28046" transform="translate(0 66.226)">
          <path id="Path_137002" data-name="Path 137002" d="M3117.3-1045.669h-.02a.287.287,0,0,1-.266-.306c.152-2.173-.658-4.463-2.549-7.2-.441-.639-.915-1.276-1.373-1.892a26.956,26.956,0,0,1-3.064-4.788.286.286,0,0,1,.141-.38.287.287,0,0,1,.38.141,26.561,26.561,0,0,0,3,4.685c.462.62.939,1.262,1.385,1.909,1.969,2.854,2.811,5.26,2.649,7.57A.287.287,0,0,1,3117.3-1045.669Z" transform="translate(-3110.004 1060.266)" fill="#fff"/>
        </g>
        <g id="Group_28047" data-name="Group 28047" transform="translate(3.107 80.926)">
          <path id="Path_137003" data-name="Path 137003" d="M3120.444-1000.005a.286.286,0,0,1-.284-.256c-.118-1.118.6-2.157,2.2-3.178,1.045-.666,2.145-1.292,3.209-1.9a28.467,28.467,0,0,0,7.344-5.27,4.3,4.3,0,0,0,.955-1.474.287.287,0,0,1,.361-.184.287.287,0,0,1,.184.361,4.835,4.835,0,0,1-1.074,1.68,28.907,28.907,0,0,1-7.488,5.385c-1.058.6-2.152,1.223-3.184,1.882-1.4.893-2.034,1.754-1.941,2.634a.286.286,0,0,1-.254.315Z" transform="translate(-3120.147 1012.279)" fill="#fff"/>
        </g>
      </g>
    </g>
    <g id="Group_28059" data-name="Group 28059" transform="translate(2504.109 -1355.379)">
      <g id="Group_28050" data-name="Group 28050" transform="translate(0 0)">
        <path id="Path_137004" data-name="Path 137004" d="M3220.729-1022.639c-.743-2.125-3.789-1.751-5.93-.635-5.462,2.848-10.319,8.555-16.063,8.593-1.131.008-2.231-.219-3.372-.1a9.9,9.9,0,0,0-5.307,2.747c-3.122,2.812-5.267,6.6-7.91,9.907s-6.252,6.361-10.066,6.4c-1.845.021-3.583-.674-5.445-.406-3.873.558-6.58,4.813-8.693,8.512s-5.1,7.88-8.95,8.022c-1.038.038-2.034-.242-3.079-.122-2.513.291-4.529,2.721-6.177,4.948q-9.06,12.25-17.308,25.075a4.552,4.552,0,0,0-.911,2.175,3.274,3.274,0,0,0,1.283,2.337l4.818,4.737a5.709,5.709,0,0,0,3.032,1.911,7.224,7.224,0,0,0,4.05-1.168q8.642-4.467,16.969-9.729c3.422-2.162,7.032-4.7,8.677-8.476.861-1.98,1.1-4.146,2.089-6.075,3.68-7.178,14.1-6.156,19.641-12.014,3.573-3.775,4.312-9.618,7.927-13.349,4.167-4.3,11.418-5.053,13.841-10.512.8-1.8.856-3.779,1.523-5.625,2.065-5.718,8.733-8,13.2-12.168C3219.984-1018.976,3221.309-1020.978,3220.729-1022.639Z" transform="translate(-3121.517 1024.174)" fill="#d1c63b"/>
      </g>
      <g id="Group_28058" data-name="Group 28058" transform="translate(8.017 9.125)">
        <g id="Group_28051" data-name="Group 28051">
          <path id="Path_137005" data-name="Path 137005" d="M3147.922-923.4a.23.23,0,0,1-.139-.047.233.233,0,0,1-.048-.326l6.9-9.236c1.491-1.994,3.18-4.253,5.5-5.631a20.208,20.208,0,0,1,3.046-1.382c.636-.247,1.3-.5,1.92-.794a15.825,15.825,0,0,0,8.3-9.506c.139-.448.26-.913.379-1.363a14.291,14.291,0,0,1,1.056-3.062c1.845-3.517,6.072-4.861,9.963-5.712l.142-.031c3.655-.8,7.8-1.7,10.074-4.693a15.6,15.6,0,0,0,1.5-2.624,17.473,17.473,0,0,1,1.388-2.487c1.846-2.594,4.879-3.937,7.813-5.237,3.188-1.412,6.2-2.745,7.857-5.54a15.788,15.788,0,0,0,.979-2.1c.2-.487.405-.991.642-1.474,2.278-4.652,7.134-7.253,12.332-9.722a.234.234,0,0,1,.312.111.234.234,0,0,1-.111.311c-5.122,2.432-9.9,4.989-12.114,9.506-.23.469-.433.966-.629,1.446a16.2,16.2,0,0,1-1.01,2.16c-1.735,2.924-4.956,4.35-8.07,5.729-2.876,1.274-5.85,2.591-7.621,5.08a17.09,17.09,0,0,0-1.35,2.421,15.829,15.829,0,0,1-1.548,2.7c-2.38,3.126-6.612,4.051-10.345,4.867l-.142.031c-3.786.828-7.893,2.125-9.649,5.473a13.912,13.912,0,0,0-1.018,2.963c-.119.455-.242.926-.385,1.383a16.3,16.3,0,0,1-8.547,9.791c-.639.3-1.3.556-1.948.806a19.817,19.817,0,0,0-2.976,1.348c-2.238,1.33-3.9,3.55-5.362,5.509l-6.9,9.235A.234.234,0,0,1,3147.922-923.4Z" transform="translate(-3147.689 994.386)" fill="#242638"/>
        </g>
        <g id="Group_28052" data-name="Group 28052" transform="translate(35.326 24.168)">
          <path id="Path_137006" data-name="Path 137006" d="M3263.242-905.073a.233.233,0,0,1-.075-.012.233.233,0,0,1-.146-.3,10.351,10.351,0,0,1,2.4-3.509,11.91,11.91,0,0,0,2.125-2.865,8.23,8.23,0,0,0,.645-3.5.233.233,0,0,1,.232-.234h0a.234.234,0,0,1,.234.233,8.665,8.665,0,0,1-.688,3.7,12.259,12.259,0,0,1-2.2,2.984,9.872,9.872,0,0,0-2.306,3.344A.233.233,0,0,1,3263.242-905.073Z" transform="translate(-3263.009 915.49)" fill="#242638"/>
        </g>
        <g id="Group_28053" data-name="Group 28053" transform="translate(55.412 4.095)">
          <path id="Path_137007" data-name="Path 137007" d="M3328.815-964.943a.231.231,0,0,1-.181-.087.234.234,0,0,1,.034-.328,15.706,15.706,0,0,0,4.841-6.716c.343-.917.612-1.9.872-2.845.585-2.132,1.19-4.336,2.677-6.019a.234.234,0,0,1,.329-.02.233.233,0,0,1,.021.329c-1.415,1.6-1.979,3.657-2.576,5.834-.263.958-.535,1.948-.885,2.885a16.181,16.181,0,0,1-4.985,6.916A.23.23,0,0,1,3328.815-964.943Z" transform="translate(-3328.582 981.017)" fill="#242638"/>
        </g>
        <g id="Group_28054" data-name="Group 28054" transform="translate(63.893 13.286)">
          <path id="Path_137008" data-name="Path 137008" d="M3356.5-948.232a.232.232,0,0,1-.2-.108.233.233,0,0,1,.072-.322,10.673,10.673,0,0,1,4.551-1.249,10.99,10.99,0,0,0,4.191-1.071.233.233,0,0,1,.318.086.233.233,0,0,1-.086.318,11.332,11.332,0,0,1-4.368,1.13,10.168,10.168,0,0,0-4.356,1.179A.233.233,0,0,1,3356.5-948.232Z" transform="translate(-3356.266 951.013)" fill="#242638"/>
        </g>
        <g id="Group_28055" data-name="Group 28055" transform="translate(27.026 35.932)">
          <path id="Path_137009" data-name="Path 137009" d="M3236.281-872.879a.391.391,0,0,1-.2-.053.327.327,0,0,1-.17-.315c.018-.193.159-.335.419-.422,3.164-1.051,6.57-1.018,9.86-.987.563.006,1.12.014,1.686.011,3.616,0,7.732-.29,10.911-2.4a.233.233,0,0,1,.323.065.233.233,0,0,1-.065.324c-3.282,2.181-7.485,2.481-11.17,2.481-.56,0-1.125-.005-1.69-.011-3.219-.031-6.55-.063-9.614.933a.2.2,0,0,1,.008.028.287.287,0,0,1-.114.292A.324.324,0,0,1,3236.281-872.879Zm-.156-.262h0Z" transform="translate(-3235.915 877.086)" fill="#242638"/>
        </g>
        <g id="Group_28056" data-name="Group 28056" transform="translate(16.617 38.333)">
          <path id="Path_137010" data-name="Path 137010" d="M3202.169-853.282a.231.231,0,0,1-.145-.051.233.233,0,0,1-.037-.328c1.362-1.712,1.993-4.064,1.989-7.4,0-.776-.031-1.569-.06-2.335a26.93,26.93,0,0,1,.187-5.66.232.232,0,0,1,.27-.189.234.234,0,0,1,.189.27,26.547,26.547,0,0,0-.18,5.562c.03.771.059,1.568.06,2.353.005,3.448-.659,5.892-2.09,7.691A.232.232,0,0,1,3202.169-853.282Z" transform="translate(-3201.936 869.249)" fill="#242638"/>
        </g>
        <g id="Group_28057" data-name="Group 28057" transform="translate(6.416 59.933)">
          <path id="Path_137011" data-name="Path 137011" d="M3168.868-796.391a.23.23,0,0,1-.111-.028.233.233,0,0,1-.094-.316c.524-.966,1.692-1.4,3.561-1.341,1.234.042,2.493.15,3.709.254a28.446,28.446,0,0,0,9.038-.183,4.359,4.359,0,0,0,1.639-.682.233.233,0,0,1,.327.043.234.234,0,0,1-.043.327,4.768,4.768,0,0,1-1.813.766,28.792,28.792,0,0,1-9.187.195c-1.21-.1-2.463-.211-3.686-.253-1.676-.057-2.7.3-3.134,1.1A.233.233,0,0,1,3168.868-796.391Z" transform="translate(-3168.635 798.736)" fill="#242638"/>
        </g>
      </g>
    </g>
    <g id="Group_28094" data-name="Group 28094" transform="translate(2411.624 -1442.402)">
      <g id="Group_28060" data-name="Group 28060" transform="translate(0 100.927)">
        <path id="Path_137012" data-name="Path 137012" d="M2830.474-978.787s-5.889,48.7-6.8,53-4.077,21.065-4.077,21.065l21.744.227,4.531-39.638,1.585-19.932Z" transform="translate(-2819.601 978.787)" fill="#fca19f"/>
      </g>
      <g id="Group_28061" data-name="Group 28061" transform="translate(3.171 64.233)">
        <path id="Path_137013" data-name="Path 137013" d="M2900.169-1097.666s33.239,7.361,37.316,15.516S2950-1037.417,2950-1037.417l-25.821,3.624-.906,46.66s-38.958,8.154-74.746-.453l1.812-49.378h-20.385s6.116-43.658,19.875-54.191c7.339-5.618,34.485-7.418,34.485-7.418Z" transform="translate(-2829.953 1098.572)" fill="#8fd89f"/>
      </g>
      <g id="Group_28062" data-name="Group 28062" transform="translate(32.817 109.006)">
        <path id="Path_137014" data-name="Path 137014" d="M2963.027-925.171l-8.57-6.947s-.05-7.008-1.179-11.123-1.2-8.889-2.574-9.154-2.7,2.321-2.391,6.717-1.243,3.926-1.243,3.926-10.33-7.965-13.347-7.119-1.347,3.858-1.347,3.858a4.8,4.8,0,0,0-3.3-.251c-1.645.561.3,4.12.3,4.12s-1.647.287-2.454,2.766,1.135,4.939,1.135,4.939-1.643.837.028,3.848,20.468,8.861,20.468,8.861l11.44,5.243S2963.877-921.6,2963.027-925.171Z" transform="translate(-2926.73 952.414)" fill="#fca19f"/>
      </g>
      <g id="Group_28063" data-name="Group 28063" transform="translate(52.548 125.615)">
        <path id="Path_137015" data-name="Path 137015" d="M2991.144-885.054s52.786,39,64.327,29.9,4.077-43.035,4.077-43.035l-23.782,3.4.227,12.91L2996.58-894.34Z" transform="translate(-2991.144 898.191)" fill="#fca19f"/>
      </g>
      <g id="Group_28064" data-name="Group 28064" transform="translate(97.094 141.622)">
        <path id="Path_137016" data-name="Path 137016" d="M3152.041-841.258a.3.3,0,0,1-.079-.011l-15.176-4.077a.3.3,0,0,1-.213-.369.3.3,0,0,1,.37-.213l15.176,4.077a.3.3,0,0,1,.213.369A.3.3,0,0,1,3152.041-841.258Z" transform="translate(-3136.563 845.938)" fill="#f97070"/>
      </g>
      <g id="Group_28093" data-name="Group 28093" transform="translate(37.218)">
        <g id="Group_28065" data-name="Group 28065" transform="translate(11.452 43.262)">
          <path id="Path_137017" data-name="Path 137017" d="M3004.057-1167.033l.678,24.392s-4.686,10.552-17.751,6.4-7.173-8.457-7.173-8.457l.506-1.456,2.421-16.043Z" transform="translate(-2978.486 1167.033)" fill="#fca19f"/>
        </g>
        <g id="Group_28066" data-name="Group 28066" transform="translate(13.828 43.992)">
          <path id="Path_137018" data-name="Path 137018" d="M3009.554-1161.159l-.1-3.491-6.441.726-6.28,1.424-9.233,5.639-1.261,7.561C2990.474-1146.515,3006.948-1145.258,3009.554-1161.159Z" transform="translate(-2986.242 1164.65)" fill="#f97070"/>
        </g>
        <g id="Group_28092" data-name="Group 28092">
          <g id="Group_28067" data-name="Group 28067" transform="translate(6.083 5.198)">
            <path id="Path_137019" data-name="Path 137019" d="M2961.655-1274.586c-1.427,10.716-1.617,32.464,8.987,34.56,11.158,2.206,17.984-2.7,21.854-12.716,0,0,5.117,3.259,6.417-4.367.573-3.363-3.528-2.428-3.528-2.428s10.494-22.359-5.759-29.685C2977.566-1294.658,2963.607-1289.255,2961.655-1274.586Z" transform="translate(-2960.957 1291.292)" fill="#fca19f"/>
          </g>
          <g id="Group_28068" data-name="Group 28068" transform="translate(15.272 32.538)">
            <path id="Path_137020" data-name="Path 137020" d="M2994.746-1192.041a2.079,2.079,0,0,0-1.392-.691c-.233-.055-.466-.11-.684-.184a3.237,3.237,0,0,1-1.492-1.057,1,1,0,0,1-.2-.36,1.167,1.167,0,0,1,.214-.877c1.263-2.154,2.569-4.381,2.671-6.832l.45.019c-.107,2.563-1.442,4.839-2.733,7.04a.8.8,0,0,0-.168.531.622.622,0,0,0,.119.2,2.785,2.785,0,0,0,1.282.908c.2.069.423.12.642.172a2.421,2.421,0,0,1,1.671.892Z" transform="translate(-2990.953 1202.042)" fill="#1a1a1a"/>
          </g>
          <g id="Group_28069" data-name="Group 28069" transform="translate(11.867 43.877)">
            <path id="Path_137021" data-name="Path 137021" d="M2979.839-1165.025a30.217,30.217,0,0,0,13.636,2.023s-3.425,4.834-7.81,3.946S2979.839-1165.025,2979.839-1165.025Z" transform="translate(-2979.839 1165.025)" fill="#fff"/>
          </g>
          <g id="Group_28070" data-name="Group 28070" transform="translate(33.309 14.912)">
            <path id="Path_137022" data-name="Path 137022" d="M3057.038-1237.539l-2.107.978s-4.586-12.656-5.1-22.084l9.768-.934S3063.73-1252.362,3057.038-1237.539Z" transform="translate(-3049.835 1259.579)" fill="#f38262"/>
          </g>
          <g id="Group_28071" data-name="Group 28071">
            <path id="Path_137023" data-name="Path 137023" d="M2968.924-1292.5a4.434,4.434,0,0,1,3.465-.133,9.917,9.917,0,0,1,1.428,1.233c2.032,1.7,5.069,1.022,7.606.251a5.283,5.283,0,0,0,1.765-.784,3.942,3.942,0,0,0,1.241-3.265c-.1-3.291-2.441-6.183-5.281-7.849s-6.141-2.326-9.372-2.96l-10.763-2.112a3.386,3.386,0,0,0-1.759-.031,1.166,1.166,0,0,0-.811,1.377,6.279,6.279,0,0,0,3.085,1.988l-6.559.934c-4.03.574-8.472,1.377-10.976,4.586a2.137,2.137,0,0,0-.5,2.278c.814,1.376,3.075.057,4.514.753a8.019,8.019,0,0,0-4.84,5.761,1.689,1.689,0,0,0,.11,1.264,1.8,1.8,0,0,0,1.063.619C2951.088-1286.066,2960.264-1289.692,2968.924-1292.5Z" transform="translate(-2941.1 1308.26)" fill="#f38262"/>
          </g>
          <g id="Group_28081" data-name="Group 28081" transform="translate(23.794 26.822)">
            <g id="Group_28072" data-name="Group 28072" transform="translate(0.95 0)">
              <path id="Path_137024" data-name="Path 137024" d="M3022.451-1220.664a.631.631,0,0,1,.185-.036c.3.03.6.085.9.121a9.66,9.66,0,0,1,2.9.516,4.305,4.305,0,0,1,2.248,3.162c.008.048.1.74.107.891a.23.23,0,0,1-.059.175.194.194,0,0,1-.186.059.2.2,0,0,1-.131-.086.235.235,0,0,1-.036-.1.664.664,0,0,1,0-.106,1.582,1.582,0,0,0-.058-.174,1.6,1.6,0,0,0-.3-.6,6.8,6.8,0,0,0-2.072-1.591,6.166,6.166,0,0,0-1.717-.5,11.806,11.806,0,0,1-1.823-.231.747.747,0,0,1-.493-.514.78.78,0,0,1,.1-.689.2.2,0,0,1,.182-.077.2.2,0,0,1,.085-.2.2.2,0,0,1,.172-.022Zm.164.358a.965.965,0,0,1-.149.045.272.272,0,0,1-.1,0,.2.2,0,0,1-.039.138.382.382,0,0,0-.035.337.352.352,0,0,0,.224.251,11.4,11.4,0,0,0,1.76.218,6.58,6.58,0,0,1,1.832.533,7.048,7.048,0,0,1,2.112,1.59,3.836,3.836,0,0,0-1.948-2.506,9.291,9.291,0,0,0-2.783-.483c-.291-.035-.584-.088-.875-.118Zm-.067-.286,0,.007,0-.007Z" transform="translate(-3021.876 1220.701)" fill-rule="evenodd"/>
            </g>
            <g id="Group_28073" data-name="Group 28073" transform="translate(1.247 0.195)">
              <path id="Path_137025" data-name="Path 137025" d="M3022.987-1219.953a.2.2,0,0,1,.019-.031.185.185,0,0,1,.232-.065.187.187,0,0,1,.094.079.2.2,0,0,1,.174-.045.2.2,0,0,1,.144.13l.01-.01a.317.317,0,0,1,.234-.107.205.205,0,0,1,.191.106.2.2,0,0,1,.259.021.256.256,0,0,1,.029.036l0,0a.212.212,0,0,1,.137-.064.217.217,0,0,1,.176.067.332.332,0,0,1,.059.092.264.264,0,0,1,.153-.028.246.246,0,0,1,.181.115.483.483,0,0,1,.062.234v.138a.2.2,0,0,1-.2.2.194.194,0,0,1-.1-.025.489.489,0,0,1-.028.059.251.251,0,0,1-.22.139.2.2,0,0,1-.158-.073.3.3,0,0,1-.32.136.227.227,0,0,1-.137-.1l-.017.014a.245.245,0,0,1-.121.052.2.2,0,0,1-.136-.03.2.2,0,0,1-.089-.113.326.326,0,0,1-.228.095.2.2,0,0,1-.2-.123.221.221,0,0,1-.015-.044.242.242,0,0,1-.087,0,.243.243,0,0,1-.176-.114.445.445,0,0,1-.072-.276,1.237,1.237,0,0,1,.064-.286,1.39,1.39,0,0,1,.073-.174h0v0Z" transform="translate(-3022.847 1220.066)" fill-rule="evenodd"/>
            </g>
            <g id="Group_28074" data-name="Group 28074" transform="translate(2.524 0.684)">
              <path id="Path_137026" data-name="Path 137026" d="M3028.485-1218.116a.185.185,0,0,1-.017-.027.2.2,0,0,1-.016-.137.2.2,0,0,1,.083-.122.42.42,0,0,1,.178-.055,1.9,1.9,0,0,1,.315-.006,3.474,3.474,0,0,1,.584.2c.188.073.437.116.654.2a1.009,1.009,0,0,1,.448.311c.14.184.212.42.336.617a.2.2,0,0,1-.061.272.2.2,0,0,1-.272-.06c-.119-.187-.184-.414-.318-.589a.623.623,0,0,0-.292-.189.742.742,0,0,1,.143.188.206.206,0,0,1,.009.184.222.222,0,0,1-.014.029.234.234,0,0,1-.128.177.188.188,0,0,1-.2-.036c-.012-.01-.1-.1-.134-.127h0c-.14-.037-.194-.051-.265-.068a2.476,2.476,0,0,0-.311-.029,10.118,10.118,0,0,1-1.545-.21c-.041-.008-.307-.024-.423-.041a.32.32,0,0,1-.159-.062.2.2,0,0,1-.012-.278.2.2,0,0,1,.213-.052c.049,0,.412.038.455.046l.21.04a.192.192,0,0,1,0-.068.186.186,0,0,1,.151-.175.261.261,0,0,1,.113,0c.047.009.136.041.179.048l.1.017Z" transform="translate(-3027.014 1218.468)" fill-rule="evenodd"/>
            </g>
            <g id="Group_28075" data-name="Group 28075" transform="translate(1.9 0.443)">
              <path id="Path_137027" data-name="Path 137027" d="M3026.448-1218.9a.182.182,0,0,1-.017-.027.2.2,0,0,1-.016-.137.2.2,0,0,1,.083-.122.436.436,0,0,1,.178-.055,1.949,1.949,0,0,1,.315-.006,3.563,3.563,0,0,1,.584.2c.188.074.437.116.653.2a1,1,0,0,1,.448.311c.14.184.212.42.337.616a.2.2,0,0,1-.06.272.2.2,0,0,1-.272-.061c-.119-.187-.184-.414-.318-.589a.622.622,0,0,0-.292-.189.742.742,0,0,1,.143.188.207.207,0,0,1,.009.184.178.178,0,0,1-.014.028.235.235,0,0,1-.127.178.188.188,0,0,1-.2-.036c-.012-.01-.1-.1-.135-.127h0c-.14-.037-.194-.051-.265-.068a2.5,2.5,0,0,0-.311-.029,10.155,10.155,0,0,1-1.546-.21c-.041-.008-.307-.024-.423-.04a.324.324,0,0,1-.159-.062.2.2,0,0,1-.012-.279.2.2,0,0,1,.213-.052c.049,0,.412.038.455.046l.211.04a.211.211,0,0,1,0-.068.187.187,0,0,1,.151-.175.262.262,0,0,1,.113,0c.046.009.136.041.179.048l.1.017Z" transform="translate(-3024.977 1219.254)" fill-rule="evenodd"/>
            </g>
            <g id="Group_28076" data-name="Group 28076" transform="translate(3.682 1.29)">
              <path id="Path_137028" data-name="Path 137028" d="M3032.294-1216.2a.211.211,0,0,1-.011-.031.2.2,0,0,1,.014-.138.2.2,0,0,1,.107-.1.433.433,0,0,1,.186-.015,1.956,1.956,0,0,1,.309.061,3.49,3.49,0,0,1,.526.326c.167.112.4.208.594.337a1,1,0,0,1,.37.4c.1.21.116.456.2.674a.2.2,0,0,1-.118.253.2.2,0,0,1-.253-.118c-.075-.208-.09-.444-.183-.644a.619.619,0,0,0-.245-.247.747.747,0,0,1,.1.214.2.2,0,0,1-.031.181.18.18,0,0,1-.021.025c-.028.106.109.277.1.28a1.192,1.192,0,0,1-.447-.211c-.01-.013-.079-.117-.1-.153h0c-.129-.066-.179-.091-.245-.124a2.521,2.521,0,0,0-.3-.1,10.131,10.131,0,0,1-1.464-.539c-.038-.016-.294-.089-.4-.131a.322.322,0,0,1-.142-.1.2.2,0,0,1,.049-.275.2.2,0,0,1,.219,0c.047.015.394.126.434.143l.2.084a.208.208,0,0,1,.011-.067.187.187,0,0,1,.185-.138.261.261,0,0,1,.111.023c.043.019.124.07.165.085l.1.039Z" transform="translate(-3030.794 1216.491)" fill-rule="evenodd"/>
            </g>
            <g id="Group_28077" data-name="Group 28077" transform="translate(5.776 1.598)">
              <path id="Path_137029" data-name="Path 137029" d="M3037.74-1215.11a1.874,1.874,0,0,1,.814.88c.062.124.118.337.2.511a.732.732,0,0,0,.3.353.2.2,0,0,0,.265-.088.2.2,0,0,0-.088-.264.2.2,0,0,1-.067-.071.987.987,0,0,1-.089-.177c-.065-.159-.115-.331-.169-.438a2.26,2.26,0,0,0-.99-1.056.2.2,0,0,0-.264.088.2.2,0,0,0,.088.264Z" transform="translate(-3037.631 1215.483)" fill-rule="evenodd"/>
            </g>
            <g id="Group_28078" data-name="Group 28078" transform="translate(0.991)">
              <path id="Path_137030" data-name="Path 137030" d="M3022.085-1219.785c-.006-.017-.037-.1-.051-.147a.44.44,0,0,1-.017-.193.688.688,0,0,1,.99-.5.2.2,0,0,1,.088.265.2.2,0,0,1-.264.088.3.3,0,0,0-.424.208c0,.008.008.034.013.048.011.032.024.065.034.094a.375.375,0,0,1,.023.169.2.2,0,0,1-.223.167.2.2,0,0,1-.169-.2Z" transform="translate(-3022.012 1220.701)" fill-rule="evenodd"/>
            </g>
            <g id="Group_28079" data-name="Group 28079" transform="translate(0 4.806)">
              <path id="Path_137031" data-name="Path 137031" d="M3018.992-1204.6l.6-.208a2.961,2.961,0,0,1,1.389-.187,2.025,2.025,0,0,1,1.45,1.018c.3.461.512,1.006.794,1.43a.2.2,0,0,1-.055.273.2.2,0,0,1-.273-.055c-.283-.425-.5-.971-.8-1.434a1.652,1.652,0,0,0-1.175-.842,2.562,2.562,0,0,0-1.2.169,6.437,6.437,0,0,1-.719.233.2.2,0,0,1-.227-.159.2.2,0,0,1,.15-.235.2.2,0,0,1,.062,0Zm.125.062a.2.2,0,0,1,.048.092.19.19,0,0,0-.048-.092Z" transform="translate(-3018.776 1205.013)" fill-rule="evenodd"/>
            </g>
            <g id="Group_28080" data-name="Group 28080" transform="translate(0.016 4.437)">
              <path id="Path_137032" data-name="Path 137032" d="M3019.042-1205.551c.02-.007.279-.1.488-.191a5.574,5.574,0,0,1,1.243-.468,2.54,2.54,0,0,1,1.6.463,5.013,5.013,0,0,1,1.637,1.855.2.2,0,0,1-.088.265.2.2,0,0,1-.264-.088,4.592,4.592,0,0,0-1.5-1.7,2.151,2.151,0,0,0-1.353-.4,6.906,6.906,0,0,0-1.314.522,2.293,2.293,0,0,1-.346.125.428.428,0,0,1-.149.011.2.2,0,0,1-.167-.223.2.2,0,0,1,.21-.168Z" transform="translate(-3018.83 1206.217)" fill-rule="evenodd"/>
            </g>
          </g>
          <g id="Group_28091" data-name="Group 28091" transform="translate(8.508 24.694)">
            <g id="Group_28082" data-name="Group 28082">
              <path id="Path_137033" data-name="Path 137033" d="M2976.767-1226.015a.2.2,0,0,1,.134.109.2.2,0,0,1-.034.216.2.2,0,0,1,.114.162.783.783,0,0,1-.283.635.748.748,0,0,1-.691.174,11.839,11.839,0,0,1-1.667-.772,6.167,6.167,0,0,0-1.72-.487,6.788,6.788,0,0,0-2.6.248,1.61,1.61,0,0,0-.574.348,1.543,1.543,0,0,0-.142.117.785.785,0,0,1-.058.089.24.24,0,0,1-.082.063.2.2,0,0,1-.156,0,.192.192,0,0,1-.126-.148.225.225,0,0,1,.043-.18c.085-.124.531-.661.563-.7a4.309,4.309,0,0,1,3.584-1.487,9.686,9.686,0,0,1,2.733,1.1c.272.128.558.242.826.375a.612.612,0,0,1,.138.129Zm-.329.217c-.261-.129-.539-.239-.8-.364a9.282,9.282,0,0,0-2.614-1.068,3.836,3.836,0,0,0-2.981,1.089,7.051,7.051,0,0,1,2.634-.226,6.6,6.6,0,0,1,1.835.521,11.431,11.431,0,0,0,1.607.75.355.355,0,0,0,.324-.094.383.383,0,0,0,.148-.3.2.2,0,0,1,.041-.137.294.294,0,0,1-.087-.05.986.986,0,0,1-.1-.118Zm.209-.207-.008,0,.008,0Z" transform="translate(-2968.875 1227.647)" fill-rule="evenodd"/>
            </g>
            <g id="Group_28083" data-name="Group 28083" transform="translate(5.656 1.047)">
              <path id="Path_137034" data-name="Path 137034" d="M2989.548-1223.342a.2.2,0,0,0,0-.036.185.185,0,0,0-.163-.178.19.19,0,0,0-.122.017.2.2,0,0,0-.123-.13.2.2,0,0,0-.191.034l0-.013a.315.315,0,0,0-.142-.216.2.2,0,0,0-.217-.011.2.2,0,0,0-.23-.12.215.215,0,0,0-.044.016v0a.209.209,0,0,0-.083-.128.216.216,0,0,0-.185-.036.332.332,0,0,0-.1.047.261.261,0,0,0-.114-.105.247.247,0,0,0-.214,0,.489.489,0,0,0-.176.166l-.073.117a.2.2,0,0,0,.063.272.2.2,0,0,0,.094.03.476.476,0,0,0-.007.065.252.252,0,0,0,.113.234.2.2,0,0,0,.173.022.3.3,0,0,0,.2.286.228.228,0,0,0,.168-.01c0,.007,0,.015.007.021a.241.241,0,0,0,.074.108.2.2,0,0,0,.131.047.2.2,0,0,0,.135-.049.325.325,0,0,0,.143.2.2.2,0,0,0,.231,0,.2.2,0,0,0,.036-.029.237.237,0,0,0,.072.049.244.244,0,0,0,.21,0,.452.452,0,0,0,.207-.2,1.24,1.24,0,0,0,.1-.277,1.414,1.414,0,0,0,.03-.186h0v0Z" transform="translate(-2987.34 1224.229)" fill-rule="evenodd"/>
            </g>
            <g id="Group_28084" data-name="Group 28084" transform="translate(2.46 0.246)">
              <path id="Path_137035" data-name="Path 137035" d="M2979.714-1225.923a.194.194,0,0,0,.029-.014.2.2,0,0,0,.087-.108.2.2,0,0,0-.006-.148.436.436,0,0,0-.122-.141,1.919,1.919,0,0,0-.263-.173,3.517,3.517,0,0,0-.6-.137c-.2-.037-.431-.133-.66-.177a1,1,0,0,0-.544.026c-.217.081-.4.243-.613.344a.2.2,0,0,0-.094.263.2.2,0,0,0,.263.093c.2-.1.375-.253.582-.331a.621.621,0,0,1,.348-.005.734.734,0,0,0-.221.083.206.206,0,0,0-.106.151.234.234,0,0,0,0,.032.233.233,0,0,0,.014.218.187.187,0,0,0,.188.076l.181-.037h0c.138.043.192.06.261.083a2.445,2.445,0,0,1,.279.141,10.114,10.114,0,0,0,1.421.642c.039.015.272.143.38.19a.321.321,0,0,0,.168.031.2.2,0,0,0,.158-.229.2.2,0,0,0-.153-.157c-.044-.022-.369-.187-.41-.2l-.2-.078a.184.184,0,0,0,.039-.056.186.186,0,0,0-.035-.228.253.253,0,0,0-.1-.061c-.045-.017-.138-.038-.177-.055l-.1-.039Z" transform="translate(-2976.906 1226.844)" fill-rule="evenodd"/>
            </g>
            <g id="Group_28085" data-name="Group 28085" transform="translate(3.117 0.373)">
              <path id="Path_137036" data-name="Path 137036" d="M2981.857-1225.507a.175.175,0,0,0,.029-.014.2.2,0,0,0,.087-.108.2.2,0,0,0-.006-.148.43.43,0,0,0-.122-.141,1.94,1.94,0,0,0-.263-.173,3.555,3.555,0,0,0-.6-.137c-.2-.037-.432-.133-.66-.176a1,1,0,0,0-.544.026c-.217.082-.4.244-.613.344a.2.2,0,0,0-.093.263.2.2,0,0,0,.263.093c.2-.1.376-.253.582-.33a.621.621,0,0,1,.348-.005.739.739,0,0,0-.221.083.207.207,0,0,0-.105.151.238.238,0,0,0,0,.032.234.234,0,0,0,.014.218.187.187,0,0,0,.188.076c.016,0,.139-.028.181-.036h0c.138.043.192.06.261.083a2.575,2.575,0,0,1,.279.141,10.03,10.03,0,0,0,1.421.643c.038.015.272.143.38.19a.325.325,0,0,0,.168.032.2.2,0,0,0,.158-.23.2.2,0,0,0-.153-.157c-.044-.022-.37-.187-.41-.2l-.2-.078a.2.2,0,0,0,.039-.056.188.188,0,0,0-.035-.228.265.265,0,0,0-.1-.06c-.045-.017-.137-.038-.177-.055l-.1-.039Z" transform="translate(-2979.049 1226.429)" fill-rule="evenodd"/>
            </g>
            <g id="Group_28086" data-name="Group 28086" transform="translate(1.152 0.452)">
              <path id="Path_137037" data-name="Path 137037" d="M2975.459-1225.628a.155.155,0,0,0,.025-.02.2.2,0,0,0,.062-.124.2.2,0,0,0-.038-.143.437.437,0,0,0-.149-.111,1.935,1.935,0,0,0-.295-.112,3.54,3.54,0,0,0-.619,0c-.2.006-.45-.037-.683-.03a1.008,1.008,0,0,0-.526.143c-.194.126-.34.325-.524.468a.2.2,0,0,0-.034.277.2.2,0,0,0,.277.034c.175-.136.313-.328.5-.448a.621.621,0,0,1,.339-.08.746.746,0,0,0-.2.129.207.207,0,0,0-.07.17.188.188,0,0,0,0,.031c-.032.1-.24.177-.23.186a1.184,1.184,0,0,0,.49.058l.169-.075h0c.145.012.2.017.273.025a2.516,2.516,0,0,1,.3.077,10.111,10.111,0,0,0,1.527.321c.041.006.3.081.412.1a.321.321,0,0,0,.171-.006.2.2,0,0,0,.105-.258.2.2,0,0,0-.183-.12c-.048-.012-.4-.1-.443-.109l-.212-.033a.213.213,0,0,0,.026-.063.187.187,0,0,0-.084-.215.257.257,0,0,0-.106-.039c-.047-.007-.142-.007-.185-.015l-.1-.018Z" transform="translate(-2972.637 1226.172)" fill-rule="evenodd"/>
            </g>
            <g id="Group_28087" data-name="Group 28087" transform="translate(0.951 0.556)">
              <path id="Path_137038" data-name="Path 137038" d="M2974.2-1225.43a1.874,1.874,0,0,0-1.156.313c-.118.072-.279.223-.442.327a.731.731,0,0,1-.442.139.2.2,0,0,1-.177-.215.2.2,0,0,1,.215-.177.191.191,0,0,0,.094-.025,1.036,1.036,0,0,0,.17-.1c.139-.1.273-.219.376-.282a2.262,2.262,0,0,1,1.4-.369.2.2,0,0,1,.177.215.2.2,0,0,1-.215.177Z" transform="translate(-2971.98 1225.831)" fill-rule="evenodd"/>
            </g>
            <g id="Group_28088" data-name="Group 28088" transform="translate(7.265 1.418)">
              <path id="Path_137039" data-name="Path 137039" d="M2993.141-1221.813c.015-.011.085-.065.122-.1a.445.445,0,0,0,.117-.154.688.688,0,0,0-.573-.951.2.2,0,0,0-.216.177.2.2,0,0,0,.177.215.294.294,0,0,1,.249.4c-.005.005-.024.024-.037.034l-.079.061a.389.389,0,0,0-.109.131.2.2,0,0,0,.1.26.2.2,0,0,0,.247-.076Z" transform="translate(-2992.591 1223.017)" fill-rule="evenodd"/>
            </g>
            <g id="Group_28089" data-name="Group 28089" transform="translate(1.453 5.165)">
              <path id="Path_137040" data-name="Path 137040" d="M2978.413-1209.229a.189.189,0,0,1,.05.036.2.2,0,0,1,0,.279.2.2,0,0,1-.276.014,6.406,6.406,0,0,1-.486-.58,2.56,2.56,0,0,0-.929-.781,1.651,1.651,0,0,0-1.443.09c-.5.233-.971.582-1.436.792a.2.2,0,0,1-.26-.1.2.2,0,0,1,.1-.261c.464-.209.934-.558,1.432-.79a2.026,2.026,0,0,1,1.769-.093,2.961,2.961,0,0,1,1.078.9l.4.5Zm-.138-.014a.187.187,0,0,0-.09.052.2.2,0,0,1,.09-.052Z" transform="translate(-2973.617 1210.784)" fill-rule="evenodd"/>
            </g>
            <g id="Group_28090" data-name="Group 28090" transform="translate(1.112 4.677)">
              <path id="Path_137041" data-name="Path 137041" d="M2977.693-1210.442c-.013-.017-.186-.23-.312-.42a5.57,5.57,0,0,0-.805-1.056,2.541,2.541,0,0,0-1.6-.46,5.015,5.015,0,0,0-2.372.7.2.2,0,0,0-.065.271.2.2,0,0,0,.271.065,4.592,4.592,0,0,1,2.175-.645,2.149,2.149,0,0,1,1.359.379,6.931,6.931,0,0,1,.837,1.14,2.284,2.284,0,0,0,.227.29.416.416,0,0,0,.121.088.2.2,0,0,0,.26-.1.2.2,0,0,0-.089-.254Z" transform="translate(-2972.504 1212.379)" fill-rule="evenodd"/>
            </g>
          </g>
        </g>
      </g>
    </g>
    <g id="Group_28119" data-name="Group 28119" transform="translate(2278.796 -1420.497)">
      <g id="Group_28096" data-name="Group 28096" transform="translate(0 5.274)">
        <g id="Group_28095" data-name="Group 28095">
          <path id="Path_137042" data-name="Path 137042" d="M2403.649-1120.8a34.769,34.769,0,0,1-8.433-4.045,12.145,12.145,0,0,1-5.2-7.865c-.459-3.348.95-6.573,2.307-9.333l.033-.068a8,8,0,0,0,1.071-3.248,5.422,5.422,0,0,0-.613-2.379,22.945,22.945,0,0,0-2.937-4.308c-1.662-2.084-3.38-4.24-3.8-6.958-.322-2.1.148-4.384,1.479-7.2a31.317,31.317,0,0,1,13.419-14.108c.561-.3,1.139-.589,1.7-.867a20.64,20.64,0,0,0,4.5-2.726c2.179-1.9,3.7-4.894,4.508-8.911.323-1.6.532-3.261.733-4.867.229-1.828.467-3.719.877-5.56a30.308,30.308,0,0,1,9.77-16.3l.743.865a29.163,29.163,0,0,0-9.4,15.678c-.4,1.789-.632,3.652-.858,5.454-.2,1.626-.415,3.308-.748,4.951-.864,4.268-2.5,7.48-4.877,9.545a21.819,21.819,0,0,1-4.739,2.887c-.552.275-1.122.558-1.667.851a30.171,30.171,0,0,0-12.928,13.591c-1.229,2.6-1.668,4.673-1.383,6.536.371,2.417,1.921,4.361,3.562,6.42a23.813,23.813,0,0,1,3.076,4.531,6.53,6.53,0,0,1,.722,2.883,8.842,8.842,0,0,1-1.188,3.734l-.033.067c-1.283,2.609-2.616,5.646-2.2,8.675a11.01,11.01,0,0,0,4.735,7.1,33.921,33.921,0,0,0,8.163,3.9Z" transform="translate(-2385.987 1219.534)" fill="#6fb27c"/>
        </g>
      </g>
      <g id="Group_28097" data-name="Group 28097" transform="translate(3.728)">
        <path id="Path_137043" data-name="Path 137043" d="M2398.581-1170.582c1.49,4.505,6.9,7.392,6.995,12.136.071,3.423-2.748,6.237-3.419,9.595a9.335,9.335,0,0,0,2.823,8.288A13.727,13.727,0,0,0,2413.2-1137a15.253,15.253,0,0,0,10.72-2.792c4.231-3.223,6.184-8.768,10.39-12.023,5.108-3.951,12.168-3.633,18.594-4.274,7.751-.773,15.577-3.372,21.187-8.776s8.541-13.964,5.911-21.3c-.982-2.738-2.65-5.164-4.061-7.708a44.792,44.792,0,0,1-4.21-10.584c-.959-3.744-1.431-7.6-2.442-11.331-2.47-9.111-8.858-17.716-17.947-20.266a21.435,21.435,0,0,0-24.124,10.58c-2.342,4.6-2.887,9.91-2.889,15.075,0,4.77.321,9.926-2.34,13.885-3.952,5.878-12.513,6.39-17.9,10.985a17.7,17.7,0,0,0-4.83,7.031A11.781,11.781,0,0,0,2398.581-1170.582Z" transform="translate(-2398.157 1236.752)" fill="#6fb27c"/>
      </g>
      <g id="Group_28098" data-name="Group 28098" transform="translate(9.383 59.581)">
        <path id="Path_137044" data-name="Path 137044" d="M2478.617-1042.251c7.918.194,13.969,1.729,23.48,9.483s26.741,16.6,27.89,17.084,8.615,4.421,7.193,12.834-12.9,25.361-32.714,11.908c0,0,2.571,32.063,6.005,45.853,0,0-45.079,7.369-69.8-1.284l-8.745-25.59s-15.154,7.941-15.3-10.2,3.461-20.155,5.8-29.776,9.429-20.77,13.463-22.846,23.521-6.52,23.521-6.52Z" transform="translate(-2416.617 1042.251)" fill="#f69f8e"/>
      </g>
      <g id="Group_28099" data-name="Group 28099" transform="translate(49.301 42.596)">
        <path id="Path_137045" data-name="Path 137045" d="M2563.658-1095.857s.658,13.447,2.178,13.883a22.171,22.171,0,0,1,3.175,1.26s-5.7,13.765-22.082,2.1c0,0,1.979-.924,2.671-4.1s.506-14.987.506-14.987Z" transform="translate(-2546.929 1097.698)" fill="#ffcbd4"/>
      </g>
      <g id="Group_28100" data-name="Group 28100" transform="translate(52.478 42.596)">
        <path id="Path_137046" data-name="Path 137046" d="M2571.163-1091.33c-.21-2.5-.31-4.526-.31-4.526L2557.3-1097.7s.027,1.716.022,4.012A17.155,17.155,0,0,0,2571.163-1091.33Z" transform="translate(-2557.302 1097.698)" fill="#e5aeba"/>
      </g>
      <g id="Group_28108" data-name="Group 28108" transform="translate(34.848 1.673)">
        <g id="Group_28101" data-name="Group 28101">
          <path id="Path_137047" data-name="Path 137047" d="M2533.954-1220.257c8.967,18.027,4.234,30.556.141,32.545-5.282,2.565-16.437,2.032-21.824-5.418,0,0-6.764,2.5-8.659-1.024-3.49-6.488,3.2-4.934,3.2-4.934s-14.881-11.538-1.459-27.1C2508.99-1230.4,2525.358-1237.54,2533.954-1220.257Z" transform="translate(-2499.748 1231.291)" fill="#ffcbd4"/>
        </g>
        <g id="Group_28102" data-name="Group 28102" transform="translate(16.989 27.282)">
          <path id="Path_137048" data-name="Path 137048" d="M2555.27-1138.784c-.355-.921.889-2.258,2.779-2.987s3.708-.574,4.063.347-.889,2.258-2.778,2.987S2555.625-1137.863,2555.27-1138.784Z" transform="translate(-2555.21 1142.23)" fill="#ffbace"/>
        </g>
        <g id="Group_28103" data-name="Group 28103" transform="translate(31.669 21.014)">
          <ellipse id="Ellipse_435" data-name="Ellipse 435" cx="2.911" cy="1.67" rx="2.911" ry="1.67" transform="translate(0 2.097) rotate(-21.115)" fill="#ffbace"/>
        </g>
        <g id="Group_28104" data-name="Group 28104" transform="translate(26.076 19.003)">
          <path id="Path_137049" data-name="Path 137049" d="M2587.959-1158.872a3.394,3.394,0,0,0,1.736-2.218.276.276,0,0,0-.075-.265,16.859,16.859,0,0,1-4.2-7.678.276.276,0,0,0-.328-.216.284.284,0,0,0-.216.328,17.206,17.206,0,0,0,4.235,7.844,2.719,2.719,0,0,1-1.354,1.686l-.09.032a.279.279,0,0,0-.164.345.279.279,0,0,0,.351.179C2587.89-1158.846,2587.925-1158.859,2587.959-1158.872Z" transform="translate(-2584.871 1169.255)" fill="#1a1a1a"/>
        </g>
        <g id="Group_28107" data-name="Group 28107" transform="translate(25.689 30.964)">
          <g id="Group_28105" data-name="Group 28105">
            <path id="Path_137050" data-name="Path 137050" d="M2583.611-1125.892l3.022-3.469,1.742.675.912-1.525,3.66,1.418s.293,4.952-3,6.156C2586.14-1121.245,2583.611-1125.892,2583.611-1125.892Z" transform="translate(-2583.611 1130.21)" fill="#d85b55"/>
          </g>
          <g id="Group_28106" data-name="Group 28106" transform="translate(0 1.418)">
            <path id="Path_137051" data-name="Path 137051" d="M2583.611-1122.681l9.337-2.9S2590.577-1117.841,2583.611-1122.681Z" transform="translate(-2583.611 1125.582)" fill="#fff"/>
          </g>
        </g>
      </g>
      <g id="Group_28109" data-name="Group 28109" transform="translate(33.146 1.433)">
        <path id="Path_137052" data-name="Path 137052" d="M2530.863-1220.079s-8.023-4.827-15.184-5.018c0,0-9.439,23.8-11.305,25.139,0,0-.972.784-3.3-.4s-11.88-14.667-3.5-24.373S2524.529-1236.059,2530.863-1220.079Z" transform="translate(-2494.192 1232.074)" fill="#6fb27c"/>
      </g>
      <g id="Group_28110" data-name="Group 28110" transform="translate(10.02 70.986)">
        <path id="Path_137053" data-name="Path 137053" d="M2505.9-1005.018c-.078.8-.1,1.613-.112,2.388-.039,2.231-.126,3.616-1,4.03-.805.379-2.122-.2-3.517-.82-2.011-.893-4.514-2-6.953-.572-2.643,1.551-2.782,4.7-2.884,7.006l-.029.61a8.123,8.123,0,0,1-1.678,4.9,3.443,3.443,0,0,1-3.719,1.106,7.536,7.536,0,0,1-2.422-2.442c-1.18-1.568-2.518-3.347-4.847-3.886-4.407-1.017-7.55,3.113-9.021,7.321-1,2.852-2.29,5.8-4.34,5.9-1.59.091-3.087-1.551-4.673-3.289-2.026-2.222-4.553-4.979-8.188-4.3-3.808.721-5.374,4.765-6.309,7.181-.373.963-1.727,4.1-3.518,3.983-1.06-.068-1.848-1.162-3.021-2.954-1.119-1.714-2.39-3.656-4.553-4.567a6.243,6.243,0,0,0-4.883.021c-3,1.226-5.2,4.369-6.255,6.9l-.187.453a6.9,6.9,0,0,1-1.8,3,3.382,3.382,0,0,1-2.533.393c-.284,1.14-.539,2.386-.755,3.786a7.189,7.189,0,0,0,5.523-1.039,9.864,9.864,0,0,0,3.131-4.67l.18-.433c.94-2.251,2.612-4.188,4.157-4.82a2.377,2.377,0,0,1,1.929-.036c1.078.453,1.927,1.75,2.824,3.124,1.31,2,2.939,4.5,6,4.691s5.674-2.09,7.357-6.437c.875-2.259,1.86-4.489,3.433-4.786,1.429-.25,2.7,1,4.624,3.109,2.025,2.22,4.32,4.735,7.742,4.539,4.866-.29,6.826-5.816,7.756-8.476.916-2.622,2.717-5.26,4.515-4.838.962.222,1.738,1.254,2.636,2.448a10.529,10.529,0,0,0,3.92,3.64,7.214,7.214,0,0,0,8.174-2.052,11.666,11.666,0,0,0,2.653-7.266l.03-.643c.07-1.575.149-3.362.985-3.852.684-.4,1.806.045,3.44.771,1.927.855,4.329,1.919,6.729.78,3.031-1.435,3.152-4.633,3.2-7.265C2508.339-1003.256,2507.085-1004.139,2505.9-1005.018Z" transform="translate(-2418.698 1005.018)" fill="#ffe4e1"/>
      </g>
      <g id="Group_28112" data-name="Group 28112" transform="translate(88.298 79.77)">
        <g id="Group_28111" data-name="Group 28111">
          <path id="Path_137054" data-name="Path 137054" d="M2681.317-948.364a.285.285,0,0,1-.284-.261,22.321,22.321,0,0,1,.364-5.173,19.162,19.162,0,0,0,.283-5.649c-.421-2.776-2.071-5.252-3.667-7.646-1.842-2.763-3.745-5.619-3.781-8.963a.285.285,0,0,1,.282-.288h0a.285.285,0,0,1,.285.282c.033,3.175,1.807,5.836,3.684,8.653,1.63,2.446,3.316,4.975,3.756,7.877a19.589,19.589,0,0,1-.283,5.818,21.877,21.877,0,0,0-.359,5.04.285.285,0,0,1-.26.309Z" transform="translate(-2674.233 976.344)"/>
        </g>
      </g>
      <g id="Group_28114" data-name="Group 28114" transform="translate(19.683 93.986)">
        <g id="Group_28113" data-name="Group 28113">
          <path id="Path_137055" data-name="Path 137055" d="M2450.528-890.73a.285.285,0,0,1-.264-.178.285.285,0,0,1,.157-.371l7.017-2.845a32.052,32.052,0,0,1,8.773-2.613c.427-.042.864-.07,1.288-.1a9.309,9.309,0,0,0,4.095-.869c2.534-1.454,2.985-5.007,2.332-7.693a27.063,27.063,0,0,0-1.658-4.441,31.428,31.428,0,0,1-1.535-3.947c-1.539-5.335-.123-11.212,1.014-15.935a.287.287,0,0,1,.344-.21.286.286,0,0,1,.211.344c-1.18,4.9-2.518,10.454-1.021,15.643a30.972,30.972,0,0,0,1.508,3.875,27.427,27.427,0,0,1,1.691,4.537c.7,2.887.188,6.723-2.6,8.323a9.721,9.721,0,0,1-4.343.944c-.418.026-.851.053-1.267.094a31.654,31.654,0,0,0-8.615,2.574l-7.017,2.845A.281.281,0,0,1,2450.528-890.73Z" transform="translate(-2450.242 929.938)"/>
        </g>
      </g>
      <g id="Group_28116" data-name="Group 28116" transform="translate(103.901 82.083)">
        <g id="Group_28115" data-name="Group 28115">
          <path id="Path_137056" data-name="Path 137056" d="M2726.208-949.98a.285.285,0,0,1-.273-.2,19.065,19.065,0,0,1,1.418-14.208,9.066,9.066,0,0,1,2.932-3.517,4.714,4.714,0,0,1,4.541-.513.285.285,0,0,1,.136.379.285.285,0,0,1-.38.136,4.2,4.2,0,0,0-3.984.473,8.536,8.536,0,0,0-2.742,3.307,18.493,18.493,0,0,0-1.375,13.78.285.285,0,0,1-.193.354A.294.294,0,0,1,2726.208-949.98Z" transform="translate(-2725.169 968.792)"/>
        </g>
      </g>
      <g id="Group_28117" data-name="Group 28117" transform="translate(18.695 101.996)">
        <path id="Path_137057" data-name="Path 137057" d="M2447.018-872.062s2.571,18.45,9.169,19.26,50.886-30.438,50.886-30.438,9.6-.905,11.964-1.018,9.4-3.9,9.4-3.9.506-1.8-5.873.71l4.121-3.006s6.132-6.61,5.885-7.224-2.475-.3-3.5,1.055,1.768-2.435.953-3.051-1.578-.267-4.276,1.893a11.438,11.438,0,0,1-4.278,2.461s5.845-5.76,6.474-7.063-2.622-.2-4.23,1.643-11.3,5.627-11.3,5.627,3.058-7.722,2.369-8.6-4.928,6.524-7.194,8.3-5.291,6.25-5.291,6.25L2464.985-875l-1.139-3.517Z" transform="translate(-2447.018 903.789)" fill="#ffcbd4"/>
      </g>
      <g id="Group_28118" data-name="Group 28118" transform="translate(110.993 19.013)">
        <path id="Path_137058" data-name="Path 137058" d="M2748.493-1105.935S2746.5-1088,2756.132-1087s8.635-14.281,8.635-14.281l-4.65-48.489s11.292-8.967,11.956-10.96,3.321-11.624,3.321-11.624-1.826.166-2.324,1.495,1.162-3.819-.5-3.819-3.155,3.819-3.155,3.819.83-3.487-.332-3.487-3.156,6.642-3.156,6.642l-7.14,6.476s2.325-8.635.831-9.133-5.812,12.122-5.978,14.945S2748.493-1105.935,2748.493-1105.935Z" transform="translate(-2748.323 1174.683)" fill="#ffcbd4"/>
      </g>
    </g>
    <g id="Group_28120" data-name="Group 28120" transform="translate(2266.347 -1267.181)">
      <rect id="Rectangle_2403" data-name="Rectangle 2403" width="299.332" height="16.701" rx="8.35" transform="translate(0 0)" fill="#fff"/>
    </g>
    <g id="Group_28121" data-name="Group 28121" transform="translate(2292.78 -1267.727)">
      <path id="Path_137059" data-name="Path 137059" d="M2687.408-736.088h-254.8a.974.974,0,0,1-.974-.974.974.974,0,0,1,.974-.974h254.8a.973.973,0,0,1,.973.974A.973.973,0,0,1,2687.408-736.088Z" transform="translate(-2431.637 738.036)" fill="#1a1a1a"/>
    </g>
    <g id="Group_28125" data-name="Group 28125" transform="translate(2481.598 -1489.555)">
      <g id="Group_28122" data-name="Group 28122" transform="translate(0 0)">
        <path id="Path_137060" data-name="Path 137060" d="M3065.665-1425.813h0a.859.859,0,0,0-1.153-.373L3048.5-1418a.859.859,0,0,0-.374,1.152h0a.859.859,0,0,0,1.153.373l16.017-8.182A.86.86,0,0,0,3065.665-1425.813Z" transform="translate(-3048.029 1426.28)" fill="#8fd89f"/>
      </g>
      <g id="Group_28123" data-name="Group 28123" transform="translate(4.658 12.345)">
        <path id="Path_137061" data-name="Path 137061" d="M3082.727-1385.251h0a.859.859,0,0,0-.974-.72l-17.787,2.666a.859.859,0,0,0-.72.974h0a.859.859,0,0,0,.974.72l17.787-2.666A.859.859,0,0,0,3082.727-1385.251Z" transform="translate(-3063.237 1385.981)" fill="#8fd89f"/>
      </g>
      <g id="Group_28124" data-name="Group 28124" transform="translate(1.308 21.784)">
        <path id="Path_137062" data-name="Path 137062" d="M3071.287-1349.18h0a.86.86,0,0,0-.591-1.057l-17.306-4.9a.859.859,0,0,0-1.057.591h0a.859.859,0,0,0,.591,1.057l17.306,4.9A.859.859,0,0,0,3071.287-1349.18Z" transform="translate(-3052.301 1355.167)" fill="#8fd89f"/>
      </g>
    </g>
    <g id="Group_28129" data-name="Group 28129" transform="translate(2321.44 -1489.555)">
      <g id="Group_28126" data-name="Group 28126" transform="translate(6.43 0)">
        <path id="Path_137063" data-name="Path 137063" d="M2546.28-1425.813h0a.859.859,0,0,1,1.152-.373l16.017,8.182a.859.859,0,0,1,.373,1.152h0a.859.859,0,0,1-1.152.373l-16.017-8.182A.859.859,0,0,1,2546.28-1425.813Z" transform="translate(-2546.186 1426.28)" fill="#8fd89f"/>
      </g>
      <g id="Group_28127" data-name="Group 28127" transform="translate(0 12.345)">
        <path id="Path_137064" data-name="Path 137064" d="M2525.207-1385.251h0a.859.859,0,0,1,.974-.72l17.787,2.666a.859.859,0,0,1,.72.974h0a.859.859,0,0,1-.974.72l-17.787-2.666A.859.859,0,0,1,2525.207-1385.251Z" transform="translate(-2525.197 1385.981)" fill="#8fd89f"/>
      </g>
      <g id="Group_28128" data-name="Group 28128" transform="translate(3.831 21.784)">
        <path id="Path_137065" data-name="Path 137065" d="M2537.736-1349.18h0a.859.859,0,0,1,.591-1.057l17.306-4.9a.859.859,0,0,1,1.057.591h0a.859.859,0,0,1-.591,1.057l-17.306,4.9A.859.859,0,0,1,2537.736-1349.18Z" transform="translate(-2537.704 1355.167)" fill="#8fd89f"/>
      </g>
    </g>
    <g id="Group_28141" data-name="Group 28141" transform="translate(2370.276 -1445.238)">
      <g id="Group_28130" data-name="Group 28130" transform="translate(24.898 47.575)">
        <path id="Path_137066" data-name="Path 137066" d="M2769.818-1162.207s3.216,2.917,5.143,3.148c.692.083,1.308.119,1.814.13a2.823,2.823,0,0,1,2.245,1.2c.761,1.075,1.991,2.515,3.305,2.868a18.222,18.222,0,0,0,3.7.43,2.228,2.228,0,0,1,2.068,2.833,11.356,11.356,0,0,1-4.431,6.567,62.427,62.427,0,0,1-7.481-3.865c-2.345-1.5-6.214-4.327-8.32-5.331s-1.958-1.309-1.958-1.309Z" transform="translate(-2765.901 1162.207)" fill="#fff"/>
      </g>
      <g id="Group_28131" data-name="Group 28131" transform="translate(24.898 47.576)" style="mix-blend-mode: multiply;isolation: isolate">
        <path id="Path_137067" data-name="Path 137067" d="M2769.818-1162.206l-3.916,6.669s-.146.305,1.958,1.309c.073.035.154.077.232.117.773-1.3,2.913-4.87,3.921-6.362A24.425,24.425,0,0,1,2769.818-1162.206Z" transform="translate(-2765.901 1162.206)" fill="#fcded3"/>
      </g>
      <g id="Group_28132" data-name="Group 28132" transform="translate(15.603 45.123)">
        <path id="Path_137068" data-name="Path 137068" d="M2748.4-1170.213l.9,1.347a1.359,1.359,0,0,1,.1,1.331l-3.327,7.1a2.7,2.7,0,0,1-.946,1.1l-3.3,2.208a2.7,2.7,0,0,1-3.749-.745l-2.516-3.765Z" transform="translate(-2735.558 1170.213)" fill="#fff"/>
      </g>
      <g id="Group_28133" data-name="Group 28133" transform="translate(0 41.254)">
        <path id="Path_137069" data-name="Path 137069" d="M2693.5-1168.865l2.727-1.823a.559.559,0,0,0,.154-.776l-7.439-11.13a.56.56,0,0,0-.776-.154l-2.727,1.822a1.846,1.846,0,0,0-.509,2.561l6.01,8.992A1.845,1.845,0,0,0,2693.5-1168.865Z" transform="translate(-2684.621 1182.843)" fill="#f38262"/>
      </g>
      <g id="Group_28134" data-name="Group 28134" transform="translate(19.081 1.376)">
        <path id="Path_137070" data-name="Path 137070" d="M2746.911-1283.916l3.617,5.413,1.271,1.9,3.618,5.413c9.979-6.67,17.035-10.936,34.018-6.076l-11.627-17.4-.647-.968-11.627-17.4C2763.53-1295.475,2756.89-1290.586,2746.911-1283.916Z" transform="translate(-2746.911 1313.025)" fill="#fff"/>
      </g>
      <g id="Group_28135" data-name="Group 28135" transform="translate(32.231 9.883)">
        <path id="Path_137071" data-name="Path 137071" d="M2801.031-1259.6a30.679,30.679,0,0,1,9.719-.2l-17.013-25.455a30.7,30.7,0,0,1-3.9,8.906Z" transform="translate(-2789.84 1285.253)" fill="#f38262"/>
      </g>
      <g id="Group_28136" data-name="Group 28136" transform="translate(2.36 39.138)">
        <path id="Path_137072" data-name="Path 137072" d="M2702.137-1174.406l1.914-1.279-9.4-14.065-1.914,1.279a.927.927,0,0,0-.256,1.286l8.37,12.523A.927.927,0,0,0,2702.137-1174.406Z" transform="translate(-2692.325 1189.75)" fill="#f69f8e"/>
      </g>
      <g id="Group_28137" data-name="Group 28137" transform="translate(15.603 45.123)" style="mix-blend-mode: multiply;isolation: isolate">
        <path id="Path_137073" data-name="Path 137073" d="M2736.494-1160.231l12.832-8.577c-.011-.019-.016-.04-.029-.058l-.9-1.347-12.84,8.581Z" transform="translate(-2735.558 1170.213)" fill="#fcded3"/>
      </g>
      <g id="Group_28138" data-name="Group 28138" transform="translate(3.734 27.421)">
        <path id="Path_137074" data-name="Path 137074" d="M2708.9-1201.057l14.158-9.463a1.22,1.22,0,0,0,.337-1.692l-10.191-15.247a1.219,1.219,0,0,0-1.691-.336l-14.158,9.463a1.219,1.219,0,0,0-.336,1.691l10.191,15.248A1.22,1.22,0,0,0,2708.9-1201.057Z" transform="translate(-2696.812 1228)" fill="#f38262"/>
      </g>
      <g id="Group_28139" data-name="Group 28139" transform="translate(0.509 29.892)">
        <path id="Path_137075" data-name="Path 137075" d="M2707.067-1217.777l-14.026,9.374c-.6.4-.936.938-.758,1.2l.156.234-1.576,1.053c-.419.28-.657.659-.532.846l.073.109-1.634,1.092c-.967.646-1.517,1.52-1.229,1.951l-1.184-1.771c-.288-.432.262-1.3,1.229-1.951l1.635-1.093-.073-.108c-.125-.187.113-.565.532-.846l1.575-1.053-.156-.235c-.178-.266.161-.8.758-1.2l14.026-9.375c.6-.4,1.224-.506,1.4-.24l1.184,1.771C2708.291-1218.284,2707.664-1218.176,2707.067-1217.777Z" transform="translate(-2686.282 1219.935)" fill="#fff"/>
      </g>
      <g id="Group_28140" data-name="Group 28140" transform="translate(37.399)">
        <path id="Path_137076" data-name="Path 137076" d="M2807.4-1317.373l-.317.211a.858.858,0,0,0-.236,1.186l23.849,35.682a.857.857,0,0,0,1.186.236l.316-.212a.857.857,0,0,0,.236-1.185l-23.849-35.683A.858.858,0,0,0,2807.4-1317.373Z" transform="translate(-2806.709 1317.516)" fill="#242638"/>
      </g>
    </g>
    <g id="Group_28151" data-name="Group 28151" transform="translate(2329.576 -1401.089)">
      <g id="Group_28142" data-name="Group 28142" transform="translate(0 0.125)">
        <path id="Path_137077" data-name="Path 137077" d="M2552.187-1169.74a10.319,10.319,0,0,1,.568-.983,4.092,4.092,0,0,1,3.185-2.229c.21-.011.5-.042.773-.03a1.381,1.381,0,0,1,.553.121.189.189,0,0,1,.11.154.2.2,0,0,1-.025.128c.025.035.051.071.063.091a.671.671,0,0,1,.105.58.827.827,0,0,1-.44.465,3.73,3.73,0,0,1-.511.183,8.068,8.068,0,0,0-1.339.372,5.357,5.357,0,0,0-2.984,3.5.192.192,0,0,1-.1.149.191.191,0,0,1-.13.027.192.192,0,0,1-.113-.055.237.237,0,0,1-.054-.084c-.013-.033-.03-.1-.042-.13a1.121,1.121,0,0,1-.021-.438c0-.038,0-.076,0-.114a.194.194,0,0,1-.019-.086c0-.048,0-.1,0-.144a1.606,1.606,0,0,1,.036-.634,3.872,3.872,0,0,1,.379-.838Zm4.753-2.739a1.088,1.088,0,0,0-.135-.027,1.627,1.627,0,0,0-.779.042,8.429,8.429,0,0,0-2.275,1.518,6.623,6.623,0,0,0-1.227,1.411,3.561,3.561,0,0,0-.331,1.02,6.649,6.649,0,0,1,2.853-2.724,8.441,8.441,0,0,1,1.4-.4,3.388,3.388,0,0,0,.459-.161.444.444,0,0,0,.244-.245c.033-.091-.027-.17-.072-.245-.026-.042-.095-.126-.124-.171a.212.212,0,0,1-.012-.02Zm.122.075h0Zm-.012,0,.006,0-.005,0-.005,0,0,0Zm-.013-.006h0l0,0Zm-2.275.187a3.357,3.357,0,0,0-.64.451q.31-.239.64-.451Z" transform="translate(-2551.757 1172.986)" fill-rule="evenodd"/>
      </g>
      <g id="Group_28143" data-name="Group 28143" transform="translate(0.066 0.486)">
        <path id="Path_137078" data-name="Path 137078" d="M2553.052-1169.6a11.188,11.188,0,0,1,1.684-1.852,3.662,3.662,0,0,1,.465-.264.883.883,0,0,1,.3-.087.291.291,0,0,1,.207.069.258.258,0,0,1,.085.156.322.322,0,0,1-.1.261,2.728,2.728,0,0,1-.451.338.208.208,0,0,1-.013.068,4.464,4.464,0,0,1,.634-.329.2.2,0,0,1,.258.107.2.2,0,0,1-.107.258,6.339,6.339,0,0,0-1.837,1.3,8.352,8.352,0,0,1-.787.673c-.006.007-.056.068-.082.094a.283.283,0,0,1-.141.082.249.249,0,0,1-.078,0c-.044.068-.087.137-.129.208a5.242,5.242,0,0,0-.485.9c-.051.143-.049.132-.1.276a.278.278,0,0,0-.009.074c-.015.274-.395.009-.394-.01s0-.009,0-.014v-.006h0a.89.89,0,0,1,.033-.184c.053-.14.052-.13.1-.268a5.6,5.6,0,0,1,.518-.972c.093-.157.19-.306.292-.45a.234.234,0,0,1-.037-.033.194.194,0,0,1,.021-.231l.152-.172Zm-.792,2.159a.2.2,0,0,1,.106.166.182.182,0,0,0-.106-.166Zm-.264.079a.16.16,0,0,0-.023.071.188.188,0,0,1,.023-.071Zm.2-.1h0Z" transform="translate(-2551.972 1171.805)" fill-rule="evenodd"/>
      </g>
      <g id="Group_28144" data-name="Group 28144" transform="translate(1.791 0)">
        <path id="Path_137079" data-name="Path 137079" d="M2558-1171.314a.2.2,0,0,1-.111.157.2.2,0,0,1-.263-.093.253.253,0,0,1,.013-.242,1.155,1.155,0,0,1,.137-.155c.153-.185.271-.39.423-.575a3.687,3.687,0,0,1,1.294-.97,2.018,2.018,0,0,1,1.085-.186,1.782,1.782,0,0,1,.835.333.515.515,0,0,1,.13.672.2.2,0,0,1-.265.087.2.2,0,0,1-.086-.265.164.164,0,0,0,.022-.109.27.27,0,0,0-.139-.146,1.582,1.582,0,0,0-.554-.182,1.622,1.622,0,0,0-.869.157,3.258,3.258,0,0,0-1.147.859c-.152.185-.27.389-.423.575-.014.017-.055.057-.081.081Z" transform="translate(-2557.603 1173.393)" fill-rule="evenodd"/>
      </g>
      <g id="Group_28145" data-name="Group 28145" transform="translate(2.598 0.214)">
        <path id="Path_137080" data-name="Path 137080" d="M2560.771-1171.828a.2.2,0,0,1-.032.031.2.2,0,0,1-.276-.041.2.2,0,0,1,.035-.277,4.6,4.6,0,0,1,.551-.313,2.731,2.731,0,0,1,1.331-.256,1.184,1.184,0,0,1,.477.138c.022,0,.074,0,.093.006a.237.237,0,0,1,.09.029.19.19,0,0,1,.1.175v.008a.262.262,0,0,1,.016.082.281.281,0,0,1,0,.029l0,0a.189.189,0,0,1,.091.134.569.569,0,0,1-.28.584,4.518,4.518,0,0,1-1.245.407,3.252,3.252,0,0,1-.615.194.314.314,0,0,1-.22-.057l-.106.048c-.056.026-.157.1-.218.131a.273.273,0,0,1-.14.026.206.206,0,0,1-.141-.077.214.214,0,0,1-.046-.177.306.306,0,0,1,.144-.218.33.33,0,0,1,.063-.032.193.193,0,0,1,.089-.172,5.193,5.193,0,0,1,1.269-.758,3.174,3.174,0,0,1,.461-.115,2.442,2.442,0,0,0-1.068.234c-.045.019-.368.2-.428.236Zm.014-.236a.2.2,0,0,1,.03.076.191.191,0,0,0-.03-.076Zm0,0-.006-.008.006.008Z" transform="translate(-2560.237 1172.694)" fill-rule="evenodd"/>
      </g>
      <g id="Group_28146" data-name="Group 28146" transform="translate(2.368 5.194)">
        <path id="Path_137081" data-name="Path 137081" d="M2559.86-1153.664a2.219,2.219,0,0,0,.165-.629,4.783,4.783,0,0,1,.19-.954,1.354,1.354,0,0,1,1.362-.8,2.015,2.015,0,0,1,1.544.738.2.2,0,0,0,.276.041.2.2,0,0,0,.041-.276,2.426,2.426,0,0,0-1.852-.9,1.737,1.737,0,0,0-1.735,1.04,4.027,4.027,0,0,0-.189.869,2.492,2.492,0,0,1-.151.679.2.2,0,0,0,.083.267.2.2,0,0,0,.266-.082Z" transform="translate(-2559.488 1156.437)" fill-rule="evenodd"/>
      </g>
      <g id="Group_28147" data-name="Group 28147" transform="translate(1.894 5.071)">
        <path id="Path_137082" data-name="Path 137082" d="M2558.335-1154.415a.193.193,0,0,1,0,.1.2.2,0,0,1-.235.148.187.187,0,0,1-.156-.165c-.005-.031.017-.24.025-.321a2.069,2.069,0,0,1,.094-.489,3.318,3.318,0,0,1,.715-1.235,2.409,2.409,0,0,1,1.87-.44,2.581,2.581,0,0,1,1.718.867.2.2,0,0,1-.041.276.2.2,0,0,1-.276-.041,2.169,2.169,0,0,0-1.451-.711,2.007,2.007,0,0,0-1.558.343,2.874,2.874,0,0,0-.607,1.074,1.7,1.7,0,0,0-.073.394c0,.039-.015.137-.021.2Zm-.376-.031h0v0Zm.005-.011h0Z" transform="translate(-2557.939 1156.84)" fill-rule="evenodd"/>
      </g>
      <g id="Group_28148" data-name="Group 28148" transform="translate(1.223 7.258)">
        <path id="Path_137083" data-name="Path 137083" d="M2556.875-1149.437a.141.141,0,0,1-.032.131.633.633,0,0,1-.139.135,1.891,1.891,0,0,1-.774.32.2.2,0,0,0-.181.212.2.2,0,0,0,.212.181,2.25,2.25,0,0,0,1.128-.528.553.553,0,0,0,.159-.581.2.2,0,0,0-.251-.121.2.2,0,0,0-.121.251Z" transform="translate(-2555.748 1149.699)" fill-rule="evenodd"/>
      </g>
      <g id="Group_28149" data-name="Group 28149" transform="translate(1.492 6.993)">
        <path id="Path_137084" data-name="Path 137084" d="M2557.51-1150.412a.12.12,0,0,1-.035.071.167.167,0,0,1-.13.007,1.483,1.483,0,0,1-.423-.178.2.2,0,0,0-.268.075.2.2,0,0,0,.075.269,1.611,1.611,0,0,0,.686.235.489.489,0,0,0,.3-.091.5.5,0,0,0,.183-.3.2.2,0,0,0-.146-.237.2.2,0,0,0-.237.146Z" transform="translate(-2556.628 1150.564)" fill-rule="evenodd"/>
      </g>
      <g id="Group_28150" data-name="Group 28150" transform="translate(1.777 5.955)">
        <path id="Path_137085" data-name="Path 137085" d="M2558.387-1153.479a.1.1,0,0,1-.083-.009.5.5,0,0,1-.109-.07,1.851,1.851,0,0,1-.282-.316.2.2,0,0,0-.275-.041.2.2,0,0,0-.041.276,1.9,1.9,0,0,0,.443.455.522.522,0,0,0,.505.066.2.2,0,0,0,.1-.26.2.2,0,0,0-.26-.1Z" transform="translate(-2557.558 1153.953)" fill-rule="evenodd"/>
      </g>
    </g>
    <g id="Group_28161" data-name="Group 28161" transform="translate(2340.971 -1404.478)">
      <g id="Group_28152" data-name="Group 28152" transform="translate(0.007 0)">
        <path id="Path_137086" data-name="Path 137086" d="M2594.939-1183.579a3.882,3.882,0,0,1,.805.444,1.607,1.607,0,0,1,.409.486c.031.037.061.074.09.113a.2.2,0,0,1,.036.08q.032.046.068.092a1.12,1.12,0,0,1,.245.363c.009.03.035.095.044.129a.247.247,0,0,1,.007.1.192.192,0,0,1-.057.112.191.191,0,0,1-.121.057.192.192,0,0,1-.166-.062,5.357,5.357,0,0,0-4.483-1.012,8.02,8.02,0,0,0-1.295.5,3.864,3.864,0,0,1-.52.16.827.827,0,0,1-.631-.109.671.671,0,0,1-.263-.528c0-.023,0-.067,0-.11a.191.191,0,0,1-.1-.087.188.188,0,0,1,0-.19,1.387,1.387,0,0,1,.371-.428c.21-.172.463-.321.637-.438a4.092,4.092,0,0,1,3.885-.121,10.375,10.375,0,0,1,1.043.448Zm-5.446.652c0,.007,0,.015,0,.023,0,.054,0,.162,0,.211.009.087.008.187.089.24a.445.445,0,0,0,.342.05,3.388,3.388,0,0,0,.465-.145,8.455,8.455,0,0,1,1.358-.52,6.649,6.649,0,0,1,3.916.474,3.541,3.541,0,0,0-.875-.619,6.618,6.618,0,0,0-1.828-.4,8.434,8.434,0,0,0-2.732.146,1.638,1.638,0,0,0-.649.433.986.986,0,0,0-.092.1Zm-.053.134v0l0,0v0Zm.007-.011,0,0,0,.005,0,0,0,0Zm.007-.012v0l0,0v0Zm1.935-1.213c.26-.019.522-.026.782-.022a3.356,3.356,0,0,0-.782.022Z" transform="translate(-2588.979 1184.457)" fill-rule="evenodd"/>
      </g>
      <g id="Group_28153" data-name="Group 28153" transform="translate(1.571 0.286)">
        <path id="Path_137087" data-name="Path 137087" d="M2597.5-1183.049l.224.047a.194.194,0,0,1,.156.173.255.255,0,0,1-.01.049q.25.082.5.186a5.655,5.655,0,0,1,1,.469c.123.081.116.074.242.154a.948.948,0,0,1,.137.127h0v0l0,0,0,0,0,0,0,0,0,.005.009.011c.011.015-.134.455-.31.244a.286.286,0,0,0-.052-.054c-.13-.082-.123-.075-.249-.159a5.223,5.223,0,0,0-.929-.433c-.076-.031-.152-.061-.228-.089a.248.248,0,0,1-.065.043.284.284,0,0,1-.162.019c-.036-.005-.113-.024-.122-.026a8.378,8.378,0,0,1-1.034-.068,6.339,6.339,0,0,0-2.252.056.2.2,0,0,1-.239-.142.2.2,0,0,1,.143-.24,4.442,4.442,0,0,1,.7-.116.215.215,0,0,1-.052-.047,2.745,2.745,0,0,1-.563,0,.323.323,0,0,1-.236-.149.259.259,0,0,1-.026-.176.291.291,0,0,1,.125-.179.878.878,0,0,1,.295-.113,3.7,3.7,0,0,1,.531-.068,11.19,11.19,0,0,1,2.458.475Zm1.927,1.256a.182.182,0,0,0,.015.2.2.2,0,0,1-.015-.2Zm.259-.095a.2.2,0,0,1,.062.043.165.165,0,0,0-.062-.043Zm-.22.041Z" transform="translate(-2594.086 1183.524)" fill-rule="evenodd"/>
      </g>
      <g id="Group_28154" data-name="Group 28154" transform="translate(0 0.199)">
        <path id="Path_137088" data-name="Path 137088" d="M2592.741-1183.111a.2.2,0,0,0,.183.06.2.2,0,0,0,.155-.232.255.255,0,0,0-.155-.186,1.172,1.172,0,0,0-.2-.041c-.233-.057-.45-.15-.683-.207a3.683,3.683,0,0,0-1.617,0,2.018,2.018,0,0,0-.98.5,1.776,1.776,0,0,0-.469.767.514.514,0,0,0,.3.615.2.2,0,0,0,.264-.089.2.2,0,0,0-.089-.264.16.16,0,0,1-.083-.074.27.27,0,0,1,.024-.2,1.579,1.579,0,0,1,.335-.477,1.622,1.622,0,0,1,.79-.394,3.259,3.259,0,0,1,1.433,0c.233.057.449.15.683.207.021.005.079.013.114.017Z" transform="translate(-2588.957 1183.809)" fill-rule="evenodd"/>
      </g>
      <g id="Group_28155" data-name="Group 28155" transform="translate(0.188 0.266)">
        <path id="Path_137089" data-name="Path 137089" d="M2591.815-1183.193c-.069.009-.437.055-.484.068a2.439,2.439,0,0,0-.994.452,3.155,3.155,0,0,1,.438-.184,5.193,5.193,0,0,1,1.47-.153.19.19,0,0,1,.174.084.354.354,0,0,1,.07-.012.306.306,0,0,1,.246.089.213.213,0,0,1,.069.169.205.205,0,0,1-.067.146.275.275,0,0,1-.127.063c-.065.015-.192.013-.253.026l-.114.026a.312.312,0,0,1-.141.178,3.238,3.238,0,0,1-.609.213,4.519,4.519,0,0,1-1.241.419.569.569,0,0,1-.574-.3.19.19,0,0,1-.007-.162v0a.219.219,0,0,1-.017-.023.256.256,0,0,1-.036-.075l0-.006a.191.191,0,0,1-.025-.2.242.242,0,0,1,.055-.077c.014-.013.054-.046.071-.061a1.175,1.175,0,0,1,.3-.4,2.734,2.734,0,0,1,1.22-.592,4.622,4.622,0,0,1,.628-.079.2.2,0,0,1,.194.2.2.2,0,0,1-.2.2.2.2,0,0,1-.045,0Zm-.153-.181a.188.188,0,0,0,.021.079.2.2,0,0,1-.021-.079Zm0,0v0Z" transform="translate(-2589.572 1183.587)" fill-rule="evenodd"/>
      </g>
      <g id="Group_28156" data-name="Group 28156" transform="translate(2.881 4.315)">
        <path id="Path_137090" data-name="Path 137090" d="M2602.349-1168.743a2.21,2.21,0,0,1-.509-.4,4.811,4.811,0,0,0-.723-.65,1.355,1.355,0,0,0-1.568.178,2.018,2.018,0,0,0-.794,1.515.2.2,0,0,1-.2.2.2.2,0,0,1-.2-.2,2.423,2.423,0,0,1,.946-1.827,1.737,1.737,0,0,1,2.011-.207,4.045,4.045,0,0,1,.672.583,2.5,2.5,0,0,0,.527.454.2.2,0,0,1,.094.263.2.2,0,0,1-.262.094Z" transform="translate(-2598.361 1170.369)" fill-rule="evenodd"/>
      </g>
      <g id="Group_28157" data-name="Group 28157" transform="translate(2.804 3.985)">
        <path id="Path_137091" data-name="Path 137091" d="M2602.254-1170.138l-.134-.144a1.666,1.666,0,0,0-.295-.272,2.863,2.863,0,0,0-1.129-.5,2.006,2.006,0,0,0-1.453.658,2.175,2.175,0,0,0-.737,1.439.2.2,0,0,1-.2.2.2.2,0,0,1-.2-.2,2.581,2.581,0,0,1,.857-1.724,2.41,2.41,0,0,1,1.761-.768,3.311,3.311,0,0,1,1.313.561,2.075,2.075,0,0,1,.368.335c.055.06.2.214.212.242a.188.188,0,0,1-.026.225.2.2,0,0,1-.277.022.194.194,0,0,1-.066-.079Zm.282-.25h0l0,0Zm-.01-.006h0Z" transform="translate(-2598.112 1171.449)" fill-rule="evenodd"/>
      </g>
      <g id="Group_28158" data-name="Group 28158" transform="translate(6.529 5.213)">
        <path id="Path_137092" data-name="Path 137092" d="M2610.655-1167.3a.142.142,0,0,0,.1.085.627.627,0,0,0,.193.025,1.9,1.9,0,0,0,.812-.207.2.2,0,0,1,.272.062.2.2,0,0,1-.062.272,2.257,2.257,0,0,1-1.22.253.553.553,0,0,1-.475-.371.2.2,0,0,1,.129-.247.2.2,0,0,1,.247.129Z" transform="translate(-2610.27 1167.438)" fill-rule="evenodd"/>
      </g>
      <g id="Group_28159" data-name="Group 28159" transform="translate(6.346 4.516)">
        <path id="Path_137093" data-name="Path 137093" d="M2610-1169.167a.12.12,0,0,0,.071.036c.043,0,.074-.036.108-.072a1.481,1.481,0,0,0,.232-.4.2.2,0,0,1,.26-.1.2.2,0,0,1,.1.26,1.615,1.615,0,0,1-.409.6.49.49,0,0,1-.291.1.5.5,0,0,1-.325-.128.2.2,0,0,1-.025-.278.2.2,0,0,1,.277-.025Z" transform="translate(-2609.675 1169.716)" fill-rule="evenodd"/>
      </g>
      <g id="Group_28160" data-name="Group 28160" transform="translate(5.903 3.833)">
        <path id="Path_137094" data-name="Path 137094" d="M2608.379-1171.145a.1.1,0,0,0,.061-.057.469.469,0,0,0,.045-.122,1.787,1.787,0,0,0,.037-.421.2.2,0,0,1,.2-.2.2.2,0,0,1,.2.2,1.909,1.909,0,0,1-.083.63.522.522,0,0,1-.365.355.2.2,0,0,1-.237-.147.2.2,0,0,1,.147-.236Z" transform="translate(-2608.227 1171.943)" fill-rule="evenodd"/>
      </g>
    </g>
  </g>
</svg>
