<svg xmlns="http://www.w3.org/2000/svg" xmlns:xlink="http://www.w3.org/1999/xlink" width="148.987" height="50" viewBox="0 0 148.987 50">
  <defs>
    <linearGradient id="linear-gradient" x1="0.903" y1="0.5" x2="0" y2="0.5" gradientUnits="objectBoundingBox">
      <stop offset="0" stop-color="#1e64ff"/>
      <stop offset="1" stop-color="#1e64ff" stop-opacity="0"/>
    </linearGradient>
  </defs>
  <g id="_05---Landings" data-name="05---Landings" transform="translate(-2 -0.762)">
    <g id="_004.0.0-Brand-Kit" data-name="004.0.0-Brand-Kit" transform="translate(2 0.762)">
      <g id="Group-2-Copy" transform="translate(0 0)">
        <g id="Group-4" transform="translate(0 0)">
          <g id="Group">
            <g id="Group-2" data-name="Group">
              <g id="Group-21" transform="translate(70.111)">
                <path id="Combined-Shape" d="M18.691,7.322a1.972,1.972,0,0,1,3.5,1.817h0l-9,17.3a1.975,1.975,0,0,1-1.67,1.056,1.924,1.924,0,0,1-1-.22,1.962,1.962,0,0,1-.84-2.653h0l2.545-4.9L6.718,9.139a1.973,1.973,0,0,1,3.5-1.817h0l4.235,8.133ZM54.921,6a7.957,7.957,0,0,1,5.654,2.333,1.971,1.971,0,1,1-2.793,2.783,4.03,4.03,0,1,0,0,5.695,1.97,1.97,0,1,1,2.793,2.779A7.976,7.976,0,1,1,54.921,6ZM70.883,6a7.963,7.963,0,1,1-7.99,7.963A7.986,7.986,0,0,1,70.883,6Zm-68.7.263A1.97,1.97,0,0,1,4.155,8.227h0v11.5a1.974,1.974,0,0,1-3.949,0h0V8.227A1.97,1.97,0,0,1,2.18,6.263Zm32.529,0h.91a1.968,1.968,0,0,1,1.439,3.228h0L30.09,17.763h5.454a1.967,1.967,0,1,1,0,3.933H25.857a1.967,1.967,0,0,1-1.512-3.23h0L31.313,10.2H26.758a1.967,1.967,0,1,1,0-3.935H34.71Zm7.659,0a1.969,1.969,0,0,1,1.974,1.964h0v11.5a1.973,1.973,0,0,1-3.946,0h0V8.227A1.969,1.969,0,0,1,42.369,6.263ZM70.883,9.936a4.029,4.029,0,1,0,4.044,4.027A4.038,4.038,0,0,0,70.883,9.936ZM2.18,0A2.174,2.174,0,1,1,0,2.174,2.178,2.178,0,0,1,2.18,0ZM42.369,0a2.174,2.174,0,1,1-2.182,2.174A2.178,2.178,0,0,1,42.369,0Z" transform="translate(0 0)" fill="#1e64ff" fill-rule="evenodd"/>
              </g>
              <path id="Combined-Shape-2" data-name="Combined-Shape" d="M129.3,45.84a6.977,6.977,0,1,1-6.746,6.973A6.9,6.9,0,0,1,129.3,45.84Zm16.944-.137a1.055,1.055,0,0,1,1.047,1.035V58.731a1.055,1.055,0,0,1-1.047,1.035,1.038,1.038,0,0,1-1.028-1.035V57.677a3.132,3.132,0,0,1-3.179,2.109,4.861,4.861,0,0,1-4.729-5.213,4.891,4.891,0,0,1,4.729-5.2,3.4,3.4,0,0,1,3.179,1.875V50.47a.661.661,0,0,1,.02-.2V46.739A1.035,1.035,0,0,1,146.241,45.7ZM99.657,49.435a.818.818,0,0,1,.794.82v8.671a.805.805,0,1,1-1.609,0V50.256A.822.822,0,0,1,99.657,49.435Zm3.76-3.731a.815.815,0,0,1,.8.8V58.927a.8.8,0,1,1-1.609,0V46.505A.818.818,0,0,1,103.417,45.7Zm7.5,3.672a4.9,4.9,0,0,1,4.864,4.922c0,.624-.368.918-1.027.918l-7.133-.039a3.37,3.37,0,0,0,3.508,3.222,3.538,3.538,0,0,0,2.248-.743,1.231,1.231,0,0,1,.679-.292.571.571,0,0,1,.6.605.968.968,0,0,1-.427.723,4.768,4.768,0,0,1-3.14,1.054,4.943,4.943,0,0,1-5.136-5.156A5.013,5.013,0,0,1,110.92,49.376Zm43.133,0a4.888,4.888,0,0,1,4.865,4.863c0,.8-.446,1.114-1.28,1.114l-6.493-.02a3.01,3.01,0,0,0,3.179,2.715,3.384,3.384,0,0,0,1.938-.566,1.778,1.778,0,0,1,.814-.313.69.69,0,0,1,.718.742,1.111,1.111,0,0,1-.524.878,4.746,4.746,0,0,1-3.024.957,4.971,4.971,0,0,1-5.213-5.156A5.057,5.057,0,0,1,154.054,49.376Zm-11.69,1.777a3.125,3.125,0,0,0-3,3.419,3.13,3.13,0,0,0,3,3.437c1.318,0,2.946-1.016,2.946-3.437C145.31,52.13,143.682,51.153,142.364,51.153ZM129.3,47.833a4.99,4.99,0,1,0,4.555,4.981A4.741,4.741,0,0,0,129.3,47.833ZM110.92,50.8a3.277,3.277,0,0,0-3.3,3.163h6.59A3.265,3.265,0,0,0,110.92,50.8Zm43.133.37a2.846,2.846,0,0,0-2.908,2.676h5.776A2.8,2.8,0,0,0,154.054,51.173Zm-54.4-5.664a.821.821,0,1,1-.833.82A.835.835,0,0,1,99.657,45.509Zm32.024-3.223a1.114,1.114,0,1,1-1.124,1.114A1.125,1.125,0,0,1,131.681,42.286Zm-4.768,0a1.114,1.114,0,1,1-1.125,1.114A1.125,1.125,0,0,1,126.913,42.286Z" transform="translate(-28.712 -12.286)" fill="#495057" fill-rule="evenodd"/>
              <g id="Group-3">
                <path id="Fill-1" d="M6.2,0A6.224,6.224,0,0,0,0,6.25v37.5A6.224,6.224,0,0,0,6.2,50H44.22a6.189,6.189,0,0,0,5.5-3.364L59.4,27.887a6.3,6.3,0,0,0,.7-2.833v-.107a6.293,6.293,0,0,0-.7-2.833L49.717,3.364A6.19,6.19,0,0,0,44.22,0Z" fill-rule="evenodd" fill="url(#linear-gradient)"/>
              </g>
            </g>
          </g>
        </g>
      </g>
    </g>
  </g>
</svg>
