<svg id="_Method-View" data-name="👉Method-View" xmlns="http://www.w3.org/2000/svg" xmlns:xlink="http://www.w3.org/1999/xlink" width="372" height="27" viewBox="0 0 372 27">
  <defs>
    <radialGradient id="radial-gradient" cx="0.176" cy="0.175" r="1.344" gradientTransform="translate(0.054) scale(0.694 1)" gradientUnits="objectBoundingBox">
      <stop offset="0" stop-color="#9dd5f6"/>
      <stop offset="0.071" stop-color="#98d3f5"/>
      <stop offset="0.157" stop-color="#89cef3"/>
      <stop offset="0.252" stop-color="#70c6ef"/>
      <stop offset="0.351" stop-color="#4ebbea"/>
      <stop offset="0.455" stop-color="#23ade3"/>
      <stop offset="0.5" stop-color="#0da6e0"/>
      <stop offset="1" stop-color="#2e77bc"/>
    </radialGradient>
    <linearGradient id="linear-gradient" y1="0.5" x2="1" y2="0.5" gradientUnits="objectBoundingBox">
      <stop offset="0" stop-color="#1d1c45"/>
      <stop offset="1" stop-color="#174489"/>
    </linearGradient>
    <linearGradient id="linear-gradient-2" x1="0.903" y1="0.5" x2="0" y2="0.5" gradientUnits="objectBoundingBox">
      <stop offset="0" stop-color="#1e64ff"/>
      <stop offset="1" stop-color="#1e64ff" stop-opacity="0"/>
    </linearGradient>
  </defs>
  <g id="PWI_Method_02_FooterAlternatives">
    <g id="logo-band-iyzicoileode">
      <g id="Troy-Logo" transform="translate(320.839 2.601)">
        <g id="Group_1_" transform="translate(1.333 19.704)">
          <path id="Path_6_" d="M.707.673H.36A.085.085,0,0,0,.273.76V.847H.1V.673A.187.187,0,0,1,.273.5H1.4c.087,0,.173,0,.087.173V.847H1.314V.673H.88L.534,2.234H.36Z" transform="translate(-0.1 -0.153)" fill="#323e48" fill-rule="evenodd"/>
          <path id="Shape_5_" d="M1.769,1.194h0L1.6,1.107V.934h.173c.087,0,.173,0,.087.173l-.087.607c0,.173,0,.347.173.347a.56.56,0,0,0,.52-.52L2.549.934h.26l-.26,1.041v.087h.087v.173H2.549c-.087,0-.173-.087-.087-.173V1.887h0a.585.585,0,0,1-.52.347c-.347,0-.434-.173-.347-.434ZM2.115.5h.173L2.2.76H2.115Zm.347,0h.173V.76H2.462Z" transform="translate(-0.295 -0.153)" fill="#323e48"/>
          <path id="Path_7_" d="M3.373,1.26h0l-.087-.087V1H3.46c.087,0,.173,0,.087.173v.173h0A.576.576,0,0,1,3.98,1h.087v.173H3.98a.576.576,0,0,0-.434.347c0,.087-.087.173-.087.26l-.087.52H3.2Z" transform="translate(-0.512 -0.22)" fill="#323e48" fill-rule="evenodd"/>
          <path id="Path_8_" d="M4.447.76h0L4.273.673V.5h.173c.087,0,.173,0,.087.173l-.087.78h.087c.087,0,.087,0,.173-.087L5.141.934h.173l-.434.52-.087.087h0l.087.087.087.434a.085.085,0,0,0,.087.087h.087v.173H4.967c-.087,0-.173,0-.173-.087L4.62,1.627a.085.085,0,0,0-.087-.087H4.447l-.173.694H4.1Z" transform="translate(-0.631 -0.153)" fill="#323e48" fill-rule="evenodd"/>
          <path id="Shape_6_" d="M6.029,1.194a.085.085,0,0,0-.087-.087h-.26L5.768.934H6.2c.26,0,.347,0,.26.173l-.52.867a.085.085,0,0,0,.087.087h.26L6.2,2.234H5.855c-.26,0-.347-.087-.26-.173ZM6.375.5h.347L6.636.76H6.289Z" transform="translate(-0.826 -0.153)" fill="#323e48"/>
          <path id="Path_9_" d="M6.16,2.648c.087,0,.173-.087.26-.173L6.507,2.3,6.334,1.26a.085.085,0,0,0-.087-.087h0V1h.087c.087,0,.173,0,.173.087l.173.78v.173h0a.269.269,0,0,1,.087-.173l.434-.78C7.287,1,7.287,1,7.374,1h.087v.173h0a.085.085,0,0,0-.087.087l-.867,1.3a.662.662,0,0,1-.434.173c-.173,0-.173-.087-.173-.087l.087-.087s0,.087.173.087" transform="translate(-0.871 -0.22)" fill="#323e48" fill-rule="evenodd"/>
          <path id="Shape_7_" d="M8.391,1a.438.438,0,0,1,.434.607v.087H7.871c-.087.26.087.434.347.434a.663.663,0,0,0,.434-.173l.087.087a.76.76,0,0,1-.52.173.488.488,0,0,1-.52-.607A.736.736,0,0,1,8.391,1Zm.26.52c.087-.26-.087-.347-.26-.347a.713.713,0,0,0-.52.347Z" transform="translate(-1.107 -0.22)" fill="#323e48"/>
          <path id="Path_10_" d="M9.473.5h.173L9.473.934H9.3Z" transform="translate(-1.322 -0.153)" fill="#323e48" fill-rule="evenodd"/>
          <path id="Path_11_" d="M9.873,1.26h0l-.087-.087V1H9.96c.087,0,.173,0,.087.173v.173h0c.087-.087.26-.347.52-.347.347,0,.347.173.347.434l-.087.607v.087h.087V2.3h-.173c-.087,0-.173-.087-.087-.173l.087-.607c0-.173.087-.347-.173-.347a.713.713,0,0,0-.52.347c0,.087,0,.087-.087.173L9.873,2.3H9.7Z" transform="translate(-1.376 -0.22)" fill="#323e48" fill-rule="evenodd"/>
          <path id="Shape_8_" d="M11.829,1.194a.085.085,0,0,0-.087-.087h-.26l.087-.173H12c.26,0,.347,0,.26.173l-.434.867a.085.085,0,0,0,.087.087h.26l-.087.173h-.434c-.26,0-.347-.087-.26-.173ZM12.175.5h.347l-.087.173h-.347Z" transform="translate(-1.596 -0.153)" fill="#323e48"/>
          <path id="Path_12_" d="M12.26,1.26h0l-.173-.087V1h.173c.087,0,.173,0,.087.173v.173h0A1.027,1.027,0,0,1,12.954,1c.26,0,.347.173.26.434l-.087.607v.087h.087V2.3h-.173c-.087,0-.173-.087-.087-.173l.087-.607c0-.173.087-.347-.173-.347a.713.713,0,0,0-.52.347c0,.087,0,.087-.087.173l-.173.607H12Z" transform="translate(-1.681 -0.22)" fill="#323e48" fill-rule="evenodd"/>
          <path id="Shape_9_" d="M15.638.447a.664.664,0,0,1,.694.867,1.1,1.1,0,0,1-1.041.867.664.664,0,0,1-.694-.867A1.03,1.03,0,0,1,15.638.447ZM15.2,2.008a1.03,1.03,0,0,0,.867-.694.525.525,0,0,0-.52-.694,1.03,1.03,0,0,0-.867.694A.525.525,0,0,0,15.2,2.008ZM15.465.1h.173l-.087.173h-.173Zm.347,0h.173L15.9.273h-.173Z" transform="translate(-2.024 -0.1)" fill="#323e48"/>
          <path id="Shape_10_" d="M17.4.92a.387.387,0,0,1,.347.26h0V1.094L17.836.66V.573h-.087V.4h.173c.087,0,.173,0,.087.173l-.26,1.3v.087h.087v.173h-.173c-.087,0-.173-.087-.087-.173V1.874h0a.6.6,0,0,1-.434.26c-.347,0-.434-.26-.347-.607A.593.593,0,0,1,17.4.92m.26.694c.087-.26,0-.52-.26-.52a.629.629,0,0,0-.52.52c-.087.26.087.52.26.52a.772.772,0,0,0,.52-.52" transform="translate(-2.314 -0.14)" fill="#323e48"/>
          <path id="Shape_11_" d="M19.091,1c.347,0,.434.26.434.52v.087h-.954a.382.382,0,0,0,.347.52.663.663,0,0,0,.434-.173l.087.087a1.1,1.1,0,0,1-.52.173.488.488,0,0,1-.52-.607A.67.67,0,0,1,19.091,1Zm.173.52c.087-.26-.087-.347-.26-.347a.539.539,0,0,0-.52.347Z" transform="translate(-2.529 -0.22)" fill="#323e48"/>
          <path id="Path_13_" d="M19.973,1.26c.087,0,0-.087,0,0L19.8,1.173V1h.173c.087,0,.173,0,.087.173v.173h0A1.1,1.1,0,0,1,20.667,1c.26,0,.347.087.347.26h0a.741.741,0,0,1,.52-.26c.26,0,.347.173.26.434l-.087.607v.087h.087V2.3h-.173c-.087,0-.173-.087-.087-.173l.173-.607c.087-.173,0-.347-.173-.347a.576.576,0,0,0-.434.347c0,.087-.087.087-.087.173l-.087.607h-.173l.173-.694c0-.173.087-.347-.173-.347a.576.576,0,0,0-.434.347c0,.087-.087.087-.087.173l-.26.52H19.8Z" transform="translate(-2.717 -0.22)" fill="#323e48" fill-rule="evenodd"/>
          <path id="Shape_12_" d="M23.191,1c.347,0,.434.26.434.52v.087h-.954a.382.382,0,0,0,.347.52.663.663,0,0,0,.434-.173l.087.087a1.1,1.1,0,0,1-.52.173.488.488,0,0,1-.52-.607A.67.67,0,0,1,23.191,1Zm.173.52c.087-.26-.087-.347-.26-.347a.539.539,0,0,0-.52.347Z" transform="translate(-3.074 -0.22)" fill="#323e48"/>
          <path id="Path_14_" d="M25.147,1.441l-.26-.78A.085.085,0,0,0,24.8.573h0V.4h.087c.087,0,.173,0,.173.173l.173.434a.3.3,0,0,0,.087.173h0l.173-.173L25.841.66c.087-.087.173-.173.26-.173h.087V.66h0c-.087,0-.087,0-.087.087l-.607.78-.173.694h-.347Z" transform="translate(-3.382 -0.14)" fill="#323e48" fill-rule="evenodd"/>
          <path id="Shape_13_" d="M26.778.934a.488.488,0,0,1,.52.607.833.833,0,0,1-.78.607A.488.488,0,0,1,26,1.541.96.96,0,0,1,26.778.934Zm-.26,1.127a.633.633,0,0,0,.607-.52c.087-.26-.087-.434-.347-.434a.652.652,0,0,0-.607.434C26.084,1.887,26.258,2.061,26.518,2.061ZM26.6.5h.173l-.087.173h-.173Zm.347,0h.173V.673h-.173Z" transform="translate(-3.539 -0.153)" fill="#323e48"/>
          <path id="Path_15_" d="M27.873,1.26h0L27.7,1.173V1h.26c.087,0,.173,0,.087.173v.173h0c.087-.087.26-.347.52-.347s.347.173.26.434l-.087.607a.085.085,0,0,0,.087.087h.087V2.3h-.173c-.087,0-.173-.087-.087-.173l.087-.607c0-.173.087-.347-.173-.347a.713.713,0,0,0-.52.347c-.087.087-.087.087-.087.173l-.087.607H27.7Z" transform="translate(-3.767 -0.22)" fill="#323e48" fill-rule="evenodd"/>
          <path id="Path_16_" d="M29.571,1.12H29.4V.947h.173L29.657.6h.173l-.087.347h.347V1.12h-.347l-.173.607c-.087.26.087.347.173.347h.087v.173h-.087c-.173,0-.434-.087-.347-.434Z" transform="translate(-3.99 -0.166)" fill="#323e48" fill-rule="evenodd"/>
          <path id="Shape_14_" d="M30.991,1c.347,0,.434.26.434.52v.087h-.954a.382.382,0,0,0,.347.52.663.663,0,0,0,.434-.173l.087.087a.76.76,0,0,1-.52.173.488.488,0,0,1-.52-.607A.67.67,0,0,1,30.991,1Zm.26.52c.087-.26-.087-.347-.26-.347a.539.539,0,0,0-.52.347Z" transform="translate(-4.11 -0.22)" fill="#323e48"/>
          <path id="Path_17_" d="M31.973,1.26h0L31.8,1.173V1h.173c.087,0,.173,0,.087.173v.173h0c.173-.173.347-.347.52-.347.26,0,.347.087.347.26h0a.989.989,0,0,1,.52-.26q.39,0,.26.52l-.087.607v.087h.087v.173h-.173c-.087,0-.173-.087-.087-.173l.087-.607c.087-.173,0-.347-.173-.347a.576.576,0,0,0-.434.347c0,.087-.087.087-.087.173l-.087.607H32.58l.173-.694c0-.173.087-.347-.173-.347a.576.576,0,0,0-.434.347c0,.087,0,.087-.087.173l-.087.607H31.8Z" transform="translate(-4.312 -0.22)" fill="#323e48" fill-rule="evenodd"/>
          <path id="Shape_15_" d="M34.829,1.194a.085.085,0,0,0-.087-.087h-.26l.087-.173H35c.26,0,.347,0,.26.173l-.434.867a.085.085,0,0,0,.087.087h.26l-.087.173h-.434c-.26,0-.347-.087-.26-.173ZM35.175.5h.347l-.087.173h-.347Z" transform="translate(-4.652 -0.153)" fill="#323e48"/>
        </g>
        <g id="Group_2_">
          <g id="Path_18_">
            <path id="Path" d="M51.768,4.4a2.123,2.123,0,0,0-1.821,1.127l-3.3,7.544L45.438,5.527A1.329,1.329,0,0,0,44.05,4.4H39.8l3.642,12.573a1.2,1.2,0,0,1,0,.78,2.307,2.307,0,0,1-2.168,1.908H38.934c-.607,0-.954.347-1.214,1.214L37.2,24h4.162a7.326,7.326,0,0,0,6.417-4.076L56.1,4.4Z" transform="translate(-4.943 -0.672)" fill="#323e48" fill-rule="evenodd"/>
            <path id="Path-2" data-name="Path" d="M5.9,0C7.11,0,7.717.52,7.544,1.734L7.2,3.729h2.862L9.452,7.284H6.5l-.78,4.422c-.26,1.561,1.214,1.734,2.168,1.734h.434l-.694,3.9c-.173,0-.434.087-.867.087C4.6,17.429.52,16.822,1.3,12.313l.867-5.029H0L.607,3.729H2.688L3.382,0Z" fill="#323e48" fill-rule="evenodd"/>
            <g id="Group" transform="translate(20.977 3.606)">
              <path id="Path-3" data-name="Path" d="M10.041.3l-.78,4.162A2.824,2.824,0,0,1,10.822,6.89,2.8,2.8,0,0,1,8.394,9.665L7.7,13.827h.434A6.957,6.957,0,0,0,15.071,6.89,7.166,7.166,0,0,0,10.041.3Z" transform="translate(-1.023 -0.04)" fill="#00adbb" fill-rule="evenodd"/>
              <path id="Path-4" data-name="Path" d="M5.723,9.365A2.824,2.824,0,0,1,4.162,6.937,2.8,2.8,0,0,1,6.59,4.162L7.371,0H6.937A6.906,6.906,0,0,0,4.943,13.527Z" fill="#00adbb" fill-rule="evenodd"/>
            </g>
            <path id="Path-5" data-name="Path" d="M13.128,4.373h2.428c1.214,0,1.821.52,1.648,1.734l-.26,1.474A5.989,5.989,0,0,1,21.886,4.2a1.89,1.89,0,0,1,.52.087L21.626,8.8a4.334,4.334,0,0,0-.954-.087,4.3,4.3,0,0,0-3.989,2.341,5.6,5.6,0,0,0-.52,1.821L15.3,17.9H10.7Z" transform="translate(-1.422 -0.591)" fill="#323e48" fill-rule="evenodd"/>
          </g>
          <path id="Shape_16_" d="M58.548,20.474a1.48,1.48,0,1,1-.434-1.041A1.436,1.436,0,0,1,58.548,20.474Zm-.26,0a1.185,1.185,0,1,0-.347.867A1.113,1.113,0,0,0,58.288,20.474Zm-.607.78h-.26l-.347-.694h-.26v.694h-.26V19.694h.52a.613.613,0,0,1,.52.52c0,.26-.087.347-.347.434Zm-.26-1.127c0-.087,0-.173-.087-.173s-.173-.087-.26-.087h-.26v.52h.26a.319.319,0,0,0,.26-.087A.3.3,0,0,0,57.421,20.127Z" transform="translate(-7.387 -2.595)" fill="#323e48"/>
        </g>
      </g>
      <g id="American_Express" transform="translate(254.937)">
        <path id="Path_5_" d="M37.46,0H0V25.926H37.46V17.371" fill-rule="evenodd" fill="url(#radial-gradient)"/>
        <g id="Group-2" data-name="Group" transform="translate(0.087 5.768)">
          <path id="Shape_3_" d="M3.4,3.482,2.7,1.748,2.008,3.482Zm15.7-.694a1.1,1.1,0,0,1-.52.087H17.356V1.921h1.3a1.1,1.1,0,0,1,.52.087c.173.087.26.173.26.347A.866.866,0,0,1,19.09,2.788Zm9.018.694-.694-1.734-.694,1.734ZM11.286,5.39H10.245V1.921L8.771,5.39H7.817L6.343,1.921V5.39H4.176l-.347-.954H1.661l-.434.954H.1L1.921.967H3.482L5.216,5.129V.967H6.95L8.338,3.915,9.552.967h1.734Zm4.249,0H12.066V.967h3.469v.954H13.107V2.7h2.341v.867H13.107v.867h2.428Zm4.943-3.208a1.142,1.142,0,0,1-.694,1.127,1.333,1.333,0,0,1,.52.347,1.166,1.166,0,0,1,.173.78V5.3H19.437v-.52a1.563,1.563,0,0,0-.173-.867c-.173-.173-.347-.173-.78-.173H17.356V5.3H16.315V.967h2.428a2.962,2.962,0,0,1,1.3.173A1.3,1.3,0,0,1,20.478,2.181ZM22.125,5.39H21.085V.967h1.041Zm12.313,0H32.964l-1.994-3.3v3.3H28.889l-.434-.954H26.287l-.434.954H24.64a1.833,1.833,0,0,1-1.474-.52,2.208,2.208,0,0,1-.52-1.648,2.436,2.436,0,0,1,.52-1.734,2.12,2.12,0,0,1,1.561-.52h1.041v.954h-.954a1.06,1.06,0,0,0-.78.26,1.4,1.4,0,0,0-.26.954,1.849,1.849,0,0,0,.26,1.041.985.985,0,0,0,.694.26h.434L26.634.967H28.2l1.734,4.162V.967H31.49L33.311,4V.967h1.041l.087,4.422ZM.1,6.257H1.834L2.268,5.3h.867l.434.954H7.037v-.78l.347.78H9.2l.347-.78v.78h8.671V4.7H18.4c.087,0,.173,0,.173.173V6.257h4.509V5.91a3.893,3.893,0,0,0,1.648.347h1.908l.434-.954h.867l.434.954H32.01V5.3l.52.954h2.948V.1H32.617V.88L32.1.1H29.149V.88L28.8.187H24.813a3.439,3.439,0,0,0-1.734.347V.1H20.3V.447A1.991,1.991,0,0,0,19.09.1H8.945L8.338,1.661,7.644.1H4.436V.88L4.089.1H1.4L.1,3.048Z" transform="translate(-0.1 -0.1)" fill="#fff"/>
          <path id="Shape_4_" d="M38.256,10.621H36.348a.65.65,0,0,0-.434.087.451.451,0,0,0-.173.347c0,.173.087.26.26.347a3.756,3.756,0,0,0,.434.087h.52a1.569,1.569,0,0,1,1.214.347l.087.087Zm0,2.948a1.707,1.707,0,0,1-1.387.52H34.874v-.954h1.994a.65.65,0,0,0,.434-.087.319.319,0,0,0,.087-.26.873.873,0,0,0-.087-.26c-.087-.087-.173-.087-.347-.087-.954,0-2.168,0-2.168-1.387a1.325,1.325,0,0,1,1.474-1.3h2.081V8.887H36.435a2.34,2.34,0,0,0-1.3.347V8.8H32.273a1.835,1.835,0,0,0-1.214.347V8.8H25.943v.347A3.234,3.234,0,0,0,24.555,8.8H21.087v.347A2.205,2.205,0,0,0,19.613,8.8H15.884l-.867.954-.78-.954H8.6v6.157h5.463L14.93,14l.867.954h3.382V13.483h.347A4.548,4.548,0,0,0,21,13.309v1.648h2.775V13.4h.173c.173,0,.173,0,.173.173v1.387h8.5a2.206,2.206,0,0,0,1.387-.434v.434H36.7a4.535,4.535,0,0,0,1.561-.26V13.569Zm-4.162-1.821a1.387,1.387,0,0,1,.347.954c0,.954-.607,1.387-1.648,1.387H30.8v-.954h1.994a.65.65,0,0,0,.434-.087.319.319,0,0,0,.087-.26.873.873,0,0,0-.087-.26c-.087-.087-.173-.087-.347-.087-.954,0-2.168,0-2.168-1.387a1.325,1.325,0,0,1,1.474-1.3h2.081v.954H32.359a.65.65,0,0,0-.434.087.451.451,0,0,0-.173.347c0,.173.087.26.26.347a3.756,3.756,0,0,0,.434.087h.52A1.188,1.188,0,0,1,34.094,11.748Zm-9.365-.26a1.1,1.1,0,0,1-.52.087h-1.3v-.954h1.3a1.1,1.1,0,0,1,.52.087c.173.087.173.173.173.434A.451.451,0,0,1,24.729,11.488Zm.607.52a1.333,1.333,0,0,1,.52.347c.173.173.173.434.173.78V14H24.989v-.52c0-.26,0-.694-.173-.867s-.347-.173-.78-.173H22.908V14H21.867V9.667H24.3a2.572,2.572,0,0,1,1.214.173.918.918,0,0,1,.52.954A1.19,1.19,0,0,1,25.336,12.008Zm1.3-2.341H30.1v.867H27.677v.78h2.341v.867H27.677v.867H30.1V14H26.636Zm-7.024,2.081h-1.3V10.621H19.7c.347,0,.607.173.607.52A.618.618,0,0,1,19.613,11.748Zm-2.341,1.908L15.71,11.835,17.271,10.1Zm-4.162-.52H10.594v-.867h2.255V11.4H10.594v-.78h2.6l1.127,1.3Zm8.238-1.994c0,1.214-.867,1.474-1.821,1.474h-1.3V14.09H16.231l-1.214-1.474-1.3,1.474H9.554V9.667h4.162l1.3,1.474,1.3-1.474h3.3C20.48,9.667,21.347,9.927,21.347,11.141Z" transform="translate(-1.229 -1.256)" fill="#fff"/>
        </g>
      </g>
      <g id="visa" transform="translate(173.427 3.469)">
        <path id="Fill-1" d="M26.621.347,23.066,17.083H18.73L22.285.347ZM44.917,11.1l2.255-6.33,1.3,6.33Zm4.856,5.983h3.989L50.294.347H46.565a1.916,1.916,0,0,0-1.821,1.214l-6.59,15.522h4.6l.867-2.515h5.55ZM38.414,11.62c0-4.422-6.157-4.683-6.07-6.677,0-.607.607-1.214,1.821-1.387a7.546,7.546,0,0,1,4.249.78L39.194.78A10.3,10.3,0,0,0,35.119,0c-4.336,0-7.284,2.255-7.371,5.55,0,2.428,2.168,3.729,3.815,4.6,1.734.78,2.255,1.387,2.255,2.081,0,1.127-1.387,1.648-2.6,1.648a9.653,9.653,0,0,1-4.422-1.041l-.78,3.642a13.524,13.524,0,0,0,4.856.867C35.379,17.343,38.414,15.088,38.414,11.62ZM20.378.347,13.354,17.083h-4.6L5.29,3.729A1.774,1.774,0,0,0,4.249,2.255,14.393,14.393,0,0,0,0,.867L.087.347H7.457A1.962,1.962,0,0,1,9.452,2.081l1.821,9.712L15.782.347Z" fill-rule="evenodd" fill="url(#linear-gradient)"/>
      </g>
      <g id="mastercard-seeklogo.com" transform="translate(111.86)">
        <path id="Shape" d="M6.422,29.315V27.581A1.047,1.047,0,0,0,5.3,26.454a1,1,0,0,0-.954.52,1,1,0,0,0-.954-.52.83.83,0,0,0-.78.434v-.347H2v2.775h.607V27.755c0-.52.26-.694.694-.694s.607.26.607.694v1.561h.607V27.755c0-.52.26-.694.694-.694s.607.26.607.694v1.561Zm9.018-2.775h-.954v-.867H13.88v.867h-.607v.52h.52v1.3c0,.607.26,1.041.954,1.041a2.532,2.532,0,0,0,.78-.173l-.173-.52a1.232,1.232,0,0,1-.52.173.41.41,0,0,1-.434-.434V27.234h.954v-.694Zm5.116-.087a.687.687,0,0,0-.694.434v-.347h-.607v2.775h.607V27.755c0-.434.173-.694.607-.694a.521.521,0,0,1,.347.087l.173-.607A.65.65,0,0,0,20.557,26.454Zm-7.8.26a2.169,2.169,0,0,0-1.127-.26c-.694,0-1.127.347-1.127.867,0,.434.347.694.954.78h.26q.52.13.52.26c0,.173-.26.347-.607.347a2.515,2.515,0,0,1-.954-.26l-.26.434a1.991,1.991,0,0,0,1.214.347c.78,0,1.3-.347,1.3-.867s-.347-.78-.954-.867h-.26c-.26,0-.434-.087-.434-.26s.173-.347.52-.347a2.053,2.053,0,0,1,.867.26Zm16.215-.26a.687.687,0,0,0-.694.434v-.347h-.607v2.775h.607V27.755c0-.434.173-.694.607-.694a.521.521,0,0,1,.347.087l.173-.607A.943.943,0,0,0,28.968,26.454Zm-7.8,1.474A1.411,1.411,0,0,0,22.638,29.4a1.184,1.184,0,0,0,.954-.347l-.173-.52a1.153,1.153,0,0,1-.694.26.867.867,0,0,1,0-1.734.985.985,0,0,1,.694.26l.26-.52a1.3,1.3,0,0,0-.954-.347A1.435,1.435,0,0,0,21.164,27.928Zm5.636,0V26.541h-.607v.347a1.067,1.067,0,0,0-.867-.434,1.477,1.477,0,0,0,0,2.948.957.957,0,0,0,.867-.434v.347H26.8Zm-2.168,0a.867.867,0,1,1,.867.867A.819.819,0,0,1,24.632,27.928Zm-7.284-1.474a1.477,1.477,0,0,0,0,2.948,1.743,1.743,0,0,0,1.127-.347l-.26-.52a1.4,1.4,0,0,1-.78.26.826.826,0,0,1-.867-.694h2.081v-.26A1.3,1.3,0,0,0,17.348,26.454Zm0,.52c.347,0,.607.26.694.694H16.568A.759.759,0,0,1,17.348,26.974Zm15.088.954V25.5h-.607v1.474a1.067,1.067,0,0,0-.867-.434,1.477,1.477,0,0,0,0,2.948.957.957,0,0,0,.867-.434V29.4h.607Zm-2.255,0a.867.867,0,1,1,.867.867A.869.869,0,0,1,30.182,27.928Zm-20.378,0V26.541H9.2v.347a1.067,1.067,0,0,0-.867-.434,1.477,1.477,0,0,0,0,2.948.957.957,0,0,0,.867-.434v.347H9.8Zm-2.255,0a.819.819,0,0,1,.867-.867.867.867,0,0,1,0,1.734A.869.869,0,0,1,7.55,27.928Z" transform="translate(-0.266 -3.476)"/>
        <rect id="Rectangle" width="9.105" height="16.215" transform="translate(12.313 2.168)" fill="#ff5f00"/>
        <path id="Path-6" data-name="Path" d="M12.92,10.319a10.358,10.358,0,0,1,3.989-8.151A11.25,11.25,0,0,0,10.406,0a10.319,10.319,0,1,0,0,20.638,10.78,10.78,0,0,0,6.417-2.168A10.547,10.547,0,0,1,12.92,10.319Z" fill="#eb001b" fill-rule="evenodd"/>
        <path id="Path_1_" d="M36.422,10.319A10.362,10.362,0,0,1,26.017,20.638,10.78,10.78,0,0,1,19.6,18.47a10.323,10.323,0,0,0,0-16.3A10.326,10.326,0,0,1,25.93,0,10.437,10.437,0,0,1,36.422,10.319Z" transform="translate(-2.604)" fill="#f79e1b" fill-rule="evenodd"/>
      </g>
      <g id="Group-3" data-name="Group" transform="translate(0 0.661)">
        <path id="Combined-Shape" d="M52.181,3.428a1.071,1.071,0,0,1,1.431.442h0l2.275,4.3,2.275-4.3a1.072,1.072,0,0,1,1.431-.442,1.029,1.029,0,0,1,.451,1.4h0l-4.838,9.146a1.075,1.075,0,0,1-1.432.441,1.029,1.029,0,0,1-.451-1.4h0l1.367-2.59-2.961-5.6A1.029,1.029,0,0,1,52.181,3.428Zm25.452-.255A4.312,4.312,0,0,1,80.669,4.4a1.024,1.024,0,0,1,0,1.47,1.076,1.076,0,0,1-1.5,0,2.2,2.2,0,0,0-3.072,0,2.1,2.1,0,0,0,0,3.01,2.2,2.2,0,0,0,3.072,0,1.076,1.076,0,0,1,1.5,0,1.023,1.023,0,0,1,0,1.47,4.358,4.358,0,0,1-6.073,0,4.148,4.148,0,0,1,0-5.95A4.312,4.312,0,0,1,77.633,3.172Zm8.578,0A4.257,4.257,0,0,1,90.505,7.38a4.3,4.3,0,0,1-8.588,0A4.257,4.257,0,0,1,86.211,3.173ZM49.29,3.31a1.05,1.05,0,0,1,1.061,1.039h0v6.079a1.061,1.061,0,0,1-2.122,0h0V4.349A1.05,1.05,0,0,1,49.29,3.31Zm17.894,0a1.072,1.072,0,0,1,.718.243,1.026,1.026,0,0,1,.131,1.465h0L64.289,9.389H67.22a1.04,1.04,0,1,1,0,2.079H62.014a1.07,1.07,0,0,1-.682-.243,1.025,1.025,0,0,1-.13-1.464h0l3.745-4.372H62.5a1.039,1.039,0,1,1,0-2.078h4.688Zm3.7,0a1.05,1.05,0,0,1,1.061,1.039h0v6.079a1.061,1.061,0,0,1-2.122,0h0V4.349A1.05,1.05,0,0,1,70.887,3.31ZM86.211,5.251A2.129,2.129,0,1,0,88.383,7.38,2.154,2.154,0,0,0,86.211,5.251ZM49.29,0a1.161,1.161,0,0,1,1.172,1.149,1.172,1.172,0,0,1-2.344,0A1.161,1.161,0,0,1,49.29,0Zm21.6,0A1.161,1.161,0,0,1,72.06,1.149a1.172,1.172,0,0,1-2.344,0A1.161,1.161,0,0,1,70.887,0Z" transform="translate(-6.393 0)" fill="#1e64ff" fill-rule="evenodd"/>
        <path id="Combined-Shape-2" data-name="Combined-Shape" d="M64.239,20.164A3.687,3.687,0,1,1,60.67,23.85,3.649,3.649,0,0,1,64.239,20.164Zm8.963-.072a.558.558,0,0,1,.554.547v6.338a.558.558,0,0,1-.554.547.549.549,0,0,1-.544-.547V26.42a1.657,1.657,0,0,1-1.682,1.115,2.57,2.57,0,0,1-2.5-2.755,2.586,2.586,0,0,1,2.5-2.746,1.8,1.8,0,0,1,1.682.991v-.413a.349.349,0,0,1,.01-.1V20.64A.547.547,0,0,1,73.2,20.092ZM48.559,22.064a.433.433,0,0,1,.42.434v4.583a.426.426,0,1,1-.851,0V22.5A.435.435,0,0,1,48.559,22.064Zm1.989-1.972a.431.431,0,0,1,.421.423v6.565a.426.426,0,1,1-.851,0V20.516A.433.433,0,0,1,50.548,20.092Zm3.969,1.941a2.591,2.591,0,0,1,2.573,2.6c0,.33-.195.485-.543.485L52.774,25.1a1.782,1.782,0,0,0,1.856,1.7,1.872,1.872,0,0,0,1.189-.393.652.652,0,0,1,.359-.154.3.3,0,0,1,.318.32.511.511,0,0,1-.226.382,2.524,2.524,0,0,1-1.661.557,2.614,2.614,0,0,1-2.717-2.725A2.651,2.651,0,0,1,54.517,22.033Zm22.817,0a2.585,2.585,0,0,1,2.574,2.57c0,.423-.236.589-.677.589L75.8,25.182a1.592,1.592,0,0,0,1.682,1.435,1.791,1.791,0,0,0,1.025-.3.941.941,0,0,1,.431-.165.365.365,0,0,1,.38.392.587.587,0,0,1-.277.464,2.512,2.512,0,0,1-1.6.506,2.629,2.629,0,0,1-2.758-2.725A2.674,2.674,0,0,1,77.335,22.033Zm-6.184.939a1.652,1.652,0,0,0-1.59,1.807,1.655,1.655,0,0,0,1.59,1.816,1.632,1.632,0,0,0,1.559-1.816A1.616,1.616,0,0,0,71.151,22.972Zm-6.912-1.755a2.507,2.507,0,0,0-2.41,2.633,2.418,2.418,0,1,0,4.819,0A2.5,2.5,0,0,0,64.239,21.218Zm-9.721,1.57a1.733,1.733,0,0,0-1.743,1.672H56.26A1.727,1.727,0,0,0,54.517,22.787Zm22.817.2A1.505,1.505,0,0,0,75.8,24.4h3.056A1.481,1.481,0,0,0,77.335,22.983ZM48.559,19.989a.434.434,0,1,1-.441.434A.442.442,0,0,1,48.559,19.989Zm16.941-1.7a.589.589,0,1,1-.595.589A.6.6,0,0,1,65.5,18.286Zm-2.522,0a.589.589,0,1,1-.595.589A.595.595,0,0,1,62.978,18.286Z" transform="translate(-6.393 -2.517)" fill="#495057" fill-rule="evenodd"/>
        <g id="Group-3-2" data-name="Group-3" transform="translate(0 0)">
          <path id="Fill-1-2" data-name="Fill-1" d="M3.278,0A3.285,3.285,0,0,0,0,3.292V23.047a3.285,3.285,0,0,0,3.278,3.292h24.75a3.276,3.276,0,0,0,2.908-1.772l5.12-9.877a3.306,3.306,0,0,0,.37-1.493v-.056a3.3,3.3,0,0,0-.37-1.492l-5.12-9.877A3.276,3.276,0,0,0,28.029,0Z" fill-rule="evenodd" fill="url(#linear-gradient-2)"/>
        </g>
      </g>
    </g>
  </g>
</svg>
