<svg xmlns="http://www.w3.org/2000/svg" width="102.24" height="97.262" viewBox="0 0 102.24 97.262">
  <g id="love" transform="translate(510.823 -1017.996)">
    <path id="Path_138643" data-name="Path 138643" d="M-452.837,1115.258a1.947,1.947,0,0,1-1.8-1.2,1.947,1.947,0,0,1,1.055-2.542c.381-.159,38.26-16.31,40.981-56.955,1.119-16.75-5.421-28.11-17.5-30.386-8.39-1.575-18.636,2-25.51,10.391a48.314,48.314,0,0,1,4.129,13.322,2.019,2.019,0,0,1,.027.358c-.033,1.812-1.263,3.393-3.375,4.337-2.575,1.152-6.435,1.242-8.816-.817-1.1-.944-2.758-3.15-1.594-7.288a36.884,36.884,0,0,1,5.108-10.184c-5.688-9.9-14.644-13.061-22.541-12.3-12.114,1.18-24.729,12.143-24.248,30.135.707,26.378,33.489,51.969,41.756,58.008l4.9-10.622-7.638-8.594a1.946,1.946,0,0,1-.031-2.552l9.057-10.675-5.059-9.8a1.948,1.948,0,0,1,.008-1.8l2.353-4.471a1.944,1.944,0,0,1,2.63-.814,1.946,1.946,0,0,1,.816,2.628l-1.88,3.574,5.191,10.056a1.951,1.951,0,0,1-.245,2.153l-8.808,10.379,7.364,8.281a1.948,1.948,0,0,1,.313,2.108l-6.412,13.914a1.951,1.951,0,0,1-1.244,1.059,1.913,1.913,0,0,1-1.614-.263,158.034,158.034,0,0,1-22.232-18.928c-14.973-15.356-22.75-30-23.112-43.537-.543-20.348,13.9-32.763,27.762-34.112,8.536-.823,18.784,2.482,25.477,12.951,6.916-7.808,17.11-12.809,28.194-10.722,10.963,2.067,22.148,12.209,20.659,34.471-2.887,43.1-42.974,60.128-43.379,60.295A1.95,1.95,0,0,1-452.837,1115.258Zm-5.357-77.028a33.956,33.956,0,0,0-3.311,7.356c-.426,1.516-.294,2.624.409,3.229.952.821,3.1.919,4.684.21a2.22,2.22,0,0,0,1.047-.782A46.963,46.963,0,0,0-458.194,1038.23Z" transform="translate(0 0)" fill="#f36262"/>
  </g>
</svg>
