<svg id="Group_28571" data-name="Group 28571" xmlns="http://www.w3.org/2000/svg" width="29.118" height="34.941" viewBox="0 0 29.118 34.941">
  <g id="Group_1086" data-name="Group 1086" transform="translate(0 0)">
    <g id="Group_1080" data-name="Group 1080">
      <path id="Path_106171" data-name="Path 106171" d="M-1100.469,52.6h1.165a2.33,2.33,0,0,0,2.33-2.329,2.33,2.33,0,0,0-2.33-2.329h-20.383a2.915,2.915,0,0,0-2.912,2.912v.281a7.7,7.7,0,0,1-.852,3.454,25.238,25.238,0,0,0-2.642,11.21v16.5a.583.583,0,0,0,.582.582h27.953a.583.583,0,0,0,.583-.582V65.8a25.1,25.1,0,0,0-3.494-12.765Zm1.165-3.494a1.164,1.164,0,0,1,1.165,1.165,1.164,1.164,0,0,1-1.165,1.165h-1.165V50.275a1.165,1.165,0,0,1,1.165-1.165ZM-1124.928,65.8a24.065,24.065,0,0,1,2.52-10.69,8.856,8.856,0,0,0,.974-3.974v-.281a1.747,1.747,0,0,1,1.747-1.747h18.366a2.308,2.308,0,0,0-.313,1.165v2.762a25.1,25.1,0,0,0-3.494,12.765v15.92h-19.8Zm23.877,13.321,2.228,2.6h-4.457Zm2.912,1.607-2.329-2.717v-2.7a.583.583,0,0,0-.582-.582.583.583,0,0,0-.582.582v2.7l-2.33,2.719V65.8a23.942,23.942,0,0,1,2.33-10.286V61.34a.583.583,0,0,0,.582.582.583.583,0,0,0,.582-.582V55.517a23.934,23.934,0,0,1,2.329,10.287Zm0,0" transform="translate(1126.092 -47.946)" fill="#8fd89f"/>
    </g>
    <g id="Group_1081" data-name="Group 1081" transform="translate(24.459 16.306)">
      <path id="Path_106172" data-name="Path 106172" d="M-981,144.285a.583.583,0,0,0-.583.582v3.494a.583.583,0,0,0,.583.582.583.583,0,0,0,.582-.582v-3.494a.583.583,0,0,0-.582-.582Zm0,0" transform="translate(981.584 -144.285)" fill="#8fd89f"/>
    </g>
    <g id="Group_1082" data-name="Group 1082" transform="translate(5.241 6.406)">
      <path id="Path_106173" data-name="Path 106173" d="M-1080.678,86.035a.583.583,0,0,0-.472-.242h-12.229a.583.583,0,0,0-.553.4l-1.165,3.494a.582.582,0,0,0,.08.525.582.582,0,0,0,.472.242h12.229a.583.583,0,0,0,.552-.4l1.165-3.494a.579.579,0,0,0-.08-.524Zm-2.057,3.252h-11l.777-2.329h11Zm0,0" transform="translate(1095.127 -85.793)" fill="#8fd89f"/>
    </g>
    <g id="Group_1083" data-name="Group 1083" transform="translate(7.571 12.229)">
      <path id="Path_106174" data-name="Path 106174" d="M-1073.792,121.365a.582.582,0,0,0,.582-.582.582.582,0,0,0-.582-.582h-6.989a.583.583,0,0,0-.582.582.583.583,0,0,0,.582.582Zm0,0" transform="translate(1081.363 -120.2)" fill="#8fd89f"/>
    </g>
    <g id="Group_1084" data-name="Group 1084" transform="translate(9.318 4.077)">
      <path id="Path_106175" data-name="Path 106175" d="M-1070.459,73.2h6.988a.582.582,0,0,0,.582-.582.582.582,0,0,0-.582-.582h-6.988a.583.583,0,0,0-.582.582.583.583,0,0,0,.582.582Zm0,0" transform="translate(1071.041 -72.031)" fill="#8fd89f"/>
    </g>
    <g id="Group_1085" data-name="Group 1085" transform="translate(24.171 23.06)">
      <path id="Path_106176" data-name="Path 106176" d="M-982.416,185.926a.87.87,0,0,0,.87-.87.87.87,0,0,0-.87-.87h0a.869.869,0,0,0-.869.87.871.871,0,0,0,.871.87Zm0,0" transform="translate(983.287 -184.186)" fill="#8fd89f"/>
    </g>
  </g>
  <g id="Group_1088" data-name="Group 1088" transform="translate(6.836 25.867)">
    <g id="Group_1087" data-name="Group 1087">
      <g id="Path_8" data-name="Path 8" transform="translate(1.071 0.179)">
        <path id="Path_106177" data-name="Path 106177" d="M-1071.932,202.579h-.8a3.287,3.287,0,0,1-1.051,1.264h0a3.318,3.318,0,0,1-4.3-.346l-.542.01.018.967a4.369,4.369,0,0,0,2.174,1.017,4.44,4.44,0,0,0,.709.057,4.366,4.366,0,0,0,2.567-.834h0a4.34,4.34,0,0,0,1.356-1.611,4.5,4.5,0,0,0,.219-.523Z" transform="translate(1078.751 -202.452)" fill="#8fd89f"/>
        <path id="Path_106178" data-name="Path 106178" d="M-1076.347,205.051a4.583,4.583,0,0,1-.729-.058,4.492,4.492,0,0,1-2.237-1.046.13.13,0,0,1-.044-.094l-.017-.967a.127.127,0,0,1,.125-.129l.542-.01a.123.123,0,0,1,.092.037,3.177,3.177,0,0,0,4.133.333,3.168,3.168,0,0,0,1.011-1.215.127.127,0,0,1,.115-.073h1.152a.126.126,0,0,1,.1.053.127.127,0,0,1,.017.115,4.614,4.614,0,0,1-.226.538,4.479,4.479,0,0,1-1.4,1.657A4.465,4.465,0,0,1-1076.347,205.051Zm-2.756-1.26a4.234,4.234,0,0,0,2.068.951,4.348,4.348,0,0,0,.688.055,4.214,4.214,0,0,0,2.492-.81,4.227,4.227,0,0,0,1.316-1.564c.055-.111.105-.225.151-.341h-.89a3.429,3.429,0,0,1-1.056,1.24,3.429,3.429,0,0,1-4.423-.321l-.361.007Z" transform="translate(1079.374 -201.829)" fill="#8fd89f"/>
      </g>
      <g id="Path_9" data-name="Path 9">
        <path id="Path_106179" data-name="Path 106179" d="M-1082.023,202.6l-.02-1.073-1.989.036-.921.017.01.578.042,2.331,1.073-.02-.016-.87-.018-.967.542-.01Z" transform="translate(1085.079 -201.397)" fill="#8fd89f"/>
        <path id="Path_106180" data-name="Path 106180" d="M-1085.523,203.99a.127.127,0,0,1-.127-.125l-.053-2.909a.128.128,0,0,1,.036-.09.127.127,0,0,1,.089-.039l2.909-.053a.129.129,0,0,1,.129.125l.02,1.073a.13.13,0,0,1-.036.091.127.127,0,0,1-.089.039l-1.71.031.031,1.71a.128.128,0,0,1-.035.09.128.128,0,0,1-.089.039l-1.073.019Zm.077-2.912.048,2.655.819-.015-.031-1.71a.127.127,0,0,1,.125-.129l1.71-.031-.015-.819Z" transform="translate(1085.702 -200.774)" fill="#8fd89f"/>
      </g>
    </g>
  </g>
  <g id="Group_1091" data-name="Group 1091" transform="translate(3.009 19.185)">
    <g id="Group_1089" data-name="Group 1089">
      <path id="Path_106181" data-name="Path 106181" d="M-1107.537,166.231a.593.593,0,0,1-.553-.381,3.342,3.342,0,0,1-.224-1.2,3.362,3.362,0,0,1,3.358-3.358,3.362,3.362,0,0,1,3.358,3.358.593.593,0,0,1-.593.592.593.593,0,0,1-.593-.592,2.176,2.176,0,0,0-2.173-2.173,2.176,2.176,0,0,0-2.174,2.173,2.17,2.17,0,0,0,.146.775.593.593,0,0,1-.342.765A.592.592,0,0,1-1107.537,166.231Z" transform="translate(1108.314 -161.294)" fill="#8fd89f"/>
    </g>
    <g id="Group_1090" data-name="Group 1090" transform="translate(9.239 0.366)">
      <path id="Path_106182" data-name="Path 106182" d="M-1048.218,169.139a.59.59,0,0,1-.371-.131.592.592,0,0,1-.09-.833,2.147,2.147,0,0,0,.48-1.36,2.176,2.176,0,0,0-2.173-2.173,2.176,2.176,0,0,0-2.173,2.173.593.593,0,0,1-.593.592.592.592,0,0,1-.592-.592,3.362,3.362,0,0,1,3.358-3.358,3.362,3.362,0,0,1,3.358,3.358,3.365,3.365,0,0,1-.742,2.1A.592.592,0,0,1-1048.218,169.139Z" transform="translate(1053.73 -163.457)" fill="#8fd89f"/>
    </g>
  </g>
</svg>
