<svg id="Group_28570" data-name="Group 28570" xmlns="http://www.w3.org/2000/svg" width="39.79" height="30.072" viewBox="0 0 39.79 30.072">
  <path id="Path_106168" data-name="Path 106168" d="M-1395,75.553h0l-.1,0-1.877-8.48.145-.02a1.817,1.817,0,0,0,1.147-.633l.075-.089.1.062a2.206,2.206,0,0,0,1.17.335h1.564a.649.649,0,0,0,.649-.648v-3.13a.649.649,0,0,0-.649-.648h-1.564a2.2,2.2,0,0,0-1.2.355l-.1.063-.076-.087a1.821,1.821,0,0,0-1.363-.616h-4.619a1.832,1.832,0,0,0-1.7,1.166l-.033.086h-1.947a1.9,1.9,0,0,0-1.9,1.9,1.9,1.9,0,0,0,1.9,1.9h4.161V69.7a.649.649,0,0,0,.649.648.649.649,0,0,0,.648-.648V67.066h1.611l2,9.029-3.742,6.665A2.432,2.432,0,0,1-1402.165,84h-9.4l-.014-.118a6.44,6.44,0,0,0-6.393-5.674,6.377,6.377,0,0,0-3.974,1.372,6.394,6.394,0,0,0-2.421,4.3l-.014.118h-1.862l0-.136a10.543,10.543,0,0,1,10.491-10.3h5.55a.93.93,0,0,1,.929.929v7.026a.649.649,0,0,0,.648.648h4.163a4.532,4.532,0,0,0,3.967-2.341,4.547,4.547,0,0,0,.565-2.187l0-2.6a.65.65,0,0,0-.648-.649.65.65,0,0,0-.649.647l0,2.6a3.243,3.243,0,0,1-.4,1.561,3.235,3.235,0,0,1-2.832,1.67h-3.515V74.488a2.226,2.226,0,0,0-.262-1.046l-.061-.114.112-.065a2.223,2.223,0,0,0,1.11-1.917,2.216,2.216,0,0,0-2.213-2.213h-2.856a2.2,2.2,0,0,0-.737.127l-.179.063V62.27a2.215,2.215,0,0,0-2.213-2.213h-5.047a7.275,7.275,0,0,0-7.128,6.077.723.723,0,0,0-.035.215v.023a7.392,7.392,0,0,0-.056.9v4.07a2.226,2.226,0,0,0,1.883,2.188l.044.007,1.861,1.861-.1.095a11.682,11.682,0,0,0-3.688,8.557v.591a.649.649,0,0,0,.648.648h4.561l-.032.16a.67.67,0,0,0-.013.13,4.395,4.395,0,0,0,1.079,2.883l.193.222h-5.787a.649.649,0,0,0-.648.648.649.649,0,0,0,.648.648h8.919a4.409,4.409,0,0,0,4.4-4.4.674.674,0,0,0-.013-.13l-.032-.16h11.446a3.74,3.74,0,0,0,3-1.513l.04-.054h1.258l-.076.185a4.383,4.383,0,0,0-.331,1.673,4.4,4.4,0,0,0,1.079,2.883l.193.222h-10.44a.649.649,0,0,0-.648.648.649.649,0,0,0,.648.648h13.572a4.409,4.409,0,0,0,4.4-4.4,4.379,4.379,0,0,0-.331-1.673l-.076-.185h1.48a.649.649,0,0,0,.649-.648A7.5,7.5,0,0,0-1395,75.553Zm.654-11.958h.916v1.833h-.916a.917.917,0,0,1-.917-.916A.918.918,0,0,1-1394.342,63.6Zm-11.031,2.174a.6.6,0,0,1-.6-.6.6.6,0,0,1,.6-.6h1.857v.684a1.826,1.826,0,0,0,.036.362l.032.16Zm3.677,0a.523.523,0,0,1-.522-.523V63.834a.523.523,0,0,1,.522-.523h4.619a.523.523,0,0,1,.522.523v1.413a.523.523,0,0,1-.522.523Zm-10.445,4.66h2.856a.917.917,0,0,1,.916.916.917.917,0,0,1-.916.916h-2.856a.917.917,0,0,1-.916-.916A.917.917,0,0,1-1412.141,70.43Zm-14.1.916v-4.07c0-.034,0-.068,0-.1l.005-.177h8.691a.649.649,0,0,0,.649-.648.649.649,0,0,0-.649-.648h-8.489l.054-.174a5.9,5.9,0,0,1,5.658-4.173h5.047a.917.917,0,0,1,.916.916v9.075a.917.917,0,0,1-.916.916h-10.052A.918.918,0,0,1-1426.24,71.346Zm2.482,2.213h2.619l-.439.25a11.865,11.865,0,0,0-1.075.695l-.093.067Zm8.908,11.894a.677.677,0,0,0-.013.13,3.116,3.116,0,0,1-3.075,3.106l-.123,0a3.092,3.092,0,0,1-3.016-3.1.674.674,0,0,0-.013-.13l-.032-.16h6.3ZM-1423.075,84l.024-.155a5.115,5.115,0,0,1,1.9-3.242l.016-.012a5.072,5.072,0,0,1,3.161-1.086,5.182,5.182,0,0,1,5.081,4.34l.024.155Zm29.234,4.693-.123,0a3.092,3.092,0,0,1-3.016-3.1,3.089,3.089,0,0,1,.575-1.8l.04-.056h4.983l.04.056a3.089,3.089,0,0,1,.575,1.8A3.116,3.116,0,0,1-1393.841,88.69Zm-4.535-6.26,3.135-5.583.08,0a6.264,6.264,0,0,1,6.066,5.43l.019.151Z" transform="translate(1427.537 -60.057)" fill="#837f7f"/>
  <path id="Path_106169" data-name="Path 106169" d="M-1257.1,136.37a.794.794,0,0,0,.793-.793.794.794,0,0,0-.793-.793.8.8,0,0,0-.795.793A.8.8,0,0,0-1257.1,136.37Z" transform="translate(1284.073 -123.252)" fill="#837f7f"/>
  <path id="Path_106170" data-name="Path 106170" d="M-1321.961,246.242a.794.794,0,0,0,.793-.793.794.794,0,0,0-.793-.793.8.8,0,0,0-.795.793A.8.8,0,0,0-1321.961,246.242Z" transform="translate(1338.926 -216.169)" fill="#837f7f"/>
</svg>
