<svg xmlns="http://www.w3.org/2000/svg" width="79.078" height="44.206" viewBox="0 0 79.078 44.206">
  <g id="Group_28677" data-name="Group 28677" transform="translate(-120.484 -148.639)">
    <g id="Group_28387" data-name="Group 28387" transform="translate(120.484 148.639)">
      <g id="Component_7_78" data-name="Component 7 – 78">
        <g id="Group_1" data-name="Group 1">
          <path id="Path_6" data-name="Path 6" d="M74,403.187a11.987,11.987,0,0,0-9.056-9.5h0a11.988,11.988,0,0,0-14.376,8.949,11.859,11.859,0,0,0,.167,6A8.5,8.5,0,0,1,54,408a8.64,8.64,0,0,1,8.235-11.313,8.684,8.684,0,0,1,1.964.226h0a8.674,8.674,0,0,1,6.552,6.866l1.516,1.354Z" transform="translate(-48.098 -393.376)" fill="#8fd89f"/>
          <path id="Path_8" data-name="Path 8" d="M106.782,448.937h-2.474a10.145,10.145,0,0,1-3.239,3.9h0a10.235,10.235,0,0,1-13.254-1.069l-1.671.03.054,2.983a13.47,13.47,0,0,0,6.707,3.136,13.735,13.735,0,0,0,2.186.176,13.47,13.47,0,0,0,7.917-2.573h0a13.381,13.381,0,0,0,4.182-4.968,13.735,13.735,0,0,0,.677-1.614Z" transform="translate(-61.379 -413.886)" fill="#8fd89f"/>
          <path id="Path_9" data-name="Path 9" d="M89.88,451.38l-.06-3.31-6.135.111-2.839.052.032,1.783.131,7.19,3.309-.059-.049-2.683-.054-2.983,1.671-.03Z" transform="translate(-59.386 -413.57)" fill="#8fd89f"/>
          <path id="Path_10" data-name="Path 10" d="M128.384,407.412a9.2,9.2,0,0,1,8.937-7.137,9.195,9.195,0,0,1,9.086,7.761l1.484,1.353,1.773-1.945a12.486,12.486,0,0,0-24.731,3.413,9.022,9.022,0,0,1,3.222-1.458A9.193,9.193,0,0,1,128.384,407.412Z" transform="translate(-75.76 -394.683)" fill="#8fd89f"/>
          <g id="Group_451" data-name="Group 451" transform="translate(0 8.196)">
            <path id="Path_1" data-name="Path 1" d="M48.46,431.26q-1.6-2-1.6-6.044,0-3.96,1.616-5.971a5.238,5.238,0,0,1,4.3-2.009,6.347,6.347,0,0,1,2.723.553,4.385,4.385,0,0,1,1.849,1.572h.175v-7.514h3.99V432.9H58.1l-.262-2.009h-.2a4.684,4.684,0,0,1-1.952,1.762,6.089,6.089,0,0,1-2.708.6A5.46,5.46,0,0,1,48.46,431.26Zm9.058-5.753v-.466q0-4.339-3.262-4.339a2.9,2.9,0,0,0-2.534,1.063,5.564,5.564,0,0,0-.757,3.219v.524a5.562,5.562,0,0,0,.757,3.218,2.894,2.894,0,0,0,2.534,1.063Q57.517,429.789,57.518,425.507Z" transform="translate(-46.858 -408.442)" fill="#f69f8e"/>
            <path id="Path_2" data-name="Path 2" d="M74.722,434.386q-1.922-1.951-1.922-6.058t1.922-6.058q1.922-1.951,5.854-1.951t5.869,1.951q1.936,1.952,1.937,6.058t-1.937,6.058q-1.938,1.952-5.869,1.951T74.722,434.386Zm8.679-2.432a5.475,5.475,0,0,0,.873-3.393V428.1A5.475,5.475,0,0,0,83.4,424.7a3.363,3.363,0,0,0-2.825-1.121,3.318,3.318,0,0,0-2.81,1.121,5.544,5.544,0,0,0-.859,3.393v.466a5.543,5.543,0,0,0,.859,3.393,3.318,3.318,0,0,0,2.81,1.121A3.363,3.363,0,0,0,83.4,431.954Z" transform="translate(-56.433 -411.552)" fill="#f69f8e"/>
            <path id="Path_3" data-name="Path 3" d="M99.484,420.669h3.407l.291,2.009h.2a5.826,5.826,0,0,1,4.777-2.359,5.183,5.183,0,0,1,3.713,1.282,5.432,5.432,0,0,1,1.354,4.106v10.281h-3.989v-9.436a2.339,2.339,0,0,0-2.65-2.708,2.928,2.928,0,0,0-2.228.946,3.294,3.294,0,0,0-.888,2.345v8.854H99.484Z" transform="translate(-66.273 -411.55)" fill="#f69f8e"/>
            <path id="Path_4" data-name="Path 4" d="M123.579,439.056a3.249,3.249,0,0,1-1.107-2.533q0-2.04,2.359-3.117a2.449,2.449,0,0,1-1.485-2.3,2.229,2.229,0,0,1,.757-1.674,4.253,4.253,0,0,1,1.951-1,4.524,4.524,0,0,1-2.242-4.136,4.607,4.607,0,0,1,1.762-3.815,7.914,7.914,0,0,1,5.024-1.4,9.787,9.787,0,0,1,3.087.437,3.421,3.421,0,0,0,1.267-1.325,3.034,3.034,0,0,0,.393-1.325h3.9a3.76,3.76,0,0,1-.859,2.577,4.4,4.4,0,0,1-2.432,1.325,4.621,4.621,0,0,1,1.457,3.524,4.67,4.67,0,0,1-1.7,3.815,7.509,7.509,0,0,1-4.879,1.4H128.5a1.338,1.338,0,0,0-.83.233.76.76,0,0,0-.306.641.789.789,0,0,0,.262.6.975.975,0,0,0,.7.247h6.961a3.834,3.834,0,0,1,2.825,1.137,4.015,4.015,0,0,1,1.136,2.97,4.2,4.2,0,0,1-.758,2.476,4.889,4.889,0,0,1-2.068,1.66,7.022,7.022,0,0,1-2.883.582h-7.252A3.919,3.919,0,0,1,123.579,439.056Zm9.9-1.776a2.008,2.008,0,0,0,1.252-.379,1.273,1.273,0,0,0,.044-1.98,1.778,1.778,0,0,0-1.121-.35h-5.622a1.646,1.646,0,0,0-1.092.379,1.2,1.2,0,0,0-.452.961,1.247,1.247,0,0,0,.437.99,1.632,1.632,0,0,0,1.107.379Zm-.758-11.141a2.714,2.714,0,0,0,0-3.7,3.078,3.078,0,0,0-2.126-.655,3.024,3.024,0,0,0-2.112.655,2.755,2.755,0,0,0,0,3.7,3.024,3.024,0,0,0,2.112.656A3.079,3.079,0,0,0,132.724,426.139Z" transform="translate(-74.773 -410.409)" fill="#f69f8e"/>
            <path id="Path_5" data-name="Path 5" d="M151.737,436.06a5.431,5.431,0,0,1-1.354-4.106v-8.917h3.989v8.072a2.339,2.339,0,0,0,2.651,2.708,2.927,2.927,0,0,0,2.227-.946,3.3,3.3,0,0,0,.889-2.345v-7.49h3.99v13.955h-3.407l-.291-2.01h-.2a5.825,5.825,0,0,1-4.777,2.36A5.181,5.181,0,0,1,151.737,436.06Z" transform="translate(-85.052 -412.548)" fill="#f69f8e"/>
            <path id="Path_7" data-name="Path 7" d="M75.893,409.206l3.917,3.5,2.046,1.828,1.282-1.435,4.045-4.529-2.469-2.2-1.383,1.548-1.739,1.947-1.516-1.354L78.1,406.738Z" transform="translate(-57.565 -406.365)" fill="#f69f8e"/>
            <path id="Path_11" data-name="Path 11" d="M161.052,410.679l-1.6,1.755-1.773,1.945-1.484-1.353-2.216-2.021-1.261,1.383-.969,1.063.969.883,3.162,2.883,2.015,1.837,1.31-1.437,4.293-4.709Z" transform="translate(-85.549 -407.958)" fill="#f69f8e"/>
          </g>
        </g>
      </g>
    </g>
  </g>
</svg>
