<svg xmlns="http://www.w3.org/2000/svg" width="20.68" height="19.762" viewBox="0 0 20.68 19.762">
  <path id="Path_137497" data-name="Path 137497" d="M5.85,21.354a.866.866,0,0,0,.7.166,2.048,2.048,0,0,0,.835-.4l4.834-3.555,4.844,3.555a2.119,2.119,0,0,0,.845.4.838.838,0,0,0,.688-.166.969.969,0,0,0,.371-.615,1.868,1.868,0,0,0-.107-.908l-1.914-5.693,4.883-3.5a2.081,2.081,0,0,0,.63-.679.857.857,0,0,0,.054-.708.906.906,0,0,0-.469-.542,1.885,1.885,0,0,0-.9-.171l-6,.039L13.33,2.857a2.021,2.021,0,0,0-.449-.811.9.9,0,0,0-.664-.273.893.893,0,0,0-.654.273,2.021,2.021,0,0,0-.449.811L9.3,8.58,3.311,8.541a1.881,1.881,0,0,0-.9.171.948.948,0,0,0-.474.532.866.866,0,0,0,.059.718,2.139,2.139,0,0,0,.635.679l4.883,3.5L5.6,19.83a1.918,1.918,0,0,0-.112.908A.949.949,0,0,0,5.85,21.354Zm1.5-2.061a.156.156,0,0,1,0-.078l1.787-5.1a.984.984,0,0,0,.073-.376.615.615,0,0,0-.093-.312.842.842,0,0,0-.273-.259L4.4,10.1q-.059-.039-.049-.068t.078-.029l5.391.117a.907.907,0,0,0,.527-.117.779.779,0,0,0,.293-.449l1.523-5.176q.02-.068.049-.068t.059.068l1.533,5.176a.779.779,0,0,0,.293.449.886.886,0,0,0,.518.117l5.391-.117q.078,0,.088.029t-.049.068L15.605,13.17a.934.934,0,0,0-.283.264.557.557,0,0,0-.088.308,1.065,1.065,0,0,0,.078.376l1.777,5.1a.117.117,0,0,1,.01.078q-.02.02-.088-.02l-4.277-3.281a.842.842,0,0,0-.513-.205.8.8,0,0,0-.5.205L7.432,19.273Q7.373,19.312,7.354,19.293Z" transform="translate(-1.882 -1.773)" fill="#bcbcbc"/>
</svg>
