<svg xmlns="http://www.w3.org/2000/svg" width="27.992" height="39.053" viewBox="0 0 27.992 39.053">
  <g id="Group_29745" data-name="Group 29745" transform="translate(645.231 -644.348)">
    <path id="Path_138638" data-name="Path 138638" d="M-617.379,665.9a51.617,51.617,0,0,0-.294-6.165v0a.638.638,0,0,0-.718-.547.639.639,0,0,0-.55.718,51.37,51.37,0,0,1,.283,6c0,3.37.106,13.48.133,16.142h-11.943c-4.4,0-11.033.054-13.128.072.046-2.5.2-11.5.2-15.79,0-4.409-.433-17.527-.538-20.626h.031c7.074,0,9.671-.026,11.582-.046,1.213-.011,2.2-.022,3.889-.022,1.746,0,2.293.537,4.91,3.383.609.663,1.321,1.44,2.179,2.341,2.995,3.153,2.8,4.069,2.729,4.222-.268.585-2.428.473-3.717.409-.383-.02-.757-.039-1.106-.047-1.81-.047-3.412.03-4.324.089a20.037,20.037,0,0,0,.1-2.068c0-1.706-.129-6.026-.129-6.068v-.038a.622.622,0,0,0-.658-.583h0a.638.638,0,0,0-.619.658c0,.043.128,4.343.128,6.03a16.579,16.579,0,0,1-.183,2.652.637.637,0,0,0,.159.547.637.637,0,0,0,.532.2,46.506,46.506,0,0,1,4.966-.146c.338.008.7.028,1.073.046,2.12.109,4.313.221,4.945-1.151.537-1.174-.374-2.913-2.963-5.638-.852-.9-1.56-1.668-2.165-2.326-2.61-2.844-3.489-3.8-5.852-3.8-1.7,0-2.683.009-3.9.022-1.97.019-4.667.045-12.261.045a.638.638,0,0,0-.461.2.64.64,0,0,0-.179.466c.006.162.56,16.272.56,21.244s-.21,16.31-.21,16.424a.641.641,0,0,0,.186.462.639.639,0,0,0,.454.189h0c.084,0,8.52-.078,13.773-.078h12.59a.638.638,0,0,0,.455-.19.639.639,0,0,0,.185-.456C-617.24,682.548-617.379,669.769-617.379,665.9Z" fill="#f38262"/>
    <path id="Path_138639" data-name="Path 138639" d="M-631.355,671.858a4.757,4.757,0,0,0,2.816-.913,4.776,4.776,0,0,0,1.484-1.763,5.017,5.017,0,0,0,.24-.572.137.137,0,0,0-.018-.123.136.136,0,0,0-.11-.057h-1.226a.133.133,0,0,0-.122.078,3.4,3.4,0,0,1-1.075,1.293,3.37,3.37,0,0,1-4.142-.136l1.053-.019a.138.138,0,0,0,.1-.041.134.134,0,0,0,.038-.1l-.021-1.141a.136.136,0,0,0-.137-.133l-3.1.056a.129.129,0,0,0-.094.041.132.132,0,0,0-.038.1l.056,3.1a.135.135,0,0,0,.135.133h.007l1.141-.021a.138.138,0,0,0,.094-.041.134.134,0,0,0,.038-.1l-.011-.62a4.786,4.786,0,0,0,2.122.918A5.023,5.023,0,0,0-631.355,671.858Z" fill="#f38262"/>
    <path id="Path_138640" data-name="Path 138640" d="M-636.36,662.391a2.315,2.315,0,0,1,2.312,2.312.63.63,0,0,0,.63.63.63.63,0,0,0,.63-.63,3.576,3.576,0,0,0-3.576-3.571,3.575,3.575,0,0,0-3.572,3.572,3.542,3.542,0,0,0,.238,1.275.629.629,0,0,0,.589.4.64.64,0,0,0,.229-.042h0a.631.631,0,0,0,.363-.814,2.284,2.284,0,0,1-.155-.825A2.314,2.314,0,0,1-636.36,662.391Z" fill="#f38262"/>
    <path id="Path_138641" data-name="Path 138641" d="M-624.74,666.541a.63.63,0,0,0,.1.886.627.627,0,0,0,.395.139.631.631,0,0,0,.488-.235,3.592,3.592,0,0,0,.789-2.237,3.576,3.576,0,0,0-3.573-3.572,3.576,3.576,0,0,0-3.572,3.572.63.63,0,0,0,.63.63.633.633,0,0,0,.63-.63,2.313,2.313,0,0,1,2.312-2.312,2.314,2.314,0,0,1,2.312,2.312,2.29,2.29,0,0,1-.511,1.447Z" fill="#f38262"/>
  </g>
</svg>
