<svg xmlns="http://www.w3.org/2000/svg" width="63.223" height="64.1" viewBox="0 0 63.223 64.1">
  <g id="star" transform="translate(823.225 -1345.763)">
    <path id="Path_137722" data-name="Path 137722" d="M-814.6,1409.863a1.009,1.009,0,0,1-.322-.052,1,1,0,0,1-.625-1.269c.058-.171,3.848-11.318,7.713-22.137a180.976,180.976,0,0,1-15.084-12.935,1,1,0,0,1-.268-.98,1,1,0,0,1,.726-.709c.139-.034,11.077-2.712,21.676-4.113,4.038-10.257,8.067-21.131,8.111-21.252a1,1,0,0,1,.889-.651.984.984,0,0,1,.948.561c.068.138,4.846,9.981,9.041,20.656,10.352.471,20.78,1.762,20.921,1.78a1,1,0,0,1,.836.714,1,1,0,0,1-.324,1.05c-.113.093-8.025,6.608-15.894,13.039,3.592,12.648,6.938,24.775,6.975,24.908a1,1,0,0,1-.369,1.069,1,1,0,0,1-1.131.041c-.144-.092-11.688-7.413-21.605-13.37a181.716,181.716,0,0,1-16,9.785,1,1,0,0,1-1.352-.416,1,1,0,0,1,.416-1.351c.1-.051,7.37-3.92,15.046-9.148-1.808-1.076-3.528-2.085-5.078-2.97a75.884,75.884,0,0,1-6.8-4.463c-3.785,10.614-7.441,21.368-7.5,21.535A1,1,0,0,1-814.6,1409.863Zm24-14.908c7.164,4.319,14.985,9.218,18.7,11.556-1.131-4.081-3.51-12.631-6.045-21.568-2.791,2.278-5.507,4.488-7.788,6.331C-787.3,1392.535-788.942,1393.771-790.6,1394.955Zm-14.854-9.276a74.975,74.975,0,0,0,7.09,4.7c1.782,1.019,3.789,2.2,5.893,3.456,1.866-1.314,3.724-2.7,5.478-4.115,2.461-1.987,5.427-4.4,8.45-6.87q-.33-1.163-.662-2.322c-1.036-3.626-2.455-7.646-3.982-11.6-3.159-.122-6.263-.157-9.009-.045-2.242.092-4.681.317-7.164.622-.317.8-.632,1.592-.944,2.373C-801.717,1375.406-803.575,1380.444-805.454,1385.679Zm-14.737-12.379c2.339,2.185,7.463,6.842,13.064,11.123,1.814-5.048,3.6-9.871,4.966-13.291l.531-1.332C-809.229,1370.863-816.828,1372.526-820.191,1373.3Zm39.182-4.279c1.428,3.743,2.746,7.52,3.727,10.955.142.5.284.995.426,1.492,5.4-4.412,10.71-8.777,13.4-10.992C-766.96,1370.086-773.942,1369.373-781.009,1369.021Zm-10.617-19.695c-1.33,3.557-4.082,10.869-6.9,18.064,2.164-.248,4.281-.429,6.252-.509,2.544-.1,5.387-.083,8.295.014C-786.908,1359.531-790.056,1352.668-791.626,1349.326Z" fill="#ffbc41"/>
  </g>
</svg>
