<svg xmlns="http://www.w3.org/2000/svg" width="54" height="85" viewBox="0 0 54 85">
  <g id="Group_31466" data-name="Group 31466" transform="translate(-13871 7395)">
    <rect id="Rectangle_3269" data-name="Rectangle 3269" width="54" height="85" transform="translate(13871 -7395)" fill="#8fd89f"/>
    <g id="Group_31465" data-name="Group 31465" transform="translate(13884 -7364)">
      <path id="Union_5" data-name="Union 5" d="M-13848.52,7135.529a1.57,1.57,0,0,1-.014-2.251l9.449-9.272-9.436-9.272a1.575,1.575,0,0,1,0-2.265,1.646,1.646,0,0,1,1.155-.47,1.636,1.636,0,0,1,1.151.47l10.831,10.629a1.261,1.261,0,0,1,0,1.806l-10.831,10.625a1.639,1.639,0,0,1-1.153.472A1.639,1.639,0,0,1-13848.52,7135.529Zm-14,0a1.578,1.578,0,0,1-.015-2.251l9.45-9.272-9.436-9.272a1.581,1.581,0,0,1,0-2.265,1.643,1.643,0,0,1,1.154-.47,1.64,1.64,0,0,1,1.152.47l10.83,10.629a1.259,1.259,0,0,1,0,1.806l-10.83,10.625a1.633,1.633,0,0,1-1.152.472A1.64,1.64,0,0,1-13862.52,7135.529Z" transform="translate(13863 -7112)" fill="#fff"/>
    </g>
  </g>
</svg>
