<svg xmlns="http://www.w3.org/2000/svg" xmlns:xlink="http://www.w3.org/1999/xlink" width="428.413" height="794.473" viewBox="0 0 428.413 794.473">
  <defs>
    <clipPath id="clip-path">
      <rect id="Rectangle_2709" data-name="Rectangle 2709" width="428" height="164" transform="translate(0 563)" fill="#fff"/>
    </clipPath>
  </defs>
  <g id="Group_28716" data-name="Group 28716" transform="translate(0 -131.527)">
    <path id="Path_137414" data-name="Path 137414" d="M2086-832.22s69.432-14.095,102.2-20.828,140.764-23.236,148.187-24.167,109.5-10.29,141.706-10.8,36.321,0,36.321,0V-493.5H2086Z" transform="translate(-2086 1419.495)" fill="#f5f9fc"/>
    <g id="Mask_Group_6" data-name="Mask Group 6" transform="translate(0 -80)" clip-path="url(#clip-path)">
      <path id="Path_137341" data-name="Path 137341" d="M3785-1447.521s251.8-56.475,399.436-55.637,231.05,55.009,368.762,55.637,290.053-56.64,474.762-55.637,254.563,59.888,373.183,55.637,261.851-46.711,321.482-55.637,390.043,25.749,390.043,25.749" transform="translate(-3785 2114.301)" fill="none" stroke="#9fd5a4" stroke-linecap="round" stroke-width="12" stroke-dasharray="32 44"/>
    </g>
    <g id="Group_28448" data-name="Group 28448" transform="translate(-67.334 -240.931)">
      <g id="Component_7_23" data-name="Component 7 – 23" transform="translate(160.334 372.457)">
        <g id="Group_1" data-name="Group 1">
          <path id="Path_6" data-name="Path 6" d="M122.789,423.347a36.621,36.621,0,0,0-27.667-29.013h0A36.624,36.624,0,0,0,51.2,421.672a36.229,36.229,0,0,0,.509,18.32,25.979,25.979,0,0,1,9.961-1.941A26.395,26.395,0,0,1,86.831,403.49a26.527,26.527,0,0,1,6,.692h0a26.5,26.5,0,0,1,20.016,20.976l4.633,4.135Z" transform="translate(-43.645 -393.376)" fill="#8fd89f"/>
          <path id="Path_8" data-name="Path 8" d="M149.194,448.937h-7.557a30.993,30.993,0,0,1-9.9,11.911h0a31.267,31.267,0,0,1-40.491-3.265l-5.1.091.165,9.111a41.151,41.151,0,0,0,20.489,9.582,41.956,41.956,0,0,0,6.679.536,41.152,41.152,0,0,0,24.186-7.86h0a40.878,40.878,0,0,0,12.774-15.178,41.969,41.969,0,0,0,2.069-4.93Z" transform="translate(-10.489 -341.858)" fill="#8fd89f"/>
          <path id="Path_9" data-name="Path 9" d="M108.445,458.181l-.184-10.111-18.743.34-8.672.157.1,5.448.4,21.966,10.109-.182-.149-8.2-.165-9.112,5.1-.092Z" transform="translate(-15.286 -342.675)" fill="#8fd89f"/>
          <path id="Path_10" data-name="Path 10" d="M135.643,428.875a28.1,28.1,0,0,1,27.3-21.8A28.089,28.089,0,0,1,190.7,430.781l4.533,4.133,5.417-5.942A38.144,38.144,0,0,0,125.1,439.4a27.561,27.561,0,0,1,9.842-4.456A28.084,28.084,0,0,1,135.643,428.875Z" transform="translate(25.121 -389.989)" fill="#8fd89f"/>
          <g id="Group_451" data-name="Group 451" transform="translate(0 25.039)">
            <path id="Path_1" data-name="Path 1" d="M51.753,471.151q-4.894-6.1-4.895-18.464,0-12.1,4.938-18.24a16,16,0,0,1,13.126-6.138A19.391,19.391,0,0,1,73.24,430a13.4,13.4,0,0,1,5.649,4.8h.534V411.848H91.613v64.328H81.2l-.8-6.138h-.622a14.309,14.309,0,0,1-5.964,5.382,18.6,18.6,0,0,1-8.274,1.825Q56.645,477.245,51.753,471.151Zm27.671-17.574v-1.424q0-13.256-9.965-13.256-5.427,0-7.742,3.247T59.4,451.976v1.6q0,6.584,2.312,9.832t7.742,3.247Q79.421,466.656,79.423,453.577Z" transform="translate(-46.858 -401.443)" fill="#f69f8e"/>
            <path id="Path_2" data-name="Path 2" d="M78.672,463.294q-5.873-5.96-5.872-18.507t5.872-18.507q5.873-5.96,17.883-5.961t17.929,5.961q5.914,5.964,5.917,18.507t-5.917,18.507q-5.92,5.964-17.929,5.962T78.672,463.294Zm26.514-7.429q2.67-3.425,2.668-10.367v-1.422q0-6.943-2.668-10.367t-8.632-3.426q-5.961,0-8.585,3.426t-2.625,10.367V445.5q0,6.94,2.625,10.367t8.585,3.426Q102.516,459.291,105.187,455.865Z" transform="translate(-22.798 -393.536)" fill="#f69f8e"/>
            <path id="Path_3" data-name="Path 3" d="M99.484,421.388h10.409l.89,6.139h.622a17.8,17.8,0,0,1,14.6-7.207q7.205,0,11.342,3.915t4.137,12.543v31.409H129.292V439.36q0-4.358-2.048-6.317t-6.049-1.957a8.943,8.943,0,0,0-6.807,2.889,10.062,10.062,0,0,0-2.713,7.163v27.049H99.484Z" transform="translate(1.973 -393.529)" fill="#f69f8e"/>
            <path id="Path_4" data-name="Path 4" d="M125.853,484.662a9.924,9.924,0,0,1-3.381-7.74q0-6.232,7.207-9.521a7.48,7.48,0,0,1-4.537-7.03,6.809,6.809,0,0,1,2.312-5.114,12.994,12.994,0,0,1,5.962-3.07q-6.85-4.18-6.85-12.634a14.073,14.073,0,0,1,5.383-11.655q5.384-4.273,15.349-4.273a29.9,29.9,0,0,1,9.43,1.335,10.451,10.451,0,0,0,3.871-4.048,9.268,9.268,0,0,0,1.2-4.048h11.923a11.485,11.485,0,0,1-2.625,7.874,13.437,13.437,0,0,1-7.431,4.047,14.116,14.116,0,0,1,4.45,10.767,14.268,14.268,0,0,1-5.206,11.655q-5.2,4.27-14.9,4.271h-7.116a4.086,4.086,0,0,0-2.536.713,2.323,2.323,0,0,0-.935,1.957,2.41,2.41,0,0,0,.8,1.823,2.979,2.979,0,0,0,2.135.756h21.266a11.712,11.712,0,0,1,8.63,3.472,12.266,12.266,0,0,1,3.47,9.073,12.824,12.824,0,0,1-2.314,7.565,14.937,14.937,0,0,1-6.317,5.071,21.455,21.455,0,0,1-8.806,1.778H134.129A11.974,11.974,0,0,1,125.853,484.662Zm30.253-5.427a6.134,6.134,0,0,0,3.826-1.158,3.89,3.89,0,0,0,.134-6.049,5.432,5.432,0,0,0-3.426-1.069H139.467a5.027,5.027,0,0,0-3.336,1.158,3.655,3.655,0,0,0-1.38,2.934,3.809,3.809,0,0,0,1.335,3.025,4.986,4.986,0,0,0,3.381,1.158ZM153.792,445.2a8.291,8.291,0,0,0,0-11.3q-2.224-2-6.494-2t-6.453,2a8.416,8.416,0,0,0,0,11.3q2.18,2,6.453,2T153.792,445.2Z" transform="translate(23.247 -397.147)" fill="#f69f8e"/>
            <path id="Path_5" data-name="Path 5" d="M154.52,462.821q-4.139-3.911-4.137-12.543V423.037H162.57V447.7q0,4.361,2.048,6.317t6.051,1.957a8.943,8.943,0,0,0,6.8-2.891,10.065,10.065,0,0,0,2.715-7.162V423.037h12.189V465.67H181.969l-.89-6.14h-.622a17.8,17.8,0,0,1-14.593,7.209Q158.659,466.738,154.52,462.821Z" transform="translate(49.202 -390.993)" fill="#f69f8e"/>
            <path id="Path_7" data-name="Path 7" d="M75.893,415.044,87.86,425.735l6.252,5.585,3.916-4.385L110.386,413.1l-7.542-6.734L98.619,411.1l-5.312,5.947-4.631-4.137-6.047-5.4Z" transform="translate(-19.901 -406.365)" fill="#f69f8e"/>
            <path id="Path_11" data-name="Path 11" d="M180.171,410.679l-4.888,5.362-5.417,5.942-4.534-4.133-6.77-6.173-3.853,4.226-2.96,3.247,2.96,2.7,9.661,8.808,6.155,5.612,4-4.39,13.116-14.386Z" transform="translate(50.49 -402.366)" fill="#f69f8e"/>
          </g>
        </g>
      </g>
    </g>
  </g>
</svg>
