<svg xmlns="http://www.w3.org/2000/svg" width="29.842" height="22.554" viewBox="0 0 29.842 22.554">
  <g id="Group_1079" data-name="Group 1079" transform="translate(0 0)">
    <path id="Path_106168" data-name="Path 106168" d="M-1403.131,71.679h0l-.078,0-1.408-6.36.108-.015a1.362,1.362,0,0,0,.86-.475l.056-.067.074.046a1.655,1.655,0,0,0,.877.252h1.173a.487.487,0,0,0,.487-.486V62.224a.487.487,0,0,0-.487-.486h-1.173a1.651,1.651,0,0,0-.9.266l-.073.047-.057-.065a1.366,1.366,0,0,0-1.022-.462h-3.464a1.374,1.374,0,0,0-1.273.875l-.025.064h-1.46a1.427,1.427,0,0,0-1.425,1.425,1.427,1.427,0,0,0,1.425,1.425h3.121v1.977a.487.487,0,0,0,.487.486.487.487,0,0,0,.486-.486V65.314h1.208l1.5,6.771-2.807,5a1.824,1.824,0,0,1-1.587.927h-7.048l-.011-.089a4.83,4.83,0,0,0-4.794-4.255,4.783,4.783,0,0,0-2.98,1.029,4.8,4.8,0,0,0-1.816,3.226l-.01.089h-1.4l0-.1a7.908,7.908,0,0,1,7.869-7.725h4.162a.7.7,0,0,1,.7.7v5.27a.487.487,0,0,0,.486.486h3.122a3.4,3.4,0,0,0,2.975-1.755,3.41,3.41,0,0,0,.424-1.64l0-1.949a.487.487,0,0,0-.486-.487.487.487,0,0,0-.487.485l0,1.95a2.434,2.434,0,0,1-.3,1.171,2.426,2.426,0,0,1-2.124,1.253h-2.636V70.881a1.668,1.668,0,0,0-.2-.785l-.046-.086.084-.049a1.667,1.667,0,0,0,.833-1.438,1.662,1.662,0,0,0-1.66-1.66h-2.142a1.646,1.646,0,0,0-.553.1l-.134.047V61.717a1.662,1.662,0,0,0-1.66-1.66h-3.786a5.456,5.456,0,0,0-5.346,4.558.542.542,0,0,0-.026.161v.017a5.581,5.581,0,0,0-.042.678v3.052a1.67,1.67,0,0,0,1.412,1.641l.033.005,1.4,1.4-.075.071a8.761,8.761,0,0,0-2.766,6.418V78.5a.487.487,0,0,0,.486.486h3.42l-.024.12a.508.508,0,0,0-.01.1,3.3,3.3,0,0,0,.81,2.162l.145.166h-4.341a.487.487,0,0,0-.486.486.487.487,0,0,0,.486.486h6.689a3.307,3.307,0,0,0,3.3-3.3.51.51,0,0,0-.01-.1l-.024-.12h8.585a2.805,2.805,0,0,0,2.248-1.135l.03-.041h.944l-.057.139a3.289,3.289,0,0,0-.248,1.254,3.3,3.3,0,0,0,.81,2.162l.145.166h-7.83a.487.487,0,0,0-.486.486.487.487,0,0,0,.486.486h10.179a3.307,3.307,0,0,0,3.3-3.3,3.284,3.284,0,0,0-.248-1.254l-.057-.139h1.11a.487.487,0,0,0,.487-.486A5.627,5.627,0,0,0-1403.131,71.679Zm.49-8.968h.687v1.375h-.687a.688.688,0,0,1-.687-.687A.688.688,0,0,1-1402.641,62.711Zm-8.274,1.631a.453.453,0,0,1-.453-.453.453.453,0,0,1,.453-.453h1.393v.513a1.374,1.374,0,0,0,.027.272l.024.12Zm2.758,0a.392.392,0,0,1-.392-.392v-1.06a.392.392,0,0,1,.392-.392h3.464a.392.392,0,0,1,.392.392v1.06a.392.392,0,0,1-.392.392Zm-7.834,3.5h2.142a.688.688,0,0,1,.687.687.688.688,0,0,1-.687.687h-2.142a.688.688,0,0,1-.687-.687A.688.688,0,0,1-1415.99,67.836Zm-10.574.687V65.471c0-.025,0-.051,0-.076l0-.133h6.519a.487.487,0,0,0,.487-.486.487.487,0,0,0-.487-.486h-6.366l.04-.13a4.423,4.423,0,0,1,4.244-3.13h3.785a.688.688,0,0,1,.687.687v6.807a.688.688,0,0,1-.687.687h-7.539A.688.688,0,0,1-1426.564,68.524Zm1.862,1.66h1.964l-.329.188a8.89,8.89,0,0,0-.807.521l-.069.05Zm6.681,8.921a.513.513,0,0,0-.01.1,2.337,2.337,0,0,1-2.306,2.33h-.092a2.319,2.319,0,0,1-2.262-2.328.51.51,0,0,0-.01-.1l-.024-.12H-1418Zm-6.169-1.093.018-.116a3.836,3.836,0,0,1,1.429-2.432l.012-.009a3.8,3.8,0,0,1,2.371-.815,3.886,3.886,0,0,1,3.811,3.255l.018.116Zm21.926,3.52h-.092a2.319,2.319,0,0,1-2.262-2.328,2.316,2.316,0,0,1,.432-1.351l.03-.042h3.737l.03.042a2.316,2.316,0,0,1,.432,1.351A2.337,2.337,0,0,1-1402.265,81.531Zm-3.4-4.7,2.351-4.187h.06a4.7,4.7,0,0,1,4.549,4.073l.014.113Z" transform="translate(1427.537 -60.057)" fill="#fff"/>
    <path id="Path_106169" data-name="Path 106169" d="M-1257.3,135.973a.6.6,0,0,0,.595-.595.6.6,0,0,0-.595-.595.6.6,0,0,0-.6.595A.6.6,0,0,0-1257.3,135.973Z" transform="translate(1277.529 -126.135)" fill="#fff"/>
    <path id="Path_106170" data-name="Path 106170" d="M-1322.16,245.845a.6.6,0,0,0,.595-.595.6.6,0,0,0-.595-.595.6.6,0,0,0-.6.595A.6.6,0,0,0-1322.16,245.845Z" transform="translate(1334.883 -223.291)" fill="#fff"/>
  </g>
</svg>
