<svg xmlns="http://www.w3.org/2000/svg" width="21.839" height="26.206" viewBox="0 0 21.839 26.206">
  <g id="Group_1092" data-name="Group 1092" transform="translate(0 0)">
    <g id="Group_1086" data-name="Group 1086" transform="translate(0 0)">
      <g id="Group_1080" data-name="Group 1080">
        <path id="Path_106171" data-name="Path 106171" d="M-1106.874,51.44h.874a1.747,1.747,0,0,0,1.747-1.747A1.747,1.747,0,0,0-1106,47.946h-15.287a2.187,2.187,0,0,0-2.184,2.184v.21a5.776,5.776,0,0,1-.639,2.591,18.928,18.928,0,0,0-1.982,8.408V73.715a.437.437,0,0,0,.437.437h20.965a.437.437,0,0,0,.437-.437V61.338a18.829,18.829,0,0,0-2.621-9.574Zm.874-2.621a.873.873,0,0,1,.873.874.873.873,0,0,1-.873.873h-.874v-.873a.873.873,0,0,1,.874-.874Zm-19.218,12.519a18.047,18.047,0,0,1,1.89-8.017,6.641,6.641,0,0,0,.731-2.981v-.21a1.31,1.31,0,0,1,1.31-1.31h13.774a1.732,1.732,0,0,0-.235.874v2.071a18.829,18.829,0,0,0-2.621,9.574v11.94h-14.85Zm17.908,9.991,1.671,1.949h-3.342Zm2.184,1.205-1.747-2.038V68.474a.437.437,0,0,0-.437-.437.437.437,0,0,0-.437.437V70.5l-1.747,2.039v-11.2a17.955,17.955,0,0,1,1.747-7.714v4.368a.437.437,0,0,0,.437.437.437.437,0,0,0,.437-.437V53.624a17.953,17.953,0,0,1,1.747,7.715Zm0,0" transform="translate(1126.092 -47.946)" fill="#fff"/>
      </g>
      <g id="Group_1081" data-name="Group 1081" transform="translate(18.344 12.23)">
        <path id="Path_106172" data-name="Path 106172" d="M-981.147,144.285a.437.437,0,0,0-.437.437v2.621a.437.437,0,0,0,.437.437.437.437,0,0,0,.437-.437v-2.621a.437.437,0,0,0-.437-.437Zm0,0" transform="translate(981.584 -144.285)" fill="#fff"/>
      </g>
      <g id="Group_1082" data-name="Group 1082" transform="translate(3.931 4.804)">
        <path id="Path_106173" data-name="Path 106173" d="M-1084.291,85.975a.437.437,0,0,0-.354-.182h-9.172a.437.437,0,0,0-.415.3l-.874,2.621a.437.437,0,0,0,.06.393.436.436,0,0,0,.354.181h9.172a.437.437,0,0,0,.414-.3l.874-2.621a.434.434,0,0,0-.06-.393Zm-1.543,2.439h-8.252l.583-1.747h8.251Zm0,0" transform="translate(1095.127 -85.793)" fill="#fff"/>
      </g>
      <g id="Group_1083" data-name="Group 1083" transform="translate(5.678 9.172)">
        <path id="Path_106174" data-name="Path 106174" d="M-1075.685,121.074a.437.437,0,0,0,.437-.437.437.437,0,0,0-.437-.437h-5.242a.437.437,0,0,0-.437.437.437.437,0,0,0,.437.437Zm0,0" transform="translate(1081.363 -120.2)" fill="#fff"/>
      </g>
      <g id="Group_1084" data-name="Group 1084" transform="translate(6.988 3.057)">
        <path id="Path_106175" data-name="Path 106175" d="M-1070.6,72.9h5.241a.437.437,0,0,0,.437-.437.437.437,0,0,0-.437-.437h-5.241a.437.437,0,0,0-.437.437.437.437,0,0,0,.437.437Zm0,0" transform="translate(1071.041 -72.031)" fill="#fff"/>
      </g>
      <g id="Group_1085" data-name="Group 1085" transform="translate(18.128 17.295)">
        <path id="Path_106176" data-name="Path 106176" d="M-982.633,185.491a.652.652,0,0,0,.652-.652.652.652,0,0,0-.652-.652h0a.651.651,0,0,0-.651.652.653.653,0,0,0,.654.652Zm0,0" transform="translate(983.287 -184.186)" fill="#fff"/>
      </g>
    </g>
    <g id="Group_1088" data-name="Group 1088" transform="translate(5.127 19.4)">
      <g id="Group_1087" data-name="Group 1087" transform="translate(0)">
        <g id="Path_8" data-name="Path 8" transform="translate(0.803 0.134)">
          <path id="Path_106177" data-name="Path 106177" d="M-1073.605,202.579h-.6a2.465,2.465,0,0,1-.788.948h0a2.489,2.489,0,0,1-3.223-.26l-.406.007.013.725a3.276,3.276,0,0,0,1.63.763,3.326,3.326,0,0,0,.531.043,3.275,3.275,0,0,0,1.925-.626h0a3.256,3.256,0,0,0,1.017-1.208,3.4,3.4,0,0,0,.165-.392Z" transform="translate(1078.719 -202.484)" fill="#fff"/>
          <path id="Path_106178" data-name="Path 106178" d="M-1077.1,204.245a3.44,3.44,0,0,1-.547-.044,3.369,3.369,0,0,1-1.678-.785.1.1,0,0,1-.033-.07l-.013-.725a.1.1,0,0,1,.094-.1l.406-.007a.092.092,0,0,1,.069.028,2.382,2.382,0,0,0,3.1.25,2.377,2.377,0,0,0,.758-.912.1.1,0,0,1,.086-.055h.864a.1.1,0,0,1,.078.04.1.1,0,0,1,.012.086,3.461,3.461,0,0,1-.169.4,3.361,3.361,0,0,1-1.046,1.243A3.349,3.349,0,0,1-1077.1,204.245Zm-2.067-.945a3.176,3.176,0,0,0,1.551.713,3.26,3.26,0,0,0,.516.041,3.16,3.16,0,0,0,1.869-.607,3.17,3.17,0,0,0,.987-1.173c.041-.083.079-.169.113-.255h-.667a2.573,2.573,0,0,1-.792.93,2.572,2.572,0,0,1-3.317-.241l-.271,0Z" transform="translate(1079.374 -201.829)" fill="#fff"/>
        </g>
        <g id="Path_9" data-name="Path 9">
          <path id="Path_106179" data-name="Path 106179" d="M-1082.755,202.329l-.015-.8-1.492.027-.69.013.008.434.032,1.748.8-.015-.012-.652-.013-.725.406-.007Z" transform="translate(1085.047 -201.429)" fill="#fff"/>
          <path id="Path_106180" data-name="Path 106180" d="M-1085.568,203.186a.1.1,0,0,1-.1-.094l-.04-2.182a.1.1,0,0,1,.027-.068.1.1,0,0,1,.067-.029l2.182-.04a.1.1,0,0,1,.1.093l.015.8a.1.1,0,0,1-.027.068.1.1,0,0,1-.067.029l-1.282.023.023,1.282a.1.1,0,0,1-.027.068.1.1,0,0,1-.067.029l-.8.015Zm.057-2.184.036,1.992.614-.011-.023-1.282a.1.1,0,0,1,.093-.1l1.282-.023-.011-.614Z" transform="translate(1085.702 -200.774)" fill="#fff"/>
        </g>
      </g>
    </g>
    <g id="Group_1091" data-name="Group 1091" transform="translate(2.257 14.389)">
      <g id="Group_1089" data-name="Group 1089" transform="translate(0)">
        <path id="Path_106181" data-name="Path 106181" d="M-1107.731,165a.444.444,0,0,1-.415-.286,2.507,2.507,0,0,1-.168-.9,2.521,2.521,0,0,1,2.518-2.518,2.522,2.522,0,0,1,2.519,2.518.444.444,0,0,1-.444.444.444.444,0,0,1-.444-.444,1.632,1.632,0,0,0-1.63-1.63,1.632,1.632,0,0,0-1.63,1.63,1.625,1.625,0,0,0,.109.582.445.445,0,0,1-.256.574A.444.444,0,0,1-1107.731,165Z" transform="translate(1108.314 -161.294)" fill="#fff"/>
      </g>
      <g id="Group_1090" data-name="Group 1090" transform="translate(6.929 0.275)">
        <path id="Path_106182" data-name="Path 106182" d="M-1049.6,167.719a.442.442,0,0,1-.278-.1.444.444,0,0,1-.068-.625,1.61,1.61,0,0,0,.36-1.02,1.632,1.632,0,0,0-1.63-1.63,1.632,1.632,0,0,0-1.63,1.63.444.444,0,0,1-.444.444.444.444,0,0,1-.444-.444,2.521,2.521,0,0,1,2.519-2.519,2.522,2.522,0,0,1,2.519,2.519,2.524,2.524,0,0,1-.557,1.577A.444.444,0,0,1-1049.6,167.719Z" transform="translate(1053.73 -163.457)" fill="#fff"/>
      </g>
    </g>
  </g>
</svg>
