<svg xmlns="http://www.w3.org/2000/svg" width="18.199" height="21.838" viewBox="0 0 18.199 21.838"><g transform="translate(0)"><g transform="translate(0 0)"><path d="M-1110.077,50.858h.728a1.456,1.456,0,0,0,1.456-1.456,1.456,1.456,0,0,0-1.456-1.456h-12.739a1.822,1.822,0,0,0-1.82,1.82v.175a4.813,4.813,0,0,1-.532,2.159,15.773,15.773,0,0,0-1.651,7.006V69.42a.364.364,0,0,0,.364.364h17.471a.364.364,0,0,0,.364-.364V59.106a15.691,15.691,0,0,0-2.184-7.978Zm.728-2.184a.728.728,0,0,1,.728.728.728.728,0,0,1-.728.728h-.728V49.4a.728.728,0,0,1,.728-.728Zm-16.015,10.432a15.038,15.038,0,0,1,1.575-6.681,5.536,5.536,0,0,0,.609-2.484v-.175a1.092,1.092,0,0,1,1.092-1.092h11.479a1.443,1.443,0,0,0-.2.728v1.726a15.691,15.691,0,0,0-2.184,7.978v9.95h-12.375Zm14.923,8.326,1.393,1.624h-2.785Zm1.82,1-1.456-1.7V65.053a.364.364,0,0,0-.364-.364.364.364,0,0,0-.364.364v1.685l-1.456,1.7V59.106a14.963,14.963,0,0,1,1.456-6.429v3.64a.364.364,0,0,0,.364.364.364.364,0,0,0,.364-.364v-3.64a14.96,14.96,0,0,1,1.456,6.429Zm0,0" transform="translate(1126.092 -47.946)" fill="#fff"/><g transform="translate(15.287 10.191)"><path d="M-981.22,144.285a.364.364,0,0,0-.364.364v2.184a.364.364,0,0,0,.364.364.364.364,0,0,0,.364-.364v-2.184a.364.364,0,0,0-.364-.364Zm0,0" transform="translate(981.584 -144.285)" fill="#fff"/></g><g transform="translate(3.276 4.004)"><path d="M-1086.1,85.944a.364.364,0,0,0-.3-.151h-7.643a.364.364,0,0,0-.346.249l-.728,2.184a.364.364,0,0,0,.05.328.364.364,0,0,0,.3.151h7.643a.364.364,0,0,0,.345-.249l.728-2.184a.362.362,0,0,0-.05-.328Zm-1.286,2.032h-6.876l.485-1.456h6.876Zm0,0" transform="translate(1095.127 -85.793)" fill="#fff"/></g><g transform="translate(4.732 7.643)"><path d="M-1076.631,120.928a.364.364,0,0,0,.364-.364.364.364,0,0,0-.364-.364H-1081a.364.364,0,0,0-.364.364.364.364,0,0,0,.364.364Zm0,0" transform="translate(1081.363 -120.2)" fill="#fff"/></g><g transform="translate(5.824 2.548)"><path d="M-1070.677,72.759h4.368a.364.364,0,0,0,.364-.364.364.364,0,0,0-.364-.364h-4.368a.364.364,0,0,0-.364.364.364.364,0,0,0,.364.364Zm0,0" transform="translate(1071.041 -72.031)" fill="#fff"/></g><g transform="translate(15.107 14.412)"><path d="M-982.742,185.273a.544.544,0,0,0,.544-.544.544.544,0,0,0-.544-.544h0a.543.543,0,0,0-.543.544.545.545,0,0,0,.545.544Zm0,0" transform="translate(983.287 -184.186)" fill="#fff"/></g></g><g transform="translate(4.273 16.167)"><g transform="translate(0.669 0.112)"><path d="M-1074.442,202.579h-.5a2.055,2.055,0,0,1-.657.79h0a2.074,2.074,0,0,1-2.686-.217l-.339.006.011.6a2.73,2.73,0,0,0,1.359.635,2.773,2.773,0,0,0,.443.036,2.729,2.729,0,0,0,1.6-.521h0a2.713,2.713,0,0,0,.847-1.007,2.823,2.823,0,0,0,.137-.327Z" transform="translate(1078.703 -202.5)" fill="#fff"/><path d="M-1077.483,203.843a2.866,2.866,0,0,1-.455-.036,2.807,2.807,0,0,1-1.4-.654.081.081,0,0,1-.027-.059l-.011-.6a.08.08,0,0,1,.078-.081l.338-.006a.077.077,0,0,1,.058.023,1.985,1.985,0,0,0,2.583.208,1.98,1.98,0,0,0,.632-.76.079.079,0,0,1,.072-.045h.72a.079.079,0,0,1,.065.033.08.08,0,0,1,.01.072,2.894,2.894,0,0,1-.141.336,2.8,2.8,0,0,1-.872,1.036A2.791,2.791,0,0,1-1077.483,203.843Zm-1.723-.787a2.647,2.647,0,0,0,1.292.594,2.717,2.717,0,0,0,.43.034,2.634,2.634,0,0,0,1.558-.506,2.642,2.642,0,0,0,.823-.977c.034-.07.066-.141.094-.213h-.556a2.144,2.144,0,0,1-.66.775,2.143,2.143,0,0,1-2.764-.2l-.226,0Z" transform="translate(1079.374 -201.829)" fill="#fff"/></g><g transform="translate(0)"><path d="M-1083.121,202.195l-.012-.671-1.243.023-.575.01.007.361.026,1.457.671-.012-.01-.544-.011-.6.339-.006Z" transform="translate(1085.031 -201.445)" fill="#fff"/><path d="M-1085.59,202.784a.08.08,0,0,1-.079-.078l-.033-1.818a.08.08,0,0,1,.022-.056.08.08,0,0,1,.056-.024l1.818-.033a.08.08,0,0,1,.081.078l.012.671a.081.081,0,0,1-.022.057.08.08,0,0,1-.056.024l-1.069.019.019,1.069a.08.08,0,0,1-.022.057.08.08,0,0,1-.056.024l-.671.012Zm.048-1.82.03,1.66.512-.009-.019-1.069a.08.08,0,0,1,.078-.081l1.069-.019-.009-.512Z" transform="translate(1085.702 -200.774)" fill="#fff"/></g></g><g transform="translate(1.881 11.991)"><g transform="translate(0)"><path d="M-1107.828,164.38a.37.37,0,0,1-.346-.238,2.089,2.089,0,0,1-.14-.749,2.1,2.1,0,0,1,2.1-2.1,2.1,2.1,0,0,1,2.1,2.1.37.37,0,0,1-.37.37.37.37,0,0,1-.37-.37,1.36,1.36,0,0,0-1.358-1.358,1.36,1.36,0,0,0-1.358,1.358,1.355,1.355,0,0,0,.091.485.37.37,0,0,1-.214.478A.37.37,0,0,1-1107.828,164.38Z" transform="translate(1108.314 -161.294)" fill="#fff"/></g><g transform="translate(5.774 0.229)"><path d="M-1050.285,167.008a.368.368,0,0,1-.232-.082.37.37,0,0,1-.056-.521,1.342,1.342,0,0,0,.3-.85,1.36,1.36,0,0,0-1.358-1.358,1.36,1.36,0,0,0-1.358,1.358.37.37,0,0,1-.37.37.37.37,0,0,1-.37-.37,2.1,2.1,0,0,1,2.1-2.1,2.1,2.1,0,0,1,2.1,2.1,2.1,2.1,0,0,1-.464,1.314A.37.37,0,0,1-1050.285,167.008Z" transform="translate(1053.73 -163.457)" fill="#fff"/></g></g></g></svg>