<svg xmlns="http://www.w3.org/2000/svg" width="17.617" height="16.834" viewBox="0 0 17.617 16.834">
  <g id="Group_944" data-name="Group 944" transform="translate(0 2.191)">
    <path id="Path_106129" data-name="Path 106129" d="M5.262,18.453a.738.738,0,0,0,.595.141,1.745,1.745,0,0,0,.711-.341l4.118-3.028,4.126,3.028a1.8,1.8,0,0,0,.72.341.714.714,0,0,0,.586-.141.825.825,0,0,0,.316-.524,1.592,1.592,0,0,0-.092-.774l-1.631-4.85,4.159-2.978a1.773,1.773,0,0,0,.537-.578.73.73,0,0,0,.046-.6.772.772,0,0,0-.4-.462,1.606,1.606,0,0,0-.765-.146l-5.108.033L11.634,2.7a1.722,1.722,0,0,0-.383-.69.77.77,0,0,0-.566-.233.761.761,0,0,0-.557.233,1.722,1.722,0,0,0-.383.69L8.2,7.572,3.1,7.538a1.6,1.6,0,0,0-.77.146.808.808,0,0,0-.4.453.738.738,0,0,0,.05.611,1.823,1.823,0,0,0,.541.578l4.159,2.978-1.631,4.85a1.634,1.634,0,0,0-.1.774A.808.808,0,0,0,5.262,18.453Z" transform="translate(-1.882 -3.964)" fill="#ffbc41"/>
  </g>
</svg>
