<svg xmlns="http://www.w3.org/2000/svg" width="33.731" height="29.481" viewBox="0 0 33.731 29.481">
  <g id="Group_29515" data-name="Group 29515" transform="translate(1425.694 -967.998)">
    <g id="Group_29513" data-name="Group 29513" transform="translate(-1425.694 974.513)">
      <path id="Path_137895" data-name="Path 137895" d="M-1391.541,1016.5a8.18,8.18,0,0,0-6.915-3.782,8.179,8.179,0,0,0-6.915,3.782l-3.658,5.706a5.164,5.164,0,0,0-.81,3.162,5.163,5.163,0,0,0,1.234,3.022,5.164,5.164,0,0,0,2.794,1.69,5.164,5.164,0,0,0,3.25-.309l.067-.03a10.22,10.22,0,0,1,8.14.03,5.168,5.168,0,0,0,2.086.442,5.244,5.244,0,0,0,1.164-.132,5.162,5.162,0,0,0,2.794-1.69,5.163,5.163,0,0,0,1.235-3.022,5.166,5.166,0,0,0-.81-3.163Zm1.729,10.605a3.2,3.2,0,0,1-3.745.855,12.171,12.171,0,0,0-4.9-1.027,12.175,12.175,0,0,0-4.9,1.026l-.044.019a3.2,3.2,0,0,1-3.7-.874,3.2,3.2,0,0,1-.263-3.833l3.658-5.706a6.21,6.21,0,0,1,5.25-2.871,6.211,6.211,0,0,1,5.251,2.871l3.657,5.705a3.2,3.2,0,0,1-.263,3.833Zm0,0" transform="translate(1414.097 -1007.247)" fill="#ffbc41"/>
      <path id="Path_137896" data-name="Path 137896" d="M-1419.64,1001.552a3.988,3.988,0,0,0,2.328-2.469,5.152,5.152,0,0,0-.091-3.552,5.153,5.153,0,0,0-2.314-2.7,3.988,3.988,0,0,0-3.381-.272,4.566,4.566,0,0,0-2.235,6.021,4.816,4.816,0,0,0,4.332,3.22,3.773,3.773,0,0,0,1.362-.252Zm-3.849-3.679a2.607,2.607,0,0,1,1.1-3.466,1.831,1.831,0,0,1,.662-.122,2.232,2.232,0,0,1,1.064.286,3.175,3.175,0,0,1,1.414,1.669,3.174,3.174,0,0,1,.071,2.186,2.045,2.045,0,0,1-1.171,1.279h0a2.606,2.606,0,0,1-3.138-1.833Zm0,0" transform="translate(1425.694 -992.306)" fill="#ffbc41"/>
    </g>
    <path id="Path_137897" data-name="Path 137897" d="M-1390.16,979.289c2.732,0,4.955-2.532,4.955-5.645s-2.223-5.646-4.955-5.646-4.954,2.533-4.954,5.646,2.222,5.645,4.954,5.645Zm0-9.314c1.641,0,2.977,1.646,2.977,3.669s-1.336,3.668-2.977,3.668-2.977-1.646-2.977-3.668,1.335-3.669,2.977-3.669Zm0,0" transform="translate(-22.383)" fill="#ffbc41"/>
    <g id="Group_29514" data-name="Group 29514" transform="translate(-1406.971 970.65)">
      <path id="Path_137898" data-name="Path 137898" d="M-1352.857,987.918h0a4.032,4.032,0,0,0,1.276.206,5.135,5.135,0,0,0,4.675-3.679,5.536,5.536,0,0,0-.079-3.819,4.271,4.271,0,0,0-2.609-2.525,4.271,4.271,0,0,0-3.6.461,5.538,5.538,0,0,0-2.349,3.012c-.9,2.706.306,5.552,2.687,6.344Zm-.81-5.72a3.562,3.562,0,0,1,1.5-1.944,2.326,2.326,0,0,1,1.953-.276,2.325,2.325,0,0,1,1.4,1.39,3.559,3.559,0,0,1,.036,2.454c-.556,1.672-2.1,2.668-3.451,2.22s-1.99-2.172-1.434-3.844Zm0,0" transform="translate(1355.842 -977.892)" fill="#ffbc41"/>
      <path id="Path_137899" data-name="Path 137899" d="M-1325.774,1010.792h0a4.568,4.568,0,0,0-6.281,1.345,4.566,4.566,0,0,0,.55,6.4,3.872,3.872,0,0,0,2.326.751,5.009,5.009,0,0,0,3.956-2.1,4.566,4.566,0,0,0-.55-6.4Zm-1.039,5.222a2.608,2.608,0,0,1-3.517.931,2.607,2.607,0,0,1-.137-3.633,3.035,3.035,0,0,1,2.354-1.3,1.932,1.932,0,0,1,1.163.369,2.609,2.609,0,0,1,.136,3.632Zm0,0" transform="translate(1339.193 -1001.424)" fill="#ffbc41"/>
    </g>
  </g>
</svg>
