<svg xmlns="http://www.w3.org/2000/svg" width="27.608" height="31.188" viewBox="0 0 27.608 31.188">
  <g id="like" transform="translate(0.147 0.15)">
    <path id="Path_137359" data-name="Path 137359" d="M2257.547,199.355c-.78,0-1.646-.022-2.6-.063-5.116-.221-6.839-.3-7.391-3.835a39.018,39.018,0,0,1-.084-5.683c.056-2.135.139-5.322-.2-5.978-.269,0-.581-.008-.924-.015-1.423-.031-5.758-.125-5.816.8-.6,9.616.14,12.518.615,12.709,1.193.069,5.136.166,5.175.167a.515.515,0,0,1-.013,1.029h-.013c-.163,0-4-.1-5.218-.17a1.088,1.088,0,0,1-.76-.393c-1.024-1.155-1.3-5.665-.815-13.406.111-1.765,3.176-1.842,6.867-1.762.389.009.74.016,1.028.016a.79.79,0,0,1,.572.249c.625.642.642,2.56.531,6.784a39.083,39.083,0,0,0,.074,5.5c.4,2.605,1.1,2.735,6.417,2.965,4.848.211,7.442-.139,7.712-1.041a1.756,1.756,0,0,0-.011-1.108,2.023,2.023,0,0,1-.093-.8,1.041,1.041,0,0,1,.679-.813,1.452,1.452,0,0,0,.8-.87.952.952,0,0,0,.02-.984,1.744,1.744,0,0,1-.146-1.318,1.714,1.714,0,0,1,.914-1.1,1.078,1.078,0,0,0,.64-.919c.2-1.126-.139-1.38-.529-1.675a1.332,1.332,0,0,1-.679-1.213,1.49,1.49,0,0,1,.729-1.287c.2-.14.34-.232.352-.9.04-2.175-4.61-3.042-8.6-3.123a1.108,1.108,0,0,1-.937-.446c-.471-.664-.118-1.74.415-3.369a14.417,14.417,0,0,0,1.011-5.159c-.069-1-.18-2.091-.612-2.463a.951.951,0,0,0-.768-.174c-.417.2-1.577,2.556-2.509,4.448-.6,1.224-1.287,2.612-2,3.924a37.254,37.254,0,0,0-1.755,3.716.515.515,0,0,1-.958-.376,37.6,37.6,0,0,1,1.809-3.831c.7-1.293,1.383-2.671,1.982-3.888,1.69-3.43,2.475-4.949,3.351-5.019a2.006,2.006,0,0,1,1.521.421c.733.631.876,1.86.968,3.172a15.2,15.2,0,0,1-1.06,5.552,6.649,6.649,0,0,0-.554,2.453c0-.006.038.01.118.011,2.912.06,9.677.585,9.612,4.171a1.78,1.78,0,0,1-.8,1.729c-.19.129-.254.173-.282.518-.006.075-.008.1.274.31a2.332,2.332,0,0,1,.921,2.675,2.059,2.059,0,0,1-1.127,1.625c-.259.154-.377.224-.445.48a.743.743,0,0,0,.086.62,1.95,1.95,0,0,1-.005,1.818,2.46,2.46,0,0,1-1.283,1.387c-.041.021-.091.047-.126.067a1.465,1.465,0,0,0,.069.364,2.753,2.753,0,0,1,0,1.668C2263.3,198.8,2261.528,199.355,2257.547,199.355Z" transform="translate(-2239.27 -168.468)" fill="#f38262" stroke="#e5876a" stroke-width="0.3"/>
  </g>
</svg>
