<svg xmlns="http://www.w3.org/2000/svg" width="319.612" height="318.58" viewBox="0 0 319.612 318.58">
  <g id="Group_31488" data-name="Group 31488" transform="translate(-55 -268)">
    <g id="Group_31484" data-name="Group 31484" transform="translate(0 10)">
      <g id="Group_746" data-name="Group 746" transform="translate(55 409.823) rotate(-41)">
        <g id="Group_745" data-name="Group 745">
          <g id="Path_70673" data-name="Path 70673" transform="translate(0.843 0.794)">
            <path id="Path_135385" data-name="Path 135385" d="M20.6,55.313C39.163,21.571,75.129-29.67,170.979,21.924S227,170.258,180.686,198.049,60.027,237.474,11.327,163.071C-13.824,124.648,9.123,76.175,20.6,55.313Z" fill="#fff"/>
          </g>
          <g id="Path_70674" data-name="Path 70674">
            <path id="Path_135386" data-name="Path 135386" d="M212.232,169.756c-8.713,12.947-19.473,23.332-30.265,29.811-48.834,29.3-122.788,37.659-170.507-35.241C-6.5,136.891-3.3,99.328,20.7,55.7h0C30.227,38.383,44.128,17.162,67.3,6.639,94.809-5.855,130.11-.7,172.223,21.972c47.861,25.762,58.593,60.513,59.168,85.13C231.935,130.405,223.926,152.384,212.232,169.756ZM22.186,56.514C-1.5,99.563-4.717,136.523,12.878,163.4c47.058,71.895,120.028,63.634,168.215,34.716,24.254-14.551,49.529-51.381,48.6-90.973-.563-24.168-11.13-58.3-58.276-83.681C81.8-24.777,44.593,15.793,22.187,56.513Z"/>
          </g>
        </g>
        <g id="Path_70675" data-name="Path 70675" transform="translate(32.838 180.387)">
          <path id="Path_135387" data-name="Path 135387" d="M96.209,32.735a.849.849,0,0,1-.563.361,111.084,111.084,0,0,1-40.8-.47c-20.619-4.242-39-14.739-54.615-31.2A.846.846,0,0,1,1.459.263C16.838,16.466,34.915,26.8,55.19,30.97a109.434,109.434,0,0,0,40.178.455.845.845,0,0,1,.845,1.308Z"/>
        </g>
        <g id="Path_70676" data-name="Path 70676" transform="translate(177.779 194.14)">
          <path id="Path_135388" data-name="Path 135388" d="M0,0" fill="none" stroke="#000" stroke-miterlimit="10" stroke-width="1"/>
        </g>
        <g id="Path_70677" data-name="Path 70677" transform="translate(204.409 168.581)">
          <path id="Path_135389" data-name="Path 135389" d="M0,0" fill="none" stroke="#000" stroke-miterlimit="10" stroke-width="1"/>
        </g>
        <g id="Path_70678" data-name="Path 70678" transform="translate(202.297 53.721)">
          <path id="Path_135390" data-name="Path 135390" d="M18.328,30.312a.834.834,0,0,1-.435.329.845.845,0,0,1-1.069-.533v0A83.957,83.957,0,0,0,.2,1.4.861.861,0,0,1,.285.208.845.845,0,0,1,1.477.289l0,0A85.7,85.7,0,0,1,18.43,29.57.841.841,0,0,1,18.328,30.312Z"/>
        </g>
        <g id="Path_70679" data-name="Path 70679" transform="translate(107.991 6.727)">
          <path id="Path_135391" data-name="Path 135391" d="M16.123,3.709a.843.843,0,0,1-.891.351A110.2,110.2,0,0,0,.768,1.69.847.847,0,1,1,.926,0a111.451,111.451,0,0,1,14.688,2.4.847.847,0,0,1,.512,1.3Z"/>
        </g>
        <g id="Path_70680" data-name="Path 70680" transform="translate(61.359 8.493)">
          <path id="Path_135392" data-name="Path 135392" d="M21.354,1.32a.843.843,0,0,1-.5.35A66.987,66.987,0,0,0,1.3,9.981.847.847,0,1,1,.4,8.546,68.865,68.865,0,0,1,20.446.027a.845.845,0,0,1,.91,1.293Z"/>
        </g>
        <g id="Path_70681" data-name="Path 70681" transform="translate(6.331 90.561)">
          <path id="Path_135393" data-name="Path 135393" d="M12.266,71.034a.883.883,0,0,1-.239.236.849.849,0,0,1-1.17-.246C-1.518,52.118-3.323,28.423,5.488.591A.846.846,0,0,1,7.1,1.1c-8.65,27.324-6.91,50.538,5.173,69A.85.85,0,0,1,12.266,71.034Z"/>
        </g>
        <g id="Path_70682" data-name="Path 70682" transform="translate(83.07 8.112)">
          <path id="Path_135394" data-name="Path 135394" d="M1.1.119a.706.706,0,1,1-.979.2h0A.706.706,0,0,1,1.1.119Z"/>
        </g>
        <g id="Path_70683" data-name="Path 70683" transform="translate(103.894 6.46)">
          <path id="Path_135395" data-name="Path 135395" d="M1.222.134A.784.784,0,1,1,.134.346h0A.784.784,0,0,1,1.222.134Z"/>
        </g>
        <g id="Path_70684" data-name="Path 70684" transform="translate(175.338 171.601)">
          <path id="Path_135396" data-name="Path 135396" d="M27.394.984C23.219,6.836,17.1,12.564,9.207,18.008c-2.58,1.78-5.394,3.554-8.357,5.273L0,21.818c2.924-1.7,5.7-3.448,8.247-5.2C15.977,11.283,21.955,5.694,26.016,0Z"/>
        </g>
        <g id="Path_70685" data-name="Path 70685" transform="translate(146.53 199.706)">
          <path id="Path_135397" data-name="Path 135397" d="M17.487,1.531A166.167,166.167,0,0,1,.528,8.467L0,6.858A164.675,164.675,0,0,0,16.764,0Z"/>
        </g>
        <g id="Path_70686" data-name="Path 70686" transform="translate(34.631 171.264)">
          <path id="Path_135398" data-name="Path 135398" d="M1.632.178A1.047,1.047,0,1,1,.178.462h0A1.048,1.048,0,0,1,1.632.178Z"/>
        </g>
        <g id="Path_70687" data-name="Path 70687" transform="translate(217.031 95.34)">
          <path id="Path_135399" data-name="Path 135399" d="M2.365.258A1.517,1.517,0,1,1,.258.67,1.517,1.517,0,0,1,2.365.258Z"/>
        </g>
        <g id="Path_70688" data-name="Path 70688" transform="translate(200.902 140.627)">
          <path id="Path_135400" data-name="Path 135400" d="M0,0"/>
        </g>
        <g id="Path_70689" data-name="Path 70689" transform="translate(154.501 40.084)">
          <path id="Path_135401" data-name="Path 135401" d="M1.949.212A1.25,1.25,0,1,1,.213.552h0A1.252,1.252,0,0,1,1.949.212Z"/>
        </g>
        <g id="Path_70690" data-name="Path 70690" transform="translate(160.201 33.35)">
          <path id="Path_135402" data-name="Path 135402" d="M2.266.248A1.454,1.454,0,1,1,.248.642h0A1.454,1.454,0,0,1,2.266.248Z"/>
        </g>
        <g id="Path_70691" data-name="Path 70691" transform="translate(170.881 31.975)">
          <path id="Path_135403" data-name="Path 135403" d="M4.606.5a2.955,2.955,0,1,1-4.1.8h0A2.956,2.956,0,0,1,4.606.5Z"/>
        </g>
        <g id="Path_70692" data-name="Path 70692" transform="translate(168.67 50.836)">
          <path id="Path_135404" data-name="Path 135404" d="M1.732.19a1.111,1.111,0,1,1-1.543.3A1.111,1.111,0,0,1,1.732.19Z"/>
        </g>
      </g>
    </g>
    <g id="Group_28425" data-name="Group 28425" transform="translate(158.171 366.253)">
      <g id="Group_31487" data-name="Group 31487">
        <g id="plant">
          <path id="Path_137360" data-name="Path 137360" d="M63.171-425.468a1.851,1.851,0,0,1-.326-.031,1.81,1.81,0,0,1-1.458-2.1c0-.018.071-.382.192-.956-9.716.023-19.387-.062-27.945-.321-13.75-.424-17.767-1.065-19.539-3.121-1.19-1.38-1-2.99-.819-4.548a18.187,18.187,0,0,0,.163-2.179c0-.938-.043-1.8-.083-2.6-.134-2.728-.252-5.084,1.534-6.923,2.329-2.4,7.309-3.116,19.773-2.86,24.16.511,57.36.337,73.318.253,3.583-.018,6.251-.032,7.684-.032a.913.913,0,0,0,.895-.408,4.073,4.073,0,0,0,.471-2.279c0-10.607-17.168-39.962-44.209-43.71-3.771,6.486-23.8,39.785-38.81,42.3a9.632,9.632,0,0,1-8.323-2.328c-4.133-3.657-4.978-10.124-2.261-17.3C28.3-487.468,44.034-501.3,67.078-501.3c1.179,0,2.338.045,3.489.134,1.19-3.8,2.909-10.245.688-13.3-.926-1.274-2.543-1.895-4.949-1.895-2.6,0-4.405.96-5.079,2.7a3.979,3.979,0,0,0,.819,4.207,3.039,3.039,0,0,0,3.5.094,1.813,1.813,0,0,1,2.431.81,1.813,1.813,0,0,1-.81,2.431c-2.806,1.406-5.561,1.165-7.561-.655a7.561,7.561,0,0,1-1.761-8.191c1.234-3.188,4.316-5.017,8.459-5.017,3.6,0,6.249,1.141,7.881,3.391,3.087,4.255,1.44,11.281.04,15.86,28.194,4.478,46.425,34.443,46.425,47.164a7.605,7.605,0,0,1-1.092,4.309,4.55,4.55,0,0,1-3.9,2c-1.429,0-4.092.014-7.666.032-15.971.083-49.2.257-73.412-.253-7.457-.158-15.32-.067-17.1,1.763-.658.677-.629,1.913-.514,4.218.042.851.087,1.777.087,2.778a21.7,21.7,0,0,1-.187,2.6,4.448,4.448,0,0,0-.036,1.761c1.19,1.38,11.8,1.708,16.905,1.865,8.781.267,18.749.341,28.728.317.589-2.043,1.362-4.079,2.179-4.449,10.73-4.9,37.457-5.256,48.87-5.409l2.739-.039c3.624-.064,5.126.077,6.189.594,4.441,2.152,1.344,9.341.679,10.761a1.81,1.81,0,0,1-1.576,1.04c-.382.014-27.945.974-56.26,1.114-.13.549-.246,1.1-.341,1.615A1.814,1.814,0,0,1,63.171-425.468Zm3.586-8.133c-.125.339-.288.824-.469,1.4,24.669-.138,48.533-.886,53.983-1.067.866-2.272,1.194-4.672.6-4.96a20.308,20.308,0,0,0-4.546-.232l-2.757.039C102.6-438.272,77.209-437.934,66.757-433.6Zm.321-64.08c-21.325,0-35.819,12.623-40.264,24.352-2.163,5.709-1.686,10.681,1.273,13.3a6.078,6.078,0,0,0,5.324,1.467c11.279-1.889,28.2-26.889,35.424-39.083C68.253-497.668,67.67-497.681,67.078-497.681Z" transform="translate(-13.14 519.991)" fill="#f69f8e"/>
          <path id="Path_137360_-_Outline" data-name="Path 137360 - Outline" d="M63.171-425.318a2.012,2.012,0,0,1-.352-.033,1.945,1.945,0,0,1-1.262-.812,1.946,1.946,0,0,1-.317-1.467l0-.019c.051-.272.106-.543.151-.76-.955,0-1.91,0-2.844,0-9.414,0-17.8-.109-24.921-.325-13.8-.425-17.843-1.078-19.648-3.173-1.234-1.43-1.041-3.074-.854-4.663l0-.018a17.923,17.923,0,0,0,.16-2.143c0-.93-.044-1.807-.083-2.58v-.02c-.136-2.759-.253-5.142,1.577-7.026,2.093-2.154,6.3-2.954,15.533-2.954,1.325,0,2.748.016,4.35.049,11,.232,25.3.35,42.507.35,12.242,0,23.414-.059,30.806-.1l.714,0c3.271-.017,5.634-.029,6.97-.029.5,0,.655-.169.77-.341a3.921,3.921,0,0,0,.446-2.2c0-2.689-1.1-6.494-3.091-10.713a64.262,64.262,0,0,0-8.838-13.617,61.1,61.1,0,0,0-13.9-12.333A45.6,45.6,0,0,0,72.9-497.124c-3.979,6.832-23.872,39.772-38.864,42.284a11.637,11.637,0,0,1-1.9.162,9.645,9.645,0,0,1-6.545-2.525c-4.181-3.7-5.042-10.228-2.3-17.464,4.888-12.9,20.677-26.787,43.792-26.787,1.129,0,2.266.042,3.381.125a39.877,39.877,0,0,0,1.582-6.788c.348-2.852.042-4.962-.907-6.27-.9-1.233-2.475-1.833-4.827-1.833-2.535,0-4.289.925-4.939,2.6a3.824,3.824,0,0,0,.78,4.041,2.172,2.172,0,0,0,1.506.569,4.142,4.142,0,0,0,1.828-.5,1.945,1.945,0,0,1,.876-.207,1.953,1.953,0,0,1,1.756,1.084,1.966,1.966,0,0,1-.877,2.632,8.055,8.055,0,0,1-3.608.921,6.03,6.03,0,0,1-4.121-1.6,7.713,7.713,0,0,1-1.8-8.356c1.257-3.249,4.392-5.113,8.6-5.113,3.648,0,6.34,1.162,8,3.453,1.383,1.906,1.965,4.567,1.731,7.907a37.069,37.069,0,0,1-1.619,7.92A50.123,50.123,0,0,1,93.456-493.4a65.039,65.039,0,0,1,14.671,13.051,66.439,66.439,0,0,1,9.372,14.6c2.13,4.625,3.3,8.947,3.3,12.169a7.746,7.746,0,0,1-1.118,4.393,4.7,4.7,0,0,1-4.02,2.066c-1.3,0-3.591.012-6.756.027l-.953,0c-7.4.039-18.573.1-30.8.1-17.225,0-31.547-.118-42.57-.35-1.683-.036-3.136-.053-4.443-.053a69.473,69.473,0,0,0-7.985.357c-2.394.288-3.927.764-4.558,1.413-.614.633-.584,1.843-.472,4.107.041.835.087,1.781.087,2.786a21.743,21.743,0,0,1-.188,2.619,5.984,5.984,0,0,0-.071,1.647c.333.386,1.8.933,6.884,1.338,3.441.274,7.335.394,9.912.474,7.12.216,15.389.321,25.281.321,1.085,0,2.2,0,3.33,0,.763-2.619,1.513-4.111,2.23-4.436,10.759-4.912,37.508-5.27,48.93-5.422l2.739-.039c.547-.01,1.027-.014,1.465-.014,2.59,0,3.844.163,4.792.623,4.561,2.21,1.425,9.517.75,10.96a1.951,1.951,0,0,1-1.707,1.126c-.256.01-27.873.972-56.147,1.114-.121.519-.226,1.02-.312,1.493A1.961,1.961,0,0,1,63.171-425.318Zm-1.407-3.392-.038.182c-.049.232-.122.583-.188.934l0,.02a1.647,1.647,0,0,0,.269,1.24,1.647,1.647,0,0,0,1.068.688,1.711,1.711,0,0,0,.3.028,1.661,1.661,0,0,0,1.633-1.366c.093-.512.208-1.058.342-1.623l.027-.115h.118c28.311-.139,56-1.1,56.255-1.114a1.653,1.653,0,0,0,1.446-.954c.654-1.4,3.7-8.476-.609-10.563-.9-.438-2.121-.593-4.661-.593-.437,0-.915,0-1.461.014l-2.739.04c-11.4.152-38.108.509-48.81,5.4-.442.2-1.165,1.118-2.1,4.354l-.031.108h-.113c-1.163,0-2.321,0-3.443,0-9.895,0-18.167-.105-25.29-.322-8.2-.253-15.93-.66-17.014-1.917-.166-.192-.134-.734,0-1.876a21.489,21.489,0,0,0,.186-2.584c0-1-.046-1.94-.087-2.771-.116-2.349-.144-3.608.557-4.33,1.233-1.27,5.287-1.861,12.758-1.861,1.309,0,2.765.017,4.45.053,11.02.232,25.341.35,42.563.35,12.228,0,23.4-.058,30.8-.1l.954,0c3.165-.016,5.452-.027,6.758-.027a4.4,4.4,0,0,0,3.772-1.934,7.458,7.458,0,0,0,1.066-4.225c0-3.18-1.163-7.457-3.275-12.044a66.134,66.134,0,0,0-9.329-14.533,64.739,64.739,0,0,0-14.6-12.991A49.78,49.78,0,0,0,74.2-500.592l-.17-.027.05-.165A34.886,34.886,0,0,0,75.74-508.8c.229-3.268-.334-5.862-1.674-7.71-1.6-2.209-4.213-3.329-7.76-3.329-4.077,0-7.109,1.794-8.319,4.921a7.407,7.407,0,0,0,1.722,8.026,5.735,5.735,0,0,0,3.919,1.521,7.76,7.76,0,0,0,3.473-.889,1.665,1.665,0,0,0,.743-2.229,1.655,1.655,0,0,0-1.488-.918,1.647,1.647,0,0,0-.742.176,4.434,4.434,0,0,1-1.962.53,2.464,2.464,0,0,1-1.707-.647,4.137,4.137,0,0,1-.858-4.372c.7-1.8,2.552-2.8,5.219-2.8,2.455,0,4.113.64,5.07,1.957,1,1.372,1.319,3.553.962,6.482a40.56,40.56,0,0,1-1.629,6.955l-.036.114-.119-.009c-1.146-.089-2.316-.134-3.477-.134-22.972,0-38.658,13.785-43.511,26.593-2.694,7.115-1.864,13.52,2.22,17.133a9.353,9.353,0,0,0,6.346,2.45,11.328,11.328,0,0,0,1.853-.158c3.425-.574,7.392-2.835,11.79-6.722A96.236,96.236,0,0,0,57.51-474.739a218.8,218.8,0,0,0,15.18-22.622l.051-.087.1.014a45.875,45.875,0,0,1,18.376,6.941A61.4,61.4,0,0,1,105.18-478.1a64.567,64.567,0,0,1,8.88,13.682c2.012,4.259,3.119,8.109,3.119,10.842a4.2,4.2,0,0,1-.5,2.363,1.058,1.058,0,0,1-1.018.473c-1.336,0-3.7.012-6.969.029l-.714,0c-7.393.039-18.565.1-30.808.1-17.207,0-31.51-.118-42.514-.35-1.6-.033-3.021-.049-4.344-.049-9.137,0-13.289.776-15.318,2.863-1.739,1.79-1.625,4.113-1.492,6.8v.02c.039.777.083,1.658.083,2.6a18.16,18.16,0,0,1-.162,2.178l0,.018c-.179,1.525-.364,3.1.783,4.432,1.737,2.016,5.732,2.647,19.43,3.069,7.119.215,15.5.325,24.912.325.994,0,2.013,0,3.029,0Zm4.32-3.34.062-.2c.18-.572.343-1.058.472-1.407l.023-.062.061-.025c10.472-4.342,35.962-4.684,46.847-4.83l2.776-.04c.332-.007.84-.016,1.411-.016a10.731,10.731,0,0,1,3.2.263c.749.363.311,2.955-.525,5.148l-.036.093-.1,0c-4.632.154-29,.927-53.988,1.067Zm.792-1.438c-.108.3-.239.685-.382,1.135,24.732-.142,48.814-.9,53.673-1.062a14.494,14.494,0,0,0,.8-3.1c.132-1.045-.006-1.505-.164-1.582a9.783,9.783,0,0,0-3.073-.233c-.567,0-1.074.009-1.405.016l-2.777.04C102.7-438.124,77.332-437.783,66.875-433.487ZM32.155-458.3h0a6.059,6.059,0,0,1-4.167-1.613c-3.009-2.663-3.5-7.7-1.314-13.466,4.463-11.775,19.01-24.449,40.4-24.449.582,0,1.159.012,1.763.036l.251.01-.128.216a206.916,206.916,0,0,1-16.206,23.425,82.652,82.652,0,0,1-9.973,10.508c-3.543,3.02-6.689,4.777-9.35,5.223A7.842,7.842,0,0,1,32.155-458.3Zm34.923-39.227c-21.252,0-35.7,12.573-40.124,24.255-2.14,5.648-1.679,10.558,1.233,13.135a5.771,5.771,0,0,0,3.968,1.537h0a7.537,7.537,0,0,0,1.231-.106c2.606-.437,5.7-2.171,9.2-5.155a82.361,82.361,0,0,0,9.936-10.469A206.343,206.343,0,0,0,68.577-497.5C68.067-497.522,67.575-497.531,67.078-497.531Z" transform="translate(-13.14 519.991)" fill="#f69f8e"/>
        </g>
        <g id="pearloyster" transform="translate(37.778 90.9)">
          <path id="Path_137361" data-name="Path 137361" d="M47.757-430.753q-1.024,0-2.063-.094a12.274,12.274,0,0,1-9.276-5.434,15.352,15.352,0,0,1-1.7-12.978c1.793-5.851,8.077-8.477,13.364-8.035,5.137.424,8.832,3.5,9.414,7.85.527,3.932-.654,7.076-3.242,8.624a7.247,7.247,0,0,1-7.863-.469c-3.635-2.628-2.476-7.207-1.357-9.259a1.816,1.816,0,0,1,2.458-.723,1.81,1.81,0,0,1,.726,2.451c-.076.143-1.659,3.183.3,4.6a3.638,3.638,0,0,0,3.88.3c1.306-.781,1.842-2.569,1.512-5.036-.42-3.143-3.438-4.5-6.121-4.721-3.845-.313-8.372,1.467-9.6,5.488a11.716,11.716,0,0,0,1.248,9.9,8.593,8.593,0,0,0,6.591,3.846c4.686.426,9.1-.853,11.8-3.416,2.308-2.193,3.4-5.284,3.242-9.182-.315-7.678-6.144-11.484-10.828-14.541-3.208-2.1-5.744-3.752-5.793-6.369a1.811,1.811,0,0,1,1.777-1.844,1.8,1.8,0,0,1,1.846,1.777c.013.7,2.5,2.326,4.152,3.4,4.809,3.141,12.076,7.885,12.466,17.429.2,4.916-1.311,9.051-4.364,11.953C57.291-432.372,52.7-430.753,47.757-430.753Z" transform="translate(-33.997 469.807)" fill="#f69f8e"/>
          <path id="Path_137361_-_Outline" data-name="Path 137361 - Outline" d="M47.757-430.6c-.691,0-1.39-.032-2.077-.095a12.421,12.421,0,0,1-9.387-5.5A15.5,15.5,0,0,1,34.571-449.3a10.9,10.9,0,0,1,4.915-6.162,14.55,14.55,0,0,1,7.439-2.027c.391,0,.784.016,1.166.048,5.21.43,8.959,3.562,9.55,7.98.536,4-.672,7.193-3.314,8.772a6.975,6.975,0,0,1-3.581.965,7.638,7.638,0,0,1-4.447-1.441c-3.719-2.689-2.542-7.359-1.4-9.453a1.968,1.968,0,0,1,1.727-1.022,1.958,1.958,0,0,1,.935.239,1.964,1.964,0,0,1,.786,2.654c-.066.124-1.6,3.065.251,4.4a3.706,3.706,0,0,0,2.152.7,3.041,3.041,0,0,0,1.563-.408c1.25-.748,1.762-2.483,1.441-4.887-.408-3.052-3.359-4.373-5.984-4.591-.282-.023-.57-.035-.858-.035-3.45,0-7.443,1.675-8.59,5.417a11.569,11.569,0,0,0,1.229,9.768,8.45,8.45,0,0,0,6.48,3.78c.584.053,1.174.08,1.754.08a14.442,14.442,0,0,0,9.927-3.456c2.275-2.162,3.35-5.213,3.2-9.067-.312-7.6-6.105-11.383-10.76-14.422-3.248-2.122-5.81-3.8-5.861-6.492a1.964,1.964,0,0,1,1.924-2h.02a1.936,1.936,0,0,1,1.979,1.924c0,.144.188.523,1.4,1.443.828.627,1.855,1.3,2.681,1.836,4.837,3.159,12.141,7.93,12.534,17.548.2,4.964-1.327,9.137-4.41,12.068C57.386-432.256,52.772-430.6,47.757-430.6Zm-.833-26.589a14.246,14.246,0,0,0-7.283,1.984,10.6,10.6,0,0,0-4.783,5.993,15.2,15.2,0,0,0,1.685,12.85A12.127,12.127,0,0,0,45.708-431c.678.062,1.367.094,2.05.094,4.939,0,9.477-1.623,12.451-4.453,3.018-2.87,4.511-6.963,4.317-11.839-.386-9.464-7.612-14.183-12.394-17.306-2.3-1.5-4.211-2.807-4.224-3.527a1.641,1.641,0,0,0-1.679-1.63h-.016a1.663,1.663,0,0,0-1.628,1.691c.047,2.537,2.551,4.173,5.722,6.244,4.716,3.078,10.581,6.906,10.9,14.663.158,3.945-.949,7.072-3.289,9.3a14.741,14.741,0,0,1-10.133,3.538c-.589,0-1.188-.027-1.781-.081a8.741,8.741,0,0,1-6.7-3.911,11.871,11.871,0,0,1-1.267-10.023,7.4,7.4,0,0,1,3.5-4.243,10.9,10.9,0,0,1,5.376-1.386c.3,0,.593.012.883.036,2.742.228,5.825,1.622,6.257,4.85.338,2.53-.224,4.371-1.584,5.184a3.34,3.34,0,0,1-1.717.451,4.008,4.008,0,0,1-2.328-.753c-2.06-1.491-.411-4.655-.34-4.789a1.664,1.664,0,0,0-.666-2.249,1.657,1.657,0,0,0-.791-.2,1.668,1.668,0,0,0-1.464.866c-1.1,2.013-2.237,6.5,1.313,9.066a7.335,7.335,0,0,0,4.271,1.384,6.675,6.675,0,0,0,3.427-.922c2.534-1.515,3.69-4.6,3.171-8.475-.572-4.273-4.213-7.3-9.277-7.721C47.691-457.176,47.307-457.192,46.924-457.192Z" transform="translate(-33.997 469.807)" fill="#f69f8e"/>
        </g>
      </g>
    </g>
  </g>
</svg>
