<svg xmlns="http://www.w3.org/2000/svg" width="160.815" height="160.814" viewBox="0 0 160.815 160.814">
  <g id="Group_28586" data-name="Group 28586" transform="translate(-2269.416 -753.847)">
    <g id="Group_26927" data-name="Group 26927" transform="translate(2269.416 753.847)">
      <circle id="Ellipse_394" data-name="Ellipse 394" cx="80.407" cy="80.407" r="80.407" fill="#8fd89f"/>
    </g>
    <g id="Group_27992" data-name="Group 27992" transform="translate(2293.41 770.405)">
      <path id="Path_136946" data-name="Path 136946" d="M2328.872,812.184c-4.873,9.654-29.962,45.14,0,47.228C2358.833,857.324,2333.744,821.838,2328.872,812.184Z" transform="translate(-2291.444 -767.855)" fill="#f5f9fc"/>
      <path id="Path_136947" data-name="Path 136947" d="M2356.365,799.721c-3.554,7.043-21.855,32.928,0,34.451C2378.221,832.649,2359.918,806.764,2356.365,799.721Z" transform="translate(-2290.071 -768.4)" fill="#f5f9fc"/>
      <path id="Path_136948" data-name="Path 136948" d="M2363.163,838.509c-2.616,5.185-16.091,24.243,0,25.364C2379.255,862.752,2365.78,843.694,2363.163,838.509Z" transform="translate(-2289.652 -766.705)" fill="#f5f9fc"/>
      <g id="Group_27991" data-name="Group 27991">
        <path id="Path_136949" data-name="Path 136949" d="M2343.8,839.52a1.162,1.162,0,0,0-.088-.257l-13.721-28.733a1.172,1.172,0,0,0-2.117,0l-13.722,28.736a1.166,1.166,0,0,0-.087.254c-.727,3.288-1,5.369-1,5.389a1.146,1.146,0,0,0-.011.16,15.881,15.881,0,0,0,31.762,0,1.108,1.108,0,0,0-.011-.159C2344.751,844.538,2344.463,842.532,2343.8,839.52Zm-1.334,5.709a13.535,13.535,0,0,1-27.067,0v-.08l.012-.08c.07-.484.341-2.263.893-4.794l.077-.227,12.554-26.288,12.63,26.515c.553,2.545.823,4.313.894,4.794l.01.08Z" transform="translate(-2291.502 -767.957)"/>
        <path id="Path_136950" data-name="Path 136950" d="M2356.4,835.2a11.468,11.468,0,0,0,11.456-11.456,1.194,1.194,0,0,0-.011-.161c-.007-.054-.208-1.536-.707-3.793a1.161,1.161,0,0,0-.088-.257l-9.591-20.087a1.173,1.173,0,0,0-2.118,0l-9.592,20.09a1.072,1.072,0,0,0-.085.248c-.5,2.262-.7,3.744-.71,3.805a1.22,1.22,0,0,0-.01.153A11.469,11.469,0,0,0,2356.4,835.2Zm-9.109-11.375.012-.085c.063-.422.244-1.578.595-3.194l.079-.229,8.423-17.643,8.5,17.871c.37,1.71.549,2.88.595,3.2l.011.084v.084a9.109,9.109,0,0,1-18.216,0Z" transform="translate(-2290.108 -768.441)"/>
        <path id="Path_136951" data-name="Path 136951" d="M2363.189,838.079a1.179,1.179,0,0,0-1.058.668l-6.733,14.1a1.286,1.286,0,0,0-.09.261c-.34,1.54-.484,2.578-.5,2.692a1.084,1.084,0,0,0-.011.152,8.39,8.39,0,0,0,16.781,0,1.182,1.182,0,0,0-.009-.148c-.016-.118-.161-1.155-.5-2.7a1.207,1.207,0,0,0-.089-.256l-6.731-14.1A1.18,1.18,0,0,0,2363.189,838.079Zm6.031,17.862.014.093,0,.093a6.044,6.044,0,0,1-12.083,0l0-.092.013-.09c.045-.308.167-1.059.388-2.09l.079-.23,5.563-11.652,5.641,11.881C2369.053,854.884,2369.173,855.634,2369.22,855.941Z" transform="translate(-2289.677 -766.723)"/>
        <path id="Path_136952" data-name="Path 136952" d="M2352.347,778.706l-2.755-.285,9.261-6.582a1.173,1.173,0,0,0,.277-1.635,1.176,1.176,0,0,0-1.636-.276l-11.779,8.4a1.212,1.212,0,0,0-.086.095l-.072.093c-.022.031-.038.063-.055.093s-.039.073-.054.107l-.035.105c-.01.034-.021.068-.029.1l-.018.119a1.015,1.015,0,0,0-.008.107l.007.107-.031.33a1.165,1.165,0,0,0,.8,1.094l.258.088,9.126,10.13a1.2,1.2,0,0,0,1.655.086,1.17,1.17,0,0,0,.087-1.655l-7.706-8.554,2.71.288a54.067,54.067,0,0,1-2.535,107.73,1.173,1.173,0,0,0-1.1,1.239,1.174,1.174,0,0,0,1.169,1.105,56.414,56.414,0,0,0,2.554-112.428Z" transform="translate(-2290.092 -769.712)"/>
        <path id="Path_136953" data-name="Path 136953" d="M2341.878,888.892c0-.036,0-.073,0-.11s-.01-.079-.017-.118-.013-.074-.023-.114a.891.891,0,0,0-.034-.094l-.082-.186a1.239,1.239,0,0,1-.1-.161l-8.575-11.888a1.174,1.174,0,0,0-1.9,1.371l7.153,9.921-2.785-.709a54.077,54.077,0,0,1,1.59-105.2,1.173,1.173,0,0,0,.892-1.4,1.182,1.182,0,0,0-1.156-.917,1.22,1.22,0,0,0-.251.026,56.418,56.418,0,0,0-2.119,109.635l2.5.661-9.3,5.193a1.173,1.173,0,0,0-.453,1.6,1.2,1.2,0,0,0,1.6.451l12.636-7.076c.038-.034.06-.054.082-.076s.055-.053.078-.08.049-.064.072-.1.041-.059.06-.094.033-.069.049-.1.024-.055.035-.089A1.484,1.484,0,0,0,2341.878,888.892Z" transform="translate(-2292.405 -769.293)"/>
      </g>
    </g>
  </g>
</svg>
