<svg xmlns="http://www.w3.org/2000/svg" width="90.58" height="85.806" viewBox="0 0 90.58 85.806">
  <g id="Group_28583" data-name="Group 28583" transform="translate(-2864.09 -789.551)">
    <rect id="Rectangle_2376" data-name="Rectangle 2376" width="46.949" height="74.716" rx="5.125" transform="translate(2902.642 794.947)" fill="#e2e2f2"/>
    <g id="Group_27801" data-name="Group 27801" transform="translate(2864.09 789.551)">
      <path id="Path_136862" data-name="Path 136862" d="M2882.485,871.466a16,16,0,0,0-12.072-2.478q1,2.78,1.993,5.562c.709,1.978,1.418,3.955,2.228,5.894.325.777.667,1.549,1.008,2.32q1.042,2.358,2.085,4.715a13.608,13.608,0,0,0,7.667-11.634,4.131,4.131,0,0,0-.084-1.127,3.568,3.568,0,0,0-.65-1.262A9.232,9.232,0,0,0,2882.485,871.466Z" transform="translate(-2865.282 -804.465)" fill="#ffbc41"/>
      <rect id="Rectangle_2377" data-name="Rectangle 2377" width="31.38" height="14.067" rx="3.25" transform="translate(46.17 12.11)" fill="#8fd89f"/>
      <path id="Path_136863" data-name="Path 136863" d="M2945.51,841.09l-3.464,11.653,2.893,2.732a1.22,1.22,0,0,1,.063,1.72l-10.434,11.411a1.242,1.242,0,0,1-.907.4,1.182,1.182,0,0,1-.647-.185,1.223,1.223,0,0,1-.5-1.484l3.943-10.157-2.586-2.847a1.228,1.228,0,0,1-.075-1.559l9.551-12.767a1.227,1.227,0,0,1,2.159,1.085Z" transform="translate(-2876.971 -798.967)" fill="#ffbc41"/>
      <g id="Group_27799" data-name="Group 27799">
        <g id="Group_27798" data-name="Group 27798">
          <path id="Path_136864" data-name="Path 136864" d="M2948.294,789.551h-44.354a6.383,6.383,0,0,0-6.375,6.376v9.752l-.474.048c-3.26.336-11.228,1.668-14.809,6.758-1.887,2.682-2.255,5.956-1.1,9.733.754,2.456,1.651,5.009,2.6,7.71,3.162,9,6.743,19.205,3.955,24.371a6.365,6.365,0,0,1-3.56,2.969l-.359.135-.239-.3c-1.032-1.287-6.593-7.525-14.75-3.936a1.2,1.2,0,0,0-.618,1.567c.422.986,1.027,2.462,1.793,4.388l.2.49-5.356,2.131a1.2,1.2,0,0,0-.67,1.554,1.213,1.213,0,0,0,1.555.67l5.351-2.131.194.493c.4,1.031.811,2.071,1.2,3.081l.187.482-5.576,2.3a1.2,1.2,0,0,0-.652,1.563,1.218,1.218,0,0,0,1.563.65l5.531-2.281.194.5c1,2.6,1.729,4.5,1.748,4.549a1.22,1.22,0,0,0,1.514.7c1.883-.664,5.4-3.6,7.119-7.381a10.375,10.375,0,0,0,.825-6.48l-.088-.432.409-.164a8.712,8.712,0,0,0,4.592-3.983c3.291-6.1-.315-16.369-3.8-26.3-.944-2.693-1.832-5.22-2.569-7.621-.943-3.073-.694-5.575.762-7.648,2.914-4.149,9.881-5.379,12.74-5.716l.59-.07v60.9a6.383,6.383,0,0,0,6.375,6.376h44.354a6.383,6.383,0,0,0,6.376-6.376V795.927A6.383,6.383,0,0,0,2948.294,789.551Zm-66.368,75.956a14.468,14.468,0,0,1-4.135,5.123l-.562.438-.255-.665c-1.167-3.038-4.072-10.573-5.855-14.92l-.229-.56.584-.151c6.175-1.6,10.027,3.479,10.738,4.512l.06.114A7.776,7.776,0,0,1,2881.926,865.507Zm70.353,3.473a3.99,3.99,0,0,1-3.985,3.985h-44.354a3.989,3.989,0,0,1-3.984-3.985V795.927a3.989,3.989,0,0,1,3.984-3.985h44.354a3.99,3.99,0,0,1,3.985,3.985Z" transform="translate(-2864.091 -789.551)"/>
        </g>
      </g>
      <g id="Group_27800" data-name="Group 27800" transform="translate(44.437 9.887)">
        <path id="Path_136865" data-name="Path 136865" d="M2946.54,832.936a1.188,1.188,0,0,0-1.484.351l-13.424,17.944a1.191,1.191,0,0,0,.074,1.505l3.859,4.248-5.663,14.585a1.181,1.181,0,0,0,.48,1.432,1.215,1.215,0,0,0,1.5-.209l14.661-16.034a1.177,1.177,0,0,0-.058-1.658l-4.31-4.068,4.963-16.7A1.187,1.187,0,0,0,2946.54,832.936Zm-6.837,18.117a1.18,1.18,0,0,0,.316,1.2l4,3.763-9.623,10.518,3.639-9.371a1.186,1.186,0,0,0-.23-1.228l-3.682-4.071,8.862-11.85Z" transform="translate(-2920.915 -807.591)"/>
        <path id="Path_136866" data-name="Path 136866" d="M2948.6,801.734h-24.32a5.436,5.436,0,0,0-5.429,5.43v7.6a5.436,5.436,0,0,0,5.429,5.43h24.32a5.436,5.436,0,0,0,5.43-5.43v-7.6A5.436,5.436,0,0,0,2948.6,801.734Zm3.062,13.028a3.065,3.065,0,0,1-3.062,3.062h-24.32a3.065,3.065,0,0,1-3.061-3.062v-7.6a3.065,3.065,0,0,1,3.061-3.062h24.32a3.065,3.065,0,0,1,3.062,3.062Z" transform="translate(-2918.847 -801.734)"/>
      </g>
    </g>
  </g>
</svg>
