<svg xmlns="http://www.w3.org/2000/svg" width="166.114" height="137.016" viewBox="0 0 166.114 137.016">
  <g id="Group_28584" data-name="Group 28584" transform="translate(0 0)">
    <g id="Group_26951" data-name="Group 26951" transform="translate(44.804 16.4)">
      <ellipse id="Ellipse_399" data-name="Ellipse 399" cx="55.408" cy="55.408" rx="55.408" ry="55.408" transform="translate(0 0)" fill="#e2e2f2"/>
    </g>
    <g id="Group_26957" data-name="Group 26957" transform="translate(0 0)">
      <g id="Group_26952" data-name="Group 26952" transform="translate(39.647 92.497)">
        <path id="Path_136135" data-name="Path 136135" d="M2947.4,659.124c-2.01.881-3.546,2.612-5.539,3.534a10.469,10.469,0,0,1-7.682.074,31.2,31.2,0,0,1-6.9-3.744l1.365,4.367a51.441,51.441,0,0,0,1.924,5.443,35.807,35.807,0,0,0,2.926,5.242,58.962,58.962,0,0,0,33.991,24.361c2.705.706,5.523,1.24,7.9,2.715a50.749,50.749,0,0,0-.662-8.739c-.187-1.142-.414-2.279-.593-3.423-1.225-7.732-.419-15.922-3.485-23.125a10.04,10.04,0,0,0-1.965-3.177,10.24,10.24,0,0,0-2.5-1.752,24.969,24.969,0,0,0-16.359-2.467A11.367,11.367,0,0,0,2947.4,659.124Z" transform="translate(-2927.279 -657.991)" fill="#8fd89f"/>
      </g>
      <g id="Group_26953" data-name="Group 26953" transform="translate(81.875 5.081)">
        <path id="Path_136136" data-name="Path 136136" d="M3028.466,677.225a2.633,2.633,0,0,1-.481-.614,12.514,12.514,0,0,1-1.363-7.97,29.39,29.39,0,0,1,2.4-7.089,38.876,38.876,0,0,0,1.7-4.413c.82-2.845.494-6.472-1.725-7.631-1.422-.736-5.3.011-8.728.675-7.474,1.459-17.709,3.435-24.124-4.184-1.58-1.868-11.742-15.744-10.49-22.113.771-3.906,5.366-4.315,11.188-4.835,7.461-.675,17.675-1.591,25.378-8.789.539-.505,1.181-1.024,1.845-1.566a23.464,23.464,0,0,0,2.809-2.581,9.753,9.753,0,0,0-2.23-.216c-2.037-.06-4.835-.145-6.833-3.686-.06-.109-.108-.216-.156-.325-.928-2.363-.47-5.015-.06-7.354.084-.539.205-1.23.277-1.808-2.266,1.279-2.954,7.788-3.375,11.815-.449,4.171-.748,6.594-1.881,8.126a2.591,2.591,0,0,1-1.085.843c-3.389,1.386-12.766-2.857-12.856-2.906-1.566-.831-3.219.844-5.534,4a14.435,14.435,0,0,1-1.495,1.856c-1.773,1.708-7.969,7.125-13.2,5.317-4.765-1.664-6.535-8.874-5.944-13.225a2.542,2.542,0,0,1,2.315-2.206,25.621,25.621,0,0,1,4.449.217c1.736.18,5.354.539,6.136-.049.271-.531-.638-3.231-1.072-4.521-1.025-3.062-2.2-6.535-.314-9.174a2.546,2.546,0,0,1,2.917-.941c3.17,1.085,6.606-.94,8.463-3.279a13.318,13.318,0,0,0,1.3-1.941,2.8,2.8,0,0,0-.988.4,4.932,4.932,0,0,1-3.159,2.544c-2.687.748-6.088-.4-8.1-1.785a2.543,2.543,0,0,1-1.073-2.5c1.676-10.958,5.69-15.744,17.169-20.519a2.541,2.541,0,0,1,1.58-.133l2.941.7a66.073,66.073,0,0,1,51.467,64.559c-.017,24.6-15.794,39.985-23.818,49.935" transform="translate(-2972.392 -564.602)" fill="#8fd89f"/>
      </g>
      <g id="Group_26954" data-name="Group 26954" transform="translate(1.458 27.085)">
        <path id="Path_136137" data-name="Path 136137" d="M2902.1,624.1c3.838.2,7.589-1.226,10.982-3.039a2.511,2.511,0,0,0,.943-.719,2.61,2.61,0,0,0,.346-1.145c.422-3.01.843-6.113.082-9.057-.883-3.427-3.265-6.262-5.8-8.735a59.573,59.573,0,0,0-21.095-13.292q-.416,5.188-.829,10.375a39.338,39.338,0,0,0-.108,7.791,33.292,33.292,0,0,0,3.83,10.992c.974,1.909,2.1,3.883,3.963,4.934a11.081,11.081,0,0,0,2.644.953A24.926,24.926,0,0,0,2902.1,624.1Z" transform="translate(-2886.48 -588.11)" fill="#51d489"/>
      </g>
      <g id="Group_26955" data-name="Group 26955" transform="translate(33.855 1.623)">
        <path id="Path_136138" data-name="Path 136138" d="M2921.716,602.431a36.746,36.746,0,0,1-.552-6.014,51.353,51.353,0,0,1,1.108-13.691A24.275,24.275,0,0,1,2928.8,570.8c3.939-3.744,9.253-5.616,14.441-7.22a57.5,57.5,0,0,1,9.473-2.283,64.914,64.914,0,0,1,8.51-.36,142.049,142.049,0,0,1,19.525.925c-5.5,6.431-8.879,14.343-12.636,21.924s-8.17,15.171-15.017,20.141c-5.668,4.113-12.624,6.119-19.568,7.009a33.913,33.913,0,0,1-8.791.173A43.487,43.487,0,0,1,2921.716,602.431Z" transform="translate(-2921.091 -560.908)" fill="#51d489"/>
      </g>
      <g id="Group_26969" data-name="Group 26969" transform="translate(0 0)">
        <path id="Path_136155" data-name="Path 136155" d="M2980.321,561.42a1.032,1.032,0,0,0-.9-.655c-2.846-.171-5.652-.408-8.367-.637l-.823-.069c-5.707-.5-10.444-.886-15.166-.886-8.7,0-20.026,1.257-30.491,11.057-13.577,12.709-6.3,34.577-3.909,41.762l.162.486-.143.492c-.618,2.106-1.13,4.2-1.52,6.238l-.614,3.193-3.111-3.383.042-.695a.686.686,0,0,0,0-.121,15.19,15.19,0,0,1,.122-3.7c.638-6.361,1.618-16.1-21.03-25.872a42.244,42.244,0,0,1-7.617-3.492,1.1,1.1,0,0,0-1.067-.092,1.054,1.054,0,0,0-.572.82c-.244,2.243-2.172,22.214,5.457,32.1a13.388,13.388,0,0,0,10.99,5.175,23.6,23.6,0,0,0,6.06-.846,33.237,33.237,0,0,0,4.778-1.7l1.042-.462.8.816a24.639,24.639,0,0,1,3.538,4.613l.268.448-.043.521a60.721,60.721,0,0,0,.538,14.411c.017.078.039.2.055.3l.055.155,0,.289a60.967,60.967,0,0,0,1.5,6.2l.075.248a67.6,67.6,0,0,0,49.884,46.465l.627.14.363.529a1.03,1.03,0,0,0,.819.445l.084-.008a.964.964,0,0,0,.47-.163l.542-.366.646.109a65.877,65.877,0,0,0,10.741.906h.061a66.456,66.456,0,0,0,66.377-66.455,67.163,67.163,0,0,0-52.315-65.635l-3.081-.734a1,1,0,0,0-.627.054c-11.449,4.763-15.237,9.272-16.9,20.105a1.022,1.022,0,0,0,.426,1c1.851,1.274,4.869,2.243,7.07,1.631a3.5,3.5,0,0,0,2.266-1.81l.2-.394.371-.241a4.538,4.538,0,0,1,1.608-.649l3.436-.668-1.688,3.066a15.5,15.5,0,0,1-1.515,2.26c-2.272,2.862-6.571,5.319-10.617,3.937a1.019,1.019,0,0,0-1.168.37c-1.475,2.072-.455,5.121.532,8.071,1.274,3.782,1.5,5.063,1.037,5.98l-.172.345-.308.232c-1.012.762-2.917.855-7.546.371a25.06,25.06,0,0,0-4.4-.218,1,1,0,0,0-.848.871c-.554,4.085,1.121,10.623,5.1,12.014,4.71,1.631,10.88-4.019,12.068-5.167a13.7,13.7,0,0,0,1.34-1.674c1.888-2.577,4.686-6.392,7.887-4.7,2.587,1.221,9.8,3.85,12,2.955a1.049,1.049,0,0,0,.437-.342c.921-1.243,1.224-3.719,1.642-7.654.651-6.22,1.473-11.94,4.34-13.557l2.831-1.6-.4,3.226c-.052.432-.131.919-.2,1.374l-.089.556c-.4,2.253-.836,4.766-.032,6.811.006.012.034.079.071.145,1.626,2.879,3.71,2.937,5.726,2.993a11.121,11.121,0,0,1,2.623.262l2.807.606-1.949,2.108a26.269,26.269,0,0,1-3.122,2.867c-.611.5-1.271,1.032-1.81,1.536-8.422,7.868-19.371,8.86-27.366,9.583-6.177.549-9.68.992-10.22,3.723-1.078,5.469,8.119,18.752,10.567,21.653,6.073,7.217,16.176,5.245,23.553,3.8,4.93-.954,8.3-1.51,10.155-.55,3.117,1.626,3.674,6.188,2.618,9.856a42.573,42.573,0,0,1-1.855,4.823,29.13,29.13,0,0,0-2.382,7.024,11.422,11.422,0,0,0,1.251,7.193,1.112,1.112,0,0,0,.19.234l1.372,1.3-1.484,1.172a64.373,64.373,0,0,1-39.8,13.862h-.073a63.512,63.512,0,0,1-10.259-.851l-1.279-.212-.088-1.293c-.561-8.248-1.117-16.484-1.67-24.757-.176-2.588-.376-5.523-1.632-8.105-2.024-4.124-6.667-7.043-12.117-7.611-1.088-.106-2.132-.3-3.141-.487-3.52-.636-6.842-1.241-11.3,1.416-.547.327-1.16.765-1.811,1.231-2.218,1.6-4.9,3.529-8.166,2.967-3.3-.557-6.783-3.461-10.648-8.872l-.163-.228-.078-.269c-.531-1.839-.983-3.717-1.341-5.582l-.374-2.545,2.233.372a57.487,57.487,0,0,1,8.013,2.042l.277.093.228.183a2.067,2.067,0,0,0,1.327.446,4.857,4.857,0,0,0,3.122-1.306c2.175-2.017,1.915-5.081-.691-8.2l-.168-.242c-1.776-3.133-1.121-8.048-.087-10.537a1.028,1.028,0,1,0-1.893-.8l-.016.04c-1.149,2.791-2.06,8.644.362,12.581.033.05.079.114.128.176,1.489,1.709,2.074,3.334,1.615,4.532l-.059.133a2.838,2.838,0,0,1-1.287,1.289l-.748.369-.739-.388c-.986-.521-3.631-1.423-10.618-2.766l-1.246-.241-.079-1.267a64.137,64.137,0,0,1,.063-8.838l.058-.325a.915.915,0,0,0,.033-.334l-.013-.146.013-.146a62.319,62.319,0,0,1,2.217-11.729l.328-1.128,1.173-.051a69.208,69.208,0,0,0,20.567-4.084c12.5-4.33,16.648-13.289,21.449-23.662l.045-.1c3.422-7.391,6.96-15.034,13.983-22.393A1.032,1.032,0,0,0,2980.321,561.42Zm-66.677,51.921-.3,3.389-2.46-2.352c-5.6-5.351-12.02-10.6-14.519-12.61a1.031,1.031,0,0,0-1.441.164,1.022,1.022,0,0,0,.15,1.441l.071.057c4.069,3.26,10.185,8.459,15.231,13.344l1.837,1.777-2.383.927a23.508,23.508,0,0,1-7.974,1.593c-.2.01-.4.015-.6.015a11.189,11.189,0,0,1-8.866-4.4c-5.329-6.895-5.621-19.587-5.319-26.538l.1-2.418,2.207,1c1.57.709,2.963,1.275,4.384,1.782l.1.039C2914.872,599.615,2914.072,608.544,2913.644,613.341Zm111.53,57.309a28.755,28.755,0,0,1,2.265-6.584,40.044,40.044,0,0,0,1.916-5.021c1.255-4.3.653-9.964-3.652-12.217a7.668,7.668,0,0,0-3.589-.731,44.46,44.46,0,0,0-7.851,1.078c-7.322,1.425-16.363,3.187-21.643-3.09-3.673-4.365-10.347-15.3-10.189-19.385l.037-.965.861-.433c1.222-.619,3.87-.9,7.479-1.221,7.891-.712,19.723-1.78,28.656-10.138.57-.522,1.226-1.06,1.736-1.471,3.1-2.538,5.76-5.05,4.151-7.852a1.082,1.082,0,0,0-.418-.414,11.03,11.03,0,0,0-5.264-1.2c-1.832-.051-2.985-.084-3.978-1.733l-.108-.18-.06-.2c-.426-1.435-.088-3.466.209-5.259l.022-.131c.471-2.67.7-4.493-.37-5.633a2.906,2.906,0,0,0-2.563-.8l-.115.015c-5.875.611-6.809,9.393-7.49,15.805-.188,1.8-.39,3.674-.635,4.934l-.322,1.659-1.647-.372a47.109,47.109,0,0,1-8.3-2.7l-.121-.059c-4.228-2.253-7.687,1.381-10.512,5.233a14.058,14.058,0,0,1-1.038,1.349l-.1.107c-2.992,2.882-7.391,5.585-9.96,4.714-2.4-.849-3.482-4.784-3.75-6.976l-.245-2.018,2.025.189c.416.038.831.078,1.261.129,3.834.388,8.218.831,9.788-1.689,1.3-2.083.259-5.186-.665-7.925a33.955,33.955,0,0,1-1-3.35l-.5-2.046,2.105.022h.133a12.691,12.691,0,0,0,10.136-5.081c2.252-2.822,3-5.006,2.242-6.532a3.132,3.132,0,0,0-3.2-1.585c-1.813.028-4.115.941-4.831,2.417l-.394.81-.895.1a6.509,6.509,0,0,1-3.387-.521l-1.194-.53.253-1.282c1.643-8.371,5.035-12.166,14.517-16.24l.5-.214,2.762.652a65.143,65.143,0,0,1,50.723,63.636A64.43,64.43,0,0,1,3028.6,676.7l-1.611,1.505-.976-1.977A9.217,9.217,0,0,1,3025.173,670.651Zm-95.638-13.358a10.852,10.852,0,0,0,3.262,1.167c4.078.7,7.151-1.5,9.617-3.276l.229-.166c.522-.378,1.018-.735,1.53-1.035,3.787-2.265,6.461-1.776,9.846-1.154l.282.048c.971.169,1.973.344,3.047.464,3.712.384,8.423,2.282,10.462,6.458,1.107,2.273,1.287,5.09,1.43,7.354q.79,11.629,1.57,23.244l.152,2.262-2.2-.566A65.726,65.726,0,0,1,2927.3,659.5l-2.614-4.88Zm45.61-92.2c-5.06,6.363-8.141,13.025-10.859,18.9l-.047.1c-4.637,10-8.615,18.581-20.272,22.616a69.9,69.9,0,0,1-17.851,3.85l-2.626.215.97-2.45a66.861,66.861,0,0,1,22.931-29.558,1.029,1.029,0,1,0-1.227-1.653,69.275,69.275,0,0,0-22.492,27.738l-1.9,4.261-1.177-4.516c-3.865-14.841-2.051-25.9,5.39-32.867l1.12,1.2-1.118-1.2c7.857-7.358,16.557-10.5,29.088-10.5,4.925,0,10.043.444,14.992.873l6.984.6Z" transform="translate(-2884.923 -559.174)"/>
        <path id="Path_136156" data-name="Path 136156" d="M2973.214,587.492Z" transform="translate(-2890.57 -560.985)"/>
      </g>
    </g>
  </g>
</svg>
