<svg xmlns="http://www.w3.org/2000/svg" width="111.337" height="96.749" viewBox="0 0 111.337 96.749">
  <g id="Group_29769" data-name="Group 29769" transform="translate(-155.152 -256.679)">
    <g id="Group_29766" data-name="Group 29766" transform="translate(-44.484 54.7) rotate(-20)">
      <path id="Path_137242" data-name="Path 137242" d="M3160.352-4111.38a10.876,10.876,0,0,1-6.54-5.719c-.121-.253-.219-.513-.319-.772a5.157,5.157,0,0,0,3.137-.352c3.467-1.535,6.1-6.714,2.481-9.567-4.431-3.49-7.835,3.26-7.647,6.874a10.785,10.785,0,0,0,.146,1.252c-2.452-1.667-4.057-5.041-5.427-7.4a.413.413,0,0,0-.751.317c.862,2.882,3.354,6.812,6.463,8.338a11.512,11.512,0,0,0,8.214,7.9A.453.453,0,0,0,3160.352-4111.38Zm-4.159-15.985c3.655-.219,4.592,3.44,2.938,6.059a5.383,5.383,0,0,1-5.976,2.391,10.026,10.026,0,0,1-.364-2.722C3152.812-4123.479,3153.735-4127.22,3156.193-4127.365Z" transform="translate(-3039.354 4421.058)" fill="#ffbc41"/>
      <path id="Path_137243" data-name="Path 137243" d="M3162.1-3991.518c-1.138-1.814-3.607-2.368-5.607-2.175a8.124,8.124,0,0,0-2.558.683,6.562,6.562,0,0,1-.345-1.877c-.027-3.217,2.843-10.3,7.217-7.489.393.253.727-.352.361-.617-4.551-3.278-8.223,3.482-8.537,7.236a8.209,8.209,0,0,0,.445,3.192c-3.314,1.985-5.054,6.191-4.683,10.112a.44.44,0,0,0,.879,0c.1-2.833.57-5.678,2.584-7.838a7.687,7.687,0,0,1,1.6-1.3c1.342,2.981,4.152,5.408,7.477,3.867A2.5,2.5,0,0,0,3162.1-3991.518Zm-2.677,3.04c-2.264.6-4.142-1.406-5.115-3.557a7.335,7.335,0,0,1,1.257-.451,6.689,6.689,0,0,1,2.444-.144,2.926,2.926,0,0,1,1.335.318Q3161.757-3991.785,3159.423-3988.478Z" transform="translate(-3041.428 4332.631)" fill="#ffbc41"/>
      <path id="Path_137244" data-name="Path 137244" d="M3392.5-3883.539c-3.055-1.242-5.975-2.1-8.552-4.287-.2-.167-.4-.349-.592-.529,3.373-.988,6.409-3.2,4.147-6.7-2.388-3.7-9.568-2.971-8.645,2.286a8.853,8.853,0,0,0,1.757,3.75,12.517,12.517,0,0,1-2.07-.032c-4.092-.422-8.041-4.13-6.084-8.489.185-.411-.4-.777-.617-.361-2.541,4.906,1.767,9.516,6.615,10.1a11.5,11.5,0,0,0,3.075-.141c2.885,3.083,7.445,5.345,10.826,5.435C3393-3882.49,3393.013-3883.331,3392.5-3883.539Zm-11.64-7.72c-.191-.384-.381-.768-.571-1.155q-.833-1.688,1.053-2.494c1.366-1.319,1.974-1.525,3.723-.567a3.429,3.429,0,0,1,1.325,3.753c-.4,1.212-2.293,2-3.35,2.3-.209.059-.422.1-.634.144A11.623,11.623,0,0,1,3380.858-3891.259Z" transform="translate(-3199.129 4257.742)" fill="#ffbc41"/>
      <path id="Path_137245" data-name="Path 137245" d="M3445-4117.072c-.1-.2-.374-.082-.39.1-.2,2.3-.475,4.475-2.664,5.819a6.643,6.643,0,0,1-3.07.9,6.014,6.014,0,0,0,.247-.666c1.05-3.822-2.427-12.1-7.477-9.473a4.854,4.854,0,0,0-2.22,5.849c.808,2.646,3.211,4.249,5.765,4.969a12.268,12.268,0,0,0,1.588.324,9.733,9.733,0,0,1-2.6,2.448c-3.135,2.065-6.8,4.144-10.636,4.082a.329.329,0,0,0,0,.657c3.619.26,6.83-1.328,9.9-3.074a13.633,13.633,0,0,0,4.847-3.99,7.572,7.572,0,0,0,4.976-1.59C3445.064-4112.217,3446.065-4114.891,3445-4117.072Zm-9.517,6.443c-2.259-.622-4.6-2.113-5.13-4.564-.37-1.716.475-3.926,2.343-4.422,1.757-.469,3.079.762,3.925,2.041a7.111,7.111,0,0,1,.786,7.3A11.282,11.282,0,0,1,3435.482-4110.629Z" transform="translate(-3236.043 4415.485)" fill="#ffbc41"/>
      <path id="Path_137246" data-name="Path 137246" d="M3205.139-3911.292a1.711,1.711,0,0,0-2.021-1.147,2.574,2.574,0,0,0-1.5.768l-.049.032c-.268.193-.5.387-.74.6-.037.03-.218.164-.267.206s-.106.067-.122.078c-.237.152-.435.3-.656.467-.106.082-.427.329-.552.45a2.355,2.355,0,0,0-.6,2.286,2.45,2.45,0,0,0,.6,1.037,2.338,2.338,0,0,0,2.288.6,5.262,5.262,0,0,0,2.619-1.817C3204.942-3908.683,3205.639-3910.046,3205.139-3911.292Z" transform="translate(-3076.974 4267.927)" fill="#ffbc41"/>
      <path id="Path_137248" data-name="Path 137248" d="M3358.632-3856.706a1.915,1.915,0,0,0-2.536-.151,1.962,1.962,0,0,0-.5,2.49,7.284,7.284,0,0,1,.445,1.336,5.3,5.3,0,0,0,.591,1.953,2.2,2.2,0,0,0,2.159,1.035,2.152,2.152,0,0,0,1.8-1.552C3361.04-3853.462,3359.755-3855.318,3358.632-3856.706Z" transform="translate(-3187.995 4228.839)" fill="#ffbc41"/>
      <path id="Path_137249" data-name="Path 137249" d="M3466.617-3976.227a34.93,34.93,0,0,0-4.545-.7,1.86,1.86,0,0,0-2.157,1.058,1.81,1.81,0,0,0,.748,2.282,38.564,38.564,0,0,0,4.666,2.035C3468.323-3970.663,3469.619-3975.371,3466.617-3976.227Z" transform="translate(-3261.921 4313.583)" fill="#ffbc41"/>
      <path id="Path_137250" data-name="Path 137250" d="M3149.087-4037.344a6.5,6.5,0,0,0-2.378-.347,5.179,5.179,0,0,0-2.565.53,1.982,1.982,0,0,0,0,3.4,5.2,5.2,0,0,0,2.565.529,6.476,6.476,0,0,0,2.378-.347A1.972,1.972,0,0,0,3149.087-4037.344Z" transform="translate(-3037.774 4356.581)" fill="#ffbc41"/>
      <path id="Path_137251" data-name="Path 137251" d="M3226.633-4150.806a3.885,3.885,0,0,0-2.585-3.327,1.988,1.988,0,0,0-2.414,2.415,14.589,14.589,0,0,0,.966,2.024c.252.751.1,1.615.575,2.271a1.657,1.657,0,0,0,2.178.572C3226.74-4147.466,3226.847-4149.53,3226.633-4150.806Z" transform="translate(-3093.285 4439.064)" fill="#ffbc41"/>
      <path id="Path_137252" data-name="Path 137252" d="M3426.352-4152.867a4.5,4.5,0,0,1-2.937.9c-1.527-.183-1.893,2.441-.366,2.7a4.763,4.763,0,0,0,5.05-1.854A1.286,1.286,0,0,0,3426.352-4152.867Z" transform="translate(-3235.223 4438.242)" fill="#ffbc41"/>
    </g>
    <g id="Group_29767" data-name="Group 29767" transform="translate(191 280.696)">
      <g id="Group_1086" data-name="Group 1086" transform="translate(0 0)">
        <g id="Group_1080" data-name="Group 1080">
          <path id="Path_106171" data-name="Path 106171" d="M-1084.819,55.45h1.876a3.753,3.753,0,0,0,3.752-3.752,3.753,3.753,0,0,0-3.752-3.752h-32.831a4.7,4.7,0,0,0-4.69,4.69v.452a12.406,12.406,0,0,1-1.372,5.563,40.651,40.651,0,0,0-4.256,18.056v26.581a.938.938,0,0,0,.938.938h45.025a.939.939,0,0,0,.938-.938V76.708a40.439,40.439,0,0,0-5.628-20.562Zm1.876-5.628a1.875,1.875,0,0,1,1.876,1.876,1.875,1.875,0,0,1-1.876,1.876h-1.876V51.7a1.876,1.876,0,0,1,1.876-1.876Zm-41.273,26.886a38.761,38.761,0,0,1,4.059-17.219,14.268,14.268,0,0,0,1.569-6.4v-.452a2.814,2.814,0,0,1,2.814-2.814h29.583a3.714,3.714,0,0,0-.5,1.876v4.448a40.435,40.435,0,0,0-5.629,20.562v25.643h-31.893Zm38.459,21.457,3.589,4.186h-7.178Zm4.69,2.589-3.752-4.377V92.033a.939.939,0,0,0-.938-.938.939.939,0,0,0-.938.938v4.344l-3.752,4.38V76.708a38.564,38.564,0,0,1,3.752-16.568v9.38a.938.938,0,0,0,.938.938.938.938,0,0,0,.938-.938V60.14a38.553,38.553,0,0,1,3.752,16.57Zm0,0" transform="translate(1126.092 -47.946)"/>
        </g>
        <g id="Group_1081" data-name="Group 1081" transform="translate(39.397 26.265)">
          <path id="Path_106172" data-name="Path 106172" d="M-980.646,144.285a.938.938,0,0,0-.938.938v5.628a.938.938,0,0,0,.938.938.938.938,0,0,0,.938-.938v-5.628a.938.938,0,0,0-.938-.938Zm0,0" transform="translate(981.584 -144.285)"/>
        </g>
        <g id="Group_1082" data-name="Group 1082" transform="translate(8.442 10.318)">
          <path id="Path_106173" data-name="Path 106173" d="M-1071.854,86.183a.938.938,0,0,0-.761-.39h-19.7a.939.939,0,0,0-.891.642l-1.876,5.628a.937.937,0,0,0,.129.845.937.937,0,0,0,.761.39h19.7a.938.938,0,0,0,.889-.642l1.876-5.628a.933.933,0,0,0-.128-.844Zm-3.313,5.238h-17.722l1.251-3.752h17.721Zm0,0" transform="translate(1095.127 -85.793)"/>
        </g>
        <g id="Group_1083" data-name="Group 1083" transform="translate(12.194 19.698)">
          <path id="Path_106174" data-name="Path 106174" d="M-1069.169,122.076a.938.938,0,0,0,.937-.938.938.938,0,0,0-.937-.938h-11.257a.938.938,0,0,0-.937.938.938.938,0,0,0,.938.938Zm0,0" transform="translate(1081.363 -120.2)"/>
        </g>
        <g id="Group_1084" data-name="Group 1084" transform="translate(15.008 6.566)">
          <path id="Path_106175" data-name="Path 106175" d="M-1070.1,73.907h11.256a.938.938,0,0,0,.938-.938.938.938,0,0,0-.938-.938H-1070.1a.938.938,0,0,0-.938.938.938.938,0,0,0,.938.938Zm0,0" transform="translate(1071.041 -72.031)"/>
        </g>
        <g id="Group_1085" data-name="Group 1085" transform="translate(38.933 37.143)">
          <path id="Path_106176" data-name="Path 106176" d="M-981.883,186.988a1.4,1.4,0,0,0,1.4-1.4,1.4,1.4,0,0,0-1.4-1.4h0a1.4,1.4,0,0,0-1.4,1.4,1.4,1.4,0,0,0,1.4,1.4Zm0,0" transform="translate(983.287 -184.186)"/>
        </g>
      </g>
      <g id="Group_1088" data-name="Group 1088" transform="translate(11.012 41.665)">
        <g id="Group_1087" data-name="Group 1087" transform="translate(0 0)">
          <g id="Path_8" data-name="Path 8" transform="translate(1.725 0)">
            <path id="Path_106177" data-name="Path 106177" d="M-1067.845,207.36h-1.292a5.3,5.3,0,0,0-1.693-2.036h0a5.344,5.344,0,0,0-6.921.558l-.873-.016.028-1.558a7.038,7.038,0,0,1,3.5-1.638,7.148,7.148,0,0,1,1.142-.092,7.033,7.033,0,0,1,4.134,1.344h0a6.991,6.991,0,0,1,2.184,2.594,7.225,7.225,0,0,1,.354.842Z" transform="translate(1078.828 -202.375)" fill="#8fd89f"/>
            <path id="Path_106178" data-name="Path 106178" d="M-1074.5,201.829a7.38,7.38,0,0,0-1.174.094,7.235,7.235,0,0,0-3.6,1.685.209.209,0,0,0-.07.151l-.028,1.557a.205.205,0,0,0,.2.208l.872.016a.2.2,0,0,0,.148-.06,5.117,5.117,0,0,1,6.657-.537,5.1,5.1,0,0,1,1.628,1.958.205.205,0,0,0,.185.117h1.855a.2.2,0,0,0,.167-.086.2.2,0,0,0,.027-.185,7.468,7.468,0,0,0-.364-.867,7.216,7.216,0,0,0-2.247-2.669A7.192,7.192,0,0,0-1074.5,201.829Zm-4.44,2.029a6.82,6.82,0,0,1,3.331-1.531,7,7,0,0,1,1.109-.089,6.787,6.787,0,0,1,4.014,1.3,6.81,6.81,0,0,1,2.12,2.518c.089.179.17.363.243.549h-1.434a5.522,5.522,0,0,0-1.7-2,5.523,5.523,0,0,0-7.124.518l-.582-.011Z" transform="translate(1079.374 -201.829)" fill="#8fd89f"/>
          </g>
          <g id="Path_9" data-name="Path 9" transform="translate(0 0.297)">
            <path id="Path_106179" data-name="Path 106179" d="M-1080.234,204.567l-.032,1.728-3.2-.058-1.483-.027.017-.931.069-3.755,1.728.031-.025,1.4-.028,1.558.872.016Z" transform="translate(1085.156 -201.32)" fill="#8fd89f"/>
            <path id="Path_106180" data-name="Path 106180" d="M-1085.413,200.774a.205.205,0,0,0-.2.2l-.085,4.686a.207.207,0,0,0,.058.146.205.205,0,0,0,.143.062l4.686.085a.207.207,0,0,0,.208-.2l.032-1.728a.209.209,0,0,0-.057-.146.205.205,0,0,0-.144-.062l-2.754-.05.05-2.754a.206.206,0,0,0-.057-.146.205.205,0,0,0-.143-.062l-1.728-.031Zm.123,4.69.078-4.277,1.319.024-.05,2.754a.205.205,0,0,0,.2.208l2.754.05-.024,1.319Z" transform="translate(1085.702 -200.774)" fill="#8fd89f"/>
          </g>
        </g>
      </g>
      <g id="Group_1091" data-name="Group 1091" transform="translate(4.847 30.902)">
        <g id="Group_1089" data-name="Group 1089">
          <path id="Path_106181" data-name="Path 106181" d="M-1107.063,169.247a.955.955,0,0,1-.891-.613,5.383,5.383,0,0,1-.36-1.931,5.415,5.415,0,0,1,5.409-5.409,5.415,5.415,0,0,1,5.409,5.409.954.954,0,0,1-.954.954.955.955,0,0,1-.955-.954,3.5,3.5,0,0,0-3.5-3.5,3.5,3.5,0,0,0-3.5,3.5,3.5,3.5,0,0,0,.235,1.249.954.954,0,0,1-.551,1.232A.954.954,0,0,1-1107.063,169.247Z" transform="translate(1108.314 -161.294)" fill="#8fd89f"/>
        </g>
        <g id="Group_1090" data-name="Group 1090" transform="translate(14.881 0.59)">
          <path id="Path_106182" data-name="Path 106182" d="M-1044.851,172.609a.95.95,0,0,1-.6-.211.954.954,0,0,1-.145-1.342,3.457,3.457,0,0,0,.773-2.191,3.5,3.5,0,0,0-3.5-3.5,3.5,3.5,0,0,0-3.5,3.5.955.955,0,0,1-.955.954.954.954,0,0,1-.954-.954,5.415,5.415,0,0,1,5.409-5.409,5.415,5.415,0,0,1,5.409,5.409,5.42,5.42,0,0,1-1.2,3.387A.953.953,0,0,1-1044.851,172.609Z" transform="translate(1053.73 -163.457)" fill="#8fd89f"/>
        </g>
      </g>
    </g>
  </g>
</svg>
