<svg xmlns="http://www.w3.org/2000/svg" width="340.46" height="332.869" viewBox="0 0 340.46 332.869">
  <g id="Group_29768" data-name="Group 29768" transform="translate(-34.488 -225.318)">
    <g id="Group_746" data-name="Group 746" transform="translate(41 383.951) rotate(-41)">
      <g id="Group_745" data-name="Group 745">
        <g id="Path_70673" data-name="Path 70673" transform="translate(0.881 0.83)">
          <path id="Path_135385" data-name="Path 135385" d="M21.525,57.793C40.919,22.538,78.5-31,178.648,22.908s58.535,154.987,10.142,184.024S62.719,248.125,11.834,170.385C-14.444,130.238,9.533,79.592,21.525,57.793Z" fill="#fff"/>
        </g>
        <g id="Path_70674" data-name="Path 70674">
          <path id="Path_135386" data-name="Path 135386" d="M221.75,177.37c-9.1,13.528-20.346,24.379-31.623,31.148C139.1,239.137,61.833,247.867,11.974,171.7-6.789,143.031-3.45,103.783,21.633,58.2h0c9.95-18.09,24.474-40.264,48.685-51.259C99.061-6.118,135.946-.729,179.947,22.957c50.008,26.917,61.221,63.227,61.822,88.948C242.338,136.254,233.969,159.219,221.75,177.37ZM23.182,59.048c-24.745,44.98-28.11,83.6-9.726,111.681C62.625,245.848,138.868,237.217,189.215,207c25.342-15.2,51.751-53.686,50.784-95.053-.588-25.252-11.629-60.917-60.89-87.434C85.466-25.888,46.593,16.5,23.182,59.047Z"/>
        </g>
      </g>
      <g id="Path_70675" data-name="Path 70675" transform="translate(34.311 188.478)">
        <path id="Path_135387" data-name="Path 135387" d="M100.524,34.2a.89.89,0,0,1-.588.378,116.068,116.068,0,0,1-42.628-.491C35.765,29.657,16.564,18.69.244,1.494A.884.884,0,0,1,1.525.275C17.594,17.2,36.481,28,57.666,32.359a114.34,114.34,0,0,0,41.979.475.883.883,0,0,1,.883,1.367Z"/>
      </g>
      <g id="Path_70676" data-name="Path 70676" transform="translate(185.753 202.848)">
        <path id="Path_135388" data-name="Path 135388" d="M0,0" fill="none" stroke="#000" stroke-miterlimit="10" stroke-width="1"/>
      </g>
      <g id="Path_70677" data-name="Path 70677" transform="translate(213.577 176.143)">
        <path id="Path_135389" data-name="Path 135389" d="M0,0" fill="none" stroke="#000" stroke-miterlimit="10" stroke-width="1"/>
      </g>
      <g id="Path_70678" data-name="Path 70678" transform="translate(211.37 56.131)">
        <path id="Path_135390" data-name="Path 135390" d="M19.149,31.671a.869.869,0,0,1-.455.344.883.883,0,0,1-1.117-.557v0A87.718,87.718,0,0,0,.213,1.467.9.9,0,0,1,.3.218.883.883,0,0,1,1.543.3l0,0A89.553,89.553,0,0,1,19.256,30.9.878.878,0,0,1,19.149,31.671Z"/>
      </g>
      <g id="Path_70679" data-name="Path 70679" transform="translate(112.834 7.028)">
        <path id="Path_135391" data-name="Path 135391" d="M16.846,3.875a.881.881,0,0,1-.93.367A115.156,115.156,0,0,0,.8,1.766.885.885,0,0,1,.967,0,116.456,116.456,0,0,1,16.314,2.517a.883.883,0,0,1,.666,1.056.871.871,0,0,1-.131.3Z"/>
      </g>
      <g id="Path_70680" data-name="Path 70680" transform="translate(64.111 8.873)">
        <path id="Path_135392" data-name="Path 135392" d="M22.312,1.379a.883.883,0,0,1-.521.366A70,70,0,0,0,1.355,10.429a.885.885,0,0,1-.94-1.5A71.955,71.955,0,0,1,21.363.028a.883.883,0,0,1,.951,1.351Z"/>
      </g>
      <g id="Path_70681" data-name="Path 70681" transform="translate(6.615 94.623)">
        <path id="Path_135393" data-name="Path 135393" d="M12.816,74.219a.916.916,0,0,1-.25.247.887.887,0,0,1-1.222-.257C-1.586,54.456-3.472,29.7,5.734.617a.884.884,0,0,1,1.686.533C-1.619,29.7.2,53.954,12.825,73.241A.888.888,0,0,1,12.816,74.219Z"/>
      </g>
      <g id="Path_70682" data-name="Path 70682" transform="translate(86.795 8.476)">
        <path id="Path_135394" data-name="Path 135394" d="M1.147.124a.737.737,0,1,1-1.022.2h0A.737.737,0,0,1,1.147.124Z"/>
      </g>
      <g id="Path_70683" data-name="Path 70683" transform="translate(108.553 6.749)">
        <path id="Path_135395" data-name="Path 135395" d="M1.277.14A.819.819,0,1,1,.14.361h0A.819.819,0,0,1,1.277.14Z"/>
      </g>
      <g id="Path_70684" data-name="Path 70684" transform="translate(183.202 179.297)">
        <path id="Path_135396" data-name="Path 135396" d="M28.622,1.028c-4.362,6.115-10.755,12.1-19,17.787-2.7,1.86-5.636,3.714-8.732,5.51L0,22.8c3.056-1.775,5.957-3.6,8.617-5.438C16.693,11.79,22.939,5.95,27.182,0Z"/>
      </g>
      <g id="Path_70685" data-name="Path 70685" transform="translate(153.102 208.663)">
        <path id="Path_135397" data-name="Path 135397" d="M18.271,1.6A173.625,173.625,0,0,1,.551,8.847L0,7.166A172.045,172.045,0,0,0,17.515,0Z"/>
      </g>
      <g id="Path_70686" data-name="Path 70686" transform="translate(36.184 178.945)">
        <path id="Path_135398" data-name="Path 135398" d="M1.705.186a1.094,1.094,0,1,1-1.519.3h0A1.1,1.1,0,0,1,1.705.186Z"/>
      </g>
      <g id="Path_70687" data-name="Path 70687" transform="translate(226.765 99.617)">
        <path id="Path_135399" data-name="Path 135399" d="M2.471.27A1.585,1.585,0,1,1,.27.7,1.586,1.586,0,0,1,2.471.27Z"/>
      </g>
      <g id="Path_70688" data-name="Path 70688" transform="translate(209.912 146.934)">
        <path id="Path_135400" data-name="Path 135400" d="M0,0"/>
      </g>
      <g id="Path_70689" data-name="Path 70689" transform="translate(161.431 41.882)">
        <path id="Path_135401" data-name="Path 135401" d="M2.036.222A1.307,1.307,0,1,1,.223.577h0A1.309,1.309,0,0,1,2.036.222Z"/>
      </g>
      <g id="Path_70690" data-name="Path 70690" transform="translate(167.386 34.846)">
        <path id="Path_135402" data-name="Path 135402" d="M2.368.259A1.519,1.519,0,1,1,.26.67h0A1.519,1.519,0,0,1,2.368.259Z"/>
      </g>
      <g id="Path_70691" data-name="Path 70691" transform="translate(178.545 33.409)">
        <path id="Path_135403" data-name="Path 135403" d="M4.813.526a3.088,3.088,0,1,1-4.286.837h0A3.088,3.088,0,0,1,4.813.526Z"/>
      </g>
      <g id="Path_70692" data-name="Path 70692" transform="translate(176.235 53.116)">
        <path id="Path_135404" data-name="Path 135404" d="M1.81.2A1.161,1.161,0,1,1,.2.514,1.16,1.16,0,0,1,1.81.2Z"/>
      </g>
    </g>
    <g id="Group_29761" data-name="Group 29761" transform="translate(154 335.696)">
      <g id="Group_1086" data-name="Group 1086" transform="translate(0 0)">
        <g id="Group_1080" data-name="Group 1080">
          <path id="Path_106171" data-name="Path 106171" d="M-1031.227,65.194h4.312a8.625,8.625,0,0,0,8.625-8.624,8.625,8.625,0,0,0-8.625-8.624h-75.461a10.793,10.793,0,0,0-10.78,10.78v1.039a28.514,28.514,0,0,1-3.155,12.788,93.436,93.436,0,0,0-9.782,41.5v61.1a2.157,2.157,0,0,0,2.156,2.156h103.49a2.158,2.158,0,0,0,2.157-2.156v-61.1a92.945,92.945,0,0,0-12.937-47.261Zm4.312-12.936a4.31,4.31,0,0,1,4.312,4.312,4.31,4.31,0,0,1-4.312,4.312h-4.312V56.57a4.311,4.311,0,0,1,4.312-4.312Zm-94.867,61.8a89.093,89.093,0,0,1,9.33-39.577,32.789,32.789,0,0,0,3.607-14.713V58.726a6.469,6.469,0,0,1,6.468-6.468h68a8.54,8.54,0,0,0-1.158,4.312V66.794a92.944,92.944,0,0,0-12.937,47.261V173h-73.306Zm88.4,49.319,8.249,9.622h-16.5Zm10.779,5.95-8.624-10.06V149.28a2.157,2.157,0,0,0-2.156-2.156,2.157,2.157,0,0,0-2.156,2.156v9.984l-8.625,10.067V114.055a88.637,88.637,0,0,1,8.625-38.081V97.535a2.157,2.157,0,0,0,2.156,2.156,2.157,2.157,0,0,0,2.156-2.156V75.975a88.608,88.608,0,0,1,8.624,38.086Zm0,0" transform="translate(1126.092 -47.946)"/>
        </g>
        <g id="Group_1081" data-name="Group 1081" transform="translate(90.554 60.369)">
          <path id="Path_106172" data-name="Path 106172" d="M-979.427,144.285a2.157,2.157,0,0,0-2.157,2.156v12.936a2.157,2.157,0,0,0,2.157,2.156,2.157,2.157,0,0,0,2.156-2.156V146.441a2.157,2.157,0,0,0-2.156-2.156Zm0,0" transform="translate(981.584 -144.285)"/>
        </g>
        <g id="Group_1082" data-name="Group 1082" transform="translate(19.403 23.716)">
          <path id="Path_106173" data-name="Path 106173" d="M-1041.633,86.69a2.157,2.157,0,0,0-1.749-.9h-45.276a2.157,2.157,0,0,0-2.047,1.475l-4.312,12.936a2.155,2.155,0,0,0,.3,1.942,2.154,2.154,0,0,0,1.749.9h45.277a2.157,2.157,0,0,0,2.044-1.475l4.313-12.936a2.144,2.144,0,0,0-.295-1.94Zm-7.615,12.039h-40.733l2.875-8.624h40.731Zm0,0" transform="translate(1095.127 -85.793)"/>
        </g>
        <g id="Group_1083" data-name="Group 1083" transform="translate(28.029 45.277)">
          <path id="Path_106174" data-name="Path 106174" d="M-1053.335,124.513a2.157,2.157,0,0,0,2.155-2.156,2.157,2.157,0,0,0-2.155-2.156h-25.874a2.157,2.157,0,0,0-2.155,2.156,2.157,2.157,0,0,0,2.155,2.156Zm0,0" transform="translate(1081.363 -120.2)"/>
        </g>
        <g id="Group_1084" data-name="Group 1084" transform="translate(34.497 15.092)">
          <path id="Path_106175" data-name="Path 106175" d="M-1068.885,76.343h25.873a2.156,2.156,0,0,0,2.156-2.156,2.156,2.156,0,0,0-2.156-2.156h-25.873a2.157,2.157,0,0,0-2.156,2.156,2.157,2.157,0,0,0,2.156,2.156Zm0,0" transform="translate(1071.041 -72.031)"/>
        </g>
        <g id="Group_1085" data-name="Group 1085" transform="translate(89.487 85.373)">
          <path id="Path_106176" data-name="Path 106176" d="M-980.061,190.627a3.221,3.221,0,0,0,3.22-3.22,3.221,3.221,0,0,0-3.22-3.22h-.011a3.216,3.216,0,0,0-3.215,3.22,3.225,3.225,0,0,0,3.226,3.22Zm0,0" transform="translate(983.287 -184.186)"/>
        </g>
      </g>
      <g id="Group_1088" data-name="Group 1088" transform="translate(25.31 95.767)">
        <g id="Group_1087" data-name="Group 1087">
          <g id="Path_8" data-name="Path 8" transform="translate(3.965 0.661)">
            <path id="Path_106177" data-name="Path 106177" d="M-1053.849,202.579h-2.968a12.173,12.173,0,0,1-3.892,4.68h0a12.284,12.284,0,0,1-15.908-1.283l-2.007.036.065,3.58a16.178,16.178,0,0,0,8.048,3.764,16.431,16.431,0,0,0,2.624.211,16.166,16.166,0,0,0,9.5-3.088h0a16.07,16.07,0,0,0,5.019-5.963,16.626,16.626,0,0,0,.813-1.936Z" transform="translate(1079.093 -202.109)" fill="#8fd89f"/>
            <path id="Path_106178" data-name="Path 106178" d="M-1068.168,213.758a16.964,16.964,0,0,1-2.7-.216,16.629,16.629,0,0,1-8.282-3.874.479.479,0,0,1-.162-.347l-.064-3.579a.472.472,0,0,1,.463-.479l2-.036a.455.455,0,0,1,.341.138,11.761,11.761,0,0,0,15.3,1.233,11.731,11.731,0,0,0,3.742-4.5.471.471,0,0,1,.426-.269h4.264a.468.468,0,0,1,.383.2.468.468,0,0,1,.061.426,17.1,17.1,0,0,1-.836,1.992,16.584,16.584,0,0,1-5.165,6.135A16.531,16.531,0,0,1-1068.168,213.758Zm-10.2-4.664a15.676,15.676,0,0,0,7.656,3.52,16.1,16.1,0,0,0,2.549.2,15.6,15.6,0,0,0,9.227-3,15.653,15.653,0,0,0,4.874-5.789c.2-.412.39-.834.559-1.261h-3.3a12.693,12.693,0,0,1-3.91,4.591,12.7,12.7,0,0,1-16.375-1.19l-1.337.024Z" transform="translate(1079.375 -201.829)" fill="#8fd89f"/>
          </g>
          <g id="Path_9" data-name="Path 9">
            <path id="Path_106179" data-name="Path 106179" d="M-1074.108,205.5l-.073-3.972-7.364.133-3.408.062.039,2.141.157,8.631,3.971-.072-.058-3.22-.065-3.58,2.005-.036Z" transform="translate(1085.421 -201.054)" fill="#8fd89f"/>
            <path id="Path_106180" data-name="Path 106180" d="M-1085.037,212.681a.471.471,0,0,1-.47-.462l-.2-10.771a.474.474,0,0,1,.132-.335.472.472,0,0,1,.33-.144l10.771-.2a.477.477,0,0,1,.478.461l.073,3.972a.479.479,0,0,1-.131.335.472.472,0,0,1-.33.144l-6.331.115.115,6.33a.475.475,0,0,1-.131.335.472.472,0,0,1-.329.143l-3.972.072Zm.283-10.78.178,9.831,3.033-.054-.115-6.33a.472.472,0,0,1,.462-.479l6.33-.114-.055-3.033Z" transform="translate(1085.702 -200.774)" fill="#8fd89f"/>
          </g>
        </g>
      </g>
      <g id="Group_1091" data-name="Group 1091" transform="translate(11.14 71.028)">
        <g id="Group_1089" data-name="Group 1089">
          <path id="Path_106181" data-name="Path 106181" d="M-1105.437,179.574a2.194,2.194,0,0,1-2.049-1.41,12.374,12.374,0,0,1-.828-4.438,12.447,12.447,0,0,1,12.433-12.432,12.447,12.447,0,0,1,12.433,12.432,2.194,2.194,0,0,1-2.194,2.193,2.194,2.194,0,0,1-2.195-2.193,8.055,8.055,0,0,0-8.045-8.045,8.056,8.056,0,0,0-8.047,8.045,8.04,8.04,0,0,0,.54,2.871,2.194,2.194,0,0,1-1.266,2.832A2.191,2.191,0,0,1-1105.437,179.574Z" transform="translate(1108.314 -161.294)" fill="#8fd89f"/>
        </g>
        <g id="Group_1090" data-name="Group 1090" transform="translate(34.204 1.355)">
          <path id="Path_106182" data-name="Path 106182" d="M-1033.322,184.494a2.184,2.184,0,0,1-1.373-.485,2.192,2.192,0,0,1-.333-3.084,7.947,7.947,0,0,0,1.777-5.036,8.055,8.055,0,0,0-8.045-8.046,8.055,8.055,0,0,0-8.046,8.046,2.195,2.195,0,0,1-2.194,2.193,2.193,2.193,0,0,1-2.193-2.193,12.446,12.446,0,0,1,12.433-12.432,12.447,12.447,0,0,1,12.432,12.432,12.458,12.458,0,0,1-2.747,7.786A2.19,2.19,0,0,1-1033.322,184.494Z" transform="translate(1053.73 -163.457)" fill="#8fd89f"/>
        </g>
      </g>
    </g>
    <g id="Group_29762" data-name="Group 29762" transform="translate(-171.28 107.117) rotate(-20)">
      <path id="Path_137242" data-name="Path 137242" d="M3189.411-4077.561a32.037,32.037,0,0,1-19.262-16.846c-.356-.746-.645-1.51-.939-2.273a15.2,15.2,0,0,0,9.241-1.036c10.211-4.523,17.982-19.774,7.308-28.181-13.052-10.28-23.079,9.6-22.524,20.248a31.921,31.921,0,0,0,.43,3.688c-7.222-4.912-11.949-14.848-15.983-21.794a1.216,1.216,0,0,0-2.212.934c2.54,8.489,9.877,20.063,19.037,24.562a33.911,33.911,0,0,0,24.195,23.269A1.333,1.333,0,0,0,3189.411-4077.561Zm-12.25-47.085c10.765-.646,13.526,10.133,8.653,17.844-3.717,5.881-11.049,9.063-17.6,7.044a29.543,29.543,0,0,1-1.073-8.017C3167.2-4113.2,3169.92-4124.216,3177.161-4124.646Z" transform="translate(-3038.087 4435.507)" fill="#ffbc41"/>
      <path id="Path_137243" data-name="Path 137243" d="M3188.862-3967.5c-3.354-5.341-10.625-6.973-16.515-6.4a23.929,23.929,0,0,0-7.536,2.01,19.343,19.343,0,0,1-1.015-5.53c-.08-9.477,8.373-30.349,21.256-22.058,1.156.745,2.14-1.038,1.063-1.818-13.4-9.657-24.221,10.257-25.144,21.313a24.157,24.157,0,0,0,1.311,9.4c-9.763,5.847-14.887,18.236-13.793,29.786a1.3,1.3,0,0,0,2.588,0c.3-8.343,1.68-16.724,7.611-23.087a22.671,22.671,0,0,1,4.707-3.828c3.953,8.782,12.229,15.93,22.022,11.39C3190.066-3958.477,3191.61-3963.117,3188.862-3967.5Zm-7.887,8.955c-6.669,1.772-12.2-4.142-15.066-10.478a21.794,21.794,0,0,1,3.7-1.33,19.759,19.759,0,0,1,7.2-.423,8.623,8.623,0,0,1,3.933.939Q3187.851-3968.288,3180.976-3958.543Z" transform="translate(-3038.497 4418.034)" fill="#ffbc41"/>
      <path id="Path_137244" data-name="Path 137244" d="M3434.148-3855.235c-9-3.66-17.6-6.17-25.189-12.627-.583-.493-1.165-1.029-1.744-1.558,9.934-2.912,18.878-9.423,12.215-19.743-7.033-10.887-28.182-8.752-25.463,6.731a26.1,26.1,0,0,0,5.175,11.047,36.868,36.868,0,0,1-6.1-.1c-12.053-1.243-23.686-12.164-17.92-25,.543-1.211-1.186-2.289-1.817-1.064-7.482,14.451,5.2,28.029,19.483,29.761a33.851,33.851,0,0,0,9.058-.414c8.5,9.08,21.928,15.742,31.887,16.006C3435.615-3852.146,3435.664-3854.623,3434.148-3855.235Zm-34.285-22.74c-.562-1.132-1.121-2.262-1.682-3.4q-2.451-4.972,3.1-7.345c4.023-3.885,5.813-4.494,10.966-1.67,3.416,1.871,5.129,7.328,3.9,11.055-1.173,3.57-6.754,5.892-9.867,6.762-.615.173-1.243.287-1.867.423A34.2,34.2,0,0,1,3399.864-3877.976Z" transform="translate(-3069.657 4403.237)" fill="#ffbc41"/>
      <path id="Path_137245" data-name="Path 137245" d="M3487.352-4109.645c-.292-.6-1.1-.243-1.148.308-.592,6.776-1.4,13.18-7.845,17.14a19.518,19.518,0,0,1-9.042,2.658,17.817,17.817,0,0,0,.727-1.961c3.093-11.26-7.148-35.637-22.024-27.9-6.344,3.3-8.547,10.654-6.54,17.229,2.38,7.792,9.459,12.516,16.981,14.634a35.366,35.366,0,0,0,4.678.954,28.649,28.649,0,0,1-7.647,7.213c-9.233,6.083-20.024,12.2-31.327,12.025a.968.968,0,0,0,0,1.934c10.66.765,20.116-3.912,29.173-9.053,5.276-2.994,10.9-6.6,14.276-11.756,5.3.031,10.611-1.285,14.654-4.681C3487.543-4095.343,3490.493-4103.218,3487.352-4109.645Zm-28.032,18.978c-6.654-1.833-13.55-6.223-15.112-13.444-1.088-5.053,1.4-11.563,6.9-13.024,5.176-1.38,9.069,2.242,11.561,6.013,4.994,7.562,5.463,15.063,2.315,21.488A33.005,33.005,0,0,1,3459.32-4090.667Z" transform="translate(-3076.951 4434.407)" fill="#ffbc41"/>
      <path id="Path_137246" data-name="Path 137246" d="M3217.958-3909a5.038,5.038,0,0,0-5.952-3.379,7.576,7.576,0,0,0-4.4,2.26c-.049.035-.078.05-.145.1-.79.568-1.462,1.138-2.181,1.761-.107.089-.641.483-.785.606-.162.1-.312.2-.36.228-.7.447-1.281.885-1.932,1.375-.313.241-1.258.97-1.626,1.325a6.934,6.934,0,0,0-1.779,6.733,7.221,7.221,0,0,0,1.779,3.055,6.883,6.883,0,0,0,6.738,1.781,15.5,15.5,0,0,0,7.715-5.353C3217.376-3901.312,3219.431-3905.326,3217.958-3909Z" transform="translate(-3045.522 4405.25)" fill="#ffbc41"/>
      <path id="Path_137248" data-name="Path 137248" d="M3364.994-3855.621c-1.758-2.176-5.453-2.048-7.467-.446a5.778,5.778,0,0,0-1.463,7.335,21.451,21.451,0,0,1,1.31,3.936c.464,2.007.537,3.984,1.741,5.752a6.482,6.482,0,0,0,6.361,3.047,6.34,6.34,0,0,0,5.305-4.572C3372.086-3846.065,3368.3-3851.534,3364.994-3855.621Z" transform="translate(-3067.458 4397.526)" fill="#ffbc41"/>
      <path id="Path_137249" data-name="Path 137249" d="M3479.918-3974.8c-4.262-1.211-9-1.436-13.39-2.064-2.655-.385-5.268.423-6.352,3.115-.912,2.266-.274,5.606,2.2,6.722,4.471,2.015,9.044,4.6,13.742,5.994C3484.942-3958.417,3488.758-3972.284,3479.918-3974.8Z" transform="translate(-3082.064 4414.271)" fill="#ffbc41"/>
      <path id="Path_137250" data-name="Path 137250" d="M3160.572-4036.668a19.151,19.151,0,0,0-7.006-1.021,15.266,15.266,0,0,0-7.555,1.562,5.838,5.838,0,0,0,0,10,15.29,15.29,0,0,0,7.555,1.559,19.05,19.05,0,0,0,7.006-1.023C3165.98-4027.861,3165.993-4034.394,3160.572-4036.668Z" transform="translate(-3037.774 4422.767)" fill="#ffbc41"/>
      <path id="Path_137251" data-name="Path 137251" d="M3236.442-4144.21c-.71-4.212-3.166-8.722-7.614-9.8-4.494-1.088-7.957,2.776-7.109,7.113.435,2.218,2.267,4.23,2.846,5.962.743,2.214.29,4.757,1.695,6.688a4.878,4.878,0,0,0,6.414,1.683C3236.757-4134.374,3237.074-4140.452,3236.442-4144.21Z" transform="translate(-3048.744 4439.065)" fill="#ffbc41"/>
      <path id="Path_137252" data-name="Path 137252" d="M3434.682-4152.542c-2.853,1.646-5.259,3.05-8.65,2.643-4.5-.537-5.575,7.19-1.078,7.963,5.573.957,11.771-.362,14.874-5.462C3441.8-4150.649,3437.9-4154.393,3434.682-4152.542Z" transform="translate(-3076.789 4438.903)" fill="#ffbc41"/>
    </g>
  </g>
</svg>
