<svg id="Component_40_24" data-name="Component 40 – 24" xmlns="http://www.w3.org/2000/svg" width="30" height="30" viewBox="0 0 30 30">
  <g id="home" transform="translate(114.729 362.221)">
    <path id="Path_137412" data-name="Path 137412" d="M-97.336-339.452a.476.476,0,0,1-.077-.006A.473.473,0,0,1-97.8-340c.03-.181.061-.411.089-.676-2.016.032-4.065.1-4.091.1a.462.462,0,0,1-.482-.394c-.027-.163-.654-3.991.827-5.7A2.379,2.379,0,0,1-99.5-347.5a2.324,2.324,0,0,1,1.8.873c.987,1.193,1.087,3.413,1.009,4.987.267,0,.526,0,.772,0,1.386,0,2.184-.048,2.6-.086.012-.724.035-2.252.035-3.314,0-1.225-.157-3.366-.2-3.937a34.14,34.14,0,0,0-2.979-3.241c-1.2-1.129-2.467-2.412-3.054-3.013-.665.657-2.184,2.144-3.44,3.3-1.42,1.312-2.761,2.615-3.182,3.026-.016.578-.053,2.377.017,3.9.085,1.876,0,4.03,0,4.051a.467.467,0,0,1-.491.453.472.472,0,0,1-.453-.491c0-.021.083-2.136,0-3.971-.086-1.875-.012-4.144-.012-4.166a.473.473,0,0,1,.141-.321c.016-.016,1.619-1.591,3.339-3.179,1.639-1.512,3.733-3.594,3.754-3.615a.485.485,0,0,1,.338-.138.473.473,0,0,1,.336.145c.017.018,1.75,1.813,3.355,3.324a34.539,34.539,0,0,1,3.164,3.457.47.47,0,0,1,.1.253c.009.11.215,2.7.215,4.156,0,1.439-.043,3.719-.043,3.742a.473.473,0,0,1-.377.454,19.126,19.126,0,0,1-3.158.148c-.268,0-.552,0-.843,0-.048.478-.1.793-.106.841A.472.472,0,0,1-97.336-339.452Zm-2.25-7.1a1.451,1.451,0,0,0-1.161.5c-.874,1.009-.808,3.316-.665,4.514.724-.022,2.264-.066,3.773-.089.077-1.517-.025-3.471-.791-4.4a1.4,1.4,0,0,0-1.1-.53Z" transform="translate(0 0)" fill="#424242"/>
  </g>
  <g id="Group_28478" data-name="Group 28478" transform="translate(-1536 -2706)">
    <g id="Group_28452" data-name="Group 28452" transform="translate(70 2485)">
      <circle id="Ellipse_107" data-name="Ellipse 107" cx="15" cy="15" r="15" transform="translate(1466 221)" fill="#8fd89f"/>
    </g>
    <g id="home-2" data-name="home" transform="translate(1650.729 3068.221)">
      <path id="Path_137412-2" data-name="Path 137412" d="M-97.336-339.452a.476.476,0,0,1-.077-.006A.473.473,0,0,1-97.8-340c.03-.181.061-.411.089-.676-2.016.032-4.065.1-4.091.1a.462.462,0,0,1-.482-.394c-.027-.163-.654-3.991.827-5.7A2.379,2.379,0,0,1-99.5-347.5a2.324,2.324,0,0,1,1.8.873c.987,1.193,1.087,3.413,1.009,4.987.267,0,.526,0,.772,0,1.386,0,2.184-.048,2.6-.086.012-.724.035-2.252.035-3.314,0-1.225-.157-3.366-.2-3.937a34.14,34.14,0,0,0-2.979-3.241c-1.2-1.129-2.467-2.412-3.054-3.013-.665.657-2.184,2.144-3.44,3.3-1.42,1.312-2.761,2.615-3.182,3.026-.016.578-.053,2.377.017,3.9.085,1.876,0,4.03,0,4.051a.467.467,0,0,1-.491.453.472.472,0,0,1-.453-.491c0-.021.083-2.136,0-3.971-.086-1.875-.012-4.144-.012-4.166a.473.473,0,0,1,.141-.321c.016-.016,1.619-1.591,3.339-3.179,1.639-1.512,3.733-3.594,3.754-3.615a.485.485,0,0,1,.338-.138.473.473,0,0,1,.336.145c.017.018,1.75,1.813,3.355,3.324a34.539,34.539,0,0,1,3.164,3.457.47.47,0,0,1,.1.253c.009.11.215,2.7.215,4.156,0,1.439-.043,3.719-.043,3.742a.473.473,0,0,1-.377.454,19.126,19.126,0,0,1-3.158.148c-.268,0-.552,0-.843,0-.048.478-.1.793-.106.841A.472.472,0,0,1-97.336-339.452Zm-2.25-7.1a1.451,1.451,0,0,0-1.161.5c-.874,1.009-.808,3.316-.665,4.514.724-.022,2.264-.066,3.773-.089.077-1.517-.025-3.471-.791-4.4a1.4,1.4,0,0,0-1.1-.53Z" transform="translate(0 0)" fill="#fff"/>
    </g>
  </g>
</svg>
