<svg xmlns="http://www.w3.org/2000/svg" width="30" height="30" viewBox="0 0 30 30">
  <g id="Group_28482" data-name="Group 28482" transform="translate(-1466 -221)">
    <circle id="Ellipse_107" data-name="Ellipse 107" cx="15" cy="15" r="15" transform="translate(1466 221)" fill="#ffbc41"/>
    <g id="trolley" transform="translate(1472.437 228.521)">
      <path id="Path_106186" data-name="Path 106186" d="M2054.5-1278.615a1.546,1.546,0,0,1-1.173-.552,1.763,1.763,0,0,1,.273-2.483c1.458-1.39,1.382-1.988.884-5.878q-.051-.394-.106-.833c-.421-.625-.856-1.264-1.314-1.9a2.324,2.324,0,0,1-.464-2.5.711.711,0,0,1,.777-.318c.674.165,1.166,1.168,1.347,2.751.074.642.145,1.227.212,1.76l.227.336.323.48c-.148-.864-.247-1.7-.3-2.352a.371.371,0,0,1,.125-.31c.173-.16.535-.494,6.658.023,3.012.254,6.12.612,6.522.679s.582.491.519,1.258c-.084,1.015-1.073,4.665-1.77,4.665h-1.055c-2.439,0-6.981.011-7.786-.035-.5-.029-1.039-.465-1.644-1.185a3.757,3.757,0,0,0,.789,1.419c.507.474,2.789.7,4.8.906a24.233,24.233,0,0,1,4.315.656,1.814,1.814,0,0,1,1.317,2.2,1.53,1.53,0,0,1-1.908,1.075,1.338,1.338,0,0,1-.991-.954,1.421,1.421,0,0,1,.275-1.374,1.1,1.1,0,0,1,1.108-.275.846.846,0,0,1,.58.435,1.268,1.268,0,0,1,0,.958.292.292,0,0,1-.378.16.29.29,0,0,1-.16-.378.707.707,0,0,0,.023-.478.274.274,0,0,0-.2-.134.532.532,0,0,0-.549.113.859.859,0,0,0-.139.807.769.769,0,0,0,.567.555.95.95,0,0,0,1.219-.667,1.237,1.237,0,0,0-.943-1.5,24.491,24.491,0,0,0-4.19-.629c-2.793-.281-4.533-.493-5.14-1.059a6.85,6.85,0,0,1-1.366-3.131c-.217-.309-.444-.642-.681-.992.46,3.6.526,4.511-1.1,6.059a1.192,1.192,0,0,0-.231,1.69.985.985,0,0,0,1.425.089.833.833,0,0,0,.159-1.159c-.109-.168-.359-.416-.609-.276a.712.712,0,0,0-.378.4.472.472,0,0,0,.047.33.292.292,0,0,1-.094.4.288.288,0,0,1-.4-.087,1.044,1.044,0,0,1-.122-.774,1.251,1.251,0,0,1,.658-.772,1.036,1.036,0,0,1,1.379.465,1.409,1.409,0,0,1-.3,1.94A1.732,1.732,0,0,1,2054.5-1278.615Zm1.809-7.941c.858,1.212,1.616,2.122,2.12,2.151.787.045,5.491.038,7.752.034h.959a12.526,12.526,0,0,0,1.3-4.339c.007-.357-.066-.441-.066-.442-1.156-.187-11.315-1.244-12.6-.862A26.209,26.209,0,0,0,2056.306-1286.555Zm10.928,2.185h0Zm-14.034-8.153c-.032,0-.076.015-.122.084-.169.25-.187.946.454,1.839q.353.491.688.98c-.024-.208-.05-.423-.075-.645-.19-1.653-.678-2.2-.909-2.254A.163.163,0,0,0,2053.2-1292.524Z" transform="translate(-2052.399 1293.103)" fill="#fff"/>
    </g>
  </g>
</svg>
