<svg xmlns="http://www.w3.org/2000/svg" width="30" height="30" viewBox="0 0 30 30">
  <g id="Group_28480" data-name="Group 28480" transform="translate(-282 -858)">
    <circle id="Ellipse_107" data-name="Ellipse 107" cx="15" cy="15" r="15" transform="translate(282 858)" fill="#f38262"/>
    <g id="like" transform="translate(289.904 864.081)">
      <path id="Path_137359" data-name="Path 137359" d="M2248.9,184.747c-.411,0-.867-.011-1.372-.033-2.7-.117-3.6-.156-3.9-2.021a20.579,20.579,0,0,1-.044-3,13.677,13.677,0,0,0-.106-3.151c-.142,0-.306,0-.487-.008-.75-.016-3.035-.066-3.065.42-.316,5.068.074,6.6.324,6.7.629.037,2.707.088,2.728.088a.271.271,0,0,1-.007.542h-.007c-.086,0-2.108-.052-2.75-.09a.574.574,0,0,1-.4-.207c-.54-.609-.684-2.986-.429-7.066.059-.931,1.674-.971,3.619-.929.205,0,.39.008.542.008a.416.416,0,0,1,.3.131c.33.338.338,1.349.28,3.576a20.63,20.63,0,0,0,.039,2.9c.213,1.373.58,1.441,3.382,1.563,2.555.111,3.922-.073,4.065-.549a.925.925,0,0,0-.006-.584,1.071,1.071,0,0,1-.049-.422.549.549,0,0,1,.358-.428.766.766,0,0,0,.422-.459.5.5,0,0,0,.01-.519.92.92,0,0,1-.077-.695.9.9,0,0,1,.482-.579.568.568,0,0,0,.337-.484c.1-.593-.073-.728-.279-.883a.7.7,0,0,1-.358-.639.786.786,0,0,1,.384-.678c.108-.074.179-.122.185-.473.021-1.146-2.43-1.6-4.534-1.646a.584.584,0,0,1-.494-.235c-.249-.35-.062-.917.219-1.776a7.6,7.6,0,0,0,.533-2.719c-.037-.525-.095-1.1-.323-1.3a.5.5,0,0,0-.4-.092,11.292,11.292,0,0,0-1.323,2.344c-.318.645-.678,1.377-1.054,2.068a19.669,19.669,0,0,0-.925,1.958.271.271,0,0,1-.5-.2,19.822,19.822,0,0,1,.953-2.019c.371-.682.729-1.408,1.045-2.049.891-1.808,1.3-2.609,1.766-2.645a1.057,1.057,0,0,1,.8.222,2.436,2.436,0,0,1,.51,1.672,8.017,8.017,0,0,1-.559,2.926,3.5,3.5,0,0,0-.292,1.293s.02.005.062.006c1.535.031,5.1.308,5.066,2.2a.938.938,0,0,1-.423.912c-.1.068-.134.091-.148.273,0,.039,0,.051.145.163a1.229,1.229,0,0,1,.485,1.41,1.085,1.085,0,0,1-.594.856c-.136.081-.2.118-.235.253a.391.391,0,0,0,.045.327,1.028,1.028,0,0,1,0,.958,1.3,1.3,0,0,1-.676.731l-.067.035a.773.773,0,0,0,.037.192,1.451,1.451,0,0,1,0,.879C2251.937,184.454,2251,184.747,2248.9,184.747Z" transform="translate(-2239.27 -168.468)" fill="#fff" stroke="#fff" stroke-width="0.3"/>
    </g>
  </g>
</svg>
