<svg xmlns="http://www.w3.org/2000/svg" width="30" height="30" viewBox="0 0 30 30">
  <g id="Group_28481" data-name="Group 28481" transform="translate(-355 -858)">
    <circle id="Ellipse_474" data-name="Ellipse 474" cx="15" cy="15" r="15" transform="translate(355 858)" fill="#f69f8e"/>
    <g id="Group_28425" data-name="Group 28425" transform="translate(361.25 863)">
      <g id="plant" transform="translate(0 0)">
        <path id="Path_137360" data-name="Path 137360" d="M20.863-505.4a.286.286,0,0,1-.05,0,.279.279,0,0,1-.225-.325s.011-.059.03-.148c-1.5,0-2.992-.01-4.313-.05-2.122-.065-2.742-.164-3.016-.482a.834.834,0,0,1-.126-.7,2.807,2.807,0,0,0,.025-.336c0-.145-.007-.278-.013-.4a1.309,1.309,0,0,1,.237-1.069c.36-.37,1.128-.481,3.052-.441,3.729.079,8.853.052,11.317.039l1.186-.005a.141.141,0,0,0,.138-.063.629.629,0,0,0,.073-.352c0-1.637-2.65-6.168-6.824-6.747-.582,1-3.674,6.141-5.99,6.529a1.487,1.487,0,0,1-1.285-.359,2.348,2.348,0,0,1-.349-2.67,7.087,7.087,0,0,1,6.738-4.12c.182,0,.361.007.538.021.184-.586.449-1.581.106-2.054a.877.877,0,0,0-.764-.292.76.76,0,0,0-.784.417.614.614,0,0,0,.126.649.469.469,0,0,0,.54.015.28.28,0,0,1,.375.125.28.28,0,0,1-.125.375,1,1,0,0,1-1.167-.1,1.167,1.167,0,0,1-.272-1.264,1.3,1.3,0,0,1,1.306-.774,1.407,1.407,0,0,1,1.216.523,3.013,3.013,0,0,1,.006,2.448c4.352.691,7.166,5.316,7.166,7.28a1.174,1.174,0,0,1-.169.665.7.7,0,0,1-.6.309l-1.183,0c-2.465.013-7.595.04-11.331-.039a5.686,5.686,0,0,0-2.639.272c-.1.1-.1.3-.079.651.006.131.013.274.013.429a3.349,3.349,0,0,1-.029.4.686.686,0,0,0-.006.272,8.854,8.854,0,0,0,2.609.288c1.355.041,2.894.053,4.434.049.091-.315.21-.63.336-.687,1.656-.756,5.781-.811,7.543-.835l.423-.006a2.229,2.229,0,0,1,.955.092c.686.332.207,1.442.1,1.661a.279.279,0,0,1-.243.161c-.059,0-4.313.15-8.684.172-.02.085-.038.169-.053.249A.28.28,0,0,1,20.863-505.4Zm.554-1.255c-.019.052-.044.127-.072.216,3.808-.021,7.491-.137,8.332-.165.134-.351.184-.721.093-.766a3.135,3.135,0,0,0-.7-.036l-.426.006C26.949-507.378,23.029-507.326,21.416-506.657Zm.049-9.891a6.522,6.522,0,0,0-6.215,3.759,1.829,1.829,0,0,0,.2,2.053.938.938,0,0,0,.822.226c1.741-.292,4.352-4.15,5.468-6.033C21.647-516.545,21.557-516.547,21.466-516.547Z" transform="translate(-13.14 519.991)" fill="#fff" stroke="#fff" stroke-width="0.3"/>
      </g>
      <g id="pearloyster" transform="translate(5.831 14.03)">
        <path id="Path_137361" data-name="Path 137361" d="M36.121-463.779q-.158,0-.318-.015a1.894,1.894,0,0,1-1.432-.839,2.37,2.37,0,0,1-.263-2,1.947,1.947,0,0,1,2.063-1.24,1.472,1.472,0,0,1,1.453,1.212,1.263,1.263,0,0,1-.5,1.331,1.119,1.119,0,0,1-1.214-.072,1.1,1.1,0,0,1-.209-1.429.28.28,0,0,1,.379-.112.279.279,0,0,1,.112.378c-.012.022-.256.491.046.71a.561.561,0,0,0,.6.046c.2-.121.284-.4.233-.777a.939.939,0,0,0-.945-.729,1.39,1.39,0,0,0-1.482.847,1.808,1.808,0,0,0,.193,1.527,1.326,1.326,0,0,0,1.017.594,2.356,2.356,0,0,0,1.821-.527,1.766,1.766,0,0,0,.5-1.417,2.876,2.876,0,0,0-1.671-2.244c-.5-.323-.887-.579-.894-.983a.28.28,0,0,1,.274-.285.277.277,0,0,1,.285.274c0,.108.386.359.641.525a3.415,3.415,0,0,1,1.924,2.69,2.331,2.331,0,0,1-.674,1.845A2.818,2.818,0,0,1,36.121-463.779Z" transform="translate(-33.997 469.807)" fill="#fff" stroke="#fff" stroke-width="0.3"/>
      </g>
    </g>
  </g>
</svg>
