<svg id="Component_41_25" data-name="Component 41 – 25" xmlns="http://www.w3.org/2000/svg" width="30" height="30" viewBox="0 0 30 30">
  <g id="Ellipse_108" data-name="Ellipse 108" fill="none" stroke="#424242" stroke-width="1">
    <circle cx="15" cy="15" r="15" stroke="none"/>
    <circle cx="15" cy="15" r="14.5" fill="none"/>
  </g>
  <g id="search" transform="translate(9.08 6.884)">
    <path id="Path_106192" data-name="Path 106192" d="M2251.012,14.8c-.889,0-1.627-1.688-2.4-3.465-.219-.5-.451-1.031-.677-1.487-.721.209-1.212-.036-1.38-.4a.818.818,0,0,1,.142-.861c-.089-.011-.187-.022-.29-.033-1.348-.147-3.856-.421-4.938-2.915a4.449,4.449,0,0,1,2.295-6.075c.088-.041.177-.079.266-.113a5.02,5.02,0,0,1,2.52-.433,4.714,4.714,0,0,1,3.985,2.821c1.188,2.61-.418,4.824-1.956,6.009a1.8,1.8,0,0,1,.554.582l.132.218a.955.955,0,0,0,.347-.445.173.173,0,0,0-.01-.145.21.21,0,0,1,.016-.3.218.218,0,0,1,.307.017.572.572,0,0,1,.114.5,1.384,1.384,0,0,1-.549.749c1.268,2.106,2.514,4.348,2.2,5.3a.66.66,0,0,1-.382.42A.76.76,0,0,1,2251.012,14.8Zm-2.678-5.107c.216.436.436.94.668,1.47.635,1.452,1.507,3.44,2.137,3.18a.231.231,0,0,0,.137-.157c.272-.827-1.276-3.481-2.144-4.92A7.151,7.151,0,0,1,2248.334,9.694Zm-1.156-.982c-.239.189-.308.406-.238.557.086.188.371.288.786.189A2.428,2.428,0,0,0,2247.179,8.711Zm.39-.222a3.7,3.7,0,0,1,.567.822,6.754,6.754,0,0,0,.775-.412l-.15-.248a1.4,1.4,0,0,0-.569-.528A5.922,5.922,0,0,1,2247.569,8.489Zm-5.671-6.7a3.911,3.911,0,0,0-.04,3.677c.982,2.265,3.329,2.521,4.59,2.659a5.677,5.677,0,0,1,.686.1q.063-.035.133-.068c.13-.061.269-.135.414-.22a8.25,8.25,0,0,0-1.139-.163c-1.38-.135-3.1-.3-4.166-2.44A4.812,4.812,0,0,1,2241.9,1.792Zm2.276-1.937a3.619,3.619,0,0,0-1.462,1.219c-.521.769-.936,2.1.049,4.069.962,1.924,2.482,2.073,3.824,2.205a6.192,6.192,0,0,1,1.563.284c1.467-1.057,3.113-3.149,1.991-5.615a4.285,4.285,0,0,0-2.845-2.436,4.876,4.876,0,0,1,2.251,2.376,3.438,3.438,0,0,1-.4,3.669,5.231,5.231,0,0,1-1.446,1.3.215.215,0,0,1-.211-.374,4.876,4.876,0,0,0,1.322-1.194,2.987,2.987,0,0,0,.343-3.222,4.363,4.363,0,0,0-2.39-2.314A3.577,3.577,0,0,0,2244.174-.146Z" transform="translate(-2241.003 1)" fill="#424242" stroke="#424242" stroke-width="0.3"/>
  </g>
</svg>
