<svg xmlns="http://www.w3.org/2000/svg" width="428.413" height="401.662" viewBox="0 0 428.413 401.662">
  <g id="Group_29539" data-name="Group 29539" transform="translate(0 -524.799)">
    <path id="Path_137416" data-name="Path 137416" d="M0,579.358s71.258-11.289,104.025-18.021,95.557-16.208,145.689-22c35.682-4.122,105.6-7.682,137.806-8.2s40.893.917,40.893.917v394.4H0Z" fill="#f5f9fc"/>
    <g id="Group_29538" data-name="Group 29538">
      <path id="Path_137924" data-name="Path 137924" d="M144.929,548.945c-10.059,1.775-19.878,3.542-31.525,5.649A6,6,0,1,0,115.54,566.4c11.632-2.105,21.436-3.87,31.473-5.639a6,6,0,0,0-2.084-11.819Z" fill="#9fd5a4"/>
      <path id="Path_137925" data-name="Path 137925" d="M220.15,536.795c-10.194,1.446-20.577,3.018-31.743,4.8a6,6,0,1,0,1.9,11.849c11.1-1.775,21.41-3.336,31.533-4.772a6,6,0,0,0-1.685-11.881Z" fill="#9fd5a4"/>
      <path id="Path_137926" data-name="Path 137926" d="M70.125,562.37c-11.774,2.072-22.068,3.824-31.472,5.355a6,6,0,1,0,1.929,11.844c9.455-1.541,19.8-3.3,31.622-5.38a6,6,0,1,0-2.079-11.819Z" fill="#9fd5a4"/>
      <path id="Path_137927" data-name="Path 137927" d="M416.639,525.761a6,6,0,1,0-.58,11.986q5.475.266,10.941.617V526.34Q421.825,526.021,416.639,525.761Z" fill="#9fd5a4"/>
      <path id="Path_137928" data-name="Path 137928" d="M372.388,524.8h-.023c-10.557.04-21.389.272-32.2.689a6,6,0,0,0,.227,12c.079,0,.158,0,.236-.005,10.669-.411,21.36-.64,31.778-.68a6,6,0,0,0-.022-12Z" fill="#9fd5a4"/>
      <path id="Path_137929" data-name="Path 137929" d="M296,528.169c-10.4.853-21.172,1.889-32.014,3.08a6,6,0,0,0,.648,11.965,6.18,6.18,0,0,0,.662-.037c10.732-1.179,21.393-2.2,31.684-3.047a6,6,0,0,0-.98-11.961Z" fill="#9fd5a4"/>
      <path id="Path_137930" data-name="Path 137930" d="M1.207,575.71A6,6,0,0,0,0,574.836v10.49a6.033,6.033,0,0,0,1.207-.884,5.988,5.988,0,0,0,1.838-5.133A5.976,5.976,0,0,0,1.207,575.71Z" fill="#9fd5a4"/>
    </g>
  </g>
</svg>
