<svg xmlns="http://www.w3.org/2000/svg" width="309.888" height="305.537" viewBox="0 0 309.888 305.537">
  <g id="Group_31489" data-name="Group 31489" transform="translate(-59.056 -197.463)">
    <circle id="Ellipse_467" data-name="Ellipse 467" cx="27.188" cy="27.188" r="27.188" transform="translate(277.056 252.604)" fill="#f69f8e"/>
    <g id="Group_746" data-name="Group 746" transform="matrix(-0.883, -0.469, 0.469, -0.883, 264.597, 503)">
      <g id="Group_745" data-name="Group 745">
        <g id="Path_70673" data-name="Path 70673" transform="translate(0.848 0.799)">
          <path id="Path_135385" data-name="Path 135385" d="M20.723,55.641C39.395,21.7,75.574-29.846,171.993,22.054s56.354,149.214,9.764,177.169S60.382,238.882,11.393,164.038C-13.906,125.387,9.177,76.627,20.723,55.641Z" fill="#fff"/>
        </g>
        <g id="Path_70674" data-name="Path 70674">
          <path id="Path_135386" data-name="Path 135386" d="M213.49,170.763c-8.765,13.024-19.588,23.471-30.445,29.988C133.922,230.229,59.53,238.634,11.527,165.3c-18.064-27.6-14.849-65.384,9.3-109.274h0C30.406,38.611,44.389,17.263,67.7,6.678,95.371-5.89,130.882-.7,173.244,22.1c48.146,25.914,58.941,60.872,59.519,85.635C233.311,131.178,225.253,153.288,213.49,170.763ZM22.318,56.849c-23.823,43.3-27.063,80.484-9.363,107.52,47.337,72.321,120.74,64.012,169.212,34.922,24.4-14.638,49.823-51.686,48.893-91.512-.566-24.312-11.2-58.648-58.622-84.178C82.282-24.924,44.857,15.886,22.318,56.848Z"/>
        </g>
      </g>
      <g id="Path_70675" data-name="Path 70675" transform="translate(33.033 181.457)">
        <path id="Path_135387" data-name="Path 135387" d="M96.779,32.929a.854.854,0,0,1-.566.363,111.743,111.743,0,0,1-41.04-.473C34.432,28.553,15.946,17.994.234,1.438A.851.851,0,0,1,1.468.264c15.47,16.3,33.654,26.693,54.049,30.889a110.082,110.082,0,0,0,40.416.457.85.85,0,0,1,.85,1.316Z"/>
      </g>
      <g id="Path_70676" data-name="Path 70676" transform="translate(178.833 195.292)">
        <path id="Path_135388" data-name="Path 135388" d="M0,0" fill="none" stroke="#000" stroke-miterlimit="10" stroke-width="1"/>
      </g>
      <g id="Path_70677" data-name="Path 70677" transform="translate(205.621 169.581)">
        <path id="Path_135389" data-name="Path 135389" d="M0,0" fill="none" stroke="#000" stroke-miterlimit="10" stroke-width="1"/>
      </g>
      <g id="Path_70678" data-name="Path 70678" transform="translate(203.497 54.04)">
        <path id="Path_135390" data-name="Path 135390" d="M18.436,30.491a.837.837,0,0,1-.438.331.85.85,0,0,1-1.075-.537v0A84.453,84.453,0,0,0,.205,1.412.865.865,0,0,1,.287.21a.85.85,0,0,1,1.2.082l0,0A86.212,86.212,0,0,1,18.539,29.745.846.846,0,0,1,18.436,30.491Z"/>
      </g>
      <g id="Path_70679" data-name="Path 70679" transform="translate(108.631 6.766)">
        <path id="Path_135391" data-name="Path 135391" d="M16.219,3.731a.849.849,0,0,1-.9.354A110.845,110.845,0,0,0,.773,1.7.852.852,0,1,1,.932,0,112.12,112.12,0,0,1,15.707,2.423a.85.85,0,0,1,.641,1.017.839.839,0,0,1-.126.291Z"/>
      </g>
      <g id="Path_70680" data-name="Path 70680" transform="translate(61.723 8.543)">
        <path id="Path_135392" data-name="Path 135392" d="M21.48,1.328a.85.85,0,0,1-.5.352A67.393,67.393,0,0,0,1.3,10.04.852.852,0,1,1,.4,8.6,69.268,69.268,0,0,1,20.567.027a.85.85,0,0,1,.915,1.3Z"/>
      </g>
      <g id="Path_70681" data-name="Path 70681" transform="translate(6.369 91.098)">
        <path id="Path_135393" data-name="Path 135393" d="M12.339,71.455a.883.883,0,0,1-.24.238.854.854,0,0,1-1.177-.247C-1.527,52.427-3.343,28.591,5.52.594a.851.851,0,0,1,1.623.513c-8.7,27.486-6.951,50.837,5.2,69.406A.853.853,0,0,1,12.339,71.455Z"/>
      </g>
      <g id="Path_70682" data-name="Path 70682" transform="translate(83.562 8.16)">
        <path id="Path_135394" data-name="Path 135394" d="M1.1.12a.71.71,0,1,1-.985.2h0A.71.71,0,0,1,1.1.12Z"/>
      </g>
      <g id="Path_70683" data-name="Path 70683" transform="translate(104.51 6.498)">
        <path id="Path_135395" data-name="Path 135395" d="M1.229.135A.789.789,0,1,1,.135.348h0A.789.789,0,0,1,1.229.135Z"/>
      </g>
      <g id="Path_70684" data-name="Path 70684" transform="translate(176.378 172.618)">
        <path id="Path_135396" data-name="Path 135396" d="M27.556.99C23.356,6.877,17.2,12.639,9.261,18.114c-2.6,1.791-5.427,3.575-8.407,5.3L0,21.947c2.942-1.709,5.735-3.469,8.3-5.236C16.072,11.35,22.085,5.728,26.17,0Z"/>
      </g>
      <g id="Path_70685" data-name="Path 70685" transform="translate(147.399 200.89)">
        <path id="Path_135397" data-name="Path 135397" d="M17.591,1.541A167.194,167.194,0,0,1,.531,8.517L0,6.9A165.706,165.706,0,0,0,16.863,0Z"/>
      </g>
      <g id="Path_70686" data-name="Path 70686" transform="translate(34.836 172.28)">
        <path id="Path_135398" data-name="Path 135398" d="M1.642.179A1.053,1.053,0,1,1,.18.465h0A1.054,1.054,0,0,1,1.642.179Z"/>
      </g>
      <g id="Path_70687" data-name="Path 70687" transform="translate(218.318 95.906)">
        <path id="Path_135399" data-name="Path 135399" d="M2.379.26A1.526,1.526,0,1,1,.26.674,1.526,1.526,0,0,1,2.379.26Z"/>
      </g>
      <g id="Path_70688" data-name="Path 70688" transform="translate(202.093 141.46)">
        <path id="Path_135400" data-name="Path 135400" d="M0,0"/>
      </g>
      <g id="Path_70689" data-name="Path 70689" transform="translate(155.417 40.322)">
        <path id="Path_135401" data-name="Path 135401" d="M1.96.213A1.258,1.258,0,1,1,.214.555h0A1.26,1.26,0,0,1,1.96.213Z"/>
      </g>
      <g id="Path_70690" data-name="Path 70690" transform="translate(161.151 33.548)">
        <path id="Path_135402" data-name="Path 135402" d="M2.279.249a1.462,1.462,0,1,1-2.03.4h0A1.463,1.463,0,0,1,2.279.249Z"/>
      </g>
      <g id="Path_70691" data-name="Path 70691" transform="translate(171.894 32.164)">
        <path id="Path_135403" data-name="Path 135403" d="M4.633.507a2.973,2.973,0,1,1-4.126.806h0A2.973,2.973,0,0,1,4.633.507Z"/>
      </g>
      <g id="Path_70692" data-name="Path 70692" transform="translate(169.671 51.137)">
        <path id="Path_135404" data-name="Path 135404" d="M1.742.191A1.117,1.117,0,1,1,.19.494a1.118,1.118,0,0,1,1.553-.3Z"/>
      </g>
    </g>
    <g id="Group_28397" data-name="Group 28397" transform="translate(154.056 303.148)">
      <g id="Group_26906" data-name="Group 26906" transform="translate(41.415)">
        <g id="Group_26899" data-name="Group 26899" transform="translate(55.812 53.982)">
          <path id="Path_136093" data-name="Path 136093" d="M-1878.791-214.417a1.51,1.51,0,0,0-2.1.381,17.085,17.085,0,0,1-1.551,1.921,18.441,18.441,0,0,1-1.476,1.388,1.51,1.51,0,0,0-.172,2.129,1.507,1.507,0,0,0,1.151.532,1.5,1.5,0,0,0,.978-.36,21.143,21.143,0,0,0,1.728-1.629,20.136,20.136,0,0,0,1.825-2.26A1.51,1.51,0,0,0-1878.791-214.417Z" transform="translate(1884.452 214.686)"/>
        </g>
        <g id="Group_26900" data-name="Group 26900" transform="translate(51.937 60.154)">
          <path id="Path_136094" data-name="Path 136094" d="M-1891.463-201.867l-.047.021a1.509,1.509,0,0,0-.772,1.991,1.509,1.509,0,0,0,1.382.9,1.512,1.512,0,0,0,.609-.129l.11-.05a1.51,1.51,0,0,0,.726-2.009A1.51,1.51,0,0,0-1891.463-201.867Z" transform="translate(1892.412 202.01)"/>
        </g>
        <g id="Group_26901" data-name="Group 26901" transform="translate(0)">
          <path id="Path_136095" data-name="Path 136095" d="M-1926.275-325.564h-68.3a4.517,4.517,0,0,0-4.512,4.512v42.325a4.517,4.517,0,0,0,4.512,4.512h31.8a25.24,25.24,0,0,0,7.061,12.332c3.889,3.779,8.347,5.791,10.07,5.791s6.181-2.012,10.071-5.79a25.246,25.246,0,0,0,7.062-12.333h2.234a4.517,4.517,0,0,0,4.512-4.512v-42.325A4.517,4.517,0,0,0-1926.275-325.564Zm-69.793,12.082h71.284v6.041h-71.284Zm1.491-9.061h68.3a1.493,1.493,0,0,1,1.491,1.491v4.55h-71.284v-4.55A1.493,1.493,0,0,1-1994.577-322.543Zm57,58.4c-3.655,3.59-7.4,4.987-8.062,5.029-.657-.042-4.406-1.439-8.062-5.029a22.294,22.294,0,0,1-6.754-16.262v-7.437a67.606,67.606,0,0,0,14.816-6.266,69.937,69.937,0,0,0,14.815,6.265v7.438A22.292,22.292,0,0,1-1937.58-264.142Zm11.3-13.093h-1.708a27.921,27.921,0,0,0,.179-3.169v-8.582a1.511,1.511,0,0,0-1.114-1.458,66.6,66.6,0,0,1-15.959-6.711,1.51,1.51,0,0,0-1.526,0,64.781,64.781,0,0,1-15.959,6.71,1.511,1.511,0,0,0-1.115,1.458v8.582a27.809,27.809,0,0,0,.179,3.169h-31.279a1.493,1.493,0,0,1-1.491-1.491v-25.694h71.284v25.694A1.493,1.493,0,0,1-1926.275-277.236Z" transform="translate(1999.089 325.564)"/>
        </g>
        <g id="Group_26902" data-name="Group 26902" transform="translate(6.041 31.716)">
          <path id="Path_136096" data-name="Path 136096" d="M-1974.6-260.421a6.8,6.8,0,0,0-2.642.535,6.766,6.766,0,0,0-2.643-.535,6.8,6.8,0,0,0-6.8,6.8,6.8,6.8,0,0,0,6.8,6.8,6.765,6.765,0,0,0,2.643-.535,6.8,6.8,0,0,0,2.642.535,6.8,6.8,0,0,0,6.8-6.8A6.8,6.8,0,0,0-1974.6-260.421Zm-9.061,6.8a3.78,3.78,0,0,1,3.776-3.776,3.779,3.779,0,0,1,3.775,3.776,3.78,3.78,0,0,1-3.775,3.776A3.78,3.78,0,0,1-1983.661-253.625Zm9.436,3.757a6.754,6.754,0,0,0,1.137-3.757,6.756,6.756,0,0,0-1.136-3.757,3.781,3.781,0,0,1,3.4,3.757A3.782,3.782,0,0,1-1974.225-249.868Z" transform="translate(1986.681 260.421)"/>
        </g>
        <g id="Group_26903" data-name="Group 26903" transform="translate(6.041 24.919)">
          <path id="Path_136097" data-name="Path 136097" d="M-1985.171-271.361h7.768a1.51,1.51,0,0,0,1.51-1.51,1.51,1.51,0,0,0-1.51-1.51h-7.768a1.51,1.51,0,0,0-1.51,1.51A1.51,1.51,0,0,0-1985.171-271.361Z" transform="translate(1986.681 274.381)"/>
        </g>
        <g id="Group_26904" data-name="Group 26904" transform="translate(18.202 24.919)">
          <path id="Path_136098" data-name="Path 136098" d="M-1960.193-271.361h.071a1.51,1.51,0,0,0,1.51-1.51,1.51,1.51,0,0,0-1.51-1.51h-.071a1.511,1.511,0,0,0-1.51,1.51A1.511,1.511,0,0,0-1960.193-271.361Z" transform="translate(1961.703 274.381)"/>
        </g>
        <g id="Group_26905" data-name="Group 26905" transform="translate(44.715 41.245)">
          <path id="Path_136099" data-name="Path 136099" d="M-1892.358-240.407l-8.077,8.076-4.232-4.233a1.511,1.511,0,0,0-2.136,0,1.511,1.511,0,0,0,0,2.136l5.3,5.3a1.5,1.5,0,0,0,1.068.443,1.5,1.5,0,0,0,1.068-.443l9.144-9.143a1.51,1.51,0,0,0,0-2.136A1.511,1.511,0,0,0-1892.358-240.407Z" transform="translate(1907.245 240.849)" fill="#8fd89f"/>
        </g>
      </g>
      <g id="Group_2041" data-name="Group 2041" transform="translate(0 14.133)">
        <g id="Ellipse_133" data-name="Ellipse 133" transform="translate(0 0)">
          <path id="Path_136100" data-name="Path 136100" d="M-2065.92-280.755c-9.06,0-18.233-2.71-18.233-7.89s9.173-7.891,18.233-7.891,18.234,2.71,18.234,7.891S-2056.859-280.755-2065.92-280.755Zm0-12.373c-9.592,0-14.825,2.961-14.825,4.483s5.233,4.482,14.825,4.482,14.825-2.961,14.825-4.482S-2056.327-293.128-2065.92-293.128Z" transform="translate(2084.153 296.536)"/>
        </g>
        <g id="Path_106530" data-name="Path 106530" transform="translate(0 15.918)">
          <path id="Path_136101" data-name="Path 136101" d="M-2065.92-254.249c-9.06,0-18.233-2.709-18.233-7.888a1.7,1.7,0,0,1,1.7-1.7,1.7,1.7,0,0,1,1.7,1.7c0,1.52,5.233,4.48,14.825,4.48s14.823-2.96,14.823-4.48a1.7,1.7,0,0,1,1.7-1.7,1.7,1.7,0,0,1,1.7,1.7C-2047.689-256.958-2056.86-254.249-2065.92-254.249Z" transform="translate(2084.153 263.841)"/>
        </g>
        <g id="Path_106531" data-name="Path 106531" transform="translate(0 25.572)">
          <path id="Path_136102" data-name="Path 136102" d="M-2065.92-234.418c-9.06,0-18.233-2.71-18.233-7.89a1.7,1.7,0,0,1,1.7-1.7,1.7,1.7,0,0,1,1.7,1.7c0,1.521,5.233,4.482,14.825,4.482s14.823-2.961,14.823-4.482a1.7,1.7,0,0,1,1.7-1.7,1.7,1.7,0,0,1,1.7,1.7C-2047.689-237.128-2056.86-234.418-2065.92-234.418Z" transform="translate(2084.153 244.012)"/>
        </g>
      </g>
      <g id="Group_26909" data-name="Group 26909" transform="translate(6.837 56.475)">
        <g id="Group_26907" data-name="Group 26907" transform="translate(0 0)">
          <path id="Path_136103" data-name="Path 136103" d="M-2002.659-171.346h-65.747a1.7,1.7,0,0,1-1.7-1.7v-34.812a1.7,1.7,0,0,1,1.7-1.7h65.747a1.7,1.7,0,0,1,1.7,1.7v34.812A1.7,1.7,0,0,1-2002.659-171.346Zm-64.043-3.408h62.339v-31.4H-2066.7Z" transform="translate(2070.11 209.566)"/>
        </g>
        <g id="Group_26908" data-name="Group 26908" transform="translate(24.367 8.9)">
          <path id="Path_136104" data-name="Path 136104" d="M-2009.851-170.865a10.222,10.222,0,0,1-10.21-10.21,10.222,10.222,0,0,1,10.21-10.21,10.221,10.221,0,0,1,10.21,10.21A10.221,10.221,0,0,1-2009.851-170.865Zm0-17.012a6.81,6.81,0,0,0-6.8,6.8,6.81,6.81,0,0,0,6.8,6.8,6.81,6.81,0,0,0,6.8-6.8A6.81,6.81,0,0,0-2009.851-187.877Z" transform="translate(2020.061 191.285)"/>
        </g>
      </g>
      <g id="Group_26910" data-name="Group 26910" transform="translate(13.181 62.631)">
        <path id="Path_136105" data-name="Path 136105" d="M-2055.571-193.9h7.769a1.511,1.511,0,0,0,1.51-1.51,1.51,1.51,0,0,0-1.51-1.51h-7.769a1.51,1.51,0,0,0-1.51,1.51A1.51,1.51,0,0,0-2055.571-193.9Z" transform="translate(2057.081 196.923)"/>
      </g>
      <g id="Group_26911" data-name="Group 26911" transform="translate(13.181 67.962)">
        <path id="Path_136106" data-name="Path 136106" d="M-2055.163-182.953h9.87a1.752,1.752,0,0,0,1.919-1.51,1.752,1.752,0,0,0-1.919-1.51h-9.87a1.752,1.752,0,0,0-1.918,1.51A1.751,1.751,0,0,0-2055.163-182.953Z" transform="translate(2057.081 185.973)"/>
      </g>
      <g id="Group_26912" data-name="Group 26912" transform="translate(25.341 62.631)">
        <path id="Path_136107" data-name="Path 136107" d="M-2030.593-193.9h.072a1.511,1.511,0,0,0,1.51-1.51,1.51,1.51,0,0,0-1.51-1.51h-.072a1.51,1.51,0,0,0-1.51,1.51A1.51,1.51,0,0,0-2030.593-193.9Z" transform="translate(2032.103 196.923)"/>
      </g>
      <g id="Group_26913" data-name="Group 26913" transform="translate(54.473 85.09)">
        <path id="Path_136108" data-name="Path 136108" d="M-1970.758-147.77h7.768a1.51,1.51,0,0,0,1.51-1.51,1.51,1.51,0,0,0-1.51-1.51h-7.768a1.51,1.51,0,0,0-1.51,1.51A1.51,1.51,0,0,0-1970.758-147.77Z" transform="translate(1972.268 150.791)"/>
      </g>
      <g id="Group_26914" data-name="Group 26914" transform="translate(66.634 85.09)">
        <path id="Path_136109" data-name="Path 136109" d="M-1945.78-147.77h.072a1.51,1.51,0,0,0,1.51-1.51,1.51,1.51,0,0,0-1.51-1.51h-.072a1.51,1.51,0,0,0-1.51,1.51A1.51,1.51,0,0,0-1945.78-147.77Z" transform="translate(1947.29 150.791)"/>
      </g>
    </g>
  </g>
</svg>
