<svg xmlns="http://www.w3.org/2000/svg" xmlns:xlink="http://www.w3.org/1999/xlink" width="428" height="926" viewBox="0 0 428 926"><defs><clipPath id="b"><rect width="428" height="926"/></clipPath></defs><g id="a" clip-path="url(#b)"><rect width="428" height="926" fill="#fff"/><g transform="translate(-901.77)"><circle cx="27.188" cy="27.188" r="27.188" transform="translate(1184.77 266.421)" fill="#f69f8e"/></g><g transform="translate(-901.77)"><path d="M1179.734,456.864c-32.406,21.212-88.527,49.76-149.324-41.289s20.221-158.186,74.471-161.019,125.774,21.906,133.929,110.969C1243.022,411.519,1199.771,443.748,1179.734,456.864Z" fill="#fff"/></g><g transform="translate(-901.77)"><path d="M1063.887,265.906c13.848-7.389,28.3-11.538,40.947-12.2,57.2-2.991,126.831,24.478,134.824,111.745,3.006,32.843-17.553,64.7-59.461,92.127h0c-16.626,10.885-38.986,23.177-64.534,21.591-30.327-1.88-59.25-23.118-85.962-63.118-30.359-45.462-23.5-81.393-12.392-103.53C1027.819,291.564,1045.3,275.82,1063.887,265.906Zm115.379,190.246c41.343-27.061,61.644-58.375,58.694-90.549-7.88-86.06-76.591-113.149-133.035-110.2-28.411,1.482-68.235,22.272-86.092,57.874-10.9,21.733-17.616,57.039,12.284,101.823,56.849,85.131,109.035,66.648,148.149,41.049Z"/></g><g transform="translate(-901.77)"><path d="M1158.234,266.632a.855.855,0,0,1,.67-.055,111.714,111.714,0,0,1,36.016,19.666c16.314,13.494,27.685,31.488,33.794,53.476a.852.852,0,1,1-1.641.457c-6.015-21.648-17.2-39.353-33.238-52.624a110.051,110.051,0,0,0-35.473-19.358.85.85,0,0,1-.133-1.561Z"/></g><g transform="translate(-901.77)"><path d="M1105.993,260.5" fill="none" stroke="#000" stroke-miterlimit="9.998" stroke-width="1"/></g><g transform="translate(-901.77)"><path d="M1070.281,270.641" fill="none" stroke="#000" stroke-miterlimit="9.998" stroke-width="1"/></g><g transform="translate(-901.77)"><path d="M1015.989,338.09a.837.837,0,0,1,.542-.087.849.849,0,0,1,.7.978h0a84.43,84.43,0,0,0,1.221,33.336.866.866,0,0,1-.636,1.023.851.851,0,0,1-1.021-.635h0a86.213,86.213,0,0,1-1.243-34A.843.843,0,0,1,1015.989,338.09Z"/></g><g transform="translate(-901.77)"><path d="M1066.991,448.994a.848.848,0,0,1,.961.109,110.737,110.737,0,0,0,11.725,8.928.854.854,0,1,1-.937,1.427,112.122,112.122,0,0,1-11.91-9.069.849.849,0,0,1-.089-1.2h0a.848.848,0,0,1,.247-.2Z"/></g><g transform="translate(-901.77)"><path d="M1103.472,469.079a.851.851,0,0,1,.606-.077,67.351,67.351,0,0,0,21.3,1.848.852.852,0,1,1,.26,1.684.836.836,0,0,1-.141.01,69.269,69.269,0,0,1-21.828-1.888.849.849,0,0,1-.2-1.577Z"/></g><g transform="translate(-901.77)"><path d="M1232.029,364.509a.871.871,0,0,1,.323-.1.855.855,0,0,1,.924.77c2.072,22.633-7.5,44.531-28.46,65.1a.851.851,0,0,1-1.192-1.214h0c20.573-20.19,29.98-41.629,27.959-63.724A.854.854,0,0,1,1232.029,364.509Z"/></g><g transform="translate(-901.77)"><path d="M1101.437,469.8a.71.71,0,1,1,.964.286h0a.711.711,0,0,1-.963-.284Z"/></g><g transform="translate(-901.77)"><path d="M1082.054,461.368a.789.789,0,1,1,1.067.325h0A.788.788,0,0,1,1082.054,461.368Z"/></g><g transform="translate(-901.77)"><path d="M1073.659,267.876c6.47-3.228,14.608-5.429,24.186-6.54,3.135-.362,6.468-.611,9.909-.737l.066,1.7c-3.4.129-6.691.373-9.785.731-9.377,1.088-17.323,3.232-23.616,6.374Z"/></g><g transform="translate(-901.77)"><path d="M1121.565,260.69a167.208,167.208,0,0,1,18.335,1.841l-.289,1.677a165.9,165.9,0,0,0-18.126-1.816Z"/></g><g transform="translate(-901.77)"><path d="M1220.984,347.428a1.053,1.053,0,1,1,1.425.433h0A1.055,1.055,0,0,1,1220.984,347.428Z"/></g><g transform="translate(-901.77)"><path d="M1022.537,328.4a1.526,1.526,0,1,1,2.065.628,1.525,1.525,0,0,1-2.065-.628Z"/></g><g transform="translate(-901.77)"><path d="M1060.207,297.126"/></g><g transform="translate(-901.77)"><path d="M1052.358,407.215a1.258,1.258,0,1,1,1.7.517h0A1.26,1.26,0,0,1,1052.358,407.215Z"/></g><g transform="translate(-901.77)"><path d="M1043.853,410.326a1.462,1.462,0,1,1,1.98.6h0a1.462,1.462,0,0,1-1.98-.6Z"/></g><g transform="translate(-901.77)"><path d="M1031.76,405.177a2.972,2.972,0,1,1,4.022,1.223h0A2.973,2.973,0,0,1,1031.76,405.177Z"/></g><g transform="translate(-901.77)"><path d="M1045.026,391.1a1.117,1.117,0,1,1,1.512.46,1.117,1.117,0,0,1-1.512-.46h0Z"/></g><g transform="translate(-901.77)"><path d="M901.77,579.358s71.258-11.289,104.024-18.021,95.558-16.208,145.689-22c35.683-4.122,105.6-7.682,137.807-8.2s40.892.917,40.892.917v394.4H901.77Z" fill="#f5f9fc"/><path d="M1046.7,548.945c-10.059,1.775-19.878,3.542-31.526,5.649a6,6,0,0,0,1.062,11.905,6.067,6.067,0,0,0,1.075-.1c11.632-2.105,21.436-3.87,31.473-5.639a6,6,0,0,0-2.084-11.819Z" fill="#9fd5a4"/><path d="M1121.919,536.795c-10.193,1.446-20.577,3.018-31.743,4.8a6,6,0,1,0,1.9,11.849c11.095-1.775,21.41-3.336,31.533-4.772a6,6,0,1,0-1.686-11.881Z" fill="#9fd5a4"/><path d="M971.9,562.37c-11.774,2.072-22.069,3.824-31.472,5.355a6,6,0,0,0,.957,11.923,6.061,6.061,0,0,0,.972-.079c9.454-1.541,19.8-3.3,31.622-5.38A6,6,0,1,0,971.9,562.37Z" fill="#9fd5a4"/><path d="M1318.409,525.761a6,6,0,1,0-.58,11.986q5.474.266,10.941.617V526.34Q1323.593,526.021,1318.409,525.761Z" fill="#9fd5a4"/><path d="M1274.158,524.8h-.024c-10.556.04-21.388.272-32.2.689a6,6,0,0,0,.227,12c.078,0,.157,0,.236-.005,10.668-.411,21.359-.64,31.777-.68a6,6,0,0,0-.021-12Z" fill="#9fd5a4"/><path d="M1197.77,528.169c-10.4.853-21.173,1.889-32.015,3.08a6,6,0,0,0,.648,11.965,6.2,6.2,0,0,0,.663-.037c10.732-1.179,21.392-2.2,31.684-3.047a6,6,0,0,0-.98-11.961Z" fill="#9fd5a4"/><path d="M902.976,575.71a6,6,0,0,0-1.206-.874v10.49a6,6,0,0,0,1.206-9.616Z" fill="#9fd5a4"/></g><g transform="translate(-901.77 39.654)"><path d="M1094.5,105.65a18.7,18.7,0,0,0-14.131-14.818h0a18.706,18.706,0,0,0-22.434,13.963,18.5,18.5,0,0,0,.26,9.357,13.248,13.248,0,0,1,5.088-.991,13.5,13.5,0,0,1,15.915-17.3h0a13.535,13.535,0,0,1,10.224,10.713l2.366,2.112Z" fill="#8fd89f"/><path d="M1124.921,145.034h-3.86a15.827,15.827,0,0,1-5.056,6.084h0a15.97,15.97,0,0,1-20.681-1.668l-2.6.047.084,4.653a21.02,21.02,0,0,0,10.465,4.894,21.42,21.42,0,0,0,3.411.274,21.017,21.017,0,0,0,12.354-4.015h0a20.872,20.872,0,0,0,6.524-7.752,21.616,21.616,0,0,0,1.057-2.518Z" fill="#8fd89f"/><path d="M1101.658,149.338l-.094-5.164-9.573.174-4.429.08.051,2.782.2,11.22,5.163-.093-.076-4.188-.084-4.654,2.605-.047Z" fill="#8fd89f"/><path d="M1136.188,110.2a14.327,14.327,0,0,1,28.121.973l2.315,2.111,2.767-3.035a19.483,19.483,0,0,0-38.588,5.327,14.068,14.068,0,0,1,5.027-2.276A14.315,14.315,0,0,1,1136.188,110.2Z" fill="#8fd89f"/><path d="M1056.576,138.735q-2.5-3.115-2.5-9.43,0-6.18,2.522-9.316a8.171,8.171,0,0,1,6.7-3.135,9.9,9.9,0,0,1,4.248.863,6.85,6.85,0,0,1,2.885,2.452h.273V108.446h6.226V141.3h-5.318l-.409-3.135h-.318a7.314,7.314,0,0,1-3.046,2.749,9.488,9.488,0,0,1-4.226.932A8.517,8.517,0,0,1,1056.576,138.735Zm14.134-8.976v-.727q0-6.771-5.09-6.771a4.519,4.519,0,0,0-3.954,1.659,8.674,8.674,0,0,0-1.184,5.022v.817a8.689,8.689,0,0,0,1.181,5.022,4.516,4.516,0,0,0,3.954,1.658q5.091,0,5.092-6.68Z" fill="#f69f8e"/><path d="M1082.614,138.761q-3-3.044-3-9.453t3-9.452q3-3.045,9.134-3.045t9.158,3.045q3.019,3.046,3.022,9.452t-3.022,9.453q-3.024,3.047-9.158,3.045T1082.614,138.761Zm13.543-3.794a8.539,8.539,0,0,0,1.362-5.295v-.727a8.549,8.549,0,0,0-1.362-5.3,5.25,5.25,0,0,0-4.409-1.75,5.178,5.178,0,0,0-4.385,1.75,8.66,8.66,0,0,0-1.341,5.3v.728a8.653,8.653,0,0,0,1.341,5.295,5.176,5.176,0,0,0,4.385,1.749,5.248,5.248,0,0,0,4.409-1.75Z" fill="#f69f8e"/><path d="M1105.9,117.361h5.317l.454,3.135h.318a9.094,9.094,0,0,1,7.457-3.681,8.085,8.085,0,0,1,5.793,2q2.114,2,2.113,6.406v16.043h-6.227V126.54a3.65,3.65,0,0,0-4.136-4.226,4.563,4.563,0,0,0-3.476,1.476,5.141,5.141,0,0,0-1.386,3.658v13.816H1105.9Z" fill="#f69f8e"/><path d="M1130.23,147.831a5.072,5.072,0,0,1-1.726-3.954q0-3.183,3.681-4.863a3.82,3.82,0,0,1-2.318-3.59,3.477,3.477,0,0,1,1.181-2.612,6.642,6.642,0,0,1,3.045-1.568,7.06,7.06,0,0,1-3.5-6.453,7.186,7.186,0,0,1,2.749-5.953q2.75-2.182,7.84-2.183a15.292,15.292,0,0,1,4.816.682,5.33,5.33,0,0,0,1.977-2.067,4.726,4.726,0,0,0,.613-2.068h6.09a5.866,5.866,0,0,1-1.341,4.022,6.856,6.856,0,0,1-3.8,2.067,7.21,7.21,0,0,1,2.273,5.5,7.289,7.289,0,0,1-2.659,5.953q-2.656,2.181-7.611,2.181h-3.634a2.092,2.092,0,0,0-1.295.365,1.185,1.185,0,0,0-.478,1,1.232,1.232,0,0,0,.409.931,1.516,1.516,0,0,0,1.09.386H1148.5a5.988,5.988,0,0,1,4.408,1.774,6.266,6.266,0,0,1,1.772,4.634,6.554,6.554,0,0,1-1.182,3.864,7.631,7.631,0,0,1-3.226,2.59,10.959,10.959,0,0,1-4.5.908h-11.317A6.119,6.119,0,0,1,1130.23,147.831Zm15.452-2.772a3.137,3.137,0,0,0,1.955-.592,1.983,1.983,0,0,0,.068-3.089,2.771,2.771,0,0,0-1.75-.546h-8.771a2.563,2.563,0,0,0-1.7.591,1.869,1.869,0,0,0-.7,1.5,1.944,1.944,0,0,0,.682,1.545,2.551,2.551,0,0,0,1.727.591Zm-1.181-17.384a4.235,4.235,0,0,0,0-5.772,4.809,4.809,0,0,0-3.317-1.021,4.725,4.725,0,0,0-3.3,1.021,4.3,4.3,0,0,0,0,5.772,4.722,4.722,0,0,0,3.3,1.021A4.805,4.805,0,0,0,1144.5,127.675Z" fill="#f69f8e"/><path d="M1158.129,139.818q-2.114-2-2.113-6.406V119.5h6.225v12.6a3.649,3.649,0,0,0,4.136,4.226,4.567,4.567,0,0,0,3.474-1.477,5.138,5.138,0,0,0,1.386-3.658V119.5h6.226v21.775h-5.314l-.455-3.136h-.317a9.092,9.092,0,0,1-7.454,3.682A8.088,8.088,0,0,1,1158.129,139.818Z" fill="#f69f8e"/><path d="M1082.675,107.564l6.112,5.461,3.193,2.852,2-2.239,6.312-7.067-3.852-3.439-2.158,2.418-2.713,3.037-2.365-2.113-3.089-2.758Z" fill="#f69f8e"/><path d="M1171.888,107.377l-2.5,2.739-2.767,3.035-2.316-2.111-3.458-3.153-1.967,2.159-1.512,1.658,1.512,1.379,4.934,4.5,3.144,2.866,2.043-2.242,6.7-7.348Z" fill="#f69f8e"/></g><g transform="translate(-901.77)"><path d="M1146.485,377.585l-10.691,10.689-5.6-5.6a2,2,0,1,0-2.827,2.827l7.015,7.016a2,2,0,0,0,2.827,0l12.1-12.1a2,2,0,0,0,0-2.827h0A2,2,0,0,0,1146.485,377.585Z" fill="#8fd89f"/><path d="M1141.947,401.916a2,2,0,0,0,2.818.228,27.9,27.9,0,0,0,2.288-2.156,26.687,26.687,0,0,0,2.415-2.991,2,2,0,0,0-.505-2.781l0,0a2,2,0,0,0-2.779.505,22.673,22.673,0,0,1-2.053,2.542,24.439,24.439,0,0,1-1.954,1.838,2,2,0,0,0-.228,2.817Z"/><path d="M1137.533,402.245a2,2,0,0,0-1.023,2.633v0a2,2,0,0,0,2.636,1.021l.145-.067a2,2,0,0,0,.962-2.658h0a2,2,0,0,0-2.658-.958Z"/><path d="M1077.589,359.388h10.282a2,2,0,1,0,0-4h-10.282a2,2,0,0,0-2,2h0A2,2,0,0,0,1077.589,359.388Z"/><path d="M1093.686,359.388h.094a2,2,0,1,0,0-4h-.094a2,2,0,1,0,0,4Z"/><path d="M1163.972,322.407h-90.4a5.979,5.979,0,0,0-5.972,5.972V384.4a5.979,5.979,0,0,0,5.972,5.972h42.091a33.413,33.413,0,0,0,9.346,16.323c5.148,5,11.049,7.665,13.329,7.665s8.182-2.663,13.33-7.664a33.419,33.419,0,0,0,9.348-16.324h2.957a5.979,5.979,0,0,0,5.972-5.972V328.379A5.979,5.979,0,0,0,1163.972,322.407Zm-92.381,5.972a1.975,1.975,0,0,1,1.976-1.973h90.4a1.975,1.975,0,0,1,1.973,1.973V334.4h-94.352Zm86.36,53.8a29.5,29.5,0,0,1-8.942,21.526h0c-4.838,4.751-9.795,6.6-10.671,6.656-.87-.056-5.832-1.9-10.671-6.656a29.511,29.511,0,0,1-8.94-21.525v-9.844a89.488,89.488,0,0,0,19.611-8.293,92.576,92.576,0,0,0,19.609,8.292Zm7.992,2.22a1.976,1.976,0,0,1-1.971,1.975h-2.263a37.224,37.224,0,0,0,.237-4.2V370.821a2,2,0,0,0-1.475-1.93,88.114,88.114,0,0,1-21.123-8.883,2,2,0,0,0-2.02,0,85.754,85.754,0,0,1-21.124,8.882,2,2,0,0,0-1.475,1.93v11.359a36.978,36.978,0,0,0,.236,4.194h-41.4a1.975,1.975,0,0,1-1.973-1.973V350.391h94.352Zm0-38.005h-94.352v-8h94.353Z"/><circle cx="6.617" cy="6.617" r="6.617" transform="translate(1083.618 367.383)" fill="#fff" stroke="#000" stroke-miterlimit="10" stroke-width="4"/><circle cx="6.617" cy="6.617" r="6.617" transform="translate(1075.591 367.383)" fill="#fff" stroke="#000" stroke-miterlimit="10" stroke-width="4"/></g></g></svg>