<svg xmlns="http://www.w3.org/2000/svg" width="428.414" height="401.199" viewBox="0 0 428.414 401.199">
  <g id="Group_29535" data-name="Group 29535" transform="translate(0.414 -524.796)">
    <path id="Path_137414" data-name="Path 137414" d="M-.414,587.275s69.432-14.1,102.2-20.828S242.55,543.211,249.973,542.28s109.5-10.29,141.706-10.8,36.321,0,36.321,0V925.995H-.414Z" fill="#f5f9fc"/>
    <g id="Group_29534" data-name="Group 29534">
      <path id="Path_137912" data-name="Path 137912" d="M217.95,551.64a6.124,6.124,0,0,0,.85-.061c10.79-1.529,21.444-2.962,31.666-4.256a6,6,0,1,0-1.507-11.9c-10.281,1.3-20.995,2.741-31.843,4.279a6,6,0,0,0,.834,11.942Z" fill="#9fd5a4"/>
      <g id="Group_29533" data-name="Group 29533">
        <path id="Path_137913" data-name="Path 137913" d="M142.8,563.421a6.047,6.047,0,0,0,1.014-.086c10.682-1.82,21.3-3.571,31.553-5.205a6,6,0,0,0-1.888-11.851c-10.3,1.641-20.956,3.4-31.68,5.226a6,6,0,0,0,1,11.916Z" fill="#9fd5a4"/>
        <path id="Path_137914" data-name="Path 137914" d="M67.925,577.071a6.078,6.078,0,0,0,1.147-.11c10.486-2.032,21.064-4.03,31.437-5.941a6,6,0,1,0-2.173-11.8c-10.41,1.918-21.024,3.924-31.546,5.962a6,6,0,0,0,1.135,11.891Z" fill="#9fd5a4"/>
        <path id="Path_137915" data-name="Path 137915" d="M293.473,542.368a5.955,5.955,0,0,0,.609-.03c10.977-1.107,21.666-2.06,31.771-2.834a6,6,0,0,0-.916-11.965c-10.2.781-20.986,1.743-32.059,2.86a6,6,0,0,0,.6,11.969Z" fill="#9fd5a4"/>
        <path id="Path_137916" data-name="Path 137916" d="M30.576,578.513a6,6,0,0,0-7.093-4.658c-10.309,2.135-18.463,3.879-23.9,5.058v12.28C4.8,590.055,13.875,588.1,25.918,585.6A6,6,0,0,0,30.576,578.513Z" fill="#9fd5a4"/>
        <path id="Path_137917" data-name="Path 137917" d="M369.378,537.109l.184,0c6.867-.205,13.546-.31,19.852-.31q1.629,0,3.245.01,4.341.024,8.608.11a6,6,0,0,0,.24-12q-4.353-.086-8.777-.112-1.65-.011-3.316-.01c-6.425,0-13.225.107-20.211.316a6,6,0,0,0,.175,12Z" fill="#9fd5a4"/>
      </g>
    </g>
  </g>
</svg>
