<svg xmlns="http://www.w3.org/2000/svg" xmlns:xlink="http://www.w3.org/1999/xlink" width="428" height="926" viewBox="0 0 428 926"><defs><clipPath id="b"><rect width="428" height="926"/></clipPath></defs><g id="a" clip-path="url(#b)"><rect width="428" height="926" fill="#fff"/><g transform="translate(0 -1.532)"><path d="M172.144,161.5a36.622,36.622,0,0,0-27.667-29.013h0a36.624,36.624,0,0,0-43.922,27.338,36.231,36.231,0,0,0,.509,18.32,25.969,25.969,0,0,1,9.961-1.941,26.433,26.433,0,0,1,31.161-33.869h0A26.5,26.5,0,0,1,162.2,163.308l4.633,4.135Z" fill="#8fd89f"/><path d="M231.705,238.6h-7.557a30.991,30.991,0,0,1-9.9,11.911h0a31.267,31.267,0,0,1-40.491-3.265l-5.1.091.165,9.111a41.149,41.149,0,0,0,20.489,9.582,41.967,41.967,0,0,0,6.679.536,41.152,41.152,0,0,0,24.186-7.86h0a40.879,40.879,0,0,0,12.774-15.178,41.89,41.89,0,0,0,2.069-4.93Z" fill="#8fd89f"/><path d="M186.159,247.032l-.184-10.111-18.743.34-8.672.157.1,5.448.4,21.966,10.109-.182-.149-8.2-.165-9.112,5.1-.092Z" fill="#8fd89f"/><path d="M253.764,170.412a28.05,28.05,0,0,1,55.057,1.906l4.533,4.133,5.417-5.942a38.144,38.144,0,0,0-75.55,10.428,27.554,27.554,0,0,1,9.842-4.456A28.045,28.045,0,0,1,253.764,170.412Z" fill="#8fd89f"/><path d="M97.895,226.273Q93,220.172,93,207.809q0-12.1,4.938-18.24a16,16,0,0,1,13.126-6.138,19.384,19.384,0,0,1,8.318,1.691,13.4,13.4,0,0,1,5.649,4.8h.534V166.97h12.19V231.3H127.342l-.8-6.138h-.622a14.308,14.308,0,0,1-5.964,5.382,18.6,18.6,0,0,1-8.274,1.825Q102.787,232.367,97.895,226.273ZM125.566,208.7v-1.424q0-13.255-9.965-13.256-5.427,0-7.742,3.247t-2.317,9.832v1.6q0,6.584,2.312,9.832t7.742,3.247q9.967,0,9.969-13.078Z" fill="#f69f8e"/><path d="M148.874,226.323Q143,220.364,143,207.816t5.872-18.507q5.873-5.96,17.883-5.961t17.929,5.961q5.914,5.964,5.917,18.507t-5.917,18.507q-5.921,5.964-17.929,5.962T148.874,226.323Zm26.514-7.429q2.67-3.425,2.668-10.367V207.1q0-6.943-2.668-10.367t-8.632-3.426q-5.961,0-8.585,3.426T155.546,207.1v1.424q0,6.94,2.625,10.367t8.585,3.426q5.963,0,8.633-3.428Z" fill="#f69f8e"/><path d="M194.457,184.424h10.409l.89,6.139h.622a17.8,17.8,0,0,1,14.6-7.207q7.2,0,11.342,3.915t4.137,12.543v31.409H224.265V202.4q0-4.357-2.048-6.317t-6.049-1.957a8.942,8.942,0,0,0-6.807,2.889,10.065,10.065,0,0,0-2.713,7.163v27.049H194.457Z" fill="#f69f8e"/><path d="M242.1,244.08a9.925,9.925,0,0,1-3.381-7.74q0-6.232,7.207-9.521a7.48,7.48,0,0,1-4.537-7.03,6.81,6.81,0,0,1,2.312-5.114,12.993,12.993,0,0,1,5.962-3.07q-6.851-4.181-6.85-12.634a14.075,14.075,0,0,1,5.383-11.655q5.384-4.273,15.349-4.273a29.893,29.893,0,0,1,9.43,1.335,10.451,10.451,0,0,0,3.871-4.048,9.265,9.265,0,0,0,1.2-4.048h11.923a11.486,11.486,0,0,1-2.625,7.874,13.442,13.442,0,0,1-7.431,4.047,14.117,14.117,0,0,1,4.45,10.767,14.27,14.27,0,0,1-5.206,11.655q-5.2,4.271-14.9,4.271h-7.116a4.085,4.085,0,0,0-2.536.713,2.321,2.321,0,0,0-.935,1.957,2.412,2.412,0,0,0,.8,1.823,2.98,2.98,0,0,0,2.135.756h21.266a11.71,11.71,0,0,1,8.63,3.472,12.267,12.267,0,0,1,3.47,9.073,12.829,12.829,0,0,1-2.314,7.565,14.931,14.931,0,0,1-6.317,5.071,21.469,21.469,0,0,1-8.806,1.778H250.376A11.972,11.972,0,0,1,242.1,244.08Zm30.253-5.427a6.136,6.136,0,0,0,3.826-1.158,3.891,3.891,0,0,0,.134-6.049,5.434,5.434,0,0,0-3.426-1.069H255.714a5.026,5.026,0,0,0-3.336,1.158,3.654,3.654,0,0,0-1.38,2.934,3.809,3.809,0,0,0,1.335,3.025,4.989,4.989,0,0,0,3.381,1.158Zm-2.314-34.035a8.292,8.292,0,0,0,0-11.3q-2.225-2-6.494-2t-6.453,2a8.415,8.415,0,0,0,0,11.3q2.18,2,6.453,2T270.039,204.618Z" fill="#f69f8e"/><path d="M296.722,228.393q-4.138-3.911-4.137-12.543V188.609h12.187v24.663q0,4.36,2.048,6.317t6.051,1.957a8.941,8.941,0,0,0,6.8-2.891,10.063,10.063,0,0,0,2.715-7.162V188.609h12.189v42.633h-10.4l-.89-6.14h-.622a17.8,17.8,0,0,1-14.593,7.209Q300.861,232.309,296.722,228.393Z" fill="#f69f8e"/><path d="M148.992,165.244l11.967,10.691,6.252,5.585,3.916-4.385L183.485,163.3l-7.542-6.734-4.225,4.734-5.312,5.947-4.631-4.137-6.047-5.4Z" fill="#f69f8e"/><path d="M323.661,164.878l-4.888,5.362-5.417,5.942-4.534-4.133-6.77-6.173L298.2,170.1l-2.96,3.247,2.96,2.7,9.661,8.808,6.155,5.612,4-4.39,13.116-14.386Z" fill="#f69f8e"/></g><path d="M-.414,587.275s69.432-14.1,102.2-20.828S242.55,543.211,249.973,542.28s109.5-10.29,141.706-10.8,36.321,0,36.321,0V925.995H-.414Z" fill="#f5f9fc"/><path d="M217.95,551.64a6.124,6.124,0,0,0,.85-.061c10.79-1.529,21.444-2.962,31.666-4.256a6,6,0,1,0-1.507-11.9c-10.281,1.3-20.995,2.741-31.843,4.279a6,6,0,0,0,.834,11.942Z" fill="#9fd5a4"/><path d="M142.8,563.421a6.047,6.047,0,0,0,1.014-.086c10.682-1.82,21.3-3.571,31.553-5.205a6,6,0,0,0-1.888-11.851c-10.3,1.641-20.956,3.4-31.68,5.226a6,6,0,0,0,1,11.916Z" fill="#9fd5a4"/><path d="M67.925,577.071a6.078,6.078,0,0,0,1.147-.11c10.486-2.032,21.064-4.03,31.437-5.941a6,6,0,1,0-2.173-11.8c-10.41,1.918-21.024,3.924-31.546,5.962a6,6,0,0,0,1.135,11.891Z" fill="#9fd5a4"/><path d="M293.473,542.368a5.955,5.955,0,0,0,.609-.03c10.977-1.107,21.666-2.06,31.771-2.834a6,6,0,0,0-.916-11.965c-10.2.781-20.986,1.743-32.059,2.86a6,6,0,0,0,.6,11.969Z" fill="#9fd5a4"/><path d="M30.576,578.513a6,6,0,0,0-7.093-4.658c-10.309,2.135-18.463,3.879-23.9,5.058v12.28C4.8,590.055,13.875,588.1,25.918,585.6A6,6,0,0,0,30.576,578.513Z" fill="#9fd5a4"/><path d="M369.378,537.109l.184,0c6.867-.205,13.546-.31,19.852-.31q1.629,0,3.245.01,4.341.024,8.608.11a6,6,0,0,0,.24-12q-4.353-.086-8.777-.112-1.65-.011-3.316-.01c-6.425,0-13.225.107-20.211.316a6,6,0,0,0,.175,12Z" fill="#9fd5a4"/></g></svg>