<svg xmlns="http://www.w3.org/2000/svg" width="319.612" height="318.58" viewBox="0 0 319.612 318.58">
  <g id="Group_29759" data-name="Group 29759" transform="translate(-55 -205.318)">
    <g id="Group_746" data-name="Group 746" transform="translate(55 357.141) rotate(-41)">
      <g id="Group_745" data-name="Group 745">
        <g id="Path_70673" data-name="Path 70673" transform="translate(0.843 0.794)">
          <path id="Path_135385" data-name="Path 135385" d="M20.6,55.313C39.163,21.571,75.129-29.67,170.979,21.924S227,170.258,180.686,198.049,60.027,237.474,11.327,163.071C-13.824,124.648,9.123,76.175,20.6,55.313Z" fill="#fff"/>
        </g>
        <g id="Path_70674" data-name="Path 70674">
          <path id="Path_135386" data-name="Path 135386" d="M212.232,169.756c-8.713,12.947-19.473,23.332-30.265,29.811-48.834,29.3-122.788,37.659-170.507-35.241C-6.5,136.891-3.3,99.328,20.7,55.7h0C30.227,38.383,44.128,17.162,67.3,6.639,94.809-5.855,130.11-.7,172.223,21.972c47.861,25.762,58.593,60.513,59.168,85.13C231.935,130.405,223.926,152.384,212.232,169.756ZM22.186,56.514C-1.5,99.563-4.717,136.523,12.878,163.4c47.058,71.895,120.028,63.634,168.215,34.716,24.254-14.551,49.529-51.381,48.6-90.973-.563-24.168-11.13-58.3-58.276-83.681C81.8-24.777,44.593,15.793,22.187,56.513Z"/>
        </g>
      </g>
      <g id="Path_70675" data-name="Path 70675" transform="translate(32.838 180.387)">
        <path id="Path_135387" data-name="Path 135387" d="M96.209,32.735a.849.849,0,0,1-.563.361,111.084,111.084,0,0,1-40.8-.47c-20.619-4.242-39-14.739-54.615-31.2A.846.846,0,0,1,1.459.263C16.838,16.466,34.915,26.8,55.19,30.97a109.434,109.434,0,0,0,40.178.455.845.845,0,0,1,.845,1.308Z"/>
      </g>
      <g id="Path_70676" data-name="Path 70676" transform="translate(177.779 194.14)">
        <path id="Path_135388" data-name="Path 135388" d="M0,0" fill="none" stroke="#000" stroke-miterlimit="10" stroke-width="1"/>
      </g>
      <g id="Path_70677" data-name="Path 70677" transform="translate(204.409 168.581)">
        <path id="Path_135389" data-name="Path 135389" d="M0,0" fill="none" stroke="#000" stroke-miterlimit="10" stroke-width="1"/>
      </g>
      <g id="Path_70678" data-name="Path 70678" transform="translate(202.297 53.721)">
        <path id="Path_135390" data-name="Path 135390" d="M18.328,30.312a.834.834,0,0,1-.435.329.845.845,0,0,1-1.069-.533v0A83.957,83.957,0,0,0,.2,1.4.861.861,0,0,1,.285.208.845.845,0,0,1,1.477.289l0,0A85.7,85.7,0,0,1,18.43,29.57.841.841,0,0,1,18.328,30.312Z"/>
      </g>
      <g id="Path_70679" data-name="Path 70679" transform="translate(107.991 6.727)">
        <path id="Path_135391" data-name="Path 135391" d="M16.123,3.709a.843.843,0,0,1-.891.351A110.2,110.2,0,0,0,.768,1.69.847.847,0,1,1,.926,0a111.451,111.451,0,0,1,14.688,2.4.847.847,0,0,1,.512,1.3Z"/>
      </g>
      <g id="Path_70680" data-name="Path 70680" transform="translate(61.359 8.493)">
        <path id="Path_135392" data-name="Path 135392" d="M21.354,1.32a.843.843,0,0,1-.5.35A66.987,66.987,0,0,0,1.3,9.981.847.847,0,1,1,.4,8.546,68.865,68.865,0,0,1,20.446.027a.845.845,0,0,1,.91,1.293Z"/>
      </g>
      <g id="Path_70681" data-name="Path 70681" transform="translate(6.331 90.561)">
        <path id="Path_135393" data-name="Path 135393" d="M12.266,71.034a.883.883,0,0,1-.239.236.849.849,0,0,1-1.17-.246C-1.518,52.118-3.323,28.423,5.488.591A.846.846,0,0,1,7.1,1.1c-8.65,27.324-6.91,50.538,5.173,69A.85.85,0,0,1,12.266,71.034Z"/>
      </g>
      <g id="Path_70682" data-name="Path 70682" transform="translate(83.07 8.112)">
        <path id="Path_135394" data-name="Path 135394" d="M1.1.119a.706.706,0,1,1-.979.2h0A.706.706,0,0,1,1.1.119Z"/>
      </g>
      <g id="Path_70683" data-name="Path 70683" transform="translate(103.894 6.46)">
        <path id="Path_135395" data-name="Path 135395" d="M1.222.134A.784.784,0,1,1,.134.346h0A.784.784,0,0,1,1.222.134Z"/>
      </g>
      <g id="Path_70684" data-name="Path 70684" transform="translate(175.338 171.601)">
        <path id="Path_135396" data-name="Path 135396" d="M27.394.984C23.219,6.836,17.1,12.564,9.207,18.008c-2.58,1.78-5.394,3.554-8.357,5.273L0,21.818c2.924-1.7,5.7-3.448,8.247-5.2C15.977,11.283,21.955,5.694,26.016,0Z"/>
      </g>
      <g id="Path_70685" data-name="Path 70685" transform="translate(146.53 199.706)">
        <path id="Path_135397" data-name="Path 135397" d="M17.487,1.531A166.167,166.167,0,0,1,.528,8.467L0,6.858A164.675,164.675,0,0,0,16.764,0Z"/>
      </g>
      <g id="Path_70686" data-name="Path 70686" transform="translate(34.631 171.264)">
        <path id="Path_135398" data-name="Path 135398" d="M1.632.178A1.047,1.047,0,1,1,.178.462h0A1.048,1.048,0,0,1,1.632.178Z"/>
      </g>
      <g id="Path_70687" data-name="Path 70687" transform="translate(217.031 95.34)">
        <path id="Path_135399" data-name="Path 135399" d="M2.365.258A1.517,1.517,0,1,1,.258.67,1.517,1.517,0,0,1,2.365.258Z"/>
      </g>
      <g id="Path_70688" data-name="Path 70688" transform="translate(200.902 140.627)">
        <path id="Path_135400" data-name="Path 135400" d="M0,0"/>
      </g>
      <g id="Path_70689" data-name="Path 70689" transform="translate(154.501 40.084)">
        <path id="Path_135401" data-name="Path 135401" d="M1.949.212A1.25,1.25,0,1,1,.213.552h0A1.252,1.252,0,0,1,1.949.212Z"/>
      </g>
      <g id="Path_70690" data-name="Path 70690" transform="translate(160.201 33.35)">
        <path id="Path_135402" data-name="Path 135402" d="M2.266.248A1.454,1.454,0,1,1,.248.642h0A1.454,1.454,0,0,1,2.266.248Z"/>
      </g>
      <g id="Path_70691" data-name="Path 70691" transform="translate(170.881 31.975)">
        <path id="Path_135403" data-name="Path 135403" d="M4.606.5a2.955,2.955,0,1,1-4.1.8h0A2.956,2.956,0,0,1,4.606.5Z"/>
      </g>
      <g id="Path_70692" data-name="Path 70692" transform="translate(168.67 50.836)">
        <path id="Path_135404" data-name="Path 135404" d="M1.732.19a1.111,1.111,0,1,1-1.543.3A1.111,1.111,0,0,1,1.732.19Z"/>
      </g>
    </g>
    <g id="Group_28308" data-name="Group 28308" transform="translate(172 306.462)">
      <g id="Group_1321" data-name="Group 1321" transform="translate(0)">
        <path id="Path_106183" data-name="Path 106183" d="M-2227.975,57.616h-16.915V43.2a1.941,1.941,0,0,0-.061-.511l-2.388-10.478a2.1,2.1,0,0,0-2.062-1.645h-37.374a2.1,2.1,0,0,0-2.061,1.645l-2.386,10.472a1.964,1.964,0,0,0-.062.512V57.616H-2308.2a2.117,2.117,0,0,0-2.115,2.115v79.657a2.107,2.107,0,0,0,.621,1.5l5.5,5.482a2.1,2.1,0,0,0,1.494.617h24.306a2.118,2.118,0,0,0,2.115-2.115,2.118,2.118,0,0,0-2.115-2.115h-23.432l-4.256-4.245V61.846h14.8V73.03a2.117,2.117,0,0,0,2.115,2.115h10.54a2.118,2.118,0,0,0,2.116-2.115V61.846h16.854V73.03a2.117,2.117,0,0,0,2.115,2.115h10.54a2.117,2.117,0,0,0,2.115-2.115V61.846h14.8V138.51l-4.259,4.245h-23.432a2.118,2.118,0,0,0-2.115,2.115,2.117,2.117,0,0,0,2.115,2.115h24.308a2.1,2.1,0,0,0,1.493-.617l5.5-5.482a2.1,2.1,0,0,0,.622-1.5V59.731A2.12,2.12,0,0,0-2227.975,57.616Zm-52.769,13.3h-6.311V45.3h6.311Zm21.084-13.3h-16.854V45.3h16.854Zm-26.858-16.541,1.432-6.282h34l1.431,6.282Zm37.4,29.839h-6.311V45.3h6.311Z" transform="translate(2310.315 -30.563)"/>
        <path id="Path_106184" data-name="Path 106184" d="M-2216,285.253a2.111,2.111,0,0,0-1.17-.35,2.125,2.125,0,0,0-1.317.453,2.134,2.134,0,0,0-.674,2.368,2.128,2.128,0,0,0,1.921,1.4,2.129,2.129,0,0,0,2.021-1.306A2.149,2.149,0,0,0-2216,285.253Z" transform="translate(2259.44 -172.704)"/>
      </g>
      <g id="Group_1327" data-name="Group 1327" transform="translate(17.636 61.424)">
        <g id="Group_1323" data-name="Group 1323" transform="translate(11.798 20.599)">
          <g id="Group_1322" data-name="Group 1322">
            <g id="Path_8" data-name="Path 8" transform="translate(3.302 0.551)">
              <path id="Path_106185" data-name="Path 106185" d="M-2214.592,218.635h-2.47a10.149,10.149,0,0,1-3.24,3.9h0a10.228,10.228,0,0,1-13.246-1.068l-1.67.03.053,2.981a13.463,13.463,0,0,0,6.7,3.134,13.752,13.752,0,0,0,2.185.176,13.47,13.47,0,0,0,7.913-2.572h0a13.378,13.378,0,0,0,4.178-4.965,13.648,13.648,0,0,0,.677-1.613Z" transform="translate(2235.611 -218.243)" fill="#8fd89f"/>
              <path id="Path_106186" data-name="Path 106186" d="M-2226.776,227.68a14.173,14.173,0,0,1-2.247-.18,13.842,13.842,0,0,1-6.9-3.226.391.391,0,0,1-.135-.288l-.054-2.981a.391.391,0,0,1,.384-.4l1.67-.03a.382.382,0,0,1,.285.115,9.791,9.791,0,0,0,12.74,1.027,9.763,9.763,0,0,0,3.115-3.747.394.394,0,0,1,.355-.225h3.551a.389.389,0,0,1,.318.165.389.389,0,0,1,.051.355,14.224,14.224,0,0,1-.7,1.658,13.815,13.815,0,0,1-4.3,5.108A13.768,13.768,0,0,1-2226.776,227.68Zm-8.5-3.884a13.058,13.058,0,0,0,6.375,2.931,13.413,13.413,0,0,0,2.123.171,12.993,12.993,0,0,0,7.682-2.5,13.031,13.031,0,0,0,4.057-4.82c.17-.343.327-.694.467-1.05h-2.744a10.564,10.564,0,0,1-3.255,3.822,10.57,10.57,0,0,1-13.634-.991l-1.114.02Z" transform="translate(2236.106 -217.747)" fill="#8fd89f"/>
            </g>
            <g id="Path_9" data-name="Path 9">
              <path id="Path_106187" data-name="Path 106187" d="M-2233.675,220.694l-.061-3.308-6.132.111-2.837.052.033,1.783.13,7.186,3.307-.06-.048-2.681-.054-2.981,1.669-.03Z" transform="translate(2243.096 -216.995)" fill="#8fd89f"/>
              <path id="Path_106188" data-name="Path 106188" d="M-2243.038,226.413a.391.391,0,0,1-.391-.384l-.163-8.969a.4.4,0,0,1,.11-.279.4.4,0,0,1,.275-.12l8.969-.163a.4.4,0,0,1,.4.384l.06,3.308a.39.39,0,0,1-.11.279.393.393,0,0,1-.275.12l-5.271.1.1,5.27a.4.4,0,0,1-.11.279.391.391,0,0,1-.275.12l-3.307.06Zm.236-8.976.148,8.186,2.525-.045-.1-5.271a.392.392,0,0,1,.385-.4l5.271-.1-.046-2.525Z" transform="translate(2243.592 -216.499)" fill="#8fd89f"/>
            </g>
          </g>
        </g>
        <g id="Group_1326" data-name="Group 1326" transform="translate(0)">
          <g id="Group_1324" data-name="Group 1324">
            <path id="Path_106189" data-name="Path 106189" d="M-2267.941,185.024a1.827,1.827,0,0,1-1.706-1.174,10.3,10.3,0,0,1-.69-3.7,10.364,10.364,0,0,1,10.352-10.351,10.363,10.363,0,0,1,10.352,10.351,1.826,1.826,0,0,1-1.826,1.826,1.826,1.826,0,0,1-1.826-1.826,6.708,6.708,0,0,0-6.7-6.7,6.707,6.707,0,0,0-6.7,6.7,6.688,6.688,0,0,0,.448,2.39,1.827,1.827,0,0,1-1.052,2.358A1.828,1.828,0,0,1-2267.941,185.024Z" transform="translate(2270.336 -169.803)" fill="#8fd89f"/>
          </g>
          <g id="Group_1325" data-name="Group 1325" transform="translate(28.48 1.129)">
            <path id="Path_106190" data-name="Path 106190" d="M-2188.782,189.878a1.821,1.821,0,0,1-1.145-.4,1.827,1.827,0,0,1-.277-2.567,6.62,6.62,0,0,0,1.479-4.193,6.707,6.707,0,0,0-6.7-6.7,6.707,6.707,0,0,0-6.7,6.7,1.826,1.826,0,0,1-1.825,1.826,1.826,1.826,0,0,1-1.827-1.826,10.363,10.363,0,0,1,10.352-10.352,10.363,10.363,0,0,1,10.352,10.352,10.376,10.376,0,0,1-2.287,6.483A1.822,1.822,0,0,1-2188.782,189.878Z" transform="translate(2205.776 -172.362)" fill="#8fd89f"/>
          </g>
        </g>
      </g>
    </g>
  </g>
</svg>
