<svg xmlns="http://www.w3.org/2000/svg" width="27.32" height="27.32" viewBox="0 0 27.32 27.32">
  <path id="Path_138646" data-name="Path 138646" d="M8.494,18.058a1,1,0,1,1,0-2h5.818V8.234a.984.984,0,0,1,.984-.984.982.982,0,0,1,.724.288.948.948,0,0,1,.288.7V17.06a.964.964,0,0,1-.288.71.981.981,0,0,1-.724.288Zm6.816,12.1a13.111,13.111,0,0,0,5.284-1.075A14,14,0,0,0,27.9,21.775,13.135,13.135,0,0,0,28.97,16.5,13.135,13.135,0,0,0,27.9,11.221,14,14,0,0,0,20.58,3.906,13.185,13.185,0,0,0,15.3,2.838,13.116,13.116,0,0,0,10.04,3.906a14,14,0,0,0-7.322,7.315A13.135,13.135,0,0,0,1.65,16.5a13.061,13.061,0,0,0,1.075,5.277,14.043,14.043,0,0,0,7.315,7.308A13.076,13.076,0,0,0,15.31,30.158Z" transform="translate(-1.65 -2.838)" fill="#ffbc41"/>
</svg>
