<svg xmlns="http://www.w3.org/2000/svg" width="73.243" height="87.891" viewBox="0 0 73.243 87.891">
  <g id="Group_29747" data-name="Group 29747" transform="translate(1643.021 348.794)">
    <path id="Path_137903" data-name="Path 137903" d="M-1578.567-337.075h2.93a5.86,5.86,0,0,0,5.859-5.859,5.86,5.86,0,0,0-5.859-5.86h-51.27a7.333,7.333,0,0,0-7.324,7.324v.706a19.371,19.371,0,0,1-2.143,8.688,63.473,63.473,0,0,0-6.646,28.2v41.511a1.465,1.465,0,0,0,1.465,1.465h70.313a1.465,1.465,0,0,0,1.465-1.465v-41.511a63.153,63.153,0,0,0-8.789-32.109Zm0-5.859a2.929,2.929,0,0,1,2.93-2.93,2.929,2.929,0,0,1,2.929,2.93,2.929,2.929,0,0,1-2.929,2.93h-2.93Zm-11.719,79.1h-49.805v-40.046a60.52,60.52,0,0,1,6.338-26.889,22.28,22.28,0,0,0,2.451-10v-.706a4.394,4.394,0,0,1,4.395-4.395h46.2a5.814,5.814,0,0,0-.787,2.93v6.946a63.144,63.144,0,0,0-8.789,32.109Zm4.649,0,5.6-6.537,5.6,6.537Zm12.929-40.042v37.547l-5.859-6.835v-6.784a1.465,1.465,0,0,0-1.465-1.465,1.465,1.465,0,0,0-1.465,1.465v6.784l-5.86,6.84v-37.556a60.228,60.228,0,0,1,5.86-25.872V-315.1a1.465,1.465,0,0,0,1.465,1.465,1.465,1.465,0,0,0,1.465-1.465v-14.648A60.215,60.215,0,0,1-1572.708-303.875Z" fill="#424242"/>
    <path id="Path_137904" data-name="Path 137904" d="M-1497.048-240.736a1.465,1.465,0,0,0,1.465-1.465v-8.789a1.465,1.465,0,0,0-1.465-1.465,1.465,1.465,0,0,0-1.465,1.465v8.789A1.466,1.466,0,0,0-1497.048-240.736Z" transform="translate(-82.984 -55.323)" fill="#424242"/>
    <path id="Path_137905" data-name="Path 137905" d="M-1576.9-310.947h-30.762a1.465,1.465,0,0,0-1.391,1l-2.93,8.789a1.465,1.465,0,0,0,.2,1.319,1.465,1.465,0,0,0,1.188.608h30.762a1.466,1.466,0,0,0,1.388-1l2.93-8.789a1.454,1.454,0,0,0-.2-1.318A1.463,1.463,0,0,0-1576.9-310.947Zm-3.986,8.789h-27.675l1.954-5.859h27.673Z" transform="translate(-17.782 -21.734)" fill="#424242"/>
    <path id="Path_137906" data-name="Path 137906" d="M-1579.249-273.61a1.465,1.465,0,0,0,1.465-1.465,1.465,1.465,0,0,0-1.465-1.465h-17.578a1.465,1.465,0,0,0-1.465,1.465,1.465,1.465,0,0,0,1.465,1.465Z" transform="translate(-25.686 -41.492)" fill="#424242"/>
    <path id="Path_137907" data-name="Path 137907" d="M-1586.505-321.779h17.578a1.466,1.466,0,0,0,1.465-1.465,1.465,1.465,0,0,0-1.465-1.465h-17.578a1.465,1.465,0,0,0-1.464,1.465A1.465,1.465,0,0,0-1586.505-321.779Z" transform="translate(-31.614 -13.831)" fill="#424242"/>
    <path id="Path_137908" data-name="Path 137908" d="M-1498.031-212.554a2.185,2.185,0,0,0-2.184,2.188,2.191,2.191,0,0,0,2.192,2.188,2.188,2.188,0,0,0,2.188-2.188,2.188,2.188,0,0,0-2.188-2.188Z" transform="translate(-82.007 -78.237)" fill="#424242"/>
    <path id="Path_137909" data-name="Path 137909" d="M-1581.9-195.517h-2.9a.321.321,0,0,0-.289.183,7.972,7.972,0,0,1-2.542,3.057,7.984,7.984,0,0,1-9.81-.307l2.5-.045a.321.321,0,0,0,.224-.1.318.318,0,0,0,.089-.227l-.049-2.7a.325.325,0,0,0-.325-.314l-7.318.133a.322.322,0,0,0-.224.1.321.321,0,0,0-.089.227l.133,7.318a.319.319,0,0,0,.319.313h.006l2.7-.049a.32.32,0,0,0,.224-.1.32.32,0,0,0,.089-.228l-.026-1.458a11.291,11.291,0,0,0,5.031,2.15,11.558,11.558,0,0,0,1.833.147,11.234,11.234,0,0,0,6.644-2.159,11.272,11.272,0,0,0,3.509-4.168,11.6,11.6,0,0,0,.568-1.353.319.319,0,0,0-.042-.29A.319.319,0,0,0-1581.9-195.517Z" transform="translate(-23.194 -87.762)" fill="#8fd89f"/>
    <path id="Path_137910" data-name="Path 137910" d="M-1611.33-227a1.49,1.49,0,0,0,1.49,1.49,1.49,1.49,0,0,0,1.49-1.49,8.456,8.456,0,0,0-8.447-8.447,8.456,8.456,0,0,0-8.447,8.447,8.4,8.4,0,0,0,.563,3.015,1.49,1.49,0,0,0,1.392.958,1.481,1.481,0,0,0,.532-.1,1.49,1.49,0,0,0,.859-1.924,5.439,5.439,0,0,1-.366-1.95,5.473,5.473,0,0,1,5.467-5.467A5.473,5.473,0,0,1-1611.33-227Z" transform="translate(-10.209 -65.09)" fill="#8fd89f"/>
    <path id="Path_137911" data-name="Path 137911" d="M-1562.212-233.283a8.456,8.456,0,0,0-8.447,8.447,1.49,1.49,0,0,0,1.49,1.49,1.49,1.49,0,0,0,1.49-1.49,5.473,5.473,0,0,1,5.467-5.467,5.473,5.473,0,0,1,5.466,5.467,5.4,5.4,0,0,1-1.207,3.421,1.49,1.49,0,0,0,.226,2.1,1.486,1.486,0,0,0,.933.329,1.488,1.488,0,0,0,1.162-.556,8.468,8.468,0,0,0,1.866-5.29A8.456,8.456,0,0,0-1562.212-233.283Z" transform="translate(-41.554 -66.333)" fill="#8fd89f"/>
  </g>
</svg>
