<svg xmlns="http://www.w3.org/2000/svg" width="175.953" height="98.361" viewBox="0 0 175.953 98.361">
  <g id="Group_29748" data-name="Group 29748" transform="translate(-120.484 -148.639)">
    <g id="Group_28387" data-name="Group 28387" transform="translate(120.484 148.639)">
      <g id="Component_7_52" data-name="Component 7 – 52">
        <g id="Group_1" data-name="Group 1">
          <path id="Path_6" data-name="Path 6" d="M103.087,415.205a26.672,26.672,0,0,0-20.151-21.131h0a26.675,26.675,0,0,0-31.988,19.912,26.387,26.387,0,0,0,.371,13.343,18.92,18.92,0,0,1,7.255-1.414A19.224,19.224,0,0,1,76.9,400.742a19.322,19.322,0,0,1,4.37.5h0a19.3,19.3,0,0,1,14.579,15.278l3.374,3.012Z" transform="translate(-45.443 -393.376)" fill="#8fd89f"/>
          <path id="Path_8" data-name="Path 8" d="M132.066,448.937h-5.5a22.573,22.573,0,0,1-7.208,8.676h0a22.773,22.773,0,0,1-29.492-2.378l-3.718.066.12,6.636a29.971,29.971,0,0,0,14.923,6.979,30.561,30.561,0,0,0,4.864.391,29.972,29.972,0,0,0,17.616-5.725h0a29.773,29.773,0,0,0,9.3-11.055,30.56,30.56,0,0,0,1.507-3.591Z" transform="translate(-31.041 -370.947)" fill="#8fd89f"/>
          <path id="Path_9" data-name="Path 9" d="M100.947,455.434l-.134-7.364-13.651.248-6.316.115.072,3.968.29,16,7.363-.132-.108-5.969-.12-6.636,3.717-.067Z" transform="translate(-33.096 -371.307)" fill="#8fd89f"/>
          <path id="Path_10" data-name="Path 10" d="M132.711,420.207a20.465,20.465,0,0,1,19.885-15.88A20.459,20.459,0,0,1,172.812,421.6l3.3,3.01,3.946-4.328a27.781,27.781,0,0,0-55.027,7.594,20.074,20.074,0,0,1,7.168-3.245A20.453,20.453,0,0,1,132.711,420.207Z" transform="translate(-15.621 -391.885)" fill="#8fd89f"/>
          <g id="Group_451" data-name="Group 451" transform="translate(0 18.237)">
            <path id="Path_1" data-name="Path 1" d="M50.423,455.041q-3.564-4.441-3.565-13.448,0-8.812,3.6-13.285a11.655,11.655,0,0,1,9.56-4.471,14.123,14.123,0,0,1,6.059,1.231,9.758,9.758,0,0,1,4.114,3.5h.389V411.848h8.878V458.7H71.873l-.583-4.471h-.453a10.421,10.421,0,0,1-4.344,3.92,13.548,13.548,0,0,1-6.026,1.329Q53.986,459.479,50.423,455.041Zm20.154-12.8V441.2q0-9.655-7.258-9.655-3.953,0-5.638,2.365T56,441.075v1.166q0,4.8,1.684,7.161t5.638,2.365Q70.575,451.767,70.577,442.241Z" transform="translate(-46.858 -404.27)" fill="#f69f8e"/>
            <path id="Path_2" data-name="Path 2" d="M77.077,451.619Q72.8,447.278,72.8,438.14t4.277-13.479q4.278-4.341,13.025-4.342t13.059,4.342q4.307,4.344,4.31,13.479t-4.31,13.479q-4.312,4.344-13.059,4.342T77.077,451.619Zm19.311-5.411q1.945-2.494,1.943-7.551v-1.036q0-5.057-1.943-7.551t-6.287-2.5q-4.341,0-6.253,2.5t-1.912,7.551v1.036q0,5.055,1.912,7.551t6.253,2.5Q94.443,448.7,96.388,446.209Z" transform="translate(-36.382 -400.812)" fill="#f69f8e"/>
            <path id="Path_3" data-name="Path 3" d="M99.484,421.1h7.582l.648,4.471h.453a12.963,12.963,0,0,1,10.63-5.249q5.248,0,8.261,2.852t3.013,9.136v22.876h-8.877v-21q0-3.174-1.492-4.6a6.147,6.147,0,0,0-4.406-1.425,6.514,6.514,0,0,0-4.958,2.1,7.329,7.329,0,0,0-1.976,5.217v19.7H99.484Z" transform="translate(-25.589 -400.807)" fill="#f69f8e"/>
            <path id="Path_4" data-name="Path 4" d="M124.935,466.243a7.228,7.228,0,0,1-2.463-5.637q0-4.539,5.249-6.935a5.448,5.448,0,0,1-3.3-5.121,4.959,4.959,0,0,1,1.684-3.725,9.464,9.464,0,0,1,4.342-2.236,10.065,10.065,0,0,1-4.989-9.2,10.25,10.25,0,0,1,3.92-8.489q3.921-3.112,11.179-3.112a21.777,21.777,0,0,1,6.868.972,7.612,7.612,0,0,0,2.819-2.948,6.751,6.751,0,0,0,.875-2.948H159.8a8.365,8.365,0,0,1-1.912,5.735,9.787,9.787,0,0,1-5.412,2.948,10.281,10.281,0,0,1,3.241,7.842,10.392,10.392,0,0,1-3.792,8.489q-3.789,3.11-10.855,3.111h-5.183a2.977,2.977,0,0,0-1.847.519,1.692,1.692,0,0,0-.681,1.425,1.756,1.756,0,0,0,.583,1.328,2.169,2.169,0,0,0,1.555.551h15.489a8.53,8.53,0,0,1,6.285,2.529,8.933,8.933,0,0,1,2.528,6.608,9.341,9.341,0,0,1-1.686,5.51,10.879,10.879,0,0,1-4.6,3.694,15.624,15.624,0,0,1-6.414,1.3H130.962A8.721,8.721,0,0,1,124.935,466.243Zm22.035-3.953a4.468,4.468,0,0,0,2.787-.844,2.833,2.833,0,0,0,.1-4.406,3.956,3.956,0,0,0-2.5-.778H134.85a3.662,3.662,0,0,0-2.43.843,2.662,2.662,0,0,0-1,2.137,2.775,2.775,0,0,0,.972,2.2,3.632,3.632,0,0,0,2.463.844ZM145.283,437.5a6.039,6.039,0,0,0,0-8.23,6.848,6.848,0,0,0-4.73-1.458,6.728,6.728,0,0,0-4.7,1.458,6.13,6.13,0,0,0,0,8.23,6.729,6.729,0,0,0,4.7,1.459A6.85,6.85,0,0,0,145.283,437.5Z" transform="translate(-16.339 -402.503)" fill="#f69f8e"/>
            <path id="Path_5" data-name="Path 5" d="M153.4,452.013q-3.015-2.849-3.013-9.136V423.037h8.877V441q0,3.176,1.492,4.6a6.139,6.139,0,0,0,4.407,1.425,6.513,6.513,0,0,0,4.956-2.106,7.33,7.33,0,0,0,1.977-5.217V423.037h8.878v31.051h-7.582l-.648-4.472h-.453a12.962,12.962,0,0,1-10.629,5.251Q156.411,454.867,153.4,452.013Z" transform="translate(-5.017 -399.698)" fill="#f69f8e"/>
            <path id="Path_7" data-name="Path 7" d="M75.893,412.687l8.716,7.787,4.553,4.068,2.852-3.193,9-10.078-5.493-4.9-3.078,3.445-3.869,4.331L85.2,411.129,80.8,407.2Z" transform="translate(-35.112 -406.365)" fill="#f69f8e"/>
            <path id="Path_11" data-name="Path 11" d="M172.45,410.679l-3.56,3.905-3.945,4.328-3.3-3.011-4.931-4.5-2.806,3.078-2.156,2.365,2.156,1.966,7.036,6.415,4.483,4.087,2.915-3.2,9.553-10.478Z" transform="translate(-4.45 -404.624)" fill="#f69f8e"/>
          </g>
        </g>
      </g>
    </g>
  </g>
</svg>
