<svg xmlns="http://www.w3.org/2000/svg" width="65.583" height="36.662" viewBox="0 0 65.583 36.662">
  <g id="Group_28458" data-name="Group 28458" transform="translate(-184 -65.457)">
    <g id="Component_7_33" data-name="Component 7 – 33" transform="translate(184 65.457)">
      <g id="Group_1" data-name="Group 1">
        <path id="Path_6" data-name="Path 6" d="M69.954,401.513a9.942,9.942,0,0,0-7.511-7.876h0a9.942,9.942,0,0,0-11.923,7.422,9.835,9.835,0,0,0,.138,4.973,7.053,7.053,0,0,1,2.7-.527,7.166,7.166,0,0,1,6.83-9.382,7.2,7.2,0,0,1,1.629.188h0A7.194,7.194,0,0,1,67.254,402l1.258,1.123Z" transform="translate(-48.468 -393.376)" fill="#8fd89f"/>
        <path id="Path_8" data-name="Path 8" d="M103.26,448.937h-2.052a8.414,8.414,0,0,1-2.687,3.234h0a8.488,8.488,0,0,1-10.992-.886l-1.386.025.045,2.474a11.172,11.172,0,0,0,5.562,2.6,11.4,11.4,0,0,0,1.813.146,11.172,11.172,0,0,0,6.566-2.134h0a11.1,11.1,0,0,0,3.468-4.12,11.392,11.392,0,0,0,.562-1.338Z" transform="translate(-65.605 -419.867)" fill="#8fd89f"/>
        <path id="Path_9" data-name="Path 9" d="M88.339,450.815l-.05-2.745-5.088.092-2.354.043.027,1.479.108,5.963,2.744-.049-.04-2.225L83.64,450.9l1.385-.025Z" transform="translate(-63.048 -419.458)" fill="#8fd89f"/>
        <path id="Path_10" data-name="Path 10" d="M127.781,405.63a7.628,7.628,0,0,1,7.412-5.919,7.625,7.625,0,0,1,7.535,6.436l1.231,1.122,1.471-1.613a10.355,10.355,0,0,0-20.511,2.831,7.483,7.483,0,0,1,2.672-1.21A7.624,7.624,0,0,1,127.781,405.63Z" transform="translate(-84.137 -395.073)" fill="#8fd89f"/>
        <g id="Group_451" data-name="Group 451" transform="translate(0 6.798)">
          <path id="Path_1" data-name="Path 1" d="M48.187,427.947a7.913,7.913,0,0,1-1.329-5.013,7.78,7.78,0,0,1,1.34-4.952,4.344,4.344,0,0,1,3.563-1.666,5.264,5.264,0,0,1,2.258.459,3.637,3.637,0,0,1,1.534,1.3H55.7v-6.232h3.309v17.464H56.182l-.217-1.666H55.8a3.884,3.884,0,0,1-1.619,1.461,5.05,5.05,0,0,1-2.246.5A4.528,4.528,0,0,1,48.187,427.947Zm7.512-4.771v-.387q0-3.6-2.705-3.6a2.4,2.4,0,0,0-2.1.881,4.614,4.614,0,0,0-.628,2.669v.435a4.613,4.613,0,0,0,.628,2.669,2.4,2.4,0,0,0,2.1.881Q55.7,426.727,55.7,423.177Z" transform="translate(-46.858 -409.023)" fill="#f69f8e"/>
          <path id="Path_2" data-name="Path 2" d="M74.394,431.986q-1.594-1.618-1.594-5.024t1.594-5.024a6.544,6.544,0,0,1,4.855-1.618,6.589,6.589,0,0,1,4.867,1.618q1.606,1.619,1.606,5.024t-1.606,5.024a6.587,6.587,0,0,1-4.867,1.618A6.541,6.541,0,0,1,74.394,431.986Zm7.2-2.017a4.541,4.541,0,0,0,.724-2.814v-.386a4.541,4.541,0,0,0-.724-2.814,2.789,2.789,0,0,0-2.343-.93,2.752,2.752,0,0,0-2.331.93,4.6,4.6,0,0,0-.713,2.814v.386a4.6,4.6,0,0,0,.713,2.814,2.752,2.752,0,0,0,2.331.93A2.789,2.789,0,0,0,81.592,429.969Z" transform="translate(-59.226 -413.048)" fill="#f69f8e"/>
          <path id="Path_3" data-name="Path 3" d="M99.484,420.609h2.826l.242,1.666h.169a4.832,4.832,0,0,1,3.962-1.957,4.3,4.3,0,0,1,3.079,1.063,4.505,4.505,0,0,1,1.123,3.405v8.527h-3.309v-7.826a1.94,1.94,0,0,0-2.2-2.246,2.428,2.428,0,0,0-1.848.784,2.732,2.732,0,0,0-.736,1.944v7.343h-3.31Z" transform="translate(-71.941 -413.046)" fill="#f69f8e"/>
          <path id="Path_4" data-name="Path 4" d="M123.39,435.269a2.694,2.694,0,0,1-.918-2.1,2.814,2.814,0,0,1,1.957-2.585,2.031,2.031,0,0,1-1.232-1.909,1.848,1.848,0,0,1,.628-1.388,3.527,3.527,0,0,1,1.618-.833,3.752,3.752,0,0,1-1.86-3.43,3.82,3.82,0,0,1,1.461-3.164,6.564,6.564,0,0,1,4.167-1.16,8.116,8.116,0,0,1,2.56.362,2.837,2.837,0,0,0,1.051-1.1,2.516,2.516,0,0,0,.326-1.1h3.237a3.118,3.118,0,0,1-.713,2.138,3.648,3.648,0,0,1-2.017,1.1,3.832,3.832,0,0,1,1.208,2.923,3.873,3.873,0,0,1-1.413,3.164,6.228,6.228,0,0,1-4.046,1.16h-1.932a1.109,1.109,0,0,0-.688.194.631.631,0,0,0-.254.531.654.654,0,0,0,.217.495.808.808,0,0,0,.58.205H133.1a3.18,3.18,0,0,1,2.343.943,3.33,3.33,0,0,1,.942,2.463,3.481,3.481,0,0,1-.628,2.054,4.055,4.055,0,0,1-1.715,1.377,5.825,5.825,0,0,1-2.391.483h-6.015A3.25,3.25,0,0,1,123.39,435.269ZM131.6,433.8a1.666,1.666,0,0,0,1.039-.314,1.056,1.056,0,0,0,.036-1.642,1.475,1.475,0,0,0-.93-.29h-4.662a1.365,1.365,0,0,0-.906.314.992.992,0,0,0-.375.8,1.034,1.034,0,0,0,.362.821,1.354,1.354,0,0,0,.918.314Zm-.628-9.24a2.251,2.251,0,0,0,0-3.068,2.553,2.553,0,0,0-1.763-.543,2.508,2.508,0,0,0-1.752.543,2.285,2.285,0,0,0,0,3.068,2.508,2.508,0,0,0,1.752.544A2.553,2.553,0,0,0,130.975,424.556Z" transform="translate(-82.913 -411.511)" fill="#f69f8e"/>
          <path id="Path_5" data-name="Path 5" d="M151.506,433.837a4.5,4.5,0,0,1-1.123-3.405v-7.4h3.309v6.695a1.94,1.94,0,0,0,2.2,2.246,2.428,2.428,0,0,0,1.847-.785,2.732,2.732,0,0,0,.737-1.944v-6.212h3.309v11.574h-2.826l-.242-1.667h-.169a4.831,4.831,0,0,1-3.962,1.957A4.3,4.3,0,0,1,151.506,433.837Z" transform="translate(-96.2 -414.338)" fill="#f69f8e"/>
          <path id="Path_7" data-name="Path 7" d="M75.893,408.722l3.249,2.9,1.7,1.516,1.063-1.19,3.355-3.756-2.047-1.828-1.147,1.284-1.442,1.614-1.257-1.123-1.642-1.466Z" transform="translate(-60.693 -406.365)" fill="#f69f8e"/>
          <path id="Path_11" data-name="Path 11" d="M159.465,410.679l-1.327,1.456-1.471,1.613-1.231-1.122-1.838-1.676-1.046,1.147-.8.881.8.733,2.623,2.391,1.671,1.524,1.087-1.192,3.561-3.905Z" transform="translate(-96.846 -408.422)" fill="#f69f8e"/>
        </g>
      </g>
    </g>
  </g>
</svg>
