<svg id="Group_1079" data-name="Group 1079" xmlns="http://www.w3.org/2000/svg" width="24.869" height="18.795" viewBox="0 0 24.869 18.795">
  <path id="Path_106168" data-name="Path 106168" d="M-1407.2,69.742h0l-.065,0-1.173-5.3.09-.012a1.136,1.136,0,0,0,.717-.4l.047-.056.062.039a1.378,1.378,0,0,0,.731.21h.978a.406.406,0,0,0,.405-.405V61.863a.406.406,0,0,0-.405-.405h-.978a1.376,1.376,0,0,0-.75.222l-.061.039-.048-.054a1.138,1.138,0,0,0-.852-.385h-2.887a1.145,1.145,0,0,0-1.061.729l-.021.054h-1.217a1.189,1.189,0,0,0-1.188,1.188,1.189,1.189,0,0,0,1.188,1.188h2.6v1.648a.406.406,0,0,0,.405.405.406.406,0,0,0,.405-.405V64.438h1.007l1.249,5.643-2.339,4.166a1.52,1.52,0,0,1-1.323.773h-5.874l-.009-.074a4.025,4.025,0,0,0-4-3.546,3.986,3.986,0,0,0-2.484.858,4,4,0,0,0-1.513,2.689l-.009.074h-1.164v-.085a6.59,6.59,0,0,1,6.557-6.437h3.469a.581.581,0,0,1,.58.581v4.392a.406.406,0,0,0,.405.405h2.6a2.833,2.833,0,0,0,2.479-1.463,2.84,2.84,0,0,0,.353-1.367l0-1.624a.406.406,0,0,0-.4-.406.406.406,0,0,0-.406.4l0,1.625a2.026,2.026,0,0,1-.252.976,2.022,2.022,0,0,1-1.77,1.044h-2.2V69.077a1.391,1.391,0,0,0-.164-.654l-.038-.071.07-.041a1.389,1.389,0,0,0,.694-1.2,1.385,1.385,0,0,0-1.383-1.383h-1.785a1.372,1.372,0,0,0-.461.079l-.112.04V61.44a1.385,1.385,0,0,0-1.383-1.383h-3.155a4.547,4.547,0,0,0-4.455,3.8.456.456,0,0,0-.022.134V64a4.626,4.626,0,0,0-.035.565v2.544a1.391,1.391,0,0,0,1.177,1.368l.027,0,1.163,1.163-.062.059a7.3,7.3,0,0,0-2.3,5.348v.37a.406.406,0,0,0,.405.405h2.85l-.02.1a.426.426,0,0,0-.008.081,2.747,2.747,0,0,0,.675,1.8l.12.139h-3.617a.406.406,0,0,0-.405.405.406.406,0,0,0,.405.405h5.574a2.755,2.755,0,0,0,2.752-2.752.419.419,0,0,0-.008-.081l-.02-.1h7.154a2.338,2.338,0,0,0,1.873-.945l.025-.034h.786l-.047.116a2.739,2.739,0,0,0-.207,1.045,2.748,2.748,0,0,0,.675,1.8l.12.139h-6.525a.406.406,0,0,0-.405.405.406.406,0,0,0,.405.405h8.482a2.755,2.755,0,0,0,2.752-2.752,2.737,2.737,0,0,0-.207-1.045l-.047-.116h.925a.406.406,0,0,0,.405-.405A4.69,4.69,0,0,0-1407.2,69.742Zm.409-7.474h.573v1.146h-.573a.573.573,0,0,1-.573-.573A.573.573,0,0,1-1406.79,62.268Zm-6.895,1.359a.378.378,0,0,1-.377-.377.378.378,0,0,1,.377-.377h1.161V63.3a1.148,1.148,0,0,0,.023.226l.02.1Zm2.3,0a.327.327,0,0,1-.327-.327v-.883a.327.327,0,0,1,.327-.327h2.887a.327.327,0,0,1,.327.327V63.3a.327.327,0,0,1-.327.327Zm-6.528,2.913h1.785a.573.573,0,0,1,.573.573.573.573,0,0,1-.573.573h-1.785a.573.573,0,0,1-.573-.573A.573.573,0,0,1-1417.915,66.54Zm-8.812.573V64.569c0-.021,0-.042,0-.064l0-.111h5.432a.406.406,0,0,0,.405-.405.406.406,0,0,0-.405-.405h-5.305l.034-.109a3.686,3.686,0,0,1,3.536-2.608h3.154a.573.573,0,0,1,.573.573v5.672a.573.573,0,0,1-.573.573h-6.283A.574.574,0,0,1-1426.727,67.113Zm1.551,1.383h1.637l-.274.156a7.42,7.42,0,0,0-.672.434l-.058.042Zm5.568,7.434a.43.43,0,0,0-.008.081,1.948,1.948,0,0,1-1.922,1.941h-.077a1.933,1.933,0,0,1-1.885-1.94.419.419,0,0,0-.008-.081l-.02-.1h3.94Zm-5.141-.911.015-.1a3.2,3.2,0,0,1,1.19-2.026l.01-.008a3.17,3.17,0,0,1,1.975-.679,3.239,3.239,0,0,1,3.176,2.713l.015.1Zm18.271,2.933h-.077a1.933,1.933,0,0,1-1.885-1.94,1.93,1.93,0,0,1,.36-1.126l.025-.035h3.114l.025.035a1.93,1.93,0,0,1,.36,1.126A1.948,1.948,0,0,1-1406.477,77.952Zm-2.834-3.913,1.959-3.489h.05a3.915,3.915,0,0,1,3.791,3.394l.012.095Z" transform="translate(1427.537 -60.057)" fill="#bcbcbc"/>
  <path id="Path_106169" data-name="Path 106169" d="M-1257.4,135.775a.5.5,0,0,0,.5-.5.5.5,0,0,0-.5-.5.5.5,0,0,0-.5.5A.5.5,0,0,0-1257.4,135.775Z" transform="translate(1274.257 -127.577)" fill="#bcbcbc"/>
  <path id="Path_106170" data-name="Path 106170" d="M-1322.259,245.647a.5.5,0,0,0,.5-.5.5.5,0,0,0-.5-.5.5.5,0,0,0-.5.5A.5.5,0,0,0-1322.259,245.647Z" transform="translate(1332.862 -226.852)" fill="#bcbcbc"/>
</svg>
