<svg xmlns="http://www.w3.org/2000/svg" width="19.001" height="18.001" viewBox="0 0 19.001 18.001">
  <path id="Union_2" data-name="Union 2" d="M-6599.119,1110.647l-7.381-7.148-7.382,7.148a1.254,1.254,0,0,1-.876.354,1.258,1.258,0,0,1-.876-.354,1.17,1.17,0,0,1,0-1.7l7.171-6.955-7.182-6.954a1.169,1.169,0,0,1,.011-1.689,1.266,1.266,0,0,1,1.752,0l7.382,7.148,7.381-7.148a1.269,1.269,0,0,1,1.754,0,1.171,1.171,0,0,1,.01,1.689l-7.182,6.954,7.171,6.955a1.172,1.172,0,0,1,0,1.7,1.257,1.257,0,0,1-.877.354A1.261,1.261,0,0,1-6599.119,1110.647Z" transform="translate(6616.001 -1093)" fill="#8fd89f"/>
</svg>
