<svg xmlns="http://www.w3.org/2000/svg" width="127.377" height="71.206" viewBox="0 0 127.377 71.206">
  <g id="Group_2948" data-name="Group 2948" transform="translate(-160.334 -372.457)">
    <g id="Component_7_48" data-name="Component 7 – 48" transform="translate(160.334 372.457)">
      <g id="Group_1" data-name="Group 1">
        <path id="Path_6" data-name="Path 6" d="M88.5,409.179a19.309,19.309,0,0,0-14.588-15.3h0A19.31,19.31,0,0,0,50.76,408.3a19.1,19.1,0,0,0,.268,9.66,13.7,13.7,0,0,1,5.252-1.024,13.917,13.917,0,0,1,13.265-18.223,13.986,13.986,0,0,1,3.164.365h0a13.972,13.972,0,0,1,10.554,11.06l2.443,2.18Z" transform="translate(-46.774 -393.376)" fill="#8fd89f"/>
        <path id="Path_8" data-name="Path 8" d="M119.388,448.937H115.4a16.342,16.342,0,0,1-5.218,6.281h0a16.486,16.486,0,0,1-21.35-1.721l-2.692.048.087,4.8a21.7,21.7,0,0,0,10.8,5.052,22.123,22.123,0,0,0,3.521.283,21.7,21.7,0,0,0,12.753-4.144h0a21.553,21.553,0,0,0,6.735-8,22.128,22.128,0,0,0,1.091-2.6Z" transform="translate(-46.253 -392.478)" fill="#8fd89f"/>
        <path id="Path_9" data-name="Path 9" d="M95.4,453.4l-.1-5.331-9.882.179-4.572.083.052,2.873.21,11.582,5.33-.1-.078-4.321-.087-4.8,2.691-.049Z" transform="translate(-46.279 -392.499)" fill="#8fd89f"/>
        <path id="Path_10" data-name="Path 10" d="M130.541,413.791a14.815,14.815,0,0,1,14.4-11.5,14.81,14.81,0,0,1,14.635,12.5l2.39,2.179,2.856-3.133a20.112,20.112,0,0,0-39.836,5.5,14.532,14.532,0,0,1,5.189-2.349A14.809,14.809,0,0,1,130.541,413.791Z" transform="translate(-45.776 -393.288)" fill="#8fd89f"/>
        <g id="Group_451" data-name="Group 451" transform="translate(0 13.202)">
          <path id="Path_1" data-name="Path 1" d="M49.439,443.116q-2.58-3.215-2.581-9.735,0-6.379,2.6-9.618a8.437,8.437,0,0,1,6.921-3.237,10.224,10.224,0,0,1,4.386.891,7.064,7.064,0,0,1,2.978,2.533h.282v-12.1h6.427v33.918H64.967l-.422-3.237h-.328a7.544,7.544,0,0,1-3.144,2.838,9.807,9.807,0,0,1-4.363.962A8.8,8.8,0,0,1,49.439,443.116Zm14.59-9.266V433.1q0-6.99-5.254-6.99a4.665,4.665,0,0,0-4.082,1.712,8.962,8.962,0,0,0-1.219,5.184v.844a8.96,8.96,0,0,0,1.219,5.184,4.662,4.662,0,0,0,4.082,1.712Q64.028,440.747,64.029,433.85Z" transform="translate(-46.858 -406.362)" fill="#f69f8e"/>
          <path id="Path_2" data-name="Path 2" d="M75.9,442.978q-3.1-3.143-3.1-9.758t3.1-9.758q3.1-3.143,9.429-3.143t9.454,3.143q3.118,3.144,3.12,9.758t-3.12,9.758q-3.121,3.144-9.454,3.143T75.9,442.978Zm13.98-3.917a8.819,8.819,0,0,0,1.407-5.466v-.75a8.819,8.819,0,0,0-1.407-5.466,5.417,5.417,0,0,0-4.551-1.806q-3.143,0-4.527,1.806a8.929,8.929,0,0,0-1.384,5.466v.75a8.929,8.929,0,0,0,1.384,5.466q1.383,1.806,4.527,1.806A5.417,5.417,0,0,0,89.876,439.061Z" transform="translate(-46.436 -406.197)" fill="#f69f8e"/>
          <path id="Path_3" data-name="Path 3" d="M99.484,420.882h5.489l.469,3.237h.328a9.384,9.384,0,0,1,7.7-3.8,8.349,8.349,0,0,1,5.98,2.064q2.182,2.065,2.181,6.614v16.561H115.2v-15.2A3.767,3.767,0,0,0,110.931,426a4.715,4.715,0,0,0-3.589,1.523,5.305,5.305,0,0,0-1.43,3.777v14.262H99.484Z" transform="translate(-45.989 -406.194)" fill="#f69f8e"/>
          <path id="Path_4" data-name="Path 4" d="M124.255,452.611a5.233,5.233,0,0,1-1.783-4.081q0-3.286,3.8-5.02a3.944,3.944,0,0,1-2.392-3.707,3.59,3.59,0,0,1,1.219-2.7,6.851,6.851,0,0,1,3.143-1.619,7.287,7.287,0,0,1-3.612-6.662,7.42,7.42,0,0,1,2.838-6.145q2.839-2.253,8.093-2.253a15.764,15.764,0,0,1,4.972.7A5.51,5.51,0,0,0,142.575,419a4.887,4.887,0,0,0,.633-2.134h6.287a6.056,6.056,0,0,1-1.384,4.152,7.085,7.085,0,0,1-3.918,2.134,7.443,7.443,0,0,1,2.346,5.677,7.523,7.523,0,0,1-2.745,6.145q-2.743,2.252-7.858,2.252h-3.752a2.155,2.155,0,0,0-1.337.376,1.225,1.225,0,0,0-.493,1.032,1.271,1.271,0,0,0,.422.961,1.57,1.57,0,0,0,1.126.4h11.213a6.175,6.175,0,0,1,4.55,1.831,6.467,6.467,0,0,1,1.83,4.784,6.762,6.762,0,0,1-1.22,3.989,7.876,7.876,0,0,1-3.331,2.674,11.313,11.313,0,0,1-4.643.938H128.618A6.313,6.313,0,0,1,124.255,452.611Zm15.951-2.862a3.234,3.234,0,0,0,2.017-.611,2.051,2.051,0,0,0,.071-3.189,2.864,2.864,0,0,0-1.806-.563h-9.055a2.651,2.651,0,0,0-1.759.611,1.927,1.927,0,0,0-.727,1.547,2.009,2.009,0,0,0,.7,1.6,2.629,2.629,0,0,0,1.783.611Zm-1.22-17.945a4.372,4.372,0,0,0,0-5.958,4.958,4.958,0,0,0-3.424-1.055,4.871,4.871,0,0,0-3.4,1.055,4.437,4.437,0,0,0,0,5.958,4.871,4.871,0,0,0,3.4,1.056A4.959,4.959,0,0,0,138.986,431.8Z" transform="translate(-45.639 -406.467)" fill="#f69f8e"/>
          <path id="Path_5" data-name="Path 5" d="M152.564,444.014q-2.182-2.062-2.181-6.614V423.037h6.426v13a3.767,3.767,0,0,0,4.27,4.363,4.715,4.715,0,0,0,3.588-1.525A5.307,5.307,0,0,0,166.1,435.1V423.037h6.427v22.479h-5.489l-.469-3.238h-.328a9.383,9.383,0,0,1-7.694,3.8A8.345,8.345,0,0,1,152.564,444.014Z" transform="translate(-45.149 -406.141)" fill="#f69f8e"/>
          <path id="Path_7" data-name="Path 7" d="M75.893,410.942l6.31,5.637,3.3,2.945,2.065-2.312,6.516-7.3L90.1,406.365l-2.228,2.494L85.075,412l-2.442-2.181-3.188-2.848Z" transform="translate(-46.37 -406.365)" fill="#f69f8e"/>
          <path id="Path_11" data-name="Path 11" d="M166.735,410.679l-2.577,2.827-2.856,3.133-2.39-2.179-3.57-3.255-2.031,2.228-1.561,1.712,1.561,1.423,5.094,4.644,3.245,2.959,2.11-2.315,6.916-7.585Z" transform="translate(-45.115 -406.295)" fill="#f69f8e"/>
        </g>
      </g>
    </g>
  </g>
</svg>
