<svg xmlns="http://www.w3.org/2000/svg" width="48" height="48" viewBox="0 0 48 48">
  <g id="Group_28424" data-name="Group 28424" transform="translate(-352 -218)">
    <circle id="Ellipse_108" data-name="Ellipse 108" cx="24" cy="24" r="24" transform="translate(352 218)" fill="#f38262"/>
    <g id="Group_28406" data-name="Group 28406" transform="translate(264.253 482.916)">
      <g id="time" transform="translate(103.529 -249.523)">
        <path id="Path_137346" data-name="Path 137346" d="M115.656-224.47a1.92,1.92,0,0,1-1.376-.553c-1.3-1.268-1.148-4.457-1.011-7.272.018-.373.038-.782.052-1.187-.9-.184-1.7-.512-1.929-1.092-.22-.56.084-1.179.9-1.838.473-.38.892-.482,1.244-.3.543.276.68,1.078.667,2.49a13.012,13.012,0,0,0,2.223.1.433.433,0,0,1,.464.4.434.434,0,0,1-.4.464,16.377,16.377,0,0,1-2.308-.085c-.013.338-.03.7-.049,1.1-.122,2.5-.273,5.613.75,6.607a1.111,1.111,0,0,0,.923.3,3.45,3.45,0,0,0,2.753-.969c1.262-1.433.892-4.316.535-7.1a21.3,21.3,0,0,1-.283-4.424.434.434,0,0,1,.173-.305c3.36-2.5,5.053-4.608,4.645-5.777-.234-.671-1.494-1.769-7.314-1.587-5.717.18-6.781.822-6.961.985.358.463,3.071,1.281,6.085,1.248h.005a.434.434,0,0,1,.434.429.434.434,0,0,1-.429.439c-2.486.028-6.954-.654-6.985-2.111-.017-.8.9-1.639,7.825-1.857,4.927-.155,7.6.554,8.16,2.169.557,1.6-1.054,3.832-4.789,6.642a22.522,22.522,0,0,0,.3,4.041c.382,2.98.777,6.062-.744,7.789a4.268,4.268,0,0,1-3.364,1.262h-.008C115.777-224.472,115.716-224.47,115.656-224.47Zm-2.5-11.457a.994.994,0,0,0-.315.192c-.583.469-.676.751-.64.845.088.224.544.4,1.14.525A3.592,3.592,0,0,0,113.153-235.927Z" transform="translate(-108.464 246.4)" fill="#fff" stroke="#fff" stroke-width="0.3"/>
      </g>
      <g id="time-2" data-name="time" transform="translate(99.747 -251.916)">
        <path id="Path_137347" data-name="Path 137347" d="M109.256-240.371a.434.434,0,0,1-.271-.1c-.12-.1-.58-.362-1.112-.67-4.567-2.643-8.7-5.42-8.06-7.818.543-2.021,4.325-2.963,11.9-2.963,5.245,0,11.356.3,12.062,2.6.593,1.94-2.71,4.167-5.9,6.32A30.968,30.968,0,0,0,114.6-240.6a.434.434,0,0,1-.613-.022.433.433,0,0,1,.023-.613,31.191,31.191,0,0,1,3.374-2.471c2.517-1.7,5.964-4.021,5.559-5.347-.227-.743-1.988-1.99-11.232-1.99-9.084,0-10.831,1.453-11.063,2.32-.56,2.086,5.409,5.541,7.656,6.842a13.443,13.443,0,0,1,1.22.744.434.434,0,0,1,.068.609A.432.432,0,0,1,109.256-240.371Z" transform="translate(-99.747 251.916)" fill="#fff" stroke="#fff" stroke-width="0.3"/>
      </g>
    </g>
  </g>
</svg>
