<svg xmlns="http://www.w3.org/2000/svg" width="14.559" height="17.471" viewBox="0 0 14.559 17.471">
  <g id="Group_29156" data-name="Group 29156" transform="translate(0 0)">
    <g id="Group_29150" data-name="Group 29150">
      <path id="Path_137631" data-name="Path 137631" d="M-1113.28,50.275h.582a1.165,1.165,0,0,0,1.165-1.165,1.165,1.165,0,0,0-1.165-1.165h-10.191a1.458,1.458,0,0,0-1.456,1.456v.14a3.851,3.851,0,0,1-.426,1.727,12.619,12.619,0,0,0-1.321,5.605v8.251a.291.291,0,0,0,.291.291h13.977a.291.291,0,0,0,.291-.291V56.874a12.552,12.552,0,0,0-1.747-6.383Zm.582-1.747a.582.582,0,0,1,.582.582.582.582,0,0,1-.582.582h-.582v-.582a.582.582,0,0,1,.582-.582Zm-12.812,8.346a12.033,12.033,0,0,1,1.26-5.345,4.428,4.428,0,0,0,.487-1.987V49.4a.874.874,0,0,1,.874-.874h9.183a1.154,1.154,0,0,0-.156.582v1.381a12.552,12.552,0,0,0-1.747,6.383v7.96h-9.9Zm11.938,6.661,1.114,1.3h-2.228Zm1.456.8-1.165-1.359V61.631a.291.291,0,0,0-.291-.291.291.291,0,0,0-.291.291V62.98l-1.165,1.36V56.874a11.971,11.971,0,0,1,1.165-5.143v2.912a.291.291,0,0,0,.291.291.291.291,0,0,0,.291-.291V51.731a11.967,11.967,0,0,1,1.165,5.144Zm0,0" transform="translate(1126.092 -47.946)" fill="#fff"/>
    </g>
    <g id="Group_29151" data-name="Group 29151" transform="translate(12.229 8.153)">
      <path id="Path_137632" data-name="Path 137632" d="M-981.293,144.285a.291.291,0,0,0-.291.291v1.747a.291.291,0,0,0,.291.291.291.291,0,0,0,.291-.291v-1.747a.291.291,0,0,0-.291-.291Zm0,0" transform="translate(981.584 -144.285)" fill="#fff"/>
    </g>
    <g id="Group_29152" data-name="Group 29152" transform="translate(2.62 3.203)">
      <path id="Path_137633" data-name="Path 137633" d="M-1087.9,85.914a.291.291,0,0,0-.236-.121h-6.115a.291.291,0,0,0-.276.2l-.582,1.747a.291.291,0,0,0,.04.262.291.291,0,0,0,.236.121h6.115a.291.291,0,0,0,.276-.2l.582-1.747a.29.29,0,0,0-.04-.262Zm-1.028,1.626h-5.5l.388-1.165h5.5Zm0,0" transform="translate(1095.127 -85.793)" fill="#fff"/>
    </g>
    <g id="Group_29153" data-name="Group 29153" transform="translate(3.785 6.115)">
      <path id="Path_137634" data-name="Path 137634" d="M-1077.578,120.782a.291.291,0,0,0,.291-.291.291.291,0,0,0-.291-.291h-3.494a.291.291,0,0,0-.291.291.291.291,0,0,0,.291.291Zm0,0" transform="translate(1081.363 -120.2)" fill="#fff"/>
    </g>
    <g id="Group_29154" data-name="Group 29154" transform="translate(4.659 2.038)">
      <path id="Path_137635" data-name="Path 137635" d="M-1070.75,72.613h3.494a.291.291,0,0,0,.291-.291.291.291,0,0,0-.291-.291h-3.494a.291.291,0,0,0-.291.291.291.291,0,0,0,.291.291Zm0,0" transform="translate(1071.041 -72.031)" fill="#fff"/>
    </g>
    <g id="Group_29155" data-name="Group 29155" transform="translate(12.085 11.53)">
      <path id="Path_137636" data-name="Path 137636" d="M-982.851,185.056a.435.435,0,0,0,.435-.435.435.435,0,0,0-.435-.435h0a.434.434,0,0,0-.434.435.436.436,0,0,0,.436.435Zm0,0" transform="translate(983.287 -184.186)" fill="#fff"/>
    </g>
  </g>
</svg>
