<svg xmlns="http://www.w3.org/2000/svg" width="61.98" height="75.754" viewBox="0 0 61.98 75.754"><g transform="translate(-5916 3792.877)"><path d="M66.48,32.49c0,24.1-30.99,44.764-30.99,44.764S4.5,56.594,4.5,32.49a30.99,30.99,0,1,1,61.98,0Z" transform="translate(5911.5 -3794.377)" fill="#fff"/><g transform="translate(5671 -4069.776)"><g transform="translate(245.5 280.399)"><path d="M56.946,27.723c0,20.4-26.223,37.878-26.223,37.878S4.5,48.119,4.5,27.723a26.223,26.223,0,1,1,52.446,0Z" transform="translate(0 0)" fill="#9fd5a4" stroke="#9fd5a4" stroke-linecap="round" stroke-linejoin="round" stroke-width="3"/><path d="M30.982,19.241A8.741,8.741,0,1,1,22.241,10.5a8.741,8.741,0,0,1,8.741,8.741Z" transform="translate(8.482 8.482)" fill="#fff"/></g></g></g></svg>