<svg xmlns="http://www.w3.org/2000/svg" width="11.045" height="11" viewBox="0 0 11.045 11">
  <path id="Path_137628" data-name="Path 137628" d="M1.943,8.164a.9.9,0,0,0-.372.3.773.773,0,0,0-.143.389.808.808,0,0,0,.068.392.675.675,0,0,0,.27.3.921.921,0,0,0,.473.122l4.185.018q.119,0,.119.113l.006,4.161a.843.843,0,0,0,.119.461.716.716,0,0,0,.3.273.751.751,0,0,0,.4.065.821.821,0,0,0,.4-.158,1.008,1.008,0,0,0,.315-.4l4.251-9.185a1.105,1.105,0,0,0,.125-.612.691.691,0,0,0-.22-.44.785.785,0,0,0-.467-.193,1.168,1.168,0,0,0-.609.128ZM3.1,8.735q-.036,0-.042-.027t.03-.045L11.2,4.948q.048-.024.071,0t0,.071L7.555,13.11a.045.045,0,0,1-.051.03.037.037,0,0,1-.033-.042L7.5,9.175a.469.469,0,0,0-.119-.342.46.46,0,0,0-.345-.122Z" transform="translate(-1.427 -3.764)" fill="#f38262"/>
</svg>
