<svg xmlns="http://www.w3.org/2000/svg" width="54" height="54" viewBox="0 0 54 54">
  <g id="Group_29274" data-name="Group 29274" transform="translate(-336 -669)">
    <circle id="Ellipse_508" data-name="Ellipse 508" cx="27" cy="27" r="27" transform="translate(336 669)" fill="#fff"/>
    <g id="Group_29273" data-name="Group 29273" transform="translate(336.708 680)">
      <path id="Path_137523" data-name="Path 137523" d="M2.759,15.111a2.315,2.315,0,0,0-.958.767,1.994,1.994,0,0,0-.368,1,2.084,2.084,0,0,0,.176,1.012,1.741,1.741,0,0,0,.7.782,2.376,2.376,0,0,0,1.219.314l10.792.046q.307,0,.307.291l.015,10.731a2.174,2.174,0,0,0,.307,1.188,1.846,1.846,0,0,0,.782.705,1.938,1.938,0,0,0,1.027.169,2.117,2.117,0,0,0,1.042-.406,2.6,2.6,0,0,0,.813-1.042L29.571,6.986a2.85,2.85,0,0,0,.322-1.579,1.782,1.782,0,0,0-.567-1.134,2.026,2.026,0,0,0-1.2-.5,3.012,3.012,0,0,0-1.571.33Zm2.989,1.472q-.092,0-.107-.069t.077-.115l20.91-9.581q.123-.061.184,0t0,.184L17.231,27.866a.116.116,0,0,1-.13.077.1.1,0,0,1-.084-.107l.061-10.118a1.209,1.209,0,0,0-.307-.881,1.187,1.187,0,0,0-.889-.314Z" transform="translate(10.865 -1.764)" fill="#f38262"/>
    </g>
  </g>
</svg>
