<svg id="Group_28994" data-name="Group 28994" xmlns="http://www.w3.org/2000/svg" width="45" height="39.339" viewBox="0 0 45 39.339">
  <path id="Path_12" data-name="Path 12" d="M139.977,522.236a8.21,8.21,0,0,1,0-9.467,7.639,7.639,0,0,1,9.16,0,8.157,8.157,0,0,1,0,9.467,7.643,7.643,0,0,1-9.16,0Zm6.782-1.9a4.277,4.277,0,0,0,.683-2.652v-.364a4.278,4.278,0,0,0-.683-2.652,2.63,2.63,0,0,0-2.207-.876,2.6,2.6,0,0,0-2.2.876,4.335,4.335,0,0,0-.671,2.652v.364a4.334,4.334,0,0,0,.671,2.652,2.592,2.592,0,0,0,2.2.876A2.626,2.626,0,0,0,146.759,520.336Z" transform="translate(-124.881 -501.556)" fill="#f69f8e"/>
  <path id="Path_13" data-name="Path 13" d="M137.379,538.532q-2.351-2.24-2.351-6.955t2.351-6.955q2.352-2.241,7.161-2.241t7.18,2.241q2.369,2.241,2.369,6.955t-2.369,6.955q-2.37,2.241-7.18,2.241T137.379,538.532Zm11.663-1.526a7.826,7.826,0,0,0,1.394-5.081v-.7a7.828,7.828,0,0,0-1.394-5.081q-1.393-1.678-4.506-1.679t-4.483,1.679a7.921,7.921,0,0,0-1.37,5.081v.7a7.919,7.919,0,0,0,1.37,5.081q1.371,1.679,4.483,1.679T149.042,537.006Z" transform="translate(-124.866 -501.856)" fill="#f69f8e"/>
  <path id="Path_14" data-name="Path 14" d="M144.289,540.721a19.67,19.67,0,1,1,19.638-19.67A19.676,19.676,0,0,1,144.289,540.721Zm0-35.389a15.72,15.72,0,1,0,15.694,15.719A15.724,15.724,0,0,0,144.289,505.332Z" transform="translate(-124.652 -501.382)" fill="#8fd89f"/>
  <path id="Path_15" data-name="Path 15" d="M166.357,514.478l-2.512,2.756-2.784,3.054-2.33-2.125-3.48-3.173-1.98,2.172-1.521,1.669,1.521,1.387,4.965,4.527,3.164,2.884,2.057-2.256,6.741-7.394Z" transform="translate(-125.198 -501.618)" fill="#f69f8e"/>
</svg>
