<svg xmlns="http://www.w3.org/2000/svg" width="61.98" height="75.754" viewBox="0 0 61.98 75.754"><g transform="translate(-6085 3792.877)"><g transform="translate(4 -13.877)"><path d="M66.48,32.49c0,24.1-30.99,44.764-30.99,44.764S4.5,56.594,4.5,32.49a30.99,30.99,0,1,1,61.98,0Z" transform="translate(6076.5 -3780.5)" fill="#fff"/><g transform="translate(5836 -4055.899)"><g transform="translate(245.5 280.399)"><path d="M56.946,27.723c0,20.4-26.223,37.878-26.223,37.878S4.5,48.119,4.5,27.723a26.223,26.223,0,1,1,52.446,0Z" transform="translate(0 0)" fill="none" stroke="#e4e4e4" stroke-linecap="round" stroke-linejoin="round" stroke-width="3"/></g></g><g transform="translate(7911.011 -4404.106)"><g transform="translate(-1808.045 662.76)"><g transform="translate(0 0)"><g transform="translate(2.509)"><path d="M-1766.219,701.642h-1.878a7.706,7.706,0,0,0-2.462-2.961h0a7.774,7.774,0,0,0-10.067.811l-1.269-.023.041-2.265a10.233,10.233,0,0,1,5.092-2.382,10.436,10.436,0,0,1,1.66-.133,10.23,10.23,0,0,1,6.013,1.954h0a10.165,10.165,0,0,1,3.176,3.773,10.459,10.459,0,0,1,.514,1.226Z" transform="translate(1782.192 -694.392)" fill="#e4e4e4"/><path d="M-1769.5,695.812a10.5,10.5,0,0,1,3.267,3.882,10.738,10.738,0,0,1,.529,1.26.3.3,0,0,1-.039.27.3.3,0,0,1-.242.125h-2.7a.3.3,0,0,1-.269-.17,7.428,7.428,0,0,0-2.368-2.847,7.441,7.441,0,0,0-9.681.78.29.29,0,0,1-.216.088l-1.269-.023a.3.3,0,0,1-.292-.3l.041-2.265a.3.3,0,0,1,.1-.219,10.517,10.517,0,0,1,5.24-2.451,10.745,10.745,0,0,1,1.707-.137A10.463,10.463,0,0,1-1769.5,695.812Zm-12.678,2.775.846.015a8.033,8.033,0,0,1,10.36-.753,8.027,8.027,0,0,1,2.474,2.905h2.085c-.107-.271-.225-.537-.354-.8a9.9,9.9,0,0,0-3.083-3.663,9.873,9.873,0,0,0-5.838-1.9,10.228,10.228,0,0,0-1.613.129,9.926,9.926,0,0,0-4.844,2.227Z" transform="translate(1782.781 -693.802)" fill="#e4e4e4"/></g><g transform="translate(0 0.432)"><path d="M-1782.518,700.4l-.046,2.514-4.659-.084-2.156-.039.024-1.355.1-5.461,2.513.045-.037,2.038-.041,2.265,1.269.023Z" transform="translate(1789.676 -695.682)" fill="#e4e4e4"/><path d="M-1789.84,695.092l2.513.045a.3.3,0,0,1,.209.091.3.3,0,0,1,.083.211l-.073,4.005,4.005.072a.3.3,0,0,1,.209.091.3.3,0,0,1,.083.212l-.046,2.514a.3.3,0,0,1-.3.292l-6.815-.124a.3.3,0,0,1-.209-.091.3.3,0,0,1-.083-.212l.124-6.816a.3.3,0,0,1,.3-.292Zm6.395,6.934.035-1.919-4.005-.072a.3.3,0,0,1-.292-.3l.073-4.005-1.919-.034-.113,6.221Z" transform="translate(1790.266 -695.092)" fill="#e4e4e4"/></g></g></g><g transform="translate(-1817.011 647.106)"><path d="M-1815.191,658.673a1.388,1.388,0,0,1-1.3-.892,7.827,7.827,0,0,1-.524-2.808,7.875,7.875,0,0,1,7.866-7.867,7.876,7.876,0,0,1,7.867,7.867,1.388,1.388,0,0,1-1.388,1.388,1.388,1.388,0,0,1-1.388-1.388,5.1,5.1,0,0,0-5.091-5.091,5.1,5.1,0,0,0-5.091,5.091,5.067,5.067,0,0,0,.341,1.816,1.388,1.388,0,0,1-.8,1.792A1.383,1.383,0,0,1-1815.191,658.673Z" transform="translate(1817.011 -647.106)" fill="#e4e4e4"/><g transform="translate(21.643 0.858)"><path d="M-1739.537,662.976a1.381,1.381,0,0,1-.869-.307,1.388,1.388,0,0,1-.211-1.951,5.031,5.031,0,0,0,1.125-3.186,5.1,5.1,0,0,0-5.091-5.091,5.1,5.1,0,0,0-5.091,5.091,1.388,1.388,0,0,1-1.388,1.388,1.388,1.388,0,0,1-1.388-1.388,7.876,7.876,0,0,1,7.866-7.867,7.875,7.875,0,0,1,7.867,7.867,7.885,7.885,0,0,1-1.738,4.927A1.385,1.385,0,0,1-1739.537,662.976Z" transform="translate(1752.451 -649.665)" fill="#e4e4e4"/></g></g></g></g></g></svg>