<svg xmlns="http://www.w3.org/2000/svg" width="61.98" height="75.754" viewBox="0 0 61.98 75.754"><g transform="translate(-6000 3792.877)"><g transform="translate(87 92)"><path d="M66.48,32.49c0,24.1-30.99,44.764-30.99,44.764S4.5,56.594,4.5,32.49a30.99,30.99,0,1,1,61.98,0Z" transform="translate(5908.5 -3886.377)" fill="#fff"/><g transform="translate(5668 -4161.95)"><g transform="translate(245.5 280.399)"><path d="M56.946,27.723c0,20.4-26.223,37.878-26.223,37.878S4.5,48.119,4.5,27.723a26.223,26.223,0,1,1,52.446,0Z" transform="translate(0 0)" fill="none" stroke="#f38262" stroke-linecap="round" stroke-linejoin="round" stroke-width="3"/></g><g transform="translate(2527.871 129.147)"><path d="M-2224.288,216.918h-2.7a.3.3,0,0,0-.269.171,7.427,7.427,0,0,1-2.368,2.847,7.435,7.435,0,0,1-9.136-.286l2.333-.042a.3.3,0,0,0,.208-.091.3.3,0,0,0,.083-.212l-.046-2.514a.3.3,0,0,0-.3-.292l-6.816.124a.3.3,0,0,0-.209.091.3.3,0,0,0-.083.212l.124,6.816a.3.3,0,0,0,.3.292h.005l2.513-.045a.3.3,0,0,0,.208-.091.3.3,0,0,0,.083-.212l-.025-1.358a10.517,10.517,0,0,0,4.685,2,10.789,10.789,0,0,0,1.707.137,10.465,10.465,0,0,0,6.188-2.01,10.5,10.5,0,0,0,3.268-3.882,10.781,10.781,0,0,0,.529-1.26.3.3,0,0,0-.039-.27A.3.3,0,0,0-2224.288,216.918Z" transform="translate(-17.779 -31.042)" fill="#f38262"/><path d="M-2257.378,177.67a1.387,1.387,0,0,0,1.388,1.388,1.388,1.388,0,0,0,1.388-1.388,7.876,7.876,0,0,0-7.867-7.867,7.875,7.875,0,0,0-7.866,7.867,7.832,7.832,0,0,0,.523,2.808,1.389,1.389,0,0,0,1.3.892,1.389,1.389,0,0,0,.5-.092,1.388,1.388,0,0,0,.8-1.792,5.064,5.064,0,0,1-.341-1.816,5.1,5.1,0,0,1,5.091-5.091A5.1,5.1,0,0,1-2257.378,177.67Z" fill="#f38262"/><path d="M-2197.909,172.362a7.875,7.875,0,0,0-7.866,7.867,1.388,1.388,0,0,0,1.388,1.388,1.388,1.388,0,0,0,1.388-1.388,5.1,5.1,0,0,1,5.091-5.091,5.1,5.1,0,0,1,5.091,5.091,5.032,5.032,0,0,1-1.125,3.186,1.387,1.387,0,0,0,.211,1.951,1.382,1.382,0,0,0,.869.307,1.385,1.385,0,0,0,1.082-.518,7.886,7.886,0,0,0,1.738-4.927A7.875,7.875,0,0,0-2197.909,172.362Z" transform="translate(-42.918 -1.701)" fill="#f38262"/></g></g></g></g></svg>