<svg id="Group_29145" data-name="Group 29145" xmlns="http://www.w3.org/2000/svg" width="12.419" height="11.868" viewBox="0 0 12.419 11.868">
  <path id="Path_137629" data-name="Path 137629" d="M4.265,13.532a.52.52,0,0,0,.419.1,1.23,1.23,0,0,0,.5-.24l2.9-2.135L11,13.391a1.272,1.272,0,0,0,.507.24.5.5,0,0,0,.413-.1.582.582,0,0,0,.223-.369,1.122,1.122,0,0,0-.065-.545L10.927,9.2l2.932-2.1a1.25,1.25,0,0,0,.378-.408.515.515,0,0,0,.032-.425.544.544,0,0,0-.282-.325,1.132,1.132,0,0,0-.54-.1l-3.6.023L8.757,2.424a1.214,1.214,0,0,0-.27-.487.543.543,0,0,0-.4-.164.536.536,0,0,0-.393.164,1.214,1.214,0,0,0-.27.487L6.335,5.861l-3.6-.023a1.13,1.13,0,0,0-.542.1.57.57,0,0,0-.284.32.52.52,0,0,0,.035.431,1.285,1.285,0,0,0,.381.408L5.262,9.2,4.112,12.617a1.152,1.152,0,0,0-.067.545A.57.57,0,0,0,4.265,13.532Z" transform="translate(-1.882 -1.773)" fill="#ffbc41"/>
</svg>
