<svg xmlns="http://www.w3.org/2000/svg" width="13.542" height="13" viewBox="0 0 13.542 13">
  <path id="Path_137630" data-name="Path 137630" d="M8.79,5.653a.483.483,0,0,0-.359.154.517.517,0,0,0-.15.374V9.659a.6.6,0,0,0,.038.214.931.931,0,0,0,.115.207l1.457,2.026a.572.572,0,0,0,.363.247.522.522,0,0,0,.394-.1.461.461,0,0,0,.194-.348.63.63,0,0,0-.124-.415L8.746,8.7l.547,1.779V6.182a.523.523,0,0,0-.146-.374A.473.473,0,0,0,8.79,5.653Zm.229,10.185a5.673,5.673,0,0,0,2.386-.512,6.328,6.328,0,0,0,1.972-1.408,6.646,6.646,0,0,0,1.336-2.07,6.762,6.762,0,0,0,0-5.022,6.687,6.687,0,0,0-1.336-2.073,6.257,6.257,0,0,0-1.972-1.408,5.854,5.854,0,0,0-4.772,0,6.308,6.308,0,0,0-1.972,1.4A6.651,6.651,0,0,0,3.322,6.813a6.472,6.472,0,0,0-.487,2.5H3.974A5.375,5.375,0,0,1,5.453,5.58a5.043,5.043,0,0,1,1.6-1.13,4.915,4.915,0,0,1,3.929,0,5.015,5.015,0,0,1,1.6,1.137,5.49,5.49,0,0,1,0,7.506,4.991,4.991,0,0,1-1.6,1.14,4.91,4.91,0,0,1-3.54.14A4.992,4.992,0,0,1,5,12.514a.694.694,0,0,0-.391-.267.506.506,0,0,0-.429.094.526.526,0,0,0-.229.391.658.658,0,0,0,.146.492,6.628,6.628,0,0,0,1.336,1.364,6.278,6.278,0,0,0,1.683.919A5.547,5.547,0,0,0,9.019,15.838ZM2.1,8.074a.485.485,0,0,0-.34.1.339.339,0,0,0-.108.267.6.6,0,0,0,.13.338l1.406,2.08a.432.432,0,0,0,.353.221.417.417,0,0,0,.347-.221L5.31,8.776a.585.585,0,0,0,.124-.331.335.335,0,0,0-.111-.267.5.5,0,0,0-.344-.1Z" transform="translate(-1.655 -2.838)" fill="#ffbc41"/>
</svg>
