<svg xmlns="http://www.w3.org/2000/svg" width="429.735" height="402.657" viewBox="0 0 429.735 402.657">
  <g id="Group_29544" data-name="Group 29544" transform="translate(1.735 -523.338)">
    <path id="Path_137418" data-name="Path 137418" d="M-.621,574.5s77.388-13.549,110.155-20.281,101.11-26.545,140.921-24.738,82.53,3.689,116.624,6.141S428,539.174,428,539.174l-1.322,386.821H-1.735Z" fill="#f5f9fc"/>
    <g id="Group_29543" data-name="Group 29543">
      <path id="Path_137937" data-name="Path 137937" d="M82.854,565.548a6.054,6.054,0,0,0,1.254-.132c9.49-2.018,19.742-4.254,31.342-6.836a6,6,0,0,0-2.607-11.713c-11.563,2.574-21.779,4.8-31.231,6.812a6,6,0,0,0,1.242,11.869Z" fill="#9fd5a4"/>
      <path id="Path_137938" data-name="Path 137938" d="M157.1,549.062a5.963,5.963,0,0,0,1.319-.147c13.6-3.052,22.93-5.09,31.2-6.814a6,6,0,0,0-2.449-11.748c-8.335,1.738-17.72,3.788-31.38,6.853a6,6,0,0,0,1.308,11.856Z" fill="#9fd5a4"/>
      <path id="Path_137939" data-name="Path 137939" d="M8.189,579.964a5.951,5.951,0,0,0,1.006-.085c10.082-1.7,20.725-3.621,31.635-5.7a6,6,0,1,0-2.248-11.787c-10.827,2.064-21.387,3.968-31.385,5.656a6,6,0,0,0,.992,11.917Z" fill="#9fd5a4"/>
      <path id="Path_137940" data-name="Path 137940" d="M383.482,542.245c10.155.764,20.894,1.6,31.92,2.5.165.014.329.02.492.02a6,6,0,0,0,.477-11.981c-11.049-.894-21.811-1.736-31.988-2.5a6,6,0,0,0-.9,11.967Z" fill="#9fd5a4"/>
      <path id="Path_137941" data-name="Path 137941" d="M307.649,537.278c9.915.523,20.658,1.157,31.928,1.883.132.009.263.013.393.013a6,6,0,0,0,.381-11.987c-11.319-.731-22.108-1.367-32.071-1.893a6,6,0,0,0-.631,11.984Z" fill="#9fd5a4"/>
      <path id="Path_137942" data-name="Path 137942" d="M231.86,535.62c.084,0,.168,0,.252-.005,8.251-.339,18.924-.366,31.658-.082a6,6,0,0,0,.27-12c-13-.292-23.906-.262-32.422.088a6,6,0,0,0,.242,11.995Z" fill="#9fd5a4"/>
    </g>
  </g>
</svg>
