<svg id="Group_28717" data-name="Group 28717" xmlns="http://www.w3.org/2000/svg" xmlns:xlink="http://www.w3.org/1999/xlink" width="428" height="926" viewBox="0 0 428 926">
  <defs>
    <clipPath id="clip-path">
      <rect id="Rectangle_2705" data-name="Rectangle 2705" width="428" height="926" fill="#f69f8e" stroke="#707070" stroke-width="1"/>
    </clipPath>
  </defs>
  <g id="Group_28716" data-name="Group 28716">
    <rect id="Rectangle_2781" data-name="Rectangle 2781" width="428" height="926" fill="#f69f8e"/>
    <g id="Mask_Group_9" data-name="Mask Group 9" clip-path="url(#clip-path)">
      <g id="Group_28381" data-name="Group 28381">
        <g id="coffee" transform="matrix(0.996, 0.087, -0.087, 0.996, 115.235, 331.832)" opacity="0.997">
          <path id="Path_106160" data-name="Path 106160" d="M2657.972-1105.144c-11.192,0-16.67-1.564-17.531-10.452-.557-5.762-.327-30.357-.318-31.4a1.033,1.033,0,0,1,1.033-1.022h.01a1.032,1.032,0,0,1,1.023,1.042c0,.254-.24,25.527.308,31.182.653,6.739,3.979,8.586,15.475,8.586,12.018,0,13.408-5.284,13.408-9.258,0-1.145.005-3.108.014-5.475.012-3.592.026-8.114.026-12.121a4.924,4.924,0,0,1,2.57-4.451,5.554,5.554,0,0,1,5.574.188c1.194.757,3.156,2.673,2.889,7.005-.365,5.92-2.914,7.275-4.775,8.263-1.207.642-1.628.913-1.687,1.9a.6.6,0,0,0,.264.622c.572.369,1.982.305,3.569-.528,1.211-.638,5.178-3.213,5.375-9.642.144-4.693-.847-8.069-2.946-10.034a8.731,8.731,0,0,0-6.9-1.961,3.221,3.221,0,0,1-2.6-.771c-1.166-1.084-1.261-2.964-1.233-4.285a3.417,3.417,0,0,0-.908-2.583c-.793,3.679-6.432,6.059-13.913,5.837-9.125-.277-14.15-2.261-14.15-5.583,0-3.307,2.28-5.1,14.317-5.1a49.627,49.627,0,0,1,9.161.69,19.679,19.679,0,0,0-5.509-2.072,38.629,38.629,0,0,0-8.142-.9c-3.764-.125-6.738-.222-7.851-3.269a3,3,0,0,1,.464-3.131c3.012-3.573,14.615-1.784,18.1-1.151,2.213.4,3.62-.384,4.2-1.251a2.058,2.058,0,0,0,.006-2.35c-.453-.7-2.469-2.9-9.362-1.74-9.918,1.665-16.693.951-19.079-2.015a3.6,3.6,0,0,1-.541-3.737c1.018-2.527,4.462-4.519,8.776-5.075a1.023,1.023,0,0,1,1.157.891,1.033,1.033,0,0,1-.893,1.156c-4.056.523-6.537,2.336-7.124,3.8a1.551,1.551,0,0,0,.234,1.672c1.423,1.767,6.67,3.029,17.127,1.272,7.921-1.329,10.635,1.413,11.437,2.653a4.148,4.148,0,0,1-.019,4.617c-1.2,1.8-3.611,2.622-6.286,2.137-9.394-1.708-14.957-.965-16.15.449a.979.979,0,0,0-.1,1.094c.607,1.663,2.369,1.795,5.979,1.913a40.9,40.9,0,0,1,8.557.958c4.878,1.167,8.131,3.12,9.263,5.454a7.081,7.081,0,0,1,1.781,1.293,5.489,5.489,0,0,1,1.538,4.118c-.031,1.425.161,2.341.574,2.724a1.162,1.162,0,0,0,1,.229,10.728,10.728,0,0,1,8.514,2.51c2.551,2.388,3.76,6.293,3.6,11.6-.23,7.545-5.018,10.637-6.479,11.405-2.15,1.13-4.315,1.3-5.65.437a2.635,2.635,0,0,1-1.2-2.479c.129-2.193,1.536-2.94,2.778-3.6,1.668-.886,3.391-1.8,3.683-6.568.151-2.426-.536-4.248-1.933-5.134a3.464,3.464,0,0,0-3.473-.124,2.871,2.871,0,0,0-1.5,2.642c0,4.007-.015,8.533-.028,12.127-.007,2.365-.014,4.325-.014,5.468C2673.444-1108.953,2668.239-1105.144,2657.972-1105.144Zm-1.112-47.976c-12.253,0-12.253,1.9-12.253,3.034,0,1.516,3.8,3.266,12.149,3.519,7.29.229,11.555-2.09,11.86-4.379a1.96,1.96,0,0,0-.034-.7C2666.2-1152.633,2662.33-1153.12,2656.86-1153.12Z" transform="translate(-2638.01 1181.197)" fill="#f38262"/>
        </g>
        <g id="coffee-2" data-name="coffee" transform="matrix(0.574, -0.819, 0.819, 0.574, 257.431, 781.081)" opacity="0.821">
          <path id="Path_106160-2" data-name="Path 106160" d="M2657.522-1106.857c-10.94,0-16.294-1.528-17.136-10.216-.545-5.632-.32-29.673-.311-30.693a1.01,1.01,0,0,1,1.01-1h.009a1.009,1.009,0,0,1,1,1.019c0,.248-.234,24.952.3,30.479.638,6.587,3.89,8.392,15.126,8.392,11.747,0,13.106-5.165,13.106-9.05,0-1.119,0-3.038.013-5.352.012-3.511.026-7.932.026-11.848a4.813,4.813,0,0,1,2.512-4.35,5.429,5.429,0,0,1,5.448.184c1.167.74,3.085,2.612,2.823,6.848-.356,5.787-2.848,7.111-4.667,8.077-1.18.627-1.591.893-1.649,1.855a.583.583,0,0,0,.258.608c.559.36,1.938.3,3.489-.516,1.184-.623,5.062-3.141,5.254-9.425.141-4.588-.828-7.887-2.879-9.808a8.534,8.534,0,0,0-6.749-1.917,3.148,3.148,0,0,1-2.545-.753c-1.14-1.059-1.233-2.9-1.2-4.188a3.34,3.34,0,0,0-.887-2.524c-.775,3.6-6.287,5.922-13.6,5.706-8.919-.271-13.831-2.21-13.831-5.458,0-3.233,2.229-4.985,13.995-4.985a48.5,48.5,0,0,1,8.955.675,19.237,19.237,0,0,0-5.385-2.026,37.761,37.761,0,0,0-7.958-.882c-3.68-.122-6.586-.217-7.674-3.195a2.931,2.931,0,0,1,.454-3.061c2.944-3.493,14.286-1.744,17.689-1.125,2.163.392,3.538-.375,4.1-1.223a2.012,2.012,0,0,0,.006-2.3c-.443-.684-2.413-2.83-9.151-1.7-9.694,1.627-16.317.93-18.649-1.97a3.52,3.52,0,0,1-.528-3.653c.995-2.47,4.361-4.417,8.578-4.96a1,1,0,0,1,1.131.871,1.01,1.01,0,0,1-.873,1.13c-3.964.511-6.389,2.283-6.964,3.714a1.516,1.516,0,0,0,.229,1.634c1.39,1.728,6.52,2.96,16.741,1.244,7.742-1.3,10.4,1.381,11.18,2.593a4.054,4.054,0,0,1-.019,4.513c-1.176,1.764-3.529,2.563-6.144,2.089-9.182-1.669-14.62-.943-15.786.439a.957.957,0,0,0-.1,1.069c.594,1.626,2.316,1.755,5.844,1.87a39.978,39.978,0,0,1,8.364.936c4.768,1.141,7.948,3.05,9.055,5.331a6.92,6.92,0,0,1,1.741,1.264,5.366,5.366,0,0,1,1.5,4.026c-.031,1.393.157,2.288.561,2.662a1.136,1.136,0,0,0,.977.224,10.486,10.486,0,0,1,8.322,2.454c2.493,2.334,3.676,6.151,3.518,11.343-.225,7.375-4.9,10.4-6.333,11.148-2.1,1.1-4.218,1.268-5.522.427a2.575,2.575,0,0,1-1.176-2.423c.126-2.143,1.5-2.874,2.715-3.519,1.63-.866,3.314-1.76,3.6-6.42.148-2.371-.524-4.153-1.889-5.019a3.386,3.386,0,0,0-3.4-.121,2.806,2.806,0,0,0-1.466,2.582c0,3.917-.015,8.341-.027,11.854-.007,2.312-.014,4.227-.014,5.345C2672.646-1110.58,2667.558-1106.857,2657.522-1106.857Zm-1.087-46.9c-11.977,0-11.977,1.856-11.977,2.966,0,1.482,3.716,3.192,11.876,3.44,7.125.224,11.295-2.043,11.593-4.28a1.917,1.917,0,0,0-.034-.68C2665.568-1153.276,2661.782-1153.752,2656.435-1153.752Z" transform="translate(-2638.01 1181.197)" fill="#f38262"/>
        </g>
        <g id="coffee-3" data-name="coffee" transform="matrix(-0.978, -0.208, 0.208, -0.978, 19.705, 765.107)" opacity="0.966">
          <path id="Path_106160-3" data-name="Path 106160" d="M2649.994-1135.538c-6.719,0-10.008-.939-10.525-6.275-.334-3.459-.2-18.225-.19-18.851a.62.62,0,0,1,.62-.613h.006a.62.62,0,0,1,.614.626c0,.152-.144,15.325.185,18.72.392,4.046,2.389,5.154,9.29,5.154,7.215,0,8.05-3.172,8.05-5.558,0-.687,0-1.866.008-3.287.008-2.156.016-4.871.016-7.276a2.956,2.956,0,0,1,1.543-2.672,3.334,3.334,0,0,1,3.346.113c.717.454,1.9,1.6,1.734,4.206-.219,3.554-1.749,4.367-2.867,4.961-.725.385-.977.548-1.013,1.139a.358.358,0,0,0,.158.374,2.485,2.485,0,0,0,2.143-.317,6.447,6.447,0,0,0,3.227-5.789c.087-2.818-.509-4.844-1.768-6.024a5.241,5.241,0,0,0-4.145-1.178,1.933,1.933,0,0,1-1.563-.463,3.413,3.413,0,0,1-.74-2.572,2.051,2.051,0,0,0-.545-1.55c-.476,2.208-3.861,3.637-8.353,3.5-5.478-.166-8.495-1.357-8.495-3.352s1.369-3.062,8.6-3.062a29.782,29.782,0,0,1,5.5.415,11.813,11.813,0,0,0-3.307-1.244,23.2,23.2,0,0,0-4.888-.542c-2.26-.075-4.045-.133-4.713-1.962a1.8,1.8,0,0,1,.279-1.88c1.809-2.145,8.774-1.071,10.865-.691a2.392,2.392,0,0,0,2.521-.751,1.236,1.236,0,0,0,0-1.411c-.272-.42-1.482-1.738-5.62-1.044-5.954,1-10.022.571-11.454-1.21a2.162,2.162,0,0,1-.325-2.244c.611-1.517,2.679-2.713,5.269-3.047a.614.614,0,0,1,.695.535.62.62,0,0,1-.536.694c-2.435.314-3.925,1.4-4.277,2.281a.931.931,0,0,0,.14,1c.854,1.061,4,1.818,10.282.764,4.755-.8,6.385.848,6.866,1.593a2.491,2.491,0,0,1-.012,2.772,3.621,3.621,0,0,1-3.774,1.283c-5.64-1.025-8.979-.579-9.7.27a.588.588,0,0,0-.063.657c.365,1,1.422,1.078,3.589,1.148a24.552,24.552,0,0,1,5.137.575c2.928.7,4.881,1.873,5.561,3.275a4.253,4.253,0,0,1,1.07.776,3.3,3.3,0,0,1,.924,2.472,2.317,2.317,0,0,0,.345,1.635.7.7,0,0,0,.6.137,6.441,6.441,0,0,1,5.111,1.507c1.531,1.434,2.258,3.778,2.161,6.967a7.673,7.673,0,0,1-3.89,6.847,3.513,3.513,0,0,1-3.392.262,1.581,1.581,0,0,1-.722-1.488,2.466,2.466,0,0,1,1.667-2.161c1-.532,2.036-1.081,2.211-3.943a3.211,3.211,0,0,0-1.16-3.082,2.08,2.08,0,0,0-2.085-.074,1.723,1.723,0,0,0-.9,1.586c0,2.406-.009,5.123-.017,7.281,0,1.42-.008,2.6-.008,3.283C2659.283-1137.825,2656.158-1135.538,2649.994-1135.538Zm-.668-28.8c-7.356,0-7.356,1.14-7.356,1.822,0,.91,2.282,1.96,7.294,2.113,4.376.137,6.937-1.255,7.12-2.629a1.176,1.176,0,0,0-.021-.418A19.821,19.821,0,0,0,2649.327-1164.34Z" transform="translate(-2638.01 1181.197)" fill="#f38262"/>
        </g>
        <g id="coffee-4" data-name="coffee" transform="translate(60.212 -16.853) rotate(30)" opacity="0.499">
          <path id="Path_106160-4" data-name="Path 106160" d="M2682.633-1011.185c-25.019,0-37.265-3.5-39.189-23.363-1.245-12.882-.731-67.861-.711-70.194a2.31,2.31,0,0,1,2.31-2.284h.022a2.308,2.308,0,0,1,2.286,2.33c0,.567-.535,57.064.688,69.7,1.459,15.065,8.9,19.193,34.594,19.193,26.865,0,29.973-11.812,29.973-20.7,0-2.559.012-6.947.03-12.24.029-8.029.059-18.139.059-27.095a11.008,11.008,0,0,1,5.745-9.949,12.415,12.415,0,0,1,12.46.421c2.669,1.692,7.056,5.974,6.457,15.66-.814,13.234-6.513,16.261-10.674,18.471-2.7,1.434-3.638,2.042-3.771,4.242a1.331,1.331,0,0,0,.59,1.391c1.279.824,4.431.682,7.979-1.18,2.708-1.425,11.576-7.183,12.016-21.554.323-10.492-1.893-18.038-6.584-22.431s-10.981-4.813-15.434-4.385a7.2,7.2,0,0,1-5.82-1.722c-2.606-2.423-2.82-6.625-2.755-9.578a7.635,7.635,0,0,0-2.029-5.773c-1.773,8.224-14.376,13.544-31.1,13.048-20.4-.62-31.631-5.054-31.631-12.481,0-7.394,5.1-11.4,32.006-11.4a110.939,110.939,0,0,1,20.479,1.543,43.98,43.98,0,0,0-12.314-4.632,86.364,86.364,0,0,0-18.2-2.017c-8.416-.279-15.063-.5-17.551-7.307a6.7,6.7,0,0,1,1.039-7c6.733-7.988,32.671-3.988,40.454-2.572,4.947.9,8.092-.858,9.386-2.8a4.6,4.6,0,0,0,.013-5.252c-1.014-1.565-5.519-6.474-20.929-3.889-22.17,3.722-37.316,2.126-42.649-4.5a8.052,8.052,0,0,1-1.209-8.354c2.274-5.649,9.974-10.1,19.618-11.344a2.286,2.286,0,0,1,2.586,1.992,2.308,2.308,0,0,1-1.995,2.584c-9.067,1.168-14.613,5.221-15.927,8.494a3.468,3.468,0,0,0,.523,3.737c3.179,3.951,14.911,6.77,38.287,2.844,17.706-2.971,23.772,3.158,25.566,5.931a9.273,9.273,0,0,1-.043,10.322c-2.689,4.034-8.072,5.862-14.052,4.778-21-3.817-33.435-2.156-36.1,1a2.189,2.189,0,0,0-.233,2.446c1.357,3.718,5.3,4.012,13.364,4.276a91.4,91.4,0,0,1,19.128,2.142c10.9,2.609,18.176,6.974,20.708,12.193a15.819,15.819,0,0,1,3.982,2.891,12.269,12.269,0,0,1,3.439,9.206c-.07,3.185.361,5.233,1.284,6.089a2.6,2.6,0,0,0,2.233.511c5.408-.514,13.08.034,19.032,5.612,5.7,5.339,8.407,14.068,8.045,25.942-.515,16.866-11.218,23.779-14.483,25.5-4.806,2.525-9.647,2.9-12.63.976a5.89,5.89,0,0,1-2.691-5.54c.289-4.9,3.435-6.572,6.21-8.047,3.729-1.98,7.58-4.025,8.233-14.682.338-5.423-1.2-9.5-4.321-11.477a7.74,7.74,0,0,0-7.763-.276,6.417,6.417,0,0,0-3.354,5.906c0,8.958-.034,19.075-.061,27.11-.017,5.286-.032,9.667-.032,12.224C2717.219-1019.7,2705.584-1011.185,2682.633-1011.185Zm-2.486-107.247c-27.391,0-27.391,4.245-27.391,6.783,0,3.39,8.5,7.3,27.159,7.867,16.3.511,25.831-4.672,26.512-9.788a4.383,4.383,0,0,0-.076-1.556C2701.033-1117.344,2692.375-1118.432,2680.147-1118.432Z" transform="translate(-2638.011 1181.196)" fill="#f38262"/>
        </g>
        <g id="chicken" transform="matrix(0.966, 0.259, -0.259, 0.966, 334.716, 116.127)" opacity="0.506">
          <path id="Path_106159" data-name="Path 106159" d="M2578.528-1062.246c-12.49,0-25.513-5.4-32.257-14.621-16.624-22.716.971-37.658,1.149-37.8a2.162,2.162,0,0,1,3.041.289,2.16,2.16,0,0,1-.286,3.038c-.626.527-14.57,12.582-.419,31.927,6.606,9.025,20.626,13.939,32.876,12.613a42.829,42.829,0,0,1-16.086-9.231c-12.63-11.985-12.487-29.668-12.347-46.772.032-4.073.064-8.06-.076-11.888-7.86-3.344-15.093-8-20.183-16.267-5.8-9.415-4.36-14.486-2.987-16.667a7.26,7.26,0,0,1,7.217-3.173c5.163.541,12.777,5.471,17.248,17.591a54.491,54.491,0,0,1,2.893,15.556c3.267,1.26,6.679,2.36,10.144,3.476,15.8,5.093,32.149,10.358,38.355,32.647,4.174,14.975.979,27.03-8.749,33.755a155.82,155.82,0,0,0,29.089.573c8.974-.549,15.523-2.244,19.583-5.066a24.772,24.772,0,0,1-12.758-12.72c-6.526-14.769-4.082-31.7-3.976-32.411a2.171,2.171,0,0,1,1.428-1.722,2.161,2.161,0,0,1,2.184.462c1.125,1.051,27.473,25.935,21.508,42.507-.076.216-.157.43-.247.638,4.36-1.071,6.757-5.963,6.757-13.815,0-21.654-19.832-45.762-36.251-51.286-24.8-8.347-41.548,3.97-41.716,4.095a2.158,2.158,0,0,1-3.021-.419,2.16,2.16,0,0,1,.411-3.022c.749-.567,18.643-13.855,45.708-4.749,20.145,6.78,39.193,33.693,39.193,55.382,0,14.347-7.29,17.434-10.422,18.1a12.892,12.892,0,0,1-3.644.227c-4.519,4.677-12.714,7.4-24.473,8.117-14.1.862-25.995.343-35.8-1.576A37.864,37.864,0,0,1,2578.528-1062.246Zm-20.028-70.726c.075,3.319.045,6.73.019,10.2-.133,16.18-.268,32.908,11,43.6,5.095,4.836,12.274,8.236,21.661,10.231q.677-.28,1.331-.6c10.636-5.163,14.236-16.113,10.136-30.833-5.585-20.051-20.124-24.738-35.521-29.7C2564.251-1130.994,2561.353-1131.926,2558.5-1132.972Zm75.391,20.683c-.281,5.809-.054,16.3,4.039,25.554,2.4,5.425,7.412,9.752,12.179,11.047a9.791,9.791,0,0,0,.944-1.925C2654.666-1087.648,2641.929-1103.872,2633.89-1112.289Zm-96.74-54.244a2.821,2.821,0,0,0-2.538,1.206c-1.087,1.724-.868,5.811,3.006,12.1,4.094,6.655,9.76,10.69,16.218,13.688a46.867,46.867,0,0,0-2.474-12.177c-3.522-9.55-9.542-14.358-13.639-14.788A5.653,5.653,0,0,0,2537.15-1166.533Z" transform="translate(-2529.725 1170.854)" fill="#f38262"/>
        </g>
        <g id="chicken-2" data-name="chicken" transform="matrix(0.839, -0.545, 0.545, 0.839, 77.199, 792.827)" opacity="0.985">
          <path id="Path_106159-2" data-name="Path 106159" d="M2554.689-1115.3c-6.389,0-13.051-2.764-16.5-7.479-8.5-11.62.5-19.263.588-19.338a1.106,1.106,0,0,1,1.555.148,1.1,1.1,0,0,1-.146,1.554c-.321.27-7.453,6.436-.214,16.332,3.379,4.617,10.551,7.13,16.817,6.452a21.9,21.9,0,0,1-8.229-4.722c-6.461-6.131-6.388-15.176-6.316-23.925.017-2.084.033-4.123-.039-6.081-4.021-1.71-7.72-4.09-10.324-8.321-2.965-4.816-2.23-7.41-1.528-8.526a3.714,3.714,0,0,1,3.692-1.623c2.641.276,6.536,2.8,8.823,9a27.875,27.875,0,0,1,1.48,7.957c1.671.645,3.416,1.207,5.189,1.778,8.084,2.605,16.445,5.3,19.62,16.7,2.135,7.66.5,13.827-4.475,17.267a79.7,79.7,0,0,0,14.88.293c4.59-.281,7.94-1.148,10.017-2.591a12.671,12.671,0,0,1-6.526-6.507c-3.338-7.555-2.088-16.216-2.034-16.579a1.11,1.11,0,0,1,.73-.881,1.105,1.105,0,0,1,1.117.236c.575.538,14.053,13.267,11,21.744-.039.111-.08.22-.126.326,2.23-.548,3.457-3.05,3.457-7.067,0-11.077-10.144-23.409-18.544-26.235-12.686-4.27-21.253,2.031-21.339,2.095a1.1,1.1,0,0,1-1.546-.214,1.105,1.105,0,0,1,.21-1.546c.383-.29,9.537-7.087,23.381-2.429,10.3,3.468,20.048,17.235,20.048,28.329,0,7.339-3.729,8.918-5.331,9.257a6.6,6.6,0,0,1-1.864.116c-2.312,2.392-6.5,3.784-12.519,4.152a73.517,73.517,0,0,1-18.313-.806A19.365,19.365,0,0,1,2554.689-1115.3Zm-10.245-36.179c.038,1.7.023,3.443.009,5.218-.068,8.276-.137,16.834,5.629,22.3,2.606,2.474,6.279,4.213,11.08,5.233.231-.1.458-.2.681-.305,5.44-2.641,7.282-8.242,5.185-15.772-2.857-10.256-10.294-12.654-18.17-15.191C2547.386-1150.464,2545.9-1150.941,2544.444-1151.476Zm38.565,10.58a30.124,30.124,0,0,0,2.066,13.072,10.337,10.337,0,0,0,6.23,5.651,5,5,0,0,0,.483-.984C2593.636-1128.292,2587.121-1136.591,2583.009-1140.9Zm-49.485-27.747a1.444,1.444,0,0,0-1.3.617c-.555.882-.444,2.973,1.538,6.19a18.19,18.19,0,0,0,8.3,7,23.979,23.979,0,0,0-1.265-6.229c-1.8-4.885-4.881-7.345-6.977-7.565A2.839,2.839,0,0,0,2533.523-1168.643Z" transform="translate(-2529.725 1170.854)" fill="#f38262"/>
        </g>
        <g id="pizza" transform="translate(421.662 904.419) rotate(-171)" opacity="0.893">
          <path id="Path_106158" data-name="Path 106158" d="M2440.409-1115.74a5.185,5.185,0,0,1-.8-.059,2.136,2.136,0,0,1-1.639-1.185c-1.006-2.062.613-6.547,5.585-15.482a25.5,25.5,0,0,1,3.533-4.915,24.9,24.9,0,0,1,3.566-9.184,20.251,20.251,0,0,1,5.386-6.471c.069-.329.15-.648.238-.951,1.07-3.716,4.595-6.848,4.746-6.979a.994.994,0,0,1,1.4.089,1,1,0,0,1-.089,1.4,16.794,16.794,0,0,0-3.86,5.218,4.952,4.952,0,0,1,2.74-.046,4.207,4.207,0,0,1,3.064,4.1,3.218,3.218,0,0,1-2.743,3.065c-2.149.445-3.737.13-4.722-.934a3.9,3.9,0,0,1-.957-2.226,22.951,22.951,0,0,0-3.487,4.732,30.21,30.21,0,0,0-2.687,5.8,13.253,13.253,0,0,1,2.807-1.684c4.155-1.757,7.359-.248,8.574,1.9,1.062,1.874,1.009,5-2.628,7.655-3.269,2.384-7.3,2.618-9.588.554a5.523,5.523,0,0,1-1.68-3.037,24.3,24.3,0,0,0-1.877,2.878c-5.652,10.155-5.894,12.9-5.534,13.641.024.048.036.073.157.091,2.4.381,6.714-2.124,9.865-3.948l.862-.5a4.376,4.376,0,0,1,5.675.7c.071.06.151.129.229.193a5.855,5.855,0,0,0,.132-1.048c.084-1.169.208-2.937,2.1-3.723a2.667,2.667,0,0,1,2.748.192c1.576,1.155,1.519,3.825,1.421,4.918a1.492,1.492,0,0,0,.4,1.352.1.1,0,0,0,.134,0c.376-.224,1.038-1.442.845-4.453-.184-2.876.023-4.123.794-4.761a2.232,2.232,0,0,1,2.116-.211c.762.2,1.18.273,1.7-.2a14.822,14.822,0,0,0,1.985-2.448,16.839,16.839,0,0,1,6.364-5.935,11.927,11.927,0,0,0,2.885-2.242q-.93.216-1.9.417c-3.607.742-6.844-.413-8.254-2.94a5.606,5.606,0,0,1,1.147-6.7c2.964-3.139,6.752-4.047,11.26-2.7a4.4,4.4,0,0,1,3.263,3.982,9.445,9.445,0,0,1-.881,4.589c11.956-3.932,14.589-9.856,14.491-14.458a3.738,3.738,0,0,0-.124-.9,11.05,11.05,0,0,1-.426,2.813c-.633,2.28-2.056,3.9-3.807,4.341a3.317,3.317,0,0,1-3.256-.893c-.646-.678-1.6-2.263-.692-5.253a6.343,6.343,0,0,1,4.96-4.764c-1.563-1.994-4.662-3.51-9.23-4.513-.978-.215-2.055-.471-3.191-.742-6.566-1.564-16.489-3.929-18.651-.157-.9,1.562-1.1,2.91-.6,3.9a2.083,2.083,0,0,0,1.528,1.142,8.686,8.686,0,0,0,3.423-.675,1,1,0,0,1,.886.063,1,1,0,0,1,.485.746h0s.352,1.194,3.127,2.365a5.04,5.04,0,0,0,5.21-.925,1,1,0,0,1,1.052-.2.993.993,0,0,1,.624.866c.007.1.243,2.688,3.538,4.256,3.522,1.678,4.67,1.792,4.716,1.8a1.01,1.01,0,0,1,.924,1.047.984.984,0,0,1-.98.942h-.022c-.231,0-1.584-.125-5.493-1.988a8.1,8.1,0,0,1-4.277-4.357,6.73,6.73,0,0,1-6.064.4,8.136,8.136,0,0,1-3.88-2.838,9.133,9.133,0,0,1-3.492.485,4.1,4.1,0,0,1-3.083-2.219c-.572-1.128-.924-3.048.65-5.792,2.9-5.065,12.848-2.694,20.84-.789,1.123.268,2.188.521,3.156.735,5.654,1.241,9.229,3.216,10.927,6.037.127.212.244.428.35.648a4.54,4.54,0,0,1,2.861,4.383c.165,7.754-5.987,13.576-17.866,17a15.239,15.239,0,0,1-5.193,4.842,14.931,14.931,0,0,0-5.676,5.325,16.448,16.448,0,0,1-2.263,2.766,3.442,3.442,0,0,1-3.542.67c-.115-.03-.253-.064-.364-.086a10.258,10.258,0,0,0-.064,3c.279,4.368-1.017,5.816-1.814,6.291a2.085,2.085,0,0,1-2.212-.025,3.351,3.351,0,0,1-1.319-3.212c.146-1.656-.2-2.832-.616-3.138-.064-.046-.257-.189-.805.04-.687.287-.79.81-.875,2.026a3.841,3.841,0,0,1-.856,2.609c-1.078,1.079-2.232.093-2.788-.382-.912-.783-1.7-1.456-3.387-.485l-.855.494C2447.483-1118.081,2443.445-1115.74,2440.409-1115.74Zm8.615-20.776a4.412,4.412,0,0,0,1.166,3.7c1.565,1.413,4.609,1.117,7.082-.684,2.122-1.548,2.933-3.537,2.068-5.066-.794-1.4-3.03-2.331-6.067-1.046A14.147,14.147,0,0,0,2449.023-1136.516Zm29.547-13.9a7.906,7.906,0,0,0-5.967,2.677,3.636,3.636,0,0,0-.855,4.364c.742,1.332,2.785,2.645,6.112,1.959,1.527-.314,2.948-.653,4.275-1.016a8.926,8.926,0,0,0,1.563-5.188,2.42,2.42,0,0,0-1.854-2.273A11.4,11.4,0,0,0,2478.57-1150.42Zm-20.709-1.437a3.138,3.138,0,0,0,.42,2.433c.6.645,1.884.54,2.858.338.742-.153,1.132-.556,1.157-1.2a2.22,2.22,0,0,0-1.632-2.108A3.662,3.662,0,0,0,2457.861-1151.857Zm38.892-8.565c-1.431,0-3.139,1.019-3.864,3.414-.44,1.458-.354,2.693.228,3.3a1.32,1.32,0,0,0,1.332.336,3.85,3.85,0,0,0,2.371-2.942,7.425,7.425,0,0,0,.125-4.105C2496.881-1160.42,2496.816-1160.422,2496.753-1160.422Z" transform="translate(-2437.689 1171.79)" fill="#f38262"/>
        </g>
        <g id="pizza-2" data-name="pizza" transform="translate(326.21 583.797) rotate(-20)" opacity="0.874">
          <path id="Path_106158-2" data-name="Path 106158" d="M2439.881-1126.614a4.176,4.176,0,0,1-.642-.048,1.721,1.721,0,0,1-1.321-.955c-.811-1.662.494-5.277,4.5-12.478a20.56,20.56,0,0,1,2.847-3.962,20.072,20.072,0,0,1,2.875-7.4,16.319,16.319,0,0,1,4.342-5.216c.056-.265.121-.523.192-.766a14.009,14.009,0,0,1,3.825-5.625.8.8,0,0,1,1.131.072.8.8,0,0,1-.072,1.132,13.539,13.539,0,0,0-3.112,4.206,3.992,3.992,0,0,1,2.208-.037,3.391,3.391,0,0,1,2.47,3.3,2.594,2.594,0,0,1-2.211,2.47c-1.732.359-3.012.1-3.806-.753a3.14,3.14,0,0,1-.771-1.794,18.5,18.5,0,0,0-2.81,3.814,24.353,24.353,0,0,0-2.166,4.675,10.681,10.681,0,0,1,2.263-1.357c3.349-1.417,5.931-.2,6.911,1.531.855,1.511.813,4.033-2.118,6.17-2.635,1.921-5.884,2.11-7.728.447a4.452,4.452,0,0,1-1.354-2.448,19.587,19.587,0,0,0-1.513,2.32c-4.555,8.185-4.75,10.4-4.461,10.994.02.038.029.059.127.074,1.936.307,5.412-1.712,7.951-3.182l.695-.4a3.527,3.527,0,0,1,4.574.564l.184.155a4.7,4.7,0,0,0,.107-.845,3.03,3.03,0,0,1,1.69-3,2.149,2.149,0,0,1,2.215.155c1.27.931,1.224,3.083,1.146,3.964a1.2,1.2,0,0,0,.318,1.09.08.08,0,0,0,.108,0c.3-.18.837-1.162.681-3.589-.148-2.318.019-3.323.64-3.838a1.8,1.8,0,0,1,1.706-.17c.614.158.951.22,1.367-.165a11.958,11.958,0,0,0,1.6-1.973,13.572,13.572,0,0,1,5.129-4.783,9.611,9.611,0,0,0,2.325-1.807q-.75.174-1.531.336c-2.907.6-5.516-.333-6.653-2.369a4.519,4.519,0,0,1,.925-5.4c2.389-2.53,5.442-3.262,9.075-2.172a3.544,3.544,0,0,1,2.63,3.209,7.613,7.613,0,0,1-.71,3.7c9.636-3.169,11.759-7.944,11.68-11.653a3,3,0,0,0-.1-.725,8.912,8.912,0,0,1-.343,2.268,4.643,4.643,0,0,1-3.068,3.5,2.674,2.674,0,0,1-2.624-.72c-.521-.547-1.286-1.824-.558-4.234a5.112,5.112,0,0,1,4-3.84c-1.26-1.607-3.758-2.829-7.44-3.637-.788-.173-1.656-.38-2.572-.6-5.292-1.261-13.29-3.167-15.033-.126a3.365,3.365,0,0,0-.484,3.143,1.678,1.678,0,0,0,1.232.921,7,7,0,0,0,2.759-.544.805.805,0,0,1,.715.051.8.8,0,0,1,.391.6h0s.284.962,2.521,1.906a4.063,4.063,0,0,0,4.2-.746.805.805,0,0,1,.848-.161.8.8,0,0,1,.5.7,4.531,4.531,0,0,0,2.852,3.43,14.185,14.185,0,0,0,3.8,1.448.814.814,0,0,1,.744.844.793.793,0,0,1-.79.759h-.018c-.187,0-1.277-.1-4.428-1.6a6.525,6.525,0,0,1-3.448-3.512,5.425,5.425,0,0,1-4.887.32,6.557,6.557,0,0,1-3.127-2.287,7.36,7.36,0,0,1-2.814.391,3.3,3.3,0,0,1-2.484-1.789c-.461-.909-.744-2.456.524-4.668,2.34-4.082,10.356-2.171,16.8-.636.905.216,1.764.42,2.543.592,4.557,1,7.439,2.592,8.808,4.866.1.171.2.345.282.523a3.659,3.659,0,0,1,2.306,3.533c.133,6.25-4.826,10.943-14.4,13.7a12.282,12.282,0,0,1-4.186,3.9,12.036,12.036,0,0,0-4.575,4.292,13.252,13.252,0,0,1-1.824,2.229,2.774,2.774,0,0,1-2.854.54c-.093-.024-.2-.052-.294-.069a8.265,8.265,0,0,0-.052,2.42c.225,3.52-.819,4.688-1.462,5.071a1.68,1.68,0,0,1-1.782-.02,2.7,2.7,0,0,1-1.063-2.589,3.244,3.244,0,0,0-.5-2.529c-.052-.037-.207-.152-.649.032-.553.231-.636.653-.706,1.633a3.1,3.1,0,0,1-.689,2.1c-.869.87-1.8.075-2.247-.308a1.967,1.967,0,0,0-2.73-.391l-.69.4C2445.583-1128.5,2442.328-1126.614,2439.881-1126.614Zm6.943-16.745a3.555,3.555,0,0,0,.939,2.981c1.262,1.139,3.715.9,5.708-.552,1.71-1.247,2.364-2.85,1.667-4.083-.64-1.131-2.442-1.879-4.89-.843A11.4,11.4,0,0,0,2446.824-1143.359Zm23.814-11.207a6.372,6.372,0,0,0-4.809,2.158,2.931,2.931,0,0,0-.689,3.517c.6,1.073,2.245,2.132,4.926,1.579,1.231-.253,2.376-.527,3.446-.819a7.2,7.2,0,0,0,1.259-4.182,1.95,1.95,0,0,0-1.494-1.832A9.186,9.186,0,0,0,2470.639-1154.566Zm-16.691-1.158a2.531,2.531,0,0,0,.338,1.961c.482.519,1.519.436,2.3.273.6-.123.913-.448.933-.963a1.789,1.789,0,0,0-1.316-1.7A2.952,2.952,0,0,0,2453.948-1155.724Zm31.347-6.9a3.439,3.439,0,0,0-3.114,2.752,2.823,2.823,0,0,0,.184,2.663,1.064,1.064,0,0,0,1.073.271,3.1,3.1,0,0,0,1.911-2.371,5.985,5.985,0,0,0,.1-3.309C2485.4-1162.626,2485.345-1162.628,2485.295-1162.628Z" transform="translate(-2437.689 1171.79)" fill="#f38262"/>
        </g>
        <g id="pizza-3" data-name="pizza" transform="translate(396.165 53.862) rotate(172)" opacity="0.843">
          <path id="Path_106158-3" data-name="Path 106158" d="M2439.991-1124.346a4.389,4.389,0,0,1-.674-.05,1.808,1.808,0,0,1-1.387-1c-.852-1.746.518-5.542,4.727-13.1a21.585,21.585,0,0,1,2.99-4.161,21.08,21.08,0,0,1,3.019-7.774,17.135,17.135,0,0,1,4.56-5.477c.059-.279.127-.549.2-.8a14.714,14.714,0,0,1,4.017-5.907.841.841,0,0,1,1.188.075.843.843,0,0,1-.075,1.189,14.223,14.223,0,0,0-3.268,4.417,4.191,4.191,0,0,1,2.319-.039,3.561,3.561,0,0,1,2.594,3.47,2.724,2.724,0,0,1-2.322,2.594c-1.82.377-3.164.11-4-.791a3.3,3.3,0,0,1-.811-1.884,19.431,19.431,0,0,0-2.951,4.005,25.583,25.583,0,0,0-2.275,4.91,11.224,11.224,0,0,1,2.376-1.425c3.517-1.488,6.229-.21,7.258,1.608.9,1.587.854,4.235-2.225,6.479-2.767,2.018-6.18,2.216-8.116.469a4.676,4.676,0,0,1-1.422-2.571,20.564,20.564,0,0,0-1.589,2.436c-4.784,8.6-4.989,10.923-4.685,11.546.021.04.031.062.133.077,2.033.322,5.683-1.8,8.35-3.342l.73-.422a3.7,3.7,0,0,1,4.8.592l.194.163a4.953,4.953,0,0,0,.112-.887c.071-.99.176-2.486,1.775-3.152a2.258,2.258,0,0,1,2.326.162c1.334.978,1.286,3.238,1.2,4.163a1.264,1.264,0,0,0,.334,1.145.084.084,0,0,0,.113,0c.319-.19.879-1.221.715-3.769-.156-2.435.02-3.49.672-4.03a1.89,1.89,0,0,1,1.791-.178c.645.165,1,.231,1.435-.173a12.538,12.538,0,0,0,1.68-2.072,14.255,14.255,0,0,1,5.387-5.023,10.094,10.094,0,0,0,2.442-1.9q-.788.183-1.608.353c-3.053.628-5.793-.349-6.987-2.488a4.746,4.746,0,0,1,.971-5.672c2.509-2.657,5.715-3.426,9.531-2.281a3.722,3.722,0,0,1,2.762,3.37,7.994,7.994,0,0,1-.746,3.884c10.12-3.328,12.349-8.343,12.267-12.238a3.157,3.157,0,0,0-.1-.761,9.362,9.362,0,0,1-.36,2.381,4.876,4.876,0,0,1-3.223,3.674,2.807,2.807,0,0,1-2.756-.756c-.547-.574-1.351-1.916-.586-4.446a5.37,5.37,0,0,1,4.2-4.032c-1.323-1.688-3.947-2.971-7.813-3.82-.828-.182-1.739-.4-2.7-.628-5.558-1.324-13.957-3.326-15.788-.133-.758,1.322-.933,2.463-.508,3.3a1.764,1.764,0,0,0,1.294.967,7.351,7.351,0,0,0,2.9-.572.846.846,0,0,1,.75.053.843.843,0,0,1,.411.632h0s.3,1.011,2.647,2a4.267,4.267,0,0,0,4.41-.783.846.846,0,0,1,.891-.169.842.842,0,0,1,.529.733,4.758,4.758,0,0,0,2.994,3.6,14.906,14.906,0,0,0,3.992,1.52.855.855,0,0,1,.782.886.833.833,0,0,1-.83.8h-.019c-.2,0-1.341-.106-4.65-1.683a6.853,6.853,0,0,1-3.621-3.688,5.7,5.7,0,0,1-5.133.337,6.884,6.884,0,0,1-3.284-2.4,7.731,7.731,0,0,1-2.956.411,3.47,3.47,0,0,1-2.609-1.879c-.484-.955-.782-2.58.55-4.9,2.457-4.287,10.876-2.28,17.641-.667.951.227,1.852.441,2.671.622,4.786,1.051,7.812,2.722,9.25,5.11q.161.27.3.549a3.843,3.843,0,0,1,2.422,3.71c.14,6.563-5.068,11.492-15.123,14.393a12.9,12.9,0,0,1-4.4,4.1,12.641,12.641,0,0,0-4.8,4.507,13.919,13.919,0,0,1-1.916,2.341,2.913,2.913,0,0,1-3,.567c-.1-.025-.215-.055-.309-.073a8.687,8.687,0,0,0-.054,2.542c.237,3.7-.86,4.923-1.535,5.325a1.764,1.764,0,0,1-1.872-.021,2.835,2.835,0,0,1-1.116-2.719c.124-1.4-.168-2.4-.522-2.656-.055-.039-.218-.16-.682.034-.582.243-.668.686-.741,1.715a3.252,3.252,0,0,1-.724,2.208c-.913.914-1.89.078-2.36-.323-.772-.663-1.44-1.233-2.867-.41l-.724.418C2445.979-1126.327,2442.561-1124.346,2439.991-1124.346Zm7.292-17.586a3.735,3.735,0,0,0,.987,3.131c1.325,1.2,3.9.945,5.995-.579,1.8-1.31,2.483-2.994,1.75-4.288-.672-1.188-2.564-1.973-5.136-.886A11.978,11.978,0,0,0,2447.283-1141.932Zm25.01-11.769a6.692,6.692,0,0,0-5.051,2.266,3.079,3.079,0,0,0-.724,3.694c.628,1.127,2.357,2.239,5.174,1.658,1.293-.266,2.5-.553,3.619-.86a7.556,7.556,0,0,0,1.323-4.392,2.049,2.049,0,0,0-1.569-1.924A9.647,9.647,0,0,0,2472.293-1153.7Zm-17.53-1.216a2.658,2.658,0,0,0,.355,2.059c.506.546,1.6.458,2.419.287.628-.13.959-.47.98-1.012a1.879,1.879,0,0,0-1.382-1.785A3.1,3.1,0,0,0,2454.764-1154.917Zm32.921-7.25a3.612,3.612,0,0,0-3.271,2.89,2.966,2.966,0,0,0,.193,2.8,1.117,1.117,0,0,0,1.127.284,3.257,3.257,0,0,0,2.007-2.49,6.284,6.284,0,0,0,.105-3.475C2487.793-1162.166,2487.738-1162.168,2487.685-1162.168Z" transform="translate(-2437.689 1171.791)" fill="#f38262"/>
        </g>
        <g id="pizza-4" data-name="pizza" transform="matrix(-0.999, 0.035, -0.035, -0.999, 322.827, 399.601)" opacity="0.914">
          <path id="Path_106158-4" data-name="Path 106158" d="M2440.4-1115.839a5.182,5.182,0,0,1-.795-.059,2.132,2.132,0,0,1-1.636-1.183c-1-2.059.611-6.535,5.575-15.454a25.457,25.457,0,0,1,3.526-4.907,24.865,24.865,0,0,1,3.56-9.168,20.217,20.217,0,0,1,5.377-6.46c.069-.329.15-.647.238-.949,1.068-3.71,4.587-6.836,4.737-6.967a.992.992,0,0,1,1.4.089,1,1,0,0,1-.089,1.4,16.765,16.765,0,0,0-3.854,5.209,4.944,4.944,0,0,1,2.735-.046,4.2,4.2,0,0,1,3.059,4.093,3.213,3.213,0,0,1-2.738,3.059c-2.146.444-3.731.13-4.714-.932a3.889,3.889,0,0,1-.956-2.222,22.906,22.906,0,0,0-3.48,4.723,30.141,30.141,0,0,0-2.683,5.791,13.219,13.219,0,0,1,2.8-1.681c4.148-1.754,7.346-.248,8.559,1.9,1.06,1.871,1.007,4.994-2.624,7.641-3.263,2.38-7.288,2.613-9.571.553a5.513,5.513,0,0,1-1.677-3.032,24.226,24.226,0,0,0-1.874,2.873c-5.642,10.137-5.883,12.882-5.525,13.616.024.047.036.073.157.091,2.4.38,6.7-2.12,9.847-3.941l.861-.5a4.368,4.368,0,0,1,5.665.7l.228.192a5.835,5.835,0,0,0,.132-1.047c.084-1.167.207-2.932,2.093-3.717a2.663,2.663,0,0,1,2.743.191c1.573,1.153,1.516,3.818,1.419,4.91a1.488,1.488,0,0,0,.394,1.35.1.1,0,0,0,.134,0c.376-.224,1.036-1.44.844-4.445-.184-2.871.023-4.116.793-4.753a2.228,2.228,0,0,1,2.112-.211c.76.2,1.178.272,1.693-.2a14.809,14.809,0,0,0,1.981-2.444,16.81,16.81,0,0,1,6.353-5.924,11.9,11.9,0,0,0,2.879-2.238q-.929.216-1.9.416c-3.6.741-6.832-.412-8.24-2.934a5.6,5.6,0,0,1,1.146-6.689c2.959-3.133,6.74-4.04,11.24-2.69a4.389,4.389,0,0,1,3.258,3.975,9.428,9.428,0,0,1-.88,4.581c11.934-3.924,14.563-9.838,14.466-14.432a3.725,3.725,0,0,0-.124-.9,11.032,11.032,0,0,1-.425,2.808c-.632,2.276-2.052,3.9-3.8,4.333a3.311,3.311,0,0,1-3.25-.891c-.645-.677-1.593-2.259-.691-5.243a6.332,6.332,0,0,1,4.951-4.755c-1.56-1.99-4.654-3.5-9.214-4.505-.976-.215-2.051-.47-3.185-.741-6.554-1.562-16.459-3.922-18.618-.157-.894,1.559-1.1,2.9-.6,3.892a2.079,2.079,0,0,0,1.525,1.14,8.668,8.668,0,0,0,3.417-.674,1,1,0,0,1,.885.063.993.993,0,0,1,.485.745h0s.352,1.192,3.122,2.36a5.032,5.032,0,0,0,5.2-.923,1,1,0,0,1,1.051-.2.992.992,0,0,1,.623.864c.007.1.243,2.683,3.531,4.248,3.516,1.675,4.662,1.789,4.708,1.793a1.008,1.008,0,0,1,.922,1.045.982.982,0,0,1-.978.94h-.022c-.231-.005-1.581-.125-5.484-1.984a8.082,8.082,0,0,1-4.27-4.35,6.718,6.718,0,0,1-6.053.4,8.121,8.121,0,0,1-3.873-2.833,9.116,9.116,0,0,1-3.486.484,4.093,4.093,0,0,1-3.077-2.215c-.571-1.126-.922-3.042.649-5.781,2.9-5.056,12.826-2.689,20.8-.787,1.121.267,2.184.52,3.15.733,5.644,1.239,9.213,3.21,10.908,6.027q.19.318.349.647a4.532,4.532,0,0,1,2.856,4.375c.165,7.74-5.977,13.552-17.835,16.974a15.214,15.214,0,0,1-5.184,4.834,14.907,14.907,0,0,0-5.666,5.315,16.412,16.412,0,0,1-2.259,2.761,3.436,3.436,0,0,1-3.535.669c-.115-.03-.253-.064-.364-.086a10.242,10.242,0,0,0-.064,3c.279,4.36-1.015,5.806-1.811,6.28a2.081,2.081,0,0,1-2.208-.025,3.345,3.345,0,0,1-1.316-3.207c.146-1.653-.2-2.827-.615-3.132-.064-.046-.257-.189-.8.04-.686.286-.788.809-.874,2.023a3.834,3.834,0,0,1-.854,2.6c-1.077,1.078-2.229.092-2.783-.382-.91-.782-1.7-1.454-3.381-.484l-.854.493C2447.466-1118.176,2443.435-1115.839,2440.4-1115.839Zm8.6-20.739a4.405,4.405,0,0,0,1.164,3.692c1.563,1.41,4.6,1.115,7.069-.683,2.118-1.545,2.928-3.53,2.064-5.057-.793-1.4-3.024-2.327-6.056-1.044A14.121,14.121,0,0,0,2449-1136.578Zm29.494-13.88a7.892,7.892,0,0,0-5.956,2.672,3.631,3.631,0,0,0-.854,4.356c.741,1.329,2.78,2.64,6.1,1.956,1.524-.313,2.943-.652,4.268-1.015a8.913,8.913,0,0,0,1.56-5.179,2.416,2.416,0,0,0-1.851-2.269A11.375,11.375,0,0,0,2478.5-1150.458Zm-20.672-1.434a3.133,3.133,0,0,0,.419,2.428c.6.643,1.881.539,2.854.338.741-.153,1.13-.555,1.155-1.193a2.216,2.216,0,0,0-1.629-2.1A3.656,3.656,0,0,0,2457.825-1151.892Zm38.823-8.55c-1.428,0-3.134,1.017-3.857,3.408-.439,1.455-.353,2.688.228,3.3a1.317,1.317,0,0,0,1.329.335,3.842,3.842,0,0,0,2.366-2.937,7.413,7.413,0,0,0,.125-4.1C2496.777-1160.44,2496.711-1160.443,2496.648-1160.443Z" transform="translate(-2437.689 1171.79)" fill="#f38262"/>
        </g>
        <g id="pizza-5" data-name="pizza" transform="translate(290.717 532.188) rotate(-98)" opacity="0.962">
          <path id="Path_106158-5" data-name="Path 106158" d="M2439.542-1133.613a3.536,3.536,0,0,1-.542-.04,1.455,1.455,0,0,1-1.116-.807c-.685-1.4.417-4.459,3.8-10.545a17.369,17.369,0,0,1,2.406-3.348,16.965,16.965,0,0,1,2.429-6.256,13.793,13.793,0,0,1,3.669-4.407c.047-.224.1-.442.162-.648a11.836,11.836,0,0,1,3.232-4.754.676.676,0,0,1,.956.06.679.679,0,0,1-.061.957,11.444,11.444,0,0,0-2.629,3.554,3.373,3.373,0,0,1,1.866-.032,2.866,2.866,0,0,1,2.087,2.793,2.192,2.192,0,0,1-1.868,2.087c-1.464.3-2.546.088-3.217-.636a2.655,2.655,0,0,1-.652-1.516,15.636,15.636,0,0,0-2.375,3.223,20.559,20.559,0,0,0-1.83,3.951,9.009,9.009,0,0,1,1.912-1.147c2.83-1.2,5.012-.169,5.84,1.294.723,1.277.687,3.408-1.79,5.214-2.227,1.624-4.973,1.783-6.531.378a3.761,3.761,0,0,1-1.144-2.069,16.58,16.58,0,0,0-1.279,1.96c-3.849,6.917-4.014,8.79-3.77,9.291.017.032.024.05.107.062,1.636.259,4.573-1.447,6.719-2.689l.587-.34a2.98,2.98,0,0,1,3.865.477l.156.131a3.992,3.992,0,0,0,.09-.714,2.56,2.56,0,0,1,1.428-2.536,1.817,1.817,0,0,1,1.872.131c1.073.787,1.035,2.605.968,3.35a1.016,1.016,0,0,0,.269.921.068.068,0,0,0,.091,0c.257-.152.707-.982.575-3.033-.125-1.959.016-2.808.541-3.243a1.52,1.52,0,0,1,1.441-.144c.519.133.8.186,1.155-.139a10.107,10.107,0,0,0,1.352-1.668,11.469,11.469,0,0,1,4.335-4.042,8.124,8.124,0,0,0,1.965-1.527q-.634.147-1.294.284c-2.457.506-4.662-.281-5.622-2a3.819,3.819,0,0,1,.782-4.564,7.037,7.037,0,0,1,7.669-1.836,3,3,0,0,1,2.223,2.712,6.434,6.434,0,0,1-.6,3.126c8.144-2.678,9.937-6.713,9.871-9.848a2.554,2.554,0,0,0-.084-.612,7.547,7.547,0,0,1-.29,1.916,3.923,3.923,0,0,1-2.593,2.956,2.259,2.259,0,0,1-2.218-.608c-.44-.462-1.087-1.541-.471-3.578a4.321,4.321,0,0,1,3.379-3.245c-1.065-1.358-3.176-2.39-6.287-3.074-.666-.146-1.4-.321-2.173-.506-4.472-1.066-11.231-2.676-12.7-.107a2.844,2.844,0,0,0-.409,2.656,1.419,1.419,0,0,0,1.041.778,5.913,5.913,0,0,0,2.332-.46.681.681,0,0,1,.6.043.678.678,0,0,1,.331.508h0s.24.813,2.13,1.611a3.433,3.433,0,0,0,3.549-.63.681.681,0,0,1,.717-.136.677.677,0,0,1,.425.59,3.829,3.829,0,0,0,2.41,2.9,11.989,11.989,0,0,0,3.212,1.223.688.688,0,0,1,.629.713.67.67,0,0,1-.667.641h-.015a11.438,11.438,0,0,1-3.742-1.354,5.516,5.516,0,0,1-2.913-2.968,4.584,4.584,0,0,1-4.13.271,5.541,5.541,0,0,1-2.643-1.933,6.22,6.22,0,0,1-2.378.331,2.792,2.792,0,0,1-2.1-1.512c-.39-.768-.629-2.076.443-3.945,1.977-3.45,8.751-1.835,14.195-.537.765.182,1.49.355,2.149.5,3.851.845,6.286,2.191,7.443,4.112.086.145.167.292.238.442a3.093,3.093,0,0,1,1.949,2.985c.112,5.281-4.078,9.247-12.169,11.582a10.38,10.38,0,0,1-3.538,3.3,10.171,10.171,0,0,0-3.866,3.627,11.2,11.2,0,0,1-1.542,1.884,2.344,2.344,0,0,1-2.412.456c-.078-.02-.173-.044-.248-.059a7,7,0,0,0-.044,2.045c.19,2.975-.692,3.962-1.235,4.285a1.42,1.42,0,0,1-1.506-.017,2.283,2.283,0,0,1-.9-2.188,2.741,2.741,0,0,0-.42-2.137c-.044-.031-.175-.129-.548.027-.468.2-.538.552-.6,1.38a2.616,2.616,0,0,1-.583,1.777c-.735.735-1.521.063-1.9-.26a1.662,1.662,0,0,0-2.307-.33l-.583.336C2444.36-1135.207,2441.609-1133.613,2439.542-1133.613Zm5.867-14.151a3.006,3.006,0,0,0,.794,2.519c1.066.962,3.14.76,4.824-.466,1.445-1.054,2-2.409,1.408-3.451-.541-.956-2.064-1.588-4.133-.713A9.637,9.637,0,0,0,2445.409-1147.764Zm20.125-9.471a5.385,5.385,0,0,0-4.064,1.823,2.477,2.477,0,0,0-.583,2.972c.505.907,1.9,1.8,4.163,1.335,1.04-.214,2.008-.445,2.912-.692a6.081,6.081,0,0,0,1.064-3.534,1.648,1.648,0,0,0-1.263-1.548A7.759,7.759,0,0,0,2465.534-1157.235Zm-14.105-.979a2.137,2.137,0,0,0,.286,1.657c.407.439,1.284.368,1.947.23.506-.1.771-.379.788-.814a1.512,1.512,0,0,0-1.112-1.436A2.5,2.5,0,0,0,2451.428-1158.213Zm26.49-5.834a2.906,2.906,0,0,0-2.632,2.325,2.387,2.387,0,0,0,.155,2.25.9.9,0,0,0,.907.229,2.621,2.621,0,0,0,1.615-2,5.061,5.061,0,0,0,.085-2.8C2478.006-1164.046,2477.961-1164.047,2477.919-1164.047Z" transform="translate(-2437.689 1171.79)" fill="#f38262"/>
        </g>
        <g id="cupcake" transform="translate(223.663 82.353) rotate(-34)" opacity="0.999">
          <path id="Path_106157" data-name="Path 106157" d="M2373.91-1118.308a3.48,3.48,0,0,1-2.748-1.843,3.417,3.417,0,0,1-2.838,1.619,5.029,5.029,0,0,1-3.4-1.7,2.329,2.329,0,0,1-2.081,1.4h0c-6.976,0-9.422-15.117-9.677-16.84a1.11,1.11,0,0,1,.933-1.26,1.107,1.107,0,0,1,1.26.934c.578,3.878,3.192,14.949,7.484,14.949h0a1.863,1.863,0,0,0,.475-1.119,34.134,34.134,0,0,1-5.048-13.1c-.1-.841-.408-3.4,1.349-3.827a2.826,2.826,0,0,1,2.934,1.237c2.271,2.8,3.672,10.5,3.073,15.113,1,1.282,1.952,1.993,2.7,1.993.569,0,1.142-.639,1.612-1.76-2.113-5.124-3.488-14.23-1.911-16.854a1.915,1.915,0,0,1,1.757-1.017c3.662.168,3.546,9.9,3.521,11.01a26.113,26.113,0,0,1-.985,6.774c.818,1.7,1.435,2.066,1.6,2.071.222-.009,1.053-.518,2.21-2.747.084-.16.165-.323.247-.487a32.832,32.832,0,0,1-.334-4.234c-.043-2.053-.048-12.3,3.945-12.463a1.74,1.74,0,0,1,1.586.866c1.5,2.385-.613,11.05-2.9,16.134a5.492,5.492,0,0,0,.946,2.687c1.657-.672,6.2-9.537,6-16.284-.146-4.836-2.728-5.336-3.577-5.5-9.611-1.867-14.61-2.33-22.16,1.048-3.31,1.48-6.365,1.288-8.167-.512-1.667-1.663-1.884-4.281-.594-7.182,3.085-6.94,20.235-3.329,28.873-.45,1.751.584,3.308.409,4.166-.469a2.034,2.034,0,0,0,.442-2.161c-.562-1.553-2.629-2.662-5.531-2.965a50.162,50.162,0,0,0-9.566.286c-4.783.449-8.562.8-10.131-1.309-.882-1.186-.852-2.89.09-5.209,1.814-4.456,7.776-2.862,12.566-1.584,1.7.455,4.244,1.134,4.941.9a1.779,1.779,0,0,0-.071-.435c-.519-1.926-1.473-2.182-3.053-2.607a9.6,9.6,0,0,1-3.2-1.33,5.464,5.464,0,0,1-2.585-3.587,3.7,3.7,0,0,1,.679-2.728,1.11,1.11,0,0,1,1.558-.173,1.108,1.108,0,0,1,.174,1.558,1.517,1.517,0,0,0-.212,1.057,3.529,3.529,0,0,0,1.652,2.053,7.6,7.6,0,0,0,2.507,1.009c1.766.475,3.766,1.013,4.617,4.171a2.5,2.5,0,0,1-.453,2.568c-1.249,1.254-3.716.6-7.13-.315-4.849-1.3-8.941-2.17-9.939.277-.6,1.475-.73,2.56-.364,3.051.827,1.113,4.546.763,8.141.424a51.721,51.721,0,0,1,10-.283c5.431.567,6.975,3.277,7.387,4.417a4.26,4.26,0,0,1-.941,4.462c-1.464,1.5-3.878,1.884-6.454,1.026-9.3-3.1-24.043-5.483-26.146-.753-.9,2.016-.846,3.733.134,4.713,1.111,1.109,3.293,1.132,5.7.057,8.1-3.623,13.628-3.118,23.488-1.2,3.949.767,5.826,4.291,5.285,9.926-.646,6.723-4.975,16.277-8.16,16.277-1.119,0-1.891-.868-2.421-2.14-1.041,1.545-2.085,2.321-3.169,2.361Zm-13.507-18.554c-.193,1.509.977,6.409,3.1,10.647a26.459,26.459,0,0,0-1.739-8.573A4.675,4.675,0,0,0,2360.4-1136.863Zm9.393-1.122c-.58,1.474-.148,6.841,1.1,11.434C2371.5-1131.361,2370.71-1136.765,2369.8-1137.985Zm10.039-.028c-.382.514-1.049,1.973-1.4,5.356a37.088,37.088,0,0,0-.191,4.068C2379.477-1132.553,2380.118-1136.577,2379.834-1138.013Z" transform="translate(-2350.285 1173.265)" fill="#f38262"/>
        </g>
        <g id="cupcake-2" data-name="cupcake" transform="translate(-15.684 410.582) rotate(-30)" opacity="0.995">
          <path id="Path_106157-2" data-name="Path 106157" d="M2368.2-1131.584a2.64,2.64,0,0,1-2.084-1.4,2.592,2.592,0,0,1-2.153,1.228,3.815,3.815,0,0,1-2.579-1.287,1.766,1.766,0,0,1-1.578,1.061h0c-5.291,0-7.146-11.465-7.34-12.772a.842.842,0,0,1,.707-.956.84.84,0,0,1,.956.709c.438,2.942,2.421,11.338,5.677,11.338h0a1.412,1.412,0,0,0,.36-.849,25.888,25.888,0,0,1-3.829-9.935c-.077-.638-.309-2.579,1.023-2.9a2.143,2.143,0,0,1,2.225.938c1.723,2.122,2.785,7.966,2.331,11.462.759.972,1.48,1.511,2.048,1.511.432,0,.866-.484,1.223-1.335-1.6-3.886-2.645-10.793-1.449-12.783a1.452,1.452,0,0,1,1.333-.771c2.778.127,2.69,7.509,2.67,8.35a19.806,19.806,0,0,1-.747,5.137c.621,1.291,1.088,1.567,1.211,1.571.168-.006.8-.393,1.677-2.084.064-.121.125-.245.187-.37a24.838,24.838,0,0,1-.254-3.211c-.033-1.557-.036-9.329,2.992-9.453a1.32,1.32,0,0,1,1.2.657c1.141,1.809-.465,8.381-2.2,12.237a4.164,4.164,0,0,0,.718,2.038c1.257-.509,4.7-7.233,4.549-12.351-.111-3.668-2.069-4.047-2.713-4.172-7.289-1.416-11.081-1.767-16.807.795-2.51,1.122-4.827.977-6.195-.388-1.264-1.262-1.429-3.247-.451-5.447,2.34-5.263,15.348-2.525,21.9-.342a3.042,3.042,0,0,0,3.16-.356,1.542,1.542,0,0,0,.335-1.639c-.426-1.178-1.994-2.019-4.195-2.249a38.049,38.049,0,0,0-7.256.217c-3.628.341-6.493.61-7.684-.993-.669-.9-.646-2.192.069-3.951,1.376-3.38,5.9-2.171,9.53-1.2,1.291.345,3.219.86,3.747.683a1.346,1.346,0,0,0-.054-.33c-.394-1.461-1.117-1.655-2.316-1.977a7.286,7.286,0,0,1-2.425-1.009,4.144,4.144,0,0,1-1.96-2.72,2.81,2.81,0,0,1,.515-2.069.843.843,0,0,1,1.182-.132.841.841,0,0,1,.132,1.182,1.15,1.15,0,0,0-.161.8,2.676,2.676,0,0,0,1.253,1.557,5.758,5.758,0,0,0,1.9.765c1.339.36,2.856.769,3.5,3.164a1.894,1.894,0,0,1-.344,1.948c-.947.951-2.818.452-5.408-.239-3.678-.983-6.781-1.646-7.538.21-.455,1.119-.554,1.941-.276,2.313.627.844,3.448.579,6.175.322a39.221,39.221,0,0,1,7.588-.215c4.119.43,5.29,2.486,5.6,3.35a3.232,3.232,0,0,1-.714,3.384,4.642,4.642,0,0,1-4.9.778c-7.054-2.351-18.235-4.159-19.83-.571-.68,1.529-.642,2.831.1,3.574.843.841,2.5.858,4.32.043,6.14-2.748,10.336-2.365,17.814-.911,3,.582,4.419,3.255,4.008,7.528-.49,5.1-3.773,12.345-6.188,12.345-.849,0-1.434-.659-1.837-1.623-.789,1.172-1.581,1.761-2.4,1.79Zm-10.244-14.072c-.146,1.145.741,4.861,2.35,8.075a20.066,20.066,0,0,0-1.319-6.5A3.547,3.547,0,0,0,2357.958-1145.656Zm7.124-.851c-.44,1.118-.112,5.188.837,8.672C2366.373-1141.483,2365.776-1145.582,2365.083-1146.507Zm7.614-.021c-.29.39-.8,1.5-1.061,4.062a28.183,28.183,0,0,0-.146,3.085C2372.425-1142.387,2372.912-1145.439,2372.7-1146.528Z" transform="translate(-2350.284 1173.265)" fill="#f38262"/>
        </g>
        <g id="cupcake-3" data-name="cupcake" transform="matrix(0.788, 0.616, -0.616, 0.788, 57.974, 852.188)" opacity="0.995">
          <path id="Path_106157-3" data-name="Path 106157" d="M2368.2-1131.584a2.64,2.64,0,0,1-2.084-1.4,2.592,2.592,0,0,1-2.153,1.228,3.815,3.815,0,0,1-2.579-1.287,1.766,1.766,0,0,1-1.578,1.061h0c-5.291,0-7.146-11.465-7.34-12.772a.842.842,0,0,1,.707-.956.84.84,0,0,1,.956.709c.438,2.942,2.421,11.338,5.677,11.338h0a1.412,1.412,0,0,0,.36-.849,25.888,25.888,0,0,1-3.829-9.935c-.077-.638-.309-2.579,1.023-2.9a2.143,2.143,0,0,1,2.225.938c1.723,2.122,2.785,7.966,2.331,11.462.759.972,1.48,1.511,2.048,1.511.432,0,.866-.484,1.223-1.335-1.6-3.886-2.645-10.793-1.449-12.783a1.452,1.452,0,0,1,1.333-.771c2.778.127,2.69,7.509,2.67,8.35a19.806,19.806,0,0,1-.747,5.137c.621,1.291,1.088,1.567,1.211,1.571.168-.006.8-.393,1.677-2.084.064-.121.125-.245.187-.37a24.838,24.838,0,0,1-.254-3.211c-.033-1.557-.036-9.329,2.992-9.453a1.32,1.32,0,0,1,1.2.657c1.141,1.809-.465,8.381-2.2,12.237a4.164,4.164,0,0,0,.718,2.038c1.257-.509,4.7-7.233,4.549-12.351-.111-3.668-2.069-4.047-2.713-4.172-7.289-1.416-11.081-1.767-16.807.795-2.51,1.122-4.827.977-6.195-.388-1.264-1.262-1.429-3.247-.451-5.447,2.34-5.263,15.348-2.525,21.9-.342a3.042,3.042,0,0,0,3.16-.356,1.542,1.542,0,0,0,.335-1.639c-.426-1.178-1.994-2.019-4.195-2.249a38.049,38.049,0,0,0-7.256.217c-3.628.341-6.493.61-7.684-.993-.669-.9-.646-2.192.069-3.951,1.376-3.38,5.9-2.171,9.53-1.2,1.291.345,3.219.86,3.747.683a1.346,1.346,0,0,0-.054-.33c-.394-1.461-1.117-1.655-2.316-1.977a7.286,7.286,0,0,1-2.425-1.009,4.144,4.144,0,0,1-1.96-2.72,2.81,2.81,0,0,1,.515-2.069.843.843,0,0,1,1.182-.132.841.841,0,0,1,.132,1.182,1.15,1.15,0,0,0-.161.8,2.676,2.676,0,0,0,1.253,1.557,5.758,5.758,0,0,0,1.9.765c1.339.36,2.856.769,3.5,3.164a1.894,1.894,0,0,1-.344,1.948c-.947.951-2.818.452-5.408-.239-3.678-.983-6.781-1.646-7.538.21-.455,1.119-.554,1.941-.276,2.313.627.844,3.448.579,6.175.322a39.221,39.221,0,0,1,7.588-.215c4.119.43,5.29,2.486,5.6,3.35a3.232,3.232,0,0,1-.714,3.384,4.642,4.642,0,0,1-4.9.778c-7.054-2.351-18.235-4.159-19.83-.571-.68,1.529-.642,2.831.1,3.574.843.841,2.5.858,4.32.043,6.14-2.748,10.336-2.365,17.814-.911,3,.582,4.419,3.255,4.008,7.528-.49,5.1-3.773,12.345-6.188,12.345-.849,0-1.434-.659-1.837-1.623-.789,1.172-1.581,1.761-2.4,1.79Zm-10.244-14.072c-.146,1.145.741,4.861,2.35,8.075a20.066,20.066,0,0,0-1.319-6.5A3.547,3.547,0,0,0,2357.958-1145.656Zm7.124-.851c-.44,1.118-.112,5.188.837,8.672C2366.373-1141.483,2365.776-1145.582,2365.083-1146.507Zm7.614-.021c-.29.39-.8,1.5-1.061,4.062a28.183,28.183,0,0,0-.146,3.085C2372.425-1142.387,2372.912-1145.439,2372.7-1146.528Z" transform="translate(-2350.284 1173.265)" fill="#f38262"/>
        </g>
        <g id="burger" transform="translate(231.168 942.087) rotate(-155)" opacity="0.91">
          <path id="Path_106156" data-name="Path 106156" d="M2278.788-1114.051q-.534,0-1.081-.005c-13.828-.13-19.031-1.871-20.623-6.9-.518-1.632-.941-3.317.049-4.413,1.073-1.188,3.14-1.017,6.824-.249,6.239,1.3,29.721.85,35.013-3.21a1.879,1.879,0,0,0,.88-1.272,2.894,2.894,0,0,0-.7-2.276c-1.835-1.982-7.267-2.092-13.019-2.208-3.082-.061-6.27-.126-9.456-.45-6.023-.615-8.405,2.547-10.328,5.084-1.486,1.96-3.336,4.4-6.46,2.3-2.033-1.37-5.38-4.066-4.939-6.749.155-.943.837-2.2,3.2-2.844,6.211-1.7,17.776-4.854,32.039-2.476,5.16.86,8.317.646,9.694.33-1.17-.592-4.242-1.684-11.969-2.671-8.891-1.137-9.731-.793-11.256-.17-1.586.646-3.758,1.533-12.485,1.842-6.564.233-10.366-.642-11.624-2.67a2.943,2.943,0,0,1,0-3.054,6.912,6.912,0,0,1,5.368-3.228,3.243,3.243,0,0,1,3.137,1.354,2.311,2.311,0,0,1,.15.278c2.249-1.826,6.3-3.809,13.056-3.481a20.837,20.837,0,0,1,10.131,2.868c.9-1.077,2.732-1.624,5.593-1.669,3.825-.049,8.211,1.416,11.131,2.593-1.747-2.089-5.387-4.755-12.806-5.562-4.418-.48-10.476.284-16.331,1.024-6.957.878-12.969,1.637-15.6.179-2.034-1.126-3.636-4.424-2.6-8.318.9-3.393,5.124-11.168,24.754-11.168q.563,0,1.145.008c11.274.167,18.259,2.55,20.757,7.081,2.377,4.308-.278,8.754-.392,8.941a1.151,1.151,0,0,1-1.582.384,1.151,1.151,0,0,1-.385-1.579c.042-.07,2.067-3.539.335-6.651-1.43-2.574-5.848-5.682-18.768-5.875-4.937-.08-21.229.39-23.641,9.449-.7,2.632.228,5.016,1.49,5.714,1.979,1.095,8.192.31,14.2-.448,5.986-.757,12.176-1.539,16.867-1.028,14.23,1.549,16.254,9.685,16.332,10.032a1.148,1.148,0,0,1-.412,1.163,1.158,1.158,0,0,1-1.229.121c-.075-.039-7.507-3.76-13.043-3.76h-.185c-2.878.045-3.666.635-3.839.816-.057.061-.071.1-.07.106a1.1,1.1,0,0,1-.444,1.336,1.179,1.179,0,0,1-1.457-.18c-.026-.024-3.174-2.939-10.062-3.279-10.284-.514-13.207,4.778-13.327,5l-.011.021a1.149,1.149,0,0,1-1.545.489,1.152,1.152,0,0,1-.5-1.543l.01-.018c.276-.539.533-1.5.324-1.832-.088-.14-.431-.274-1.127-.268a4.725,4.725,0,0,0-3.4,2.024c-.247.456-.122.66-.067.747.194.314,1.554,1.871,9.587,1.581,8.317-.292,10.269-1.089,11.695-1.672,2.029-.829,3.313-1.146,12.418.02,8.849,1.131,13.711,2.632,14.451,4.464a1.648,1.648,0,0,1-.254,1.683c-1.487,1.851-7.712,1.56-12.591.747-12.706-2.116-22.692.142-31.057,2.425-.431.117-1.445.45-1.536,1-.128.783,1.054,2.515,3.955,4.466,1.169.789,1.544.587,3.339-1.782,2.029-2.677,5.1-6.718,12.395-5.983,3.1.314,6.235.378,9.27.44,6.527.131,12.161.246,14.662,2.945a5.181,5.181,0,0,1,1.3,3.97,4.027,4.027,0,0,1-1.775,2.967c-6.386,4.9-30.692,4.925-36.885,3.636-3.558-.741-4.446-.6-4.66-.448a5.49,5.49,0,0,0,.45,2.162c.858,2.708,2.913,5.148,18.453,5.294,14.082.145,18.537-2.4,19.928-3.916a2.023,2.023,0,0,0,.68-1.415,1.177,1.177,0,0,1,.976-1.279,1.12,1.12,0,0,1,1.29.888,3.939,3.939,0,0,1-1.057,3.139C2296.847-1115.694,2289.865-1114.051,2278.788-1114.051Z" transform="translate(-2252.125 1171.241)" fill="#f38262"/>
        </g>
        <g id="burger-2" data-name="burger" transform="translate(23.301 630.208) rotate(-43)" opacity="0.378">
          <path id="Path_106156-2" data-name="Path 106156" d="M2324.709-1015.55q-1.452,0-2.941-.015c-37.646-.353-51.811-5.094-56.143-18.783-1.411-4.444-2.563-9.029.132-12.013,2.919-3.235,8.549-2.768,18.578-.677,16.984,3.543,80.91,2.315,95.317-8.739,1.528-1.167,2.331-2.334,2.4-3.463a7.878,7.878,0,0,0-1.9-6.2c-5-5.394-19.782-5.695-35.44-6.01-8.39-.167-17.068-.342-25.743-1.224-16.4-1.673-22.881,6.933-28.116,13.841-4.044,5.338-9.081,11.986-17.585,6.265-5.536-3.729-14.647-11.07-13.447-18.372.423-2.566,2.278-5.991,8.717-7.744,16.908-4.619,48.392-13.214,87.219-6.74,14.046,2.342,22.642,1.76,26.39.9-3.186-1.612-11.548-4.584-32.582-7.272-24.2-3.094-26.492-2.16-30.644-.464-4.318,1.76-10.23,4.174-33.989,5.013-17.87.635-28.221-1.749-31.643-7.268a8.013,8.013,0,0,1,0-8.314c2.552-4.714,9.109-8.656,14.613-8.788,5.113-.156,7.456,1.938,8.539,3.687a6.135,6.135,0,0,1,.409.757c6.122-4.972,17.154-10.37,35.544-9.477,13.925.688,22.912,4.877,27.58,7.808,2.441-2.931,7.437-4.421,15.225-4.542,10.412-.133,22.353,3.854,30.3,7.059-4.755-5.687-14.666-12.944-34.862-15.141-12.028-1.307-28.52.772-44.458,2.786-18.94,2.391-35.306,4.456-42.482.487-5.539-3.064-9.9-12.043-7.074-22.645,2.459-9.237,13.948-30.4,67.388-30.4q1.534,0,3.117.023c30.692.456,49.707,6.941,56.508,19.277,6.469,11.727-.756,23.831-1.068,24.341a3.134,3.134,0,0,1-4.306,1.045,3.136,3.136,0,0,1-1.049-4.3c.115-.19,5.626-9.633.912-18.107-3.892-7.006-15.921-15.468-51.091-15.992-13.442-.217-57.793,1.061-64.359,25.725-1.9,7.165.62,13.654,4.057,15.555,5.386,2.98,22.3.844,38.664-1.22,16.3-2.06,33.148-4.189,45.917-2.8,38.739,4.216,44.249,26.367,44.461,27.31a3.126,3.126,0,0,1-1.123,3.167,3.153,3.153,0,0,1-3.345.33c-.2-.106-20.436-10.237-35.508-10.237-.167,0-.339,0-.5,0-7.836.122-9.979,1.729-10.45,2.22-.155.167-.194.27-.19.289a2.983,2.983,0,0,1-1.208,3.638,3.209,3.209,0,0,1-3.965-.49c-.072-.064-8.641-8-27.393-8.926-28-1.4-35.954,13.009-36.281,13.613l-.031.057a3.127,3.127,0,0,1-4.207,1.33,3.135,3.135,0,0,1-1.361-4.2l.026-.049c.752-1.468,1.452-4.075.882-4.988-.239-.38-1.174-.745-3.067-.73-3.2.081-7.79,2.806-9.249,5.509-.673,1.243-.331,1.8-.182,2.033.528.855,4.231,5.094,26.1,4.3,22.641-.794,27.956-2.965,31.837-4.551,5.523-2.258,9.018-3.121,33.807.054,24.089,3.079,37.325,7.166,39.34,12.153a4.484,4.484,0,0,1-.691,4.581c-4.048,5.04-21,4.246-34.277,2.033-34.589-5.759-61.774.388-84.549,6.6-1.174.319-3.933,1.224-4.181,2.714-.349,2.133,2.871,6.847,10.766,12.157,3.181,2.147,4.2,1.6,9.089-4.851,5.523-7.288,13.886-18.289,33.742-16.289,8.428.856,16.973,1.03,25.236,1.2,17.769.357,33.108.669,39.916,8.017a14.1,14.1,0,0,1,3.551,10.808c-.171,3.029-1.794,5.748-4.832,8.078-17.384,13.335-83.555,13.407-100.415,9.9-9.687-2.019-12.1-1.631-12.686-1.22-.015.125-.243,1.258,1.224,5.885,2.334,7.371,7.93,14.016,50.235,14.411,38.337.4,50.465-6.523,54.25-10.659,1.989-2.17,1.859-3.782,1.852-3.851a3.205,3.205,0,0,1,2.658-3.482,3.049,3.049,0,0,1,3.512,2.418c.084.422.7,4.242-2.878,8.546C2373.874-1020.025,2354.867-1015.55,2324.709-1015.55Z" transform="translate(-2252.125 1171.241)" fill="#f38262"/>
        </g>
        <g id="broccoli" transform="translate(398.58 756.904) rotate(-155)" opacity="0.8">
          <path id="Path_106155" data-name="Path 106155" d="M2183.5-1116.481c-4.715,0-5.825-2.859-6.806-5.388-1.138-2.93-2.315-5.961-8.694-7.177-.188-.036-.366-.076-.538-.117a6.638,6.638,0,0,1-1.631.993c-2.245.95-5.495.675-7.258-3.212a4.237,4.237,0,0,1,1.018-4.579,3.24,3.24,0,0,1-.242-2.531c.563-1.661,2.482-2.732,5.868-3.271,6.275-1,7.04,2.752,7.552,5.232a5.018,5.018,0,0,0,.907,2.476,2.776,2.776,0,0,0,3.389-.139c1.051-.96.14-2.485-.5-3.309a35.314,35.314,0,0,0-4.583-4.809,1.19,1.19,0,0,1-.281-1.481,1.19,1.19,0,0,1,1.4-.573c1.622.5,6.263,1.34,8.2-.673,3.648-3.794-.19-7.991-.357-8.168a1.2,1.2,0,0,1-.3-1.052,1.194,1.194,0,0,1,.68-.855c.04-.016,4.177-1.925,3.2-4.6a3.252,3.252,0,0,0-2.678-2.292l-.044-.007a5.569,5.569,0,0,1-.7,4.123,4.728,4.728,0,0,1-4.275,2.21,3.5,3.5,0,0,1-3.029-2.1,3.379,3.379,0,0,1,.615-3.5,8.669,8.669,0,0,1,4.068-2.719,7.819,7.819,0,0,0-6.221-3.76,12.054,12.054,0,0,0-10.2,4.549c-1.467,1.8-1.77,3.321-.9,4.522a4.918,4.918,0,0,0,1.946,1.47,7.9,7.9,0,0,1,3.807-2.4c2.474-.536,3.715.472,4.023,1.5.353,1.182-.344,2.781-2.7,3.684a7.562,7.562,0,0,1-4.389.007,9.442,9.442,0,0,0-2.034,5.653c.105,1.774,1.242,2.741,3.476,2.954,2.9.275,5.693-1.871,7.184-4.123.968-1.461,1.011-2.389.917-2.563-.984-.148-1.489-.025-1.654.142a.913.913,0,0,0-.138.668,1.205,1.205,0,0,1-.967,1.376,1.19,1.19,0,0,1-1.379-.933,3.277,3.277,0,0,1,.766-2.766,3.986,3.986,0,0,1,3.682-.84,2.522,2.522,0,0,1,2.072,3.083c-.42,3.247-5.118,8.864-10.712,8.33-3.4-.327-5.451-2.217-5.626-5.188a11.6,11.6,0,0,1,2.148-6.677,7.039,7.039,0,0,1-2.355-1.98c-.892-1.231-1.95-3.831.981-7.429a14.5,14.5,0,0,1,12.258-5.419,10.136,10.136,0,0,1,8.237,5.222c.088.158.17.314.248.467a7.293,7.293,0,0,1,1.246.073,5.629,5.629,0,0,1,4.56,3.831c1.133,3.1-1.111,5.547-3.146,6.871,1.654,2.451,2.928,6.608-.6,10.275-1.725,1.8-4.41,2.113-6.652,1.981.675.719,1.4,1.548,2.094,2.445,2.826,3.66.88,5.922.217,6.529a5.111,5.111,0,0,1-6.618.126,6.6,6.6,0,0,1-1.625-3.744c-.513-2.492-.817-4-4.839-3.357-2.651.422-3.795,1.141-3.98,1.673-.142.407.249.963.4,1.126a1.2,1.2,0,0,1,.311.906,1.2,1.2,0,0,1-.447.845c-.012.01-1.644,1.358-1.132,2.487,1.248,2.744,3.138,2.433,4.16,2l.026-.011a2.9,2.9,0,0,1-1.023-2.177,2.935,2.935,0,0,1,2.318-2.816,2.541,2.541,0,0,1,2.877,1.815,3.077,3.077,0,0,1-.044,2.292c7.154,1.564,8.713,5.579,9.86,8.532.987,2.548,1.547,3.952,4.837,3.864,3.4-.087,3.767-1.268,5.171-7.524.167-.745.349-1.549.549-2.413,2.507-10.736,10.18-10.515,12.724-10.442,1.146.051,2.813-1.221,3.521-2.74a2.115,2.115,0,0,0-.007-2.243,6.856,6.856,0,0,0-3.936-2.22,1.2,1.2,0,0,1-.935-.651,1.2,1.2,0,0,1,.03-1.138c.579-.99,1.953-4.009,1.369-6.053a2.688,2.688,0,0,0-1.419-1.7,6.6,6.6,0,0,0-7.141.99,3.025,3.025,0,0,0-.714,3.72l.01.021c1.967-.384,4.6-.308,5.9,1.144a2.69,2.69,0,0,1,.5,2.777,3.111,3.111,0,0,1-2.722,2.35c-1.658.105-3.388-1.2-4.833-3.433a3.938,3.938,0,0,0-2.361,2.286,3.22,3.22,0,0,0,.135,2.582,4.446,4.446,0,0,0,2.4,1.791,1.194,1.194,0,0,1,.8.714,1.192,1.192,0,0,1-.1,1.065c-1.031,1.661-2.359,3.42-4.388,3.885-1.535.351-3.225-.073-5.16-1.3a1.191,1.191,0,0,1-.369-1.646,1.19,1.19,0,0,1,1.646-.369,4.643,4.643,0,0,0,3.351.991,3.92,3.92,0,0,0,2.117-1.672,6.1,6.1,0,0,1-2.386-2.3,5.543,5.543,0,0,1-.335-4.424,6.212,6.212,0,0,1,3.52-3.707,5.336,5.336,0,0,1,1.345-6.2,9.014,9.014,0,0,1,9.9-1.372,5.025,5.025,0,0,1,2.6,3.157c.649,2.285-.221,4.935-.913,6.516a9.378,9.378,0,0,1,3.873,2.61,4.289,4.289,0,0,1,.384,4.836c-.939,2.015-3.219,4.117-5.633,4.117l-.12,0c-2.675-.076-8.265-.239-10.331,8.6-.2.856-.378,1.653-.544,2.391-1.382,6.157-2.074,9.248-7.438,9.387C2183.713-1116.483,2183.608-1116.481,2183.5-1116.481Zm-16.834-16.551a.571.571,0,0,0-.372.443c-.018.158.115.385.466.611a.936.936,0,0,0,.122-.709A.742.742,0,0,0,2166.67-1133.032Zm27.629-16.013c.9,1.177,1.8,1.7,2.228,1.675.284-.015.479-.412.592-.743.1-.283.031-.358-.018-.412A3.861,3.861,0,0,0,2194.3-1149.045Zm-28.438-7.452a3.7,3.7,0,0,0,1.53-.152,2.831,2.831,0,0,0,1.134-.7,3.079,3.079,0,0,0-1.1.075A4.22,4.22,0,0,0,2165.86-1156.5Zm13.554-5.279a6.411,6.411,0,0,0-3.1,1.952c-.192.252-.49.726-.333,1.08a1.136,1.136,0,0,0,1.03.689,2.353,2.353,0,0,0,2.084-1.12A3.34,3.34,0,0,0,2179.414-1161.776Z" transform="translate(-2158.255 1170.175)" fill="#f38262"/>
        </g>
        <g id="broccoli-2" data-name="broccoli" transform="translate(185.582 60.829) rotate(-167)" opacity="0.926">
          <path id="Path_106155-2" data-name="Path 106155" d="M2175.779-1132.91c-3.272,0-4.043-1.984-4.723-3.74-.79-2.034-1.607-4.137-6.034-4.981-.131-.025-.254-.053-.373-.082a4.6,4.6,0,0,1-1.132.689c-1.558.659-3.813.468-5.037-2.229a2.94,2.94,0,0,1,.707-3.178,2.248,2.248,0,0,1-.168-1.756c.391-1.153,1.723-1.9,4.073-2.27,4.355-.691,4.886,1.91,5.241,3.631a3.482,3.482,0,0,0,.63,1.718,1.927,1.927,0,0,0,2.352-.1c.729-.666.1-1.725-.344-2.3a24.515,24.515,0,0,0-3.181-3.337.825.825,0,0,1-.195-1.028.825.825,0,0,1,.969-.4c1.126.344,4.347.93,5.688-.467,2.532-2.633-.132-5.546-.248-5.669a.832.832,0,0,1-.208-.73.829.829,0,0,1,.472-.593c.028-.011,2.9-1.336,2.22-3.191a2.257,2.257,0,0,0-1.859-1.59l-.031,0a3.865,3.865,0,0,1-.484,2.861,3.281,3.281,0,0,1-2.967,1.534,2.427,2.427,0,0,1-2.1-1.455,2.344,2.344,0,0,1,.427-2.427,6.015,6.015,0,0,1,2.823-1.887,5.427,5.427,0,0,0-4.318-2.61,8.366,8.366,0,0,0-7.077,3.157c-1.019,1.25-1.229,2.3-.625,3.139a3.411,3.411,0,0,0,1.351,1.02,5.481,5.481,0,0,1,2.642-1.665c1.717-.372,2.578.327,2.792,1.042.245.821-.239,1.93-1.872,2.557a5.248,5.248,0,0,1-3.046,0,6.554,6.554,0,0,0-1.412,3.923c.073,1.231.862,1.9,2.412,2.05,2.011.191,3.951-1.3,4.986-2.861.672-1.014.7-1.658.636-1.779-.683-.1-1.033-.017-1.148.1a.637.637,0,0,0-.1.464.836.836,0,0,1-.671.955.826.826,0,0,1-.957-.648,2.275,2.275,0,0,1,.532-1.92,2.767,2.767,0,0,1,2.555-.583,1.751,1.751,0,0,1,1.438,2.14c-.292,2.254-3.552,6.152-7.434,5.781-2.359-.227-3.783-1.539-3.9-3.6a8.047,8.047,0,0,1,1.491-4.634,4.887,4.887,0,0,1-1.635-1.375c-.619-.854-1.354-2.659.681-5.156a10.066,10.066,0,0,1,8.507-3.761,7.035,7.035,0,0,1,5.717,3.624c.061.109.118.218.172.324a5.065,5.065,0,0,1,.865.051,3.907,3.907,0,0,1,3.165,2.659c.786,2.151-.771,3.85-2.184,4.769a5.424,5.424,0,0,1-.416,7.131,5.845,5.845,0,0,1-4.617,1.375c.469.5.971,1.074,1.453,1.7,1.961,2.54.61,4.11.151,4.531a3.548,3.548,0,0,1-4.593.087,4.577,4.577,0,0,1-1.128-2.6c-.356-1.73-.567-2.775-3.359-2.33-1.84.293-2.634.792-2.762,1.161-.1.282.172.668.276.781a.836.836,0,0,1,.216.629.83.83,0,0,1-.31.587c-.009.007-1.141.943-.785,1.726.866,1.9,2.178,1.688,2.887,1.389l.018-.008a2.009,2.009,0,0,1-.71-1.511,2.037,2.037,0,0,1,1.609-1.954,1.763,1.763,0,0,1,2,1.259,2.136,2.136,0,0,1-.031,1.59c4.965,1.086,6.047,3.872,6.843,5.921.685,1.768,1.074,2.742,3.357,2.682,2.356-.061,2.615-.88,3.589-5.222q.174-.776.381-1.675c1.74-7.451,7.065-7.3,8.831-7.247a3.22,3.22,0,0,0,2.444-1.9,1.467,1.467,0,0,0,0-1.557,4.76,4.76,0,0,0-2.732-1.541.832.832,0,0,1-.649-.452.83.83,0,0,1,.021-.79c.4-.687,1.355-2.783.95-4.2a1.866,1.866,0,0,0-.985-1.177,4.581,4.581,0,0,0-4.956.687,2.1,2.1,0,0,0-.5,2.582l.007.014c1.365-.267,3.191-.214,4.093.794a1.867,1.867,0,0,1,.345,1.927,2.159,2.159,0,0,1-1.889,1.631c-1.151.073-2.352-.829-3.354-2.383a2.732,2.732,0,0,0-1.638,1.587,2.234,2.234,0,0,0,.094,1.792,3.086,3.086,0,0,0,1.667,1.243.829.829,0,0,1,.554.5.827.827,0,0,1-.067.739,5.306,5.306,0,0,1-3.045,2.7,4.705,4.705,0,0,1-3.581-.9.827.827,0,0,1-.257-1.142.826.826,0,0,1,1.143-.256,3.222,3.222,0,0,0,2.326.688,2.722,2.722,0,0,0,1.469-1.16,4.239,4.239,0,0,1-1.656-1.6,3.846,3.846,0,0,1-.232-3.071,4.31,4.31,0,0,1,2.443-2.573,3.7,3.7,0,0,1,.933-4.3,6.256,6.256,0,0,1,6.87-.952,3.487,3.487,0,0,1,1.805,2.191,7.19,7.19,0,0,1-.634,4.522,6.51,6.51,0,0,1,2.688,1.811,2.977,2.977,0,0,1,.267,3.357,4.836,4.836,0,0,1-3.91,2.858l-.083,0c-1.856-.053-5.736-.166-7.17,5.97-.138.594-.262,1.147-.377,1.66-.959,4.273-1.44,6.419-5.162,6.515Zm-11.684-11.487a.4.4,0,0,0-.258.307c-.013.109.08.267.323.424a.648.648,0,0,0,.084-.492A.512.512,0,0,0,2164.095-1144.4Zm19.175-11.113c.627.817,1.249,1.181,1.546,1.162.2-.01.332-.286.411-.515.067-.2.021-.249-.012-.286A2.68,2.68,0,0,0,2183.27-1155.51Zm-19.737-5.172a2.569,2.569,0,0,0,1.062-.106,1.969,1.969,0,0,0,.787-.489,2.137,2.137,0,0,0-.763.052A2.926,2.926,0,0,0,2163.533-1160.682Zm9.407-3.664a4.449,4.449,0,0,0-2.151,1.354c-.133.175-.34.5-.231.75a.788.788,0,0,0,.715.478,1.633,1.633,0,0,0,1.447-.777A2.318,2.318,0,0,0,2172.94-1164.346Z" transform="translate(-2158.255 1170.175)" fill="#f38262"/>
        </g>
        <g id="cup" transform="matrix(-0.391, -0.921, 0.921, -0.391, 26.242, 317.853)" opacity="0.874">
          <path id="Path_106154" data-name="Path 106154" d="M2092.739-1108.281c-12.115,0-12.538-5.277-13.771-20.739-.42-5.244-.941-11.772-2.028-19.851-.241-1.8-.322-4.087,1.2-5.844,1.231-1.419,3.279-2.315,6.694-2.81-2.939-5.2-6.783-6.869-15.994-9.268a3.739,3.739,0,0,1-2.812-4.308c.375-1.555,2.011-2.938,5.447-2.171,13.214,2.958,17.244,6.322,20.831,15.263q.326,0,.659-.007c7.214-.033,12.533,2.287,12.6,5.576.027,1.357-.917,4.383-9.569,5.181.65,2.015,1.36,4.211,2.159,6.605l.621,1.85c1.635,4.878,3.1,9.238,4.081,13.039.218-5.445.159-12.684-.125-19.353a1.161,1.161,0,0,1,1.111-1.211,1.183,1.183,0,0,1,1.211,1.112c.753,17.585.011,24.829-.907,27.853a9.357,9.357,0,0,1-1.534,5.462c-1.723,2.409-4.873,3.594-9.629,3.622Zm-6.8-47.039c-3.2.386-5.135,1.079-6.044,2.128-.722.834-.917,2.034-.652,4.011,1.094,8.142,1.618,14.7,2.039,19.975,1.223,15.307,1.485,18.6,11.418,18.6.089,0,.179,0,.268,0,3.958-.023,6.5-.889,7.753-2.648a5.481,5.481,0,0,0,.826-1.834c-3.547-.335-5.344-7.023-7.576-15.322-.741-2.753-1.507-5.6-2.363-8.3l-1.01-3.2c-.592-1.878-1.131-3.589-1.638-5.152-6.324-.148-7.323-1.286-7.4-2.323a1.161,1.161,0,0,1,1.076-1.241,1.164,1.164,0,0,1,1.062.533c.255.135,1.274.542,4.483.678C2087.4-1151.729,2086.684-1153.67,2085.94-1155.32Zm5.466,8.268c.443,1.377.909,2.855,1.409,4.443l1.01,3.2c.873,2.75,1.645,5.622,2.392,8.4,1.534,5.7,3.615,13.444,5.6,13.606l.014-.026c.051-4.808-2.38-12.057-5.255-20.632l-.62-1.853c-.861-2.574-1.615-4.92-2.306-7.06-.013-.043-.029-.086-.042-.129l-.369.013Q2092.268-1147.064,2091.406-1147.052Zm-3.044-8.487c.762,1.767,1.5,3.8,2.284,6.167.675,0,1.409-.013,2.213-.036-.764-2.355-1.452-4.42-2.129-6.241C2089.888-1155.624,2089.1-1155.587,2088.362-1155.539Zm4.825-.155c.664,1.836,1.337,3.878,2.075,6.161,6.008-.484,7.993-2.079,7.979-2.86-.024-1.2-3.385-3.3-10-3.3Zm-9.307,6.141v0Zm0,0v0Zm0,0v0Zm0,0v0Zm0,0Zm-14.218-21.6c-.764,0-1.277.214-1.373.611a1.438,1.438,0,0,0,1.139,1.512c10.422,2.716,14.651,5.072,17.87,11.247.786-.063,1.625-.113,2.527-.149-3.309-7.831-7.073-10.422-18.856-13.059A6.055,6.055,0,0,0,2069.661-1171.166Z" transform="translate(-2065.943 1173.491)" fill="#f38262"/>
        </g>
        <g id="cutlery" transform="matrix(-0.616, -0.788, 0.788, -0.616, 59.257, 550.143)" opacity="0.956">
          <path id="Path_106153" data-name="Path 106153" d="M1996.22-1112.509a1.729,1.729,0,0,1-1.211-.49c-1.124-1.064-1.236-3.669-1.286-7.833l-.018-1.335c-.073-4.151-.445-26.581-.445-26.581l1.847-.031s.372,22.428.446,26.58l.018,1.345c.027,2.259.073,6.038.714,6.518.493-.045,1.139-1.652,1.054-9.171-.018-1.58-.085-3.333-.158-5.19-.245-6.3-.479-12.255.97-14.523.265-.413.548-.8.834-1.185,1.472-1.992,3-4.052,1.848-12.2-.963-6.836-3.43-15.283-4.793-16.573-.385.636-1.285,3.346-1.285,14.795,0,5.848-1.824,6.733-3.856,7.179-1,.221-1.377.3-1.426,1.969-.042,1.358.12,4.372.306,7.863.743,13.885,1.165,25.586-1.194,28.142a1.869,1.869,0,0,1-1.347.647,1.935,1.935,0,0,1-1.456-.626c-2.539-2.6-2.477-14.769-1.6-32.24.1-2.064.185-3.7.185-4.389,0-1.361-.689-1.878-1.732-2.661a6.474,6.474,0,0,1-3.088-6.27,61.812,61.812,0,0,1,1.66-11.762.923.923,0,0,1,.987-.689.925.925,0,0,1,.83.872c.218,4.237.977,8.343,1.683,9.293.633-1.108,1.141-5.55,1.142-10.228a.922.922,0,0,1,.9-.923.9.9,0,0,1,.948.874c.246,4.733.986,9.2,1.679,10.369.59-1.136,1.049-5.21,1.034-9.483a.925.925,0,0,1,.92-.927h0a.924.924,0,0,1,.924.92c.008,2.186-.1,9.444-1.774,11.065a1.549,1.549,0,0,1-1.148.463c-.978-.036-1.762-1.161-2.353-3.363a5.573,5.573,0,0,1-1.192,2.8,1.5,1.5,0,0,1-1.191.406c-1.372-.146-2.217-2.221-2.735-4.9-.218,1.61-.4,3.421-.47,5.281a4.7,4.7,0,0,0,2.35,4.725c1.158.87,2.471,1.855,2.471,4.138,0,.739-.078,2.309-.187,4.481-.249,4.976-.625,12.5-.531,19.07.157,11.191,1.642,11.838,1.7,11.859,2.118-1.059,1.115-19.793.739-26.845-.2-3.679-.352-6.584-.309-8.019.085-2.868,1.41-3.394,2.877-3.716,1.237-.272,2.405-.529,2.405-5.376,0-15.261,1.531-16.646,2.965-16.746,3.964-.3,6.762,18.081,6.789,18.267,1.253,8.9-.579,11.374-2.193,13.557-.261.354-.521.7-.763,1.082-1.138,1.78-.884,8.254-.682,13.455.073,1.87.141,3.636.159,5.242.081,7.22-.343,10.907-2.886,11.017Z" transform="translate(-1979.536 1175.135)" fill="#f38262"/>
        </g>
        <g id="cutlery-2" data-name="cutlery" transform="matrix(-0.545, -0.839, 0.839, -0.545, 361.379, 451.122)" opacity="0.844">
          <path id="Path_106153-2" data-name="Path 106153" d="M1993.824-1121.506a1.481,1.481,0,0,1-1.037-.42c-.963-.911-1.058-3.142-1.1-6.707l-.016-1.143c-.063-3.555-.381-22.762-.381-22.762l1.582-.026s.319,19.207.382,22.761l.015,1.152c.023,1.935.063,5.171.611,5.582.422-.038.975-1.415.9-7.854-.016-1.353-.073-2.855-.135-4.444-.21-5.4-.41-10.494.831-12.436.226-.354.469-.683.714-1.015,1.261-1.706,2.566-3.47,1.583-10.45-.824-5.854-2.937-13.087-4.1-14.192-.33.544-1.1,2.866-1.1,12.669,0,5.008-1.562,5.766-3.3,6.148-.859.189-1.179.26-1.221,1.686-.036,1.163.1,3.744.262,6.734.636,11.89,1,21.911-1.022,24.1a1.6,1.6,0,0,1-1.153.554,1.656,1.656,0,0,1-1.247-.536c-2.174-2.227-2.121-12.648-1.374-27.609.089-1.768.158-3.165.158-3.758,0-1.165-.59-1.608-1.483-2.279a5.544,5.544,0,0,1-2.645-5.37,52.935,52.935,0,0,1,1.421-10.072.79.79,0,0,1,.845-.59.792.792,0,0,1,.711.746c.187,3.628.836,7.145,1.441,7.958.542-.949.977-4.753.978-8.759a.79.79,0,0,1,.769-.79.774.774,0,0,1,.811.749c.211,4.053.844,7.877,1.438,8.879.505-.973.9-4.462.886-8.121a.792.792,0,0,1,.788-.794h0a.792.792,0,0,1,.791.788c.007,1.872-.083,8.087-1.519,9.475a1.327,1.327,0,0,1-.983.4c-.838-.031-1.509-.995-2.015-2.88a4.772,4.772,0,0,1-1.021,2.4,1.281,1.281,0,0,1-1.02.347c-1.175-.125-1.9-1.9-2.342-4.2-.187,1.378-.344,2.929-.4,4.522a4.026,4.026,0,0,0,2.013,4.046,4.1,4.1,0,0,1,2.116,3.544c0,.633-.067,1.977-.16,3.837-.213,4.261-.535,10.7-.455,16.331.134,9.583,1.406,10.137,1.46,10.156,1.814-.907.955-16.95.633-22.989-.168-3.15-.3-5.638-.265-6.867.073-2.456,1.207-2.906,2.463-3.182,1.06-.233,2.06-.453,2.06-4.6,0-13.068,1.311-14.254,2.539-14.34,3.394-.256,5.791,15.483,5.814,15.643,1.073,7.62-.5,9.74-1.877,11.61-.223.3-.446.6-.653.927-.975,1.525-.757,7.068-.584,11.522.063,1.6.121,3.114.136,4.489.069,6.183-.293,9.34-2.471,9.435Z" transform="translate(-1979.536 1175.135)" fill="#f38262"/>
        </g>
      </g>
    </g>
  </g>
  <g id="Group_28664" data-name="Group 28664" transform="translate(7 -58)">
    <rect id="Rectangle_2706" data-name="Rectangle 2706" width="195" height="195" rx="97.5" transform="translate(110 121)" fill="#fff"/>
    <g id="Group_28387" data-name="Group 28387" transform="translate(130.526 175.115)">
      <g id="Component_7_36" data-name="Component 7  36">
        <g id="Group_1" data-name="Group 1">
          <path id="Path_6" data-name="Path 6" d="M96.745,412.584A23.47,23.47,0,0,0,79.014,393.99h0a23.472,23.472,0,0,0-28.147,17.521,23.219,23.219,0,0,0,.326,11.741,16.65,16.65,0,0,1,6.384-1.244A16.916,16.916,0,0,1,73.7,399.858a17,17,0,0,1,3.846.443h0a16.983,16.983,0,0,1,12.828,13.443l2.969,2.65Z" transform="translate(-46.022 -393.376)" fill="#8fd89f"/>
          <path id="Path_8" data-name="Path 8" d="M126.552,448.937h-4.843a19.863,19.863,0,0,1-6.343,7.634h0a20.039,20.039,0,0,1-25.95-2.092l-3.272.058.106,5.839a26.373,26.373,0,0,0,13.131,6.141,26.889,26.889,0,0,0,4.28.344,26.373,26.373,0,0,0,15.5-5.037h0a26.2,26.2,0,0,0,8.187-9.727,26.9,26.9,0,0,0,1.326-3.159Z" transform="translate(-37.657 -380.311)" fill="#8fd89f"/>
          <path id="Path_9" data-name="Path 9" d="M98.534,454.55l-.118-6.48-12.012.218-5.558.1.063,3.492.256,14.077,6.479-.116-.1-5.252-.106-5.84,3.271-.059Z" transform="translate(-38.83 -380.524)" fill="#8fd89f"/>
          <path id="Path_10" data-name="Path 10" d="M131.768,417.416a18.008,18.008,0,0,1,17.5-13.973,18,18,0,0,1,17.788,15.194l2.905,2.649,3.472-3.808a24.446,24.446,0,0,0-48.42,6.682,17.663,17.663,0,0,1,6.308-2.856A18,18,0,0,1,131.768,417.416Z" transform="translate(-28.736 -392.495)" fill="#8fd89f"/>
          <g id="Group_451" data-name="Group 451" transform="translate(0 16.047)">
            <path id="Path_1" data-name="Path 1" d="M50,449.854q-3.136-3.908-3.137-11.833,0-7.754,3.164-11.69a10.256,10.256,0,0,1,8.412-3.934,12.428,12.428,0,0,1,5.331,1.084,8.586,8.586,0,0,1,3.62,3.079h.342V411.848h7.812v41.227H68.869l-.513-3.934h-.4a9.17,9.17,0,0,1-3.822,3.45,11.921,11.921,0,0,1-5.3,1.169A10.69,10.69,0,0,1,50,449.854Zm17.734-11.263v-.913q0-8.5-6.386-8.5-3.478,0-4.961,2.081t-1.482,6.3v1.026q0,4.22,1.482,6.3t4.961,2.081Q67.727,446.974,67.729,438.592Z" transform="translate(-46.858 -405.18)" fill="#f69f8e"/>
            <path id="Path_2" data-name="Path 2" d="M76.563,447.861Q72.8,444.041,72.8,436t3.763-11.861q3.764-3.82,11.461-3.821t11.491,3.821q3.79,3.822,3.792,11.861t-3.792,11.861q-3.794,3.822-11.491,3.821T76.563,447.861ZM93.556,443.1q1.711-2.195,1.71-6.644v-.911q0-4.45-1.71-6.644t-5.532-2.2q-3.82,0-5.5,2.2t-1.682,6.644v.911q0,4.448,1.682,6.644t5.5,2.2Q91.844,445.3,93.556,443.1Z" transform="translate(-40.755 -403.154)" fill="#f69f8e"/>
            <path id="Path_3" data-name="Path 3" d="M99.484,421h6.671l.57,3.934h.4a11.406,11.406,0,0,1,9.354-4.619,10.147,10.147,0,0,1,7.269,2.509q2.653,2.51,2.651,8.039V451h-7.811V432.522a4.579,4.579,0,0,0-5.189-5.3,5.732,5.732,0,0,0-4.362,1.852,6.449,6.449,0,0,0-1.738,4.59V451H99.484Z" transform="translate(-34.462 -403.15)" fill="#f69f8e"/>
            <path id="Path_4" data-name="Path 4" d="M124.639,460.314a6.36,6.36,0,0,1-2.167-4.96q0-3.994,4.619-6.1a4.794,4.794,0,0,1-2.908-4.506,4.364,4.364,0,0,1,1.482-3.278,8.327,8.327,0,0,1,3.821-1.968,8.857,8.857,0,0,1-4.39-8.1,9.019,9.019,0,0,1,3.45-7.47q3.45-2.738,9.837-2.738a19.162,19.162,0,0,1,6.044.855,6.7,6.7,0,0,0,2.481-2.594,5.94,5.94,0,0,0,.77-2.594h7.641a7.361,7.361,0,0,1-1.682,5.046,8.611,8.611,0,0,1-4.762,2.594,9.047,9.047,0,0,1,2.852,6.9,9.144,9.144,0,0,1-3.336,7.469q-3.334,2.737-9.552,2.737h-4.56a2.619,2.619,0,0,0-1.625.457,1.489,1.489,0,0,0-.6,1.254,1.545,1.545,0,0,0,.513,1.168,1.909,1.909,0,0,0,1.369.484h13.629a7.506,7.506,0,0,1,5.531,2.225,7.861,7.861,0,0,1,2.224,5.814,8.219,8.219,0,0,1-1.483,4.848,9.573,9.573,0,0,1-4.049,3.25,13.749,13.749,0,0,1-5.644,1.14h-14.2A7.674,7.674,0,0,1,124.639,460.314Zm19.389-3.478a3.932,3.932,0,0,0,2.452-.742,2.493,2.493,0,0,0,.086-3.877,3.481,3.481,0,0,0-2.2-.685H133.364a3.222,3.222,0,0,0-2.138.742,2.342,2.342,0,0,0-.884,1.881,2.441,2.441,0,0,0,.855,1.939,3.2,3.2,0,0,0,2.167.742Zm-1.483-21.812a5.314,5.314,0,0,0,0-7.242,6.026,6.026,0,0,0-4.162-1.283,5.92,5.92,0,0,0-4.136,1.283,5.394,5.394,0,0,0,0,7.242,5.921,5.921,0,0,0,4.136,1.284A6.028,6.028,0,0,0,142.544,435.024Z" transform="translate(-29.083 -404.227)" fill="#f69f8e"/>
            <path id="Path_5" data-name="Path 5" d="M153.034,448.534q-2.653-2.507-2.651-8.039V423.037h7.811v15.8a4.579,4.579,0,0,0,5.191,5.3,5.732,5.732,0,0,0,4.361-1.853,6.45,6.45,0,0,0,1.74-4.59V423.037H177.3V450.36h-6.671l-.57-3.935h-.4a11.405,11.405,0,0,1-9.352,4.62A10.143,10.143,0,0,1,153.034,448.534Z" transform="translate(-22.472 -402.5)" fill="#f69f8e"/>
            <path id="Path_7" data-name="Path 7" d="M75.893,411.928l7.67,6.852,4.007,3.579,2.51-2.81L98,410.681l-4.833-4.316L90.458,409.4l-3.4,3.811-2.968-2.651L80.21,407.1Z" transform="translate(-40.009 -406.365)" fill="#f69f8e"/>
            <path id="Path_11" data-name="Path 11" d="M169.964,410.679l-3.133,3.436-3.472,3.808-2.906-2.649-4.339-3.956-2.469,2.708-1.9,2.081,1.9,1.73,6.191,5.645,3.945,3.6,2.565-2.814,8.406-9.22Z" transform="translate(-22.137 -405.351)" fill="#f69f8e"/>
          </g>
        </g>
      </g>
    </g>
  </g>
</svg>
