<svg xmlns="http://www.w3.org/2000/svg" width="428.413" height="398.582" viewBox="0 0 428.413 398.582">
  <g id="Group_29540" data-name="Group 29540" transform="translate(0 -527.413)">
    <path id="Path_137415" data-name="Path 137415" d="M428.207,577.874s-67.669,8.374-103.983,8.388-133.263-17.583-143.8-19.831S70.627,543.49,38.923,537.825C9.195,532.513,0,531.477,0,531.477V925.995H428.413Z" fill="#f5f9fc"/>
    <g id="Group_29536" data-name="Group 29536">
      <path id="Path_137918" data-name="Path 137918" d="M51.3,531.276c-10.773-1.564-21.557-2.855-32.052-3.838a6,6,0,1,0-1.12,11.947c10.3.965,20.876,2.231,31.449,3.766A6,6,0,0,0,51.3,531.276Z" fill="#9fd5a4"/>
      <path id="Path_137919" data-name="Path 137919" d="M200.167,563.44c-11.06-2.487-21.888-5.078-31.021-7.287a6,6,0,1,0-2.819,11.665c9.179,2.218,20.065,4.824,31.208,7.329a6,6,0,1,0,2.632-11.707Z" fill="#9fd5a4"/>
      <path id="Path_137920" data-name="Path 137920" d="M349.254,580.3c-4.822.114-9.618.167-14.357.14-5.732-.027-11.538-.15-17.259-.366a6,6,0,0,0-.453,11.992c5.853.221,11.793.346,17.653.374q1.141,0,2.285.005c4.08,0,8.257-.049,12.416-.149a6,6,0,0,0-.285-12Z" fill="#9fd5a4"/>
      <path id="Path_137921" data-name="Path 137921" d="M274.308,576.648c-10.253-1.229-20.5-2.734-31.33-4.6a6,6,0,0,0-2.041,11.825c11.035,1.906,21.484,3.44,31.945,4.693a6.273,6.273,0,0,0,.72.043,6,6,0,0,0,.706-11.958Z" fill="#9fd5a4"/>
      <path id="Path_137922" data-name="Path 137922" d="M424.323,574.13c-11.152,1.447-21.482,2.607-31.58,3.549a6,6,0,0,0,.549,11.974c.186,0,.375-.008.564-.026,10.243-.955,20.714-2.131,32.011-3.6a5.977,5.977,0,0,0,2.133-.7v-10.49A5.969,5.969,0,0,0,424.323,574.13Z" fill="#9fd5a4"/>
      <path id="Path_137923" data-name="Path 137923" d="M126.334,545.869c-11.546-2.685-21.816-4.942-31.394-6.9a6,6,0,0,0-2.4,11.757c9.473,1.937,19.64,4.172,31.081,6.832a6,6,0,1,0,2.717-11.688Z" fill="#9fd5a4"/>
    </g>
  </g>
</svg>
