<svg xmlns="http://www.w3.org/2000/svg" width="333.947" height="332.869" viewBox="0 0 333.947 332.869">
  <g id="Group_31489" data-name="Group 31489" transform="translate(-102 -205.318)">
    <circle id="Ellipse_466" data-name="Ellipse 466" cx="27.188" cy="27.188" r="27.188" transform="translate(140 425.711)" fill="#f69f8e"/>
    <g id="Group_746" data-name="Group 746" transform="translate(102 363.951) rotate(-41)">
      <g id="Group_745" data-name="Group 745">
        <g id="Path_70673" data-name="Path 70673" transform="translate(0.881 0.83)">
          <path id="Path_135385" data-name="Path 135385" d="M21.525,57.793C40.919,22.538,78.5-31,178.648,22.908s58.535,154.987,10.142,184.024S62.719,248.125,11.834,170.385C-14.444,130.238,9.533,79.592,21.525,57.793Z" fill="#fff"/>
        </g>
        <g id="Path_70674" data-name="Path 70674">
          <path id="Path_135386" data-name="Path 135386" d="M221.75,177.37c-9.1,13.528-20.346,24.379-31.623,31.148C139.1,239.137,61.833,247.867,11.974,171.7-6.789,143.031-3.45,103.783,21.633,58.2h0c9.95-18.09,24.474-40.264,48.685-51.259C99.061-6.118,135.946-.729,179.947,22.957c50.008,26.917,61.221,63.227,61.822,88.948C242.338,136.254,233.969,159.219,221.75,177.37ZM23.182,59.048c-24.745,44.98-28.11,83.6-9.726,111.681C62.625,245.848,138.868,237.217,189.215,207c25.342-15.2,51.751-53.686,50.784-95.053-.588-25.252-11.629-60.917-60.89-87.434C85.466-25.888,46.593,16.5,23.182,59.047Z"/>
        </g>
      </g>
      <g id="Path_70675" data-name="Path 70675" transform="translate(34.311 188.478)">
        <path id="Path_135387" data-name="Path 135387" d="M100.524,34.2a.89.89,0,0,1-.588.378,116.068,116.068,0,0,1-42.628-.491C35.765,29.657,16.564,18.69.244,1.494A.884.884,0,0,1,1.525.275C17.594,17.2,36.481,28,57.666,32.359a114.34,114.34,0,0,0,41.979.475.883.883,0,0,1,.883,1.367Z"/>
      </g>
      <g id="Path_70676" data-name="Path 70676" transform="translate(185.753 202.848)">
        <path id="Path_135388" data-name="Path 135388" d="M0,0" fill="none" stroke="#000" stroke-miterlimit="10" stroke-width="1"/>
      </g>
      <g id="Path_70677" data-name="Path 70677" transform="translate(213.577 176.143)">
        <path id="Path_135389" data-name="Path 135389" d="M0,0" fill="none" stroke="#000" stroke-miterlimit="10" stroke-width="1"/>
      </g>
      <g id="Path_70678" data-name="Path 70678" transform="translate(211.37 56.131)">
        <path id="Path_135390" data-name="Path 135390" d="M19.149,31.671a.869.869,0,0,1-.455.344.883.883,0,0,1-1.117-.557v0A87.718,87.718,0,0,0,.213,1.467.9.9,0,0,1,.3.218.883.883,0,0,1,1.543.3l0,0A89.553,89.553,0,0,1,19.256,30.9.878.878,0,0,1,19.149,31.671Z"/>
      </g>
      <g id="Path_70679" data-name="Path 70679" transform="translate(112.834 7.028)">
        <path id="Path_135391" data-name="Path 135391" d="M16.846,3.875a.881.881,0,0,1-.93.367A115.156,115.156,0,0,0,.8,1.766.885.885,0,0,1,.967,0,116.456,116.456,0,0,1,16.314,2.517a.883.883,0,0,1,.666,1.056.871.871,0,0,1-.131.3Z"/>
      </g>
      <g id="Path_70680" data-name="Path 70680" transform="translate(64.111 8.873)">
        <path id="Path_135392" data-name="Path 135392" d="M22.312,1.379a.883.883,0,0,1-.521.366A70,70,0,0,0,1.355,10.429a.885.885,0,0,1-.94-1.5A71.955,71.955,0,0,1,21.363.028a.883.883,0,0,1,.951,1.351Z"/>
      </g>
      <g id="Path_70681" data-name="Path 70681" transform="translate(6.615 94.623)">
        <path id="Path_135393" data-name="Path 135393" d="M12.816,74.219a.916.916,0,0,1-.25.247.887.887,0,0,1-1.222-.257C-1.586,54.456-3.472,29.7,5.734.617a.884.884,0,0,1,1.686.533C-1.619,29.7.2,53.954,12.825,73.241A.888.888,0,0,1,12.816,74.219Z"/>
      </g>
      <g id="Path_70682" data-name="Path 70682" transform="translate(86.795 8.476)">
        <path id="Path_135394" data-name="Path 135394" d="M1.147.124a.737.737,0,1,1-1.022.2h0A.737.737,0,0,1,1.147.124Z"/>
      </g>
      <g id="Path_70683" data-name="Path 70683" transform="translate(108.553 6.749)">
        <path id="Path_135395" data-name="Path 135395" d="M1.277.14A.819.819,0,1,1,.14.361h0A.819.819,0,0,1,1.277.14Z"/>
      </g>
      <g id="Path_70684" data-name="Path 70684" transform="translate(183.202 179.297)">
        <path id="Path_135396" data-name="Path 135396" d="M28.622,1.028c-4.362,6.115-10.755,12.1-19,17.787-2.7,1.86-5.636,3.714-8.732,5.51L0,22.8c3.056-1.775,5.957-3.6,8.617-5.438C16.693,11.79,22.939,5.95,27.182,0Z"/>
      </g>
      <g id="Path_70685" data-name="Path 70685" transform="translate(153.102 208.663)">
        <path id="Path_135397" data-name="Path 135397" d="M18.271,1.6A173.625,173.625,0,0,1,.551,8.847L0,7.166A172.045,172.045,0,0,0,17.515,0Z"/>
      </g>
      <g id="Path_70686" data-name="Path 70686" transform="translate(36.184 178.945)">
        <path id="Path_135398" data-name="Path 135398" d="M1.705.186a1.094,1.094,0,1,1-1.519.3h0A1.1,1.1,0,0,1,1.705.186Z"/>
      </g>
      <g id="Path_70687" data-name="Path 70687" transform="translate(226.765 99.617)">
        <path id="Path_135399" data-name="Path 135399" d="M2.471.27A1.585,1.585,0,1,1,.27.7,1.586,1.586,0,0,1,2.471.27Z"/>
      </g>
      <g id="Path_70688" data-name="Path 70688" transform="translate(209.912 146.934)">
        <path id="Path_135400" data-name="Path 135400" d="M0,0"/>
      </g>
      <g id="Path_70689" data-name="Path 70689" transform="translate(161.431 41.882)">
        <path id="Path_135401" data-name="Path 135401" d="M2.036.222A1.307,1.307,0,1,1,.223.577h0A1.309,1.309,0,0,1,2.036.222Z"/>
      </g>
      <g id="Path_70690" data-name="Path 70690" transform="translate(167.386 34.846)">
        <path id="Path_135402" data-name="Path 135402" d="M2.368.259A1.519,1.519,0,1,1,.26.67h0A1.519,1.519,0,0,1,2.368.259Z"/>
      </g>
      <g id="Path_70691" data-name="Path 70691" transform="translate(178.545 33.409)">
        <path id="Path_135403" data-name="Path 135403" d="M4.813.526a3.088,3.088,0,1,1-4.286.837h0A3.088,3.088,0,0,1,4.813.526Z"/>
      </g>
      <g id="Path_70692" data-name="Path 70692" transform="translate(176.235 53.116)">
        <path id="Path_135404" data-name="Path 135404" d="M1.81.2A1.161,1.161,0,1,1,.2.514,1.16,1.16,0,0,1,1.81.2Z"/>
      </g>
    </g>
    <g id="Group_28396" data-name="Group 28396" transform="translate(215 315.696)">
      <g id="Group_1086" data-name="Group 1086" transform="translate(0 0)">
        <g id="Group_1080" data-name="Group 1080">
          <path id="Path_106171" data-name="Path 106171" d="M-1031.227,65.194h4.312a8.625,8.625,0,0,0,8.625-8.624,8.625,8.625,0,0,0-8.625-8.624h-75.461a10.793,10.793,0,0,0-10.78,10.78v1.039a28.514,28.514,0,0,1-3.155,12.788,93.436,93.436,0,0,0-9.782,41.5v61.1a2.157,2.157,0,0,0,2.156,2.156h103.49a2.158,2.158,0,0,0,2.157-2.156v-61.1a92.945,92.945,0,0,0-12.937-47.261Zm4.312-12.936a4.31,4.31,0,0,1,4.312,4.312,4.31,4.31,0,0,1-4.312,4.312h-4.312V56.57a4.311,4.311,0,0,1,4.312-4.312Zm-94.867,61.8a89.093,89.093,0,0,1,9.33-39.577,32.789,32.789,0,0,0,3.607-14.713V58.726a6.469,6.469,0,0,1,6.468-6.468h68a8.54,8.54,0,0,0-1.158,4.312V66.794a92.944,92.944,0,0,0-12.937,47.261V173h-73.306Zm88.4,49.319,8.249,9.622h-16.5Zm10.779,5.95-8.624-10.06V149.28a2.157,2.157,0,0,0-2.156-2.156,2.157,2.157,0,0,0-2.156,2.156v9.984l-8.625,10.067V114.055a88.637,88.637,0,0,1,8.625-38.081V97.535a2.157,2.157,0,0,0,2.156,2.156,2.157,2.157,0,0,0,2.156-2.156V75.975a88.608,88.608,0,0,1,8.624,38.086Zm0,0" transform="translate(1126.092 -47.946)"/>
        </g>
        <g id="Group_1081" data-name="Group 1081" transform="translate(90.554 60.369)">
          <path id="Path_106172" data-name="Path 106172" d="M-979.427,144.285a2.157,2.157,0,0,0-2.157,2.156v12.936a2.157,2.157,0,0,0,2.157,2.156,2.157,2.157,0,0,0,2.156-2.156V146.441a2.157,2.157,0,0,0-2.156-2.156Zm0,0" transform="translate(981.584 -144.285)"/>
        </g>
        <g id="Group_1082" data-name="Group 1082" transform="translate(19.403 23.716)">
          <path id="Path_106173" data-name="Path 106173" d="M-1041.633,86.69a2.157,2.157,0,0,0-1.749-.9h-45.276a2.157,2.157,0,0,0-2.047,1.475l-4.312,12.936a2.155,2.155,0,0,0,.3,1.942,2.154,2.154,0,0,0,1.749.9h45.277a2.157,2.157,0,0,0,2.044-1.475l4.313-12.936a2.144,2.144,0,0,0-.295-1.94Zm-7.615,12.039h-40.733l2.875-8.624h40.731Zm0,0" transform="translate(1095.127 -85.793)"/>
        </g>
        <g id="Group_1083" data-name="Group 1083" transform="translate(28.029 45.277)">
          <path id="Path_106174" data-name="Path 106174" d="M-1053.335,124.513a2.157,2.157,0,0,0,2.155-2.156,2.157,2.157,0,0,0-2.155-2.156h-25.874a2.157,2.157,0,0,0-2.155,2.156,2.157,2.157,0,0,0,2.155,2.156Zm0,0" transform="translate(1081.363 -120.2)"/>
        </g>
        <g id="Group_1084" data-name="Group 1084" transform="translate(34.497 15.092)">
          <path id="Path_106175" data-name="Path 106175" d="M-1068.885,76.343h25.873a2.156,2.156,0,0,0,2.156-2.156,2.156,2.156,0,0,0-2.156-2.156h-25.873a2.157,2.157,0,0,0-2.156,2.156,2.157,2.157,0,0,0,2.156,2.156Zm0,0" transform="translate(1071.041 -72.031)"/>
        </g>
        <g id="Group_1085" data-name="Group 1085" transform="translate(89.487 85.373)">
          <path id="Path_106176" data-name="Path 106176" d="M-980.061,190.627a3.221,3.221,0,0,0,3.22-3.22,3.221,3.221,0,0,0-3.22-3.22h-.011a3.216,3.216,0,0,0-3.215,3.22,3.225,3.225,0,0,0,3.226,3.22Zm0,0" transform="translate(983.287 -184.186)"/>
        </g>
      </g>
      <g id="Group_1088" data-name="Group 1088" transform="translate(25.31 95.767)">
        <g id="Group_1087" data-name="Group 1087">
          <g id="Path_8" data-name="Path 8" transform="translate(3.965 0.661)">
            <path id="Path_106177" data-name="Path 106177" d="M-1053.849,202.579h-2.968a12.173,12.173,0,0,1-3.892,4.68h0a12.284,12.284,0,0,1-15.908-1.283l-2.007.036.065,3.58a16.178,16.178,0,0,0,8.048,3.764,16.431,16.431,0,0,0,2.624.211,16.166,16.166,0,0,0,9.5-3.088h0a16.07,16.07,0,0,0,5.019-5.963,16.626,16.626,0,0,0,.813-1.936Z" transform="translate(1079.093 -202.109)" fill="#8fd89f"/>
            <path id="Path_106178" data-name="Path 106178" d="M-1068.168,213.758a16.964,16.964,0,0,1-2.7-.216,16.629,16.629,0,0,1-8.282-3.874.479.479,0,0,1-.162-.347l-.064-3.579a.472.472,0,0,1,.463-.479l2-.036a.455.455,0,0,1,.341.138,11.761,11.761,0,0,0,15.3,1.233,11.731,11.731,0,0,0,3.742-4.5.471.471,0,0,1,.426-.269h4.264a.468.468,0,0,1,.383.2.468.468,0,0,1,.061.426,17.1,17.1,0,0,1-.836,1.992,16.584,16.584,0,0,1-5.165,6.135A16.531,16.531,0,0,1-1068.168,213.758Zm-10.2-4.664a15.676,15.676,0,0,0,7.656,3.52,16.1,16.1,0,0,0,2.549.2,15.6,15.6,0,0,0,9.227-3,15.653,15.653,0,0,0,4.874-5.789c.2-.412.39-.834.559-1.261h-3.3a12.693,12.693,0,0,1-3.91,4.591,12.7,12.7,0,0,1-16.375-1.19l-1.337.024Z" transform="translate(1079.375 -201.829)" fill="#8fd89f"/>
          </g>
          <g id="Path_9" data-name="Path 9">
            <path id="Path_106179" data-name="Path 106179" d="M-1074.108,205.5l-.073-3.972-7.364.133-3.408.062.039,2.141.157,8.631,3.971-.072-.058-3.22-.065-3.58,2.005-.036Z" transform="translate(1085.421 -201.054)" fill="#8fd89f"/>
            <path id="Path_106180" data-name="Path 106180" d="M-1085.037,212.681a.471.471,0,0,1-.47-.462l-.2-10.771a.474.474,0,0,1,.132-.335.472.472,0,0,1,.33-.144l10.771-.2a.477.477,0,0,1,.478.461l.073,3.972a.479.479,0,0,1-.131.335.472.472,0,0,1-.33.144l-6.331.115.115,6.33a.475.475,0,0,1-.131.335.472.472,0,0,1-.329.143l-3.972.072Zm.283-10.78.178,9.831,3.033-.054-.115-6.33a.472.472,0,0,1,.462-.479l6.33-.114-.055-3.033Z" transform="translate(1085.702 -200.774)" fill="#8fd89f"/>
          </g>
        </g>
      </g>
      <g id="Group_1091" data-name="Group 1091" transform="translate(11.14 71.028)">
        <g id="Group_1089" data-name="Group 1089">
          <path id="Path_106181" data-name="Path 106181" d="M-1105.437,179.574a2.194,2.194,0,0,1-2.049-1.41,12.374,12.374,0,0,1-.828-4.438,12.447,12.447,0,0,1,12.433-12.432,12.447,12.447,0,0,1,12.433,12.432,2.194,2.194,0,0,1-2.194,2.193,2.194,2.194,0,0,1-2.195-2.193,8.055,8.055,0,0,0-8.045-8.045,8.056,8.056,0,0,0-8.047,8.045,8.04,8.04,0,0,0,.54,2.871,2.194,2.194,0,0,1-1.266,2.832A2.191,2.191,0,0,1-1105.437,179.574Z" transform="translate(1108.314 -161.294)" fill="#8fd89f"/>
        </g>
        <g id="Group_1090" data-name="Group 1090" transform="translate(34.204 1.355)">
          <path id="Path_106182" data-name="Path 106182" d="M-1033.322,184.494a2.184,2.184,0,0,1-1.373-.485,2.192,2.192,0,0,1-.333-3.084,7.947,7.947,0,0,0,1.777-5.036,8.055,8.055,0,0,0-8.045-8.046,8.055,8.055,0,0,0-8.046,8.046,2.195,2.195,0,0,1-2.194,2.193,2.193,2.193,0,0,1-2.193-2.193,12.446,12.446,0,0,1,12.433-12.432,12.447,12.447,0,0,1,12.432,12.432,12.458,12.458,0,0,1-2.747,7.786A2.19,2.19,0,0,1-1033.322,184.494Z" transform="translate(1053.73 -163.457)" fill="#8fd89f"/>
        </g>
      </g>
    </g>
  </g>
</svg>
