<svg xmlns="http://www.w3.org/2000/svg" xmlns:xlink="http://www.w3.org/1999/xlink" width="428" height="926" viewBox="0 0 428 926"><defs><clipPath id="b"><rect width="428" height="926"/></clipPath></defs><g id="a" clip-path="url(#b)"><rect width="428" height="926" fill="#fff"/><g transform="translate(-460.693)"><circle cx="27.188" cy="27.188" r="27.188" transform="translate(539.693 435.812)" fill="#f69f8e"/></g><g transform="translate(-460.693)"><path d="M557.063,403.6c-8.493-39.331-15.254-104.392,95.7-129.41s145.858,78.567,128.385,132.231-68.122,113.8-157.527,88.511C577.445,481.868,562.314,427.915,557.063,403.6Z" fill="#fff"/></g><g transform="translate(-460.693)"><path d="M785.415,362.434c2.007,16.18.638,31.747-3.432,44.254-18.422,56.585-71.009,113.866-158.608,89.092-32.969-9.327-56.2-41.139-67.173-92h0c-4.359-20.181-7.945-46.444,3.114-70.626,13.125-28.713,44.5-48.845,93.245-59.836,55.4-12.494,87.685,7.553,105.013,26.571C773.978,317.9,782.728,340.719,785.415,362.434ZM557.927,403.407c10.834,50.181,33.632,81.536,65.929,90.668,86.391,24.435,138.27-32.1,156.443-87.934,9.154-28.1,3.836-74.469-24.033-105.055-17.011-18.672-48.742-38.345-103.316-26.04-103.739,23.4-105.268,80.891-95.023,128.361Z"/></g><g transform="translate(-460.693)"><path d="M749.544,453.65a.891.891,0,0,1-.2.671,116.079,116.079,0,0,1-32.494,27.595c-19.165,10.791-40.851,15.111-64.45,12.84a.884.884,0,0,1,.167-1.761c23.232,2.231,44.571-2.009,63.42-12.618A114.328,114.328,0,0,0,747.984,453.2a.883.883,0,0,1,1.563.453Z"/></g><g transform="translate(-460.693)"><path d="M774.962,405.278" fill="none" stroke="#000" stroke-miterlimit="10" stroke-width="1"/></g><g transform="translate(-460.693)"><path d="M778.441,366.87" fill="none" stroke="#000" stroke-miterlimit="10" stroke-width="1"/></g><g transform="translate(-460.693)"><path d="M733.271,289.083a.872.872,0,0,1-.118.558.883.883,0,0,1-1.208.313h0a87.7,87.7,0,0,0-32.781-11.243.9.9,0,0,1-.754-1,.882.882,0,0,1,.992-.753h0a89.538,89.538,0,0,1,33.444,11.473A.88.88,0,0,1,733.271,289.083Z"/></g><g transform="translate(-460.693)"><path d="M606.716,297.2a.879.879,0,0,1-.461.887,115.145,115.145,0,0,0-13.032,8.048.887.887,0,1,1-1.033-1.442,116.423,116.423,0,0,1,13.234-8.169.882.882,0,0,1,1.2.36.861.861,0,0,1,.1.312Z"/></g><g transform="translate(-460.693)"><path d="M573.643,325.091a.887.887,0,0,1-.153.618,69.973,69.973,0,0,0-9.726,19.961.885.885,0,1,1-1.694-.516h0a71.949,71.949,0,0,1,9.97-20.46.883.883,0,0,1,1.6.395Z"/></g><g transform="translate(-460.693)"><path d="M627.128,488.731a.94.94,0,0,1-.027.35.887.887,0,0,1-1.091.608c-22.717-6.425-40.382-23.871-52.514-51.86a.884.884,0,0,1,1.622-.7c11.908,27.477,29.193,44.588,51.375,50.862A.888.888,0,0,1,627.128,488.731Z"/></g><g transform="translate(-460.693)"><path d="M573.705,322.847a.737.737,0,1,1-.64.823h0A.738.738,0,0,1,573.705,322.847Z"/></g><g transform="translate(-460.693)"><path d="M589.1,307.2a.819.819,0,1,1-.713.913h0a.819.819,0,0,1,.713-.913Z"/></g><g transform="translate(-460.693)"><path d="M779.862,371.176c.72,7.477-.179,16.188-2.67,25.889-.818,3.175-1.817,6.5-2.975,9.887l-1.673-.567c1.142-3.344,2.134-6.625,2.936-9.757,2.44-9.5,3.322-18.009,2.621-25.283Z"/></g><g transform="translate(-460.693)"><path d="M768.974,420.309a173.335,173.335,0,0,1-8.619,17.094l-1.518-.907a171.994,171.994,0,0,0,8.517-16.9Z"/></g><g transform="translate(-460.693)"><path d="M647.808,484.386a1.094,1.094,0,1,1-.949,1.223h0A1.1,1.1,0,0,1,647.808,484.386Z"/></g><g transform="translate(-460.693)"><path d="M740.231,299.045a1.585,1.585,0,1,1-1.379,1.769A1.585,1.585,0,0,1,740.231,299.045Z"/></g><g transform="translate(-460.693)"><path d="M756.513,347.23"/></g><g transform="translate(-460.693)"><path d="M652.685,298.584a1.307,1.307,0,1,1-1.135,1.459h0A1.31,1.31,0,0,1,652.685,298.584Z"/></g><g transform="translate(-460.693)"><path d="M652.838,289.177a1.519,1.519,0,1,1-1.321,1.694h0A1.52,1.52,0,0,1,652.838,289.177Z"/></g><g transform="translate(-460.693)"><path d="M662.338,279.369a3.088,3.088,0,1,1-2.686,3.444h0A3.089,3.089,0,0,1,662.338,279.369Z"/></g><g transform="translate(-460.693)"><path d="M671.043,297.482a1.161,1.161,0,1,1-1.009,1.3v0A1.161,1.161,0,0,1,671.043,297.482Z"/></g><g transform="translate(-460.693)"><path d="M709.558,343.045h4.312a8.624,8.624,0,1,0,0-17.248H638.409a10.792,10.792,0,0,0-10.78,10.78v1.039a28.53,28.53,0,0,1-3.155,12.788,93.423,93.423,0,0,0-9.782,41.5V453a2.156,2.156,0,0,0,2.156,2.156h103.49A2.159,2.159,0,0,0,722.495,453V391.9a92.952,92.952,0,0,0-12.937-47.261Zm4.312-12.936a4.311,4.311,0,0,1,4.312,4.308v0a4.31,4.31,0,0,1-4.308,4.312h-4.316v-4.312a4.311,4.311,0,0,1,4.31-4.312ZM619,391.909a89.074,89.074,0,0,1,9.33-39.577,32.8,32.8,0,0,0,3.607-14.713v-1.042a6.469,6.469,0,0,1,6.468-6.468h68a8.536,8.536,0,0,0-1.158,4.312v10.224a92.943,92.943,0,0,0-12.937,47.261v58.945H619.007Zm88.4,49.319,8.249,9.622h-16.5Zm10.779,5.95-8.624-10.06v-9.987a2.156,2.156,0,0,0-4.312,0v9.984l-8.625,10.067V391.906a88.627,88.627,0,0,1,8.625-38.081v21.561a2.156,2.156,0,0,0,4.312,0v-21.56a88.615,88.615,0,0,1,8.624,38.086Z"/></g><g transform="translate(-460.693)"><path d="M707.4,386.166a2.157,2.157,0,0,0-2.157,2.156v12.936a2.156,2.156,0,0,0,4.313,0V388.322a2.158,2.158,0,0,0-2.156-2.156Z"/></g><g transform="translate(-460.693)"><path d="M687.589,350.41a2.155,2.155,0,0,0-1.749-.9H640.564a2.158,2.158,0,0,0-2.047,1.475l-4.312,12.936a2.166,2.166,0,0,0,2.049,2.842h45.277a2.156,2.156,0,0,0,2.044-1.475l4.313-12.936a2.143,2.143,0,0,0-.295-1.94Zm-7.615,12.039H639.241l2.875-8.624h40.731Z"/></g><g transform="translate(-460.693)"><path d="M670.75,375.387a2.156,2.156,0,0,0,0-4.312H644.876a2.156,2.156,0,0,0,0,4.312Z"/></g><g transform="translate(-460.693)"><path d="M651.346,345.2h25.873a2.156,2.156,0,0,0,2.156-2.156h0a2.156,2.156,0,0,0-2.156-2.156H651.346a2.156,2.156,0,1,0,0,4.312Z"/></g><g transform="translate(-460.693)"><path d="M707.406,417.611a3.22,3.22,0,0,0,0-6.44H707.4a3.216,3.216,0,0,0-3.215,3.217v0A3.224,3.224,0,0,0,707.406,417.611Z"/></g><g transform="translate(-460.693)"><path d="M669.212,422.7h-2.968a12.189,12.189,0,0,1-3.892,4.68h0a12.285,12.285,0,0,1-15.908-1.283l-2.007.036.065,3.58a16.173,16.173,0,0,0,8.048,3.764,16.464,16.464,0,0,0,2.624.211,16.174,16.174,0,0,0,9.5-3.088h0a16.082,16.082,0,0,0,5.019-5.963,16.737,16.737,0,0,0,.813-1.936Z" fill="#8fd89f"/></g><g transform="translate(-460.693)"><path d="M655.175,434.154a16.941,16.941,0,0,1-2.7-.216,16.622,16.622,0,0,1-8.282-3.874.477.477,0,0,1-.162-.347l-.064-3.579a.472.472,0,0,1,.463-.479l2-.036a.455.455,0,0,1,.341.138,11.813,11.813,0,0,0,19.042-3.267.472.472,0,0,1,.426-.269H670.5a.473.473,0,0,1,.444.626,17.285,17.285,0,0,1-.836,1.992,16.654,16.654,0,0,1-14.936,9.311Zm-10.2-4.664a15.679,15.679,0,0,0,7.656,3.52,16.113,16.113,0,0,0,2.549.2,15.725,15.725,0,0,0,14.1-8.789c.2-.412.39-.834.559-1.261h-3.3a12.754,12.754,0,0,1-20.285,3.4l-1.337.024Z" fill="#8fd89f"/></g><g transform="translate(-460.693)"><path d="M651.316,426.01l-.073-3.972-7.364.133-3.408.062.039,2.141.157,8.631,3.97-.072-.058-3.22-.064-3.58,2.005-.036Z" fill="#8fd89f"/></g><g transform="translate(-460.693)"><path d="M640.668,433.471a.471.471,0,0,1-.47-.462l-.2-10.771a.471.471,0,0,1,.462-.479l10.771-.2a.477.477,0,0,1,.478.461l.073,3.972a.483.483,0,0,1-.131.335.475.475,0,0,1-.33.144l-6.331.115.115,6.33a.468.468,0,0,1-.46.478l-3.972.072Zm.283-10.78.178,9.831,3.032-.054-.114-6.33a.471.471,0,0,1,.462-.479l6.33-.114-.056-3.033Z" fill="#8fd89f"/></g><g transform="translate(-460.693)"><path d="M628.71,415.105a2.192,2.192,0,0,1-2.049-1.41,12.429,12.429,0,1,1,24.038-4.438,2.194,2.194,0,0,1-4.389,0,8.046,8.046,0,1,0-15.552,2.871,2.195,2.195,0,0,1-2.048,2.977Z" fill="#8fd89f"/></g><g transform="translate(-460.693)"><path d="M680.445,419.217a2.193,2.193,0,0,1-1.708-3.567v0a7.94,7.94,0,0,0,1.777-5.036,8.046,8.046,0,1,0-16.091,0,2.194,2.194,0,0,1-4.387,0,12.432,12.432,0,1,1,22.118,7.786A2.187,2.187,0,0,1,680.445,419.217Z" fill="#8fd89f"/></g><g transform="translate(-460.693)"><path d="M888.9,577.874s-67.669,8.374-103.983,8.388-133.262-17.583-143.8-19.831-109.795-22.941-141.5-28.606c-29.729-5.312-38.923-6.348-38.923-6.348V925.995H889.106Z" fill="#f5f9fc"/><path d="M511.994,531.276c-10.773-1.564-21.557-2.855-32.053-3.838a6,6,0,0,0-1.12,11.947c10.3.965,20.876,2.231,31.45,3.766a6,6,0,0,0,1.723-11.875Z" fill="#9fd5a4"/><path d="M660.859,563.44c-11.059-2.487-21.887-5.078-31.021-7.287a6,6,0,0,0-2.819,11.665c9.18,2.218,20.066,4.824,31.209,7.329a6,6,0,1,0,2.631-11.707Z" fill="#9fd5a4"/><path d="M809.946,580.3c-4.821.114-9.617.167-14.357.14-5.731-.027-11.538-.15-17.259-.366a6,6,0,0,0-.452,11.992c5.853.221,11.793.346,17.652.374q1.143,0,2.286.005c4.079,0,8.256-.049,12.416-.149a6,6,0,1,0-.286-12Z" fill="#9fd5a4"/><path d="M735,576.648c-10.254-1.229-20.5-2.734-31.33-4.6a6,6,0,0,0-2.041,11.825c11.034,1.906,21.483,3.44,31.944,4.693a6.277,6.277,0,0,0,.721.043A6,6,0,0,0,735,576.648Z" fill="#9fd5a4"/><path d="M885.015,574.13c-11.152,1.447-21.482,2.607-31.58,3.549a6,6,0,0,0,.55,11.974c.186,0,.374-.008.563-.026,10.244-.955,20.714-2.131,32.011-3.6a5.982,5.982,0,0,0,2.134-.7v-10.49A5.974,5.974,0,0,0,885.015,574.13Z" fill="#9fd5a4"/><path d="M587.027,545.869c-11.546-2.685-21.816-4.942-31.395-6.9a6,6,0,1,0-2.4,11.757c9.473,1.937,19.639,4.172,31.08,6.832a6,6,0,0,0,2.718-11.688Z" fill="#9fd5a4"/></g><g transform="translate(-460.693 39.654)"><path d="M653.423,105.65a18.7,18.7,0,0,0-14.131-14.818h0a18.706,18.706,0,0,0-22.434,13.963,18.5,18.5,0,0,0,.26,9.357,13.248,13.248,0,0,1,5.088-.991,13.5,13.5,0,0,1,15.915-17.3h0a13.535,13.535,0,0,1,10.224,10.713l2.366,2.112Z" fill="#8fd89f"/><path d="M683.844,145.034h-3.86a15.826,15.826,0,0,1-5.056,6.084h0a15.97,15.97,0,0,1-20.681-1.668l-2.6.047.084,4.653a21.02,21.02,0,0,0,10.465,4.894,21.419,21.419,0,0,0,3.411.274,21.017,21.017,0,0,0,12.354-4.015h0a20.873,20.873,0,0,0,6.524-7.752,21.605,21.605,0,0,0,1.057-2.518Z" fill="#8fd89f"/><path d="M660.581,149.338l-.094-5.164-9.573.174-4.429.08.051,2.782.2,11.22,5.163-.093-.076-4.188-.084-4.654,2.605-.047Z" fill="#8fd89f"/><path d="M695.111,110.2a14.327,14.327,0,0,1,28.121.973l2.315,2.111,2.767-3.035a19.483,19.483,0,0,0-38.588,5.327,14.067,14.067,0,0,1,5.027-2.276A14.3,14.3,0,0,1,695.111,110.2Z" fill="#8fd89f"/><path d="M615.5,138.735q-2.5-3.115-2.5-9.43,0-6.18,2.522-9.316a8.171,8.171,0,0,1,6.705-3.135,9.9,9.9,0,0,1,4.248.863,6.85,6.85,0,0,1,2.885,2.452h.273V108.446h6.226V141.3H630.54l-.409-3.135h-.318a7.313,7.313,0,0,1-3.046,2.749,9.488,9.488,0,0,1-4.226.932A8.517,8.517,0,0,1,615.5,138.735Zm14.134-8.976v-.727q0-6.771-5.09-6.771a4.519,4.519,0,0,0-3.954,1.659,8.674,8.674,0,0,0-1.184,5.022v.817a8.689,8.689,0,0,0,1.181,5.022,4.516,4.516,0,0,0,3.954,1.658q5.091,0,5.092-6.68Z" fill="#f69f8e"/><path d="M641.537,138.761q-3-3.044-3-9.453t3-9.452q3-3.045,9.134-3.045t9.158,3.045q3.02,3.046,3.022,9.452t-3.022,9.453q-3.024,3.047-9.158,3.045T641.537,138.761Zm13.543-3.794a8.54,8.54,0,0,0,1.362-5.295v-.727a8.549,8.549,0,0,0-1.362-5.3,5.25,5.25,0,0,0-4.409-1.75,5.178,5.178,0,0,0-4.385,1.75,8.66,8.66,0,0,0-1.341,5.3v.728a8.654,8.654,0,0,0,1.341,5.295,5.176,5.176,0,0,0,4.385,1.749,5.248,5.248,0,0,0,4.409-1.75Z" fill="#f69f8e"/><path d="M664.819,117.361h5.317l.454,3.135h.318a9.094,9.094,0,0,1,7.457-3.681,8.085,8.085,0,0,1,5.793,2q2.113,2,2.113,6.406v16.043h-6.227V126.54a3.65,3.65,0,0,0-4.136-4.226,4.563,4.563,0,0,0-3.476,1.476,5.141,5.141,0,0,0-1.386,3.658v13.816h-6.227Z" fill="#f69f8e"/><path d="M689.153,147.831a5.072,5.072,0,0,1-1.726-3.954q0-3.183,3.681-4.863a3.82,3.82,0,0,1-2.318-3.59,3.477,3.477,0,0,1,1.181-2.612,6.642,6.642,0,0,1,3.045-1.568,7.06,7.06,0,0,1-3.5-6.453,7.186,7.186,0,0,1,2.749-5.953q2.749-2.182,7.84-2.183a15.292,15.292,0,0,1,4.816.682,5.329,5.329,0,0,0,1.977-2.067,4.726,4.726,0,0,0,.613-2.068h6.09a5.866,5.866,0,0,1-1.341,4.022,6.856,6.856,0,0,1-3.8,2.067,7.21,7.21,0,0,1,2.273,5.5,7.289,7.289,0,0,1-2.659,5.953q-2.656,2.181-7.611,2.181h-3.634a2.1,2.1,0,0,0-1.3.365,1.186,1.186,0,0,0-.477,1,1.232,1.232,0,0,0,.409.931,1.516,1.516,0,0,0,1.09.386h10.862a5.988,5.988,0,0,1,4.408,1.774,6.266,6.266,0,0,1,1.772,4.634,6.553,6.553,0,0,1-1.182,3.864,7.631,7.631,0,0,1-3.226,2.59,10.96,10.96,0,0,1-4.5.908H693.38A6.119,6.119,0,0,1,689.153,147.831Zm15.452-2.772a3.137,3.137,0,0,0,1.955-.592,1.983,1.983,0,0,0,.068-3.089,2.773,2.773,0,0,0-1.75-.546h-8.771a2.563,2.563,0,0,0-1.7.591,1.869,1.869,0,0,0-.705,1.5,1.944,1.944,0,0,0,.682,1.545,2.551,2.551,0,0,0,1.727.591Zm-1.181-17.384a4.235,4.235,0,0,0,0-5.772,4.809,4.809,0,0,0-3.317-1.021,4.725,4.725,0,0,0-3.3,1.021,4.3,4.3,0,0,0,0,5.772,4.722,4.722,0,0,0,3.3,1.021A4.805,4.805,0,0,0,703.424,127.675Z" fill="#f69f8e"/><path d="M717.052,139.818q-2.113-2-2.113-6.406V119.5h6.225v12.6a3.649,3.649,0,0,0,4.136,4.226,4.567,4.567,0,0,0,3.474-1.477,5.138,5.138,0,0,0,1.386-3.658V119.5h6.226v21.775h-5.314l-.455-3.136H730.3a9.092,9.092,0,0,1-7.454,3.682A8.087,8.087,0,0,1,717.052,139.818Z" fill="#f69f8e"/><path d="M641.6,107.564l6.112,5.461,3.193,2.852,2-2.239,6.312-7.067-3.852-3.439-2.158,2.418-2.713,3.037-2.365-2.113-3.089-2.758Z" fill="#f69f8e"/><path d="M730.811,107.377l-2.5,2.739-2.767,3.035-2.316-2.111-3.458-3.153-1.967,2.159-1.512,1.658,1.512,1.379,4.934,4.5,3.144,2.866,2.043-2.242,6.7-7.348Z" fill="#f69f8e"/></g></g></svg>