<svg id="Component_36_3" data-name="Component 36 – 3" xmlns="http://www.w3.org/2000/svg" width="16" height="16" viewBox="0 0 16 16">
  <g id="Icon_ionic-ios-information-circle-outline" data-name="Icon ionic-ios-information-circle-outline" transform="translate(-3.375 -3.375)" opacity="0.601">
    <path id="Path_137611" data-name="Path 137611" d="M16.552,11.477a.8.8,0,1,1,.791.772A.773.773,0,0,1,16.552,11.477Zm.054,1.378H18.08v5.561H16.606Z" transform="translate(-5.971 -3.334)" fill="#424242"/>
    <path id="Path_137612" data-name="Path 137612" d="M11.375,4.452a6.92,6.92,0,1,1-4.9,2.027,6.877,6.877,0,0,1,4.9-2.027m0-1.077a8,8,0,1,0,8,8,8,8,0,0,0-8-8Z" transform="translate(0 0)" fill="#424242"/>
  </g>
</svg>
