<svg xmlns="http://www.w3.org/2000/svg" width="23.695" height="22.747" viewBox="0 0 23.695 22.747">
  <path id="Path_70577" data-name="Path 70577" d="M14.14,7.764a.846.846,0,0,0-.629.269.9.9,0,0,0-.262.655v6.085a1.044,1.044,0,0,0,.067.374,1.628,1.628,0,0,0,.2.363l2.549,3.545a1,1,0,0,0,.635.433.913.913,0,0,0,.69-.176.807.807,0,0,0,.34-.608,1.1,1.1,0,0,0-.217-.725l-3.451-4.891.957,3.112V8.688a.915.915,0,0,0-.256-.655A.828.828,0,0,0,14.14,7.764Zm.4,17.821a9.927,9.927,0,0,0,4.175-.9,11.073,11.073,0,0,0,3.451-2.463A11.629,11.629,0,0,0,24.5,18.605a11.42,11.42,0,0,0,.846-4.394A11.42,11.42,0,0,0,24.5,9.818,11.7,11.7,0,0,0,22.166,6.19a10.948,10.948,0,0,0-3.451-2.463,10.243,10.243,0,0,0-8.349,0A11.038,11.038,0,0,0,6.915,6.179,11.638,11.638,0,0,0,4.572,9.794a11.325,11.325,0,0,0-.852,4.382H5.713A9.4,9.4,0,0,1,8.3,7.635a8.823,8.823,0,0,1,2.805-1.977,8.6,8.6,0,0,1,6.874.006,8.775,8.775,0,0,1,2.805,1.989,9.607,9.607,0,0,1,0,13.134,8.733,8.733,0,0,1-2.805,2,8.172,8.172,0,0,1-3.44.708,8.208,8.208,0,0,1-2.755-.462,8.735,8.735,0,0,1-4.28-3.259,1.214,1.214,0,0,0-.685-.468.885.885,0,0,0-.751.164.92.92,0,0,0-.4.685,1.151,1.151,0,0,0,.256.86A11.6,11.6,0,0,0,8.262,23.4a10.985,10.985,0,0,0,2.944,1.609A9.706,9.706,0,0,0,14.541,25.585ZM2.44,12a.849.849,0,0,0-.6.181.594.594,0,0,0-.189.468,1.042,1.042,0,0,0,.228.591l2.46,3.639a.755.755,0,0,0,.618.386.729.729,0,0,0,.607-.386l2.482-3.651a1.023,1.023,0,0,0,.217-.579.586.586,0,0,0-.195-.468.871.871,0,0,0-.6-.181Z" transform="translate(-1.655 -2.838)" fill="#ffbc41"/>
</svg>
