<svg id="Group_31469" data-name="Group 31469"
  xmlns="http://www.w3.org/2000/svg" width="40" height="40" viewBox="0 0 40 40">
  <g id="Group_1821" data-name="Group 1821">
    <circle id="Ellipse_123" data-name="Ellipse 123" cx="20" cy="20" r="20"/>
  </g>
  <path id="Icon_awesome-apple" data-name="Icon awesome-apple" d="M17.049,14.861a4.974,4.974,0,0,1,2.664-4.518A5.725,5.725,0,0,0,15.2,7.967c-1.891-.149-3.959,1.1-4.715,1.1-.8,0-2.632-1.05-4.071-1.05-2.973.048-6.133,2.371-6.133,7.1a13.28,13.28,0,0,0,.767,4.326C1.73,21.4,4.192,26.194,6.76,26.114c1.343-.032,2.291-.954,4.039-.954,1.694,0,2.573.954,4.071.954,2.589-.037,4.817-4.4,5.467-6.356a5.282,5.282,0,0,1-3.287-4.9ZM14.033,6.113A5.018,5.018,0,0,0,15.312,2.25a5.65,5.65,0,0,0-3.618,1.859A5.1,5.1,0,0,0,10.33,7.94a4.475,4.475,0,0,0,3.7-1.828Z" transform="translate(8.926 4.983)" fill="#fff"/>
</svg>

