<svg xmlns="http://www.w3.org/2000/svg" width="428.701" height="399.807" viewBox="0 0 428.701 399.807">
  <g id="Group_29542" data-name="Group 29542" transform="translate(0 -526.421)">
    <path id="Path_137417" data-name="Path 137417" d="M428.7,574.5S367.765,584,324.244,586.54c-42.977,2.505-134.1-20.267-144.643-22.515S79.235,539.959,41.2,535.683c-35.544-4-41.2-3.625-41.2-3.625l.153,394.17H428.566Z" fill="#f5f9fc"/>
    <g id="Group_29541" data-name="Group 29541">
      <path id="Path_137931" data-name="Path 137931" d="M96.282,538.78c-10.8-2.1-21.184-3.9-31.757-5.494a6,6,0,0,0-1.793,11.866c10.405,1.572,20.63,3.341,31.259,5.408a6,6,0,0,0,2.291-11.78Z" fill="#9fd5a4"/>
      <path id="Path_137932" data-name="Path 137932" d="M318.306,580.627q-2.505.036-4.98.036c-8.72,0-17.606-.351-26.41-1.045a6,6,0,0,0-.941,11.963c9.115.718,18.317,1.082,27.351,1.082q2.562,0,5.152-.038a6,6,0,1,0-.172-12Z" fill="#9fd5a4"/>
      <path id="Path_137933" data-name="Path 137933" d="M400.078,579.73a6,6,0,0,0-6.721-5.181c-10.883,1.408-21.508,2.592-31.58,3.519a6,6,0,0,0,.543,11.974c.183,0,.369-.008.556-.025,10.218-.94,20.992-2.14,32.022-3.568A6,6,0,0,0,400.078,579.73Z" fill="#9fd5a4"/>
      <path id="Path_137934" data-name="Path 137934" d="M20.524,527.984C13.771,527.374,6.9,526.857,0,526.421v12.024c6.538.42,13.045.911,19.444,1.49.183.016.366.024.547.024a6,6,0,0,0,.533-11.975Z" fill="#9fd5a4"/>
      <path id="Path_137935" data-name="Path 137935" d="M244.034,573.742c-9.39-1.781-19.515-3.985-30.953-6.737a6,6,0,1,0-2.806,11.667c11.629,2.8,21.939,5.042,31.522,6.859a5.925,5.925,0,0,0,1.125.107,6,6,0,0,0,1.112-11.9Z" fill="#9fd5a4"/>
      <path id="Path_137936" data-name="Path 137936" d="M170.581,556.169c-9.721-2.526-20.217-5.228-31.092-7.869a6,6,0,0,0-2.832,11.66c10.793,2.622,21.232,5.31,30.907,7.823a6,6,0,1,0,3.017-11.614Z" fill="#9fd5a4"/>
    </g>
  </g>
</svg>
