<svg xmlns="http://www.w3.org/2000/svg" xmlns:xlink="http://www.w3.org/1999/xlink" width="428" height="926" viewBox="0 0 428 926"><defs><clipPath id="b"><rect width="428" height="926"/></clipPath></defs><g id="a" clip-path="url(#b)"><rect width="428" height="926" fill="#fff"/><g transform="translate(-1347.206)"><circle cx="27.188" cy="27.188" r="27.188" transform="translate(1452.206 431.314)" fill="#f69f8e"/></g><g transform="translate(-1347.206)"><path d="M1455.2,385.418c-8.127-37.644-14.6-99.912,91.588-123.857s139.595,75.2,122.874,126.555-65.2,108.914-150.764,84.711C1474.706,460.33,1460.223,408.692,1455.2,385.418Z" fill="#fff"/></g><g transform="translate(-1347.206)"><path d="M1673.749,346.021c1.918,15.487.611,30.384-3.283,42.354-17.633,54.151-67.963,108.978-151.8,85.266-31.553-8.923-53.782-39.371-64.291-88.043h0c-4.171-19.32-7.6-44.455,2.982-67.6,12.565-27.477,42.589-46.746,89.246-57.264,53.022-11.957,83.921,7.229,100.505,25.431C1662.8,303.4,1671.178,325.238,1673.749,346.021Zm-217.723,39.216c10.367,48.029,32.187,78.034,63.1,86.775,82.682,23.387,132.334-30.72,149.729-84.159,8.758-26.893,3.671-71.271-23.005-100.542-16.28-17.871-46.648-36.7-98.881-24.923-99.282,22.388-100.746,77.416-90.942,122.848Z"/></g><g transform="translate(-1347.206)"><path d="M1639.419,433.324a.849.849,0,0,1-.188.642,111.1,111.1,0,0,1-31.1,26.412c-18.345,10.326-39.1,14.463-61.688,12.284a.846.846,0,0,1,.164-1.684c22.237,2.139,42.659-1.921,60.7-12.075a109.452,109.452,0,0,0,30.621-26.016.845.845,0,0,1,1.5.433Z"/></g><g transform="translate(-1347.206)"><path d="M1663.744,387.027" fill="none" stroke="#000" stroke-miterlimit="10" stroke-width="1"/></g><g transform="translate(-1347.206)"><path d="M1667.074,350.266" fill="none" stroke="#000" stroke-miterlimit="10" stroke-width="1"/></g><g transform="translate(-1347.206)"><path d="M1623.844,275.818a.847.847,0,0,1-1.269.833h0a83.961,83.961,0,0,0-31.38-10.76.859.859,0,0,1-.718-.955.845.845,0,0,1,.953-.721h0a85.7,85.7,0,0,1,32,10.977A.841.841,0,0,1,1623.844,275.818Z"/></g><g transform="translate(-1347.206)"><path d="M1502.722,283.591a.84.84,0,0,1-.442.849,110.35,110.35,0,0,0-12.471,7.7.848.848,0,0,1-.989-1.379,111.294,111.294,0,0,1,12.659-7.825.847.847,0,0,1,1.146.349.861.861,0,0,1,.094.3Z"/></g><g transform="translate(-1347.206)"><path d="M1471.068,310.282a.845.845,0,0,1-.148.593,66.991,66.991,0,0,0-9.305,19.1.847.847,0,1,1-1.627-.473l.006-.019a68.88,68.88,0,0,1,9.54-19.581.845.845,0,0,1,1.535.379Z"/></g><g transform="translate(-1347.206)"><path d="M1522.257,466.9a.874.874,0,0,1-.026.334.848.848,0,0,1-1.044.582c-21.743-6.149-38.651-22.848-50.26-49.634a.846.846,0,0,1,1.55-.673c11.4,26.3,27.941,42.675,49.172,48.681A.851.851,0,0,1,1522.257,466.9Z"/></g><g transform="translate(-1347.206)"><path d="M1471.13,308.133a.706.706,0,1,1-.608.793h0a.7.7,0,0,1,.606-.793Z"/></g><g transform="translate(-1347.206)"><path d="M1485.864,293.155a.784.784,0,1,1-.682.874h0A.783.783,0,0,1,1485.864,293.155Z"/></g><g transform="translate(-1347.206)"><path d="M1668.435,354.388c.689,7.156-.171,15.493-2.557,24.78-.779,3.036-1.739,6.221-2.848,9.463l-1.6-.547c1.092-3.2,2.04-6.342,2.813-9.335,2.334-9.1,3.179-17.238,2.508-24.2Z"/></g><g transform="translate(-1347.206)"><path d="M1658.014,401.412a165.849,165.849,0,0,1-8.249,16.36l-1.454-.868a164.552,164.552,0,0,0,8.153-16.173Z"/></g><g transform="translate(-1347.206)"><path d="M1542.05,462.739a1.047,1.047,0,1,1-.911,1.168h0A1.048,1.048,0,0,1,1542.05,462.739Z"/></g><g transform="translate(-1347.206)"><path d="M1630.5,285.353a1.517,1.517,0,1,1-1.32,1.693,1.518,1.518,0,0,1,1.32-1.693Z"/></g><g transform="translate(-1347.206)"><path d="M1646.088,331.47"/></g><g transform="translate(-1347.206)"><path d="M1546.716,284.912a1.25,1.25,0,1,1-1.087,1.4h0A1.253,1.253,0,0,1,1546.716,284.912Z"/></g><g transform="translate(-1347.206)"><path d="M1546.863,275.91a1.454,1.454,0,1,1-1.264,1.621h0A1.452,1.452,0,0,1,1546.863,275.91Z"/></g><g transform="translate(-1347.206)"><path d="M1555.953,266.52a2.955,2.955,0,1,1-2.569,3.3v0h0A2.957,2.957,0,0,1,1555.953,266.52Z"/></g><g transform="translate(-1347.206)"><path d="M1564.286,283.857a1.111,1.111,0,1,1-.968,1.239,1.111,1.111,0,0,1,.968-1.239Z"/></g><g transform="translate(-1347.206)"><path d="M1601.545,333.515H1584.63V319.1a1.911,1.911,0,0,0-.061-.511l-2.388-10.478a2.1,2.1,0,0,0-2.062-1.645h-37.374a2.1,2.1,0,0,0-2.061,1.645l-2.386,10.472a1.965,1.965,0,0,0-.062.512v14.421h-16.915a2.116,2.116,0,0,0-2.115,2.115v79.657a2.105,2.105,0,0,0,.621,1.5l5.5,5.482a2.1,2.1,0,0,0,1.494.617h24.306a2.115,2.115,0,0,0,0-4.23h-23.432l-4.256-4.245V337.745h14.8v11.184a2.116,2.116,0,0,0,2.115,2.115h10.54a2.118,2.118,0,0,0,2.116-2.115V337.745h16.854v11.184a2.116,2.116,0,0,0,2.115,2.115h10.54a2.118,2.118,0,0,0,2.115-2.115V337.745h14.8v76.664l-4.259,4.245h-23.432a2.115,2.115,0,0,0,0,4.23h24.308a2.1,2.1,0,0,0,1.493-.617l5.5-5.482a2.1,2.1,0,0,0,.622-1.5V335.63A2.121,2.121,0,0,0,1601.545,333.515Zm-52.769,13.3h-6.311V321.2h6.311Zm21.084-13.3h-16.854V321.2h16.854ZM1543,316.974l1.432-6.282h34l1.431,6.282Zm37.4,29.839h-6.311V321.2h6.311Z"/></g><g transform="translate(-1347.206)"><path d="M1562.646,419.011a2.114,2.114,0,1,0,.781,2.565A2.15,2.15,0,0,0,1562.646,419.011Z"/></g><g transform="translate(-1347.206)"><path d="M1572.961,389.428h-2.47a10.158,10.158,0,0,1-3.24,3.9h0a10.227,10.227,0,0,1-13.246-1.068l-1.67.03.053,2.981a13.461,13.461,0,0,0,6.7,3.134,13.662,13.662,0,0,0,2.185.176,13.471,13.471,0,0,0,7.913-2.572h0a13.376,13.376,0,0,0,4.178-4.965,13.648,13.648,0,0,0,.677-1.613Z" fill="#8fd89f"/><path d="M1561.272,398.969a14.089,14.089,0,0,1-2.247-.18,13.844,13.844,0,0,1-6.9-3.226.39.39,0,0,1-.135-.288l-.054-2.981a.391.391,0,0,1,.382-.4h0l1.67-.03a.385.385,0,0,1,.285.115,9.835,9.835,0,0,0,15.855-2.72.393.393,0,0,1,.355-.225h3.551a.392.392,0,0,1,.369.52,14.18,14.18,0,0,1-.7,1.658,13.878,13.878,0,0,1-12.433,7.757Zm-8.5-3.884a13.059,13.059,0,0,0,6.375,2.931,13.479,13.479,0,0,0,2.123.171,13.095,13.095,0,0,0,11.739-7.32c.169-.343.326-.694.467-1.05h-2.744a10.619,10.619,0,0,1-16.889,2.831l-1.114.02Z" fill="#8fd89f"/></g><g transform="translate(-1347.206)"><path d="M1558.061,392.184l-.062-3.308-6.132.111-2.837.052.033,1.783.13,7.186,3.307-.06-.048-2.681-.054-2.981,1.669-.03Z" fill="#8fd89f"/><path d="M1549.194,398.4a.392.392,0,0,1-.392-.384l-.163-8.969a.393.393,0,0,1,.385-.4l8.969-.163a.4.4,0,0,1,.4.384l.06,3.308a.393.393,0,0,1-.385.4l-5.271.1.1,5.27a.4.4,0,0,1-.11.279.391.391,0,0,1-.275.12l-3.306.06Zm.236-8.976.148,8.186,2.525-.045-.1-5.271a.393.393,0,0,1,.384-.4h0l5.271-.1-.045-2.525Z" fill="#8fd89f"/></g><g transform="translate(-1347.206)"><path d="M1539.237,383.107a1.826,1.826,0,0,1-1.706-1.174,10.349,10.349,0,1,1,20.014-3.7,1.826,1.826,0,0,1-3.652,0,6.7,6.7,0,1,0-12.952,2.39,1.838,1.838,0,0,1-1.7,2.484Z" fill="#8fd89f"/></g><g transform="translate(-1347.206)"><path d="M1582.316,386.531a1.821,1.821,0,0,1-1.423-2.967,6.612,6.612,0,0,0,1.479-4.193,6.7,6.7,0,1,0-13.4,0,1.826,1.826,0,0,1-3.652,0h0a10.352,10.352,0,1,1,18.417,6.483A1.822,1.822,0,0,1,1582.316,386.531Z" fill="#8fd89f"/></g><path d="M1346.206,526.34v12.024c.422.026.843.054,1.265.081V526.421C1347.049,526.394,1346.628,526.366,1346.206,526.34Z" transform="translate(-1347.206)" fill="#9fd5a4"/><g transform="translate(-1347.206)"><path d="M1775.907,574.5S1714.97,584,1671.449,586.54c-42.976,2.505-134.1-20.267-144.643-22.515s-100.365-24.066-138.4-28.342c-35.544-4-41.2-3.625-41.2-3.625l.152,394.17h428.414Z" fill="#f5f9fc"/><path d="M1443.487,538.78c-10.8-2.1-21.183-3.9-31.757-5.494a6,6,0,0,0-1.793,11.866c10.406,1.572,20.63,3.341,31.259,5.408a6,6,0,0,0,2.291-11.78Z" fill="#9fd5a4"/><path d="M1665.512,580.627q-2.5.036-4.981.036c-8.72,0-17.6-.351-26.409-1.045a6,6,0,0,0-.941,11.963c9.115.718,18.317,1.082,27.35,1.082q2.562,0,5.153-.038a6,6,0,1,0-.172-12Z" fill="#9fd5a4"/><path d="M1747.283,579.73a6,6,0,0,0-6.721-5.181c-10.882,1.408-21.507,2.592-31.58,3.519a6,6,0,0,0,.543,11.974c.184,0,.369-.008.557-.025,10.218-.94,20.991-2.14,32.021-3.568A6,6,0,0,0,1747.283,579.73Z" fill="#9fd5a4"/><path d="M1367.729,527.984c-6.752-.61-13.622-1.127-20.523-1.563v12.024c6.538.42,13.045.911,19.443,1.49.184.016.367.024.547.024a6,6,0,0,0,.533-11.975Z" fill="#9fd5a4"/><path d="M1591.239,573.742c-9.389-1.781-19.514-3.985-30.952-6.737a6,6,0,0,0-2.807,11.667c11.629,2.8,21.94,5.042,31.523,6.859a5.924,5.924,0,0,0,1.125.107,6,6,0,0,0,1.111-11.9Z" fill="#9fd5a4"/><path d="M1517.787,556.169c-9.722-2.526-20.218-5.228-31.093-7.869a6,6,0,1,0-2.832,11.66c10.793,2.622,21.233,5.31,30.907,7.823a6,6,0,1,0,3.018-11.614Z" fill="#9fd5a4"/></g><g transform="translate(-1347.206 39.654)"><path d="M1539.936,105.65a18.7,18.7,0,0,0-14.131-14.818h0a18.706,18.706,0,0,0-22.434,13.963,18.5,18.5,0,0,0,.26,9.357,13.248,13.248,0,0,1,5.088-.991,13.5,13.5,0,0,1,15.915-17.3h0a13.535,13.535,0,0,1,10.224,10.713l2.366,2.112Z" fill="#8fd89f"/><path d="M1570.357,145.034h-3.86a15.826,15.826,0,0,1-5.056,6.084h0a15.97,15.97,0,0,1-20.681-1.668l-2.6.047.084,4.653a21.02,21.02,0,0,0,10.465,4.894,21.42,21.42,0,0,0,3.411.274,21.017,21.017,0,0,0,12.354-4.015h0a20.874,20.874,0,0,0,6.524-7.752,21.637,21.637,0,0,0,1.057-2.518Z" fill="#8fd89f"/><path d="M1547.094,149.338l-.094-5.164-9.573.174-4.429.08.051,2.782.2,11.22,5.163-.093-.076-4.188-.084-4.654,2.6-.047Z" fill="#8fd89f"/><path d="M1581.624,110.2a14.327,14.327,0,0,1,28.121.973l2.315,2.111,2.767-3.035a19.483,19.483,0,0,0-38.588,5.327,14.068,14.068,0,0,1,5.027-2.276A14.3,14.3,0,0,1,1581.624,110.2Z" fill="#8fd89f"/><path d="M1502.012,138.735q-2.5-3.115-2.5-9.43,0-6.18,2.522-9.316a8.171,8.171,0,0,1,6.7-3.135,9.9,9.9,0,0,1,4.248.863,6.849,6.849,0,0,1,2.885,2.452h.273V108.446h6.226V141.3h-5.318l-.409-3.135h-.318a7.314,7.314,0,0,1-3.046,2.749,9.488,9.488,0,0,1-4.226.932A8.517,8.517,0,0,1,1502.012,138.735Zm14.134-8.976v-.727q0-6.771-5.09-6.771a4.519,4.519,0,0,0-3.954,1.659,8.674,8.674,0,0,0-1.184,5.022v.817a8.688,8.688,0,0,0,1.181,5.022,4.516,4.516,0,0,0,3.954,1.658q5.091,0,5.092-6.68Z" fill="#f69f8e"/><path d="M1528.05,138.761q-3-3.044-3-9.453t3-9.452q3-3.045,9.134-3.045t9.158,3.045q3.021,3.046,3.022,9.452t-3.022,9.453q-3.024,3.047-9.158,3.045T1528.05,138.761Zm13.543-3.794a8.539,8.539,0,0,0,1.362-5.295v-.727a8.549,8.549,0,0,0-1.362-5.3,5.25,5.25,0,0,0-4.409-1.75,5.178,5.178,0,0,0-4.385,1.75,8.661,8.661,0,0,0-1.341,5.3v.728a8.654,8.654,0,0,0,1.341,5.295,5.176,5.176,0,0,0,4.385,1.749,5.248,5.248,0,0,0,4.409-1.75Z" fill="#f69f8e"/><path d="M1551.332,117.361h5.317l.454,3.135h.318a9.094,9.094,0,0,1,7.457-3.681,8.085,8.085,0,0,1,5.793,2q2.113,2,2.113,6.406v16.043h-6.227V126.54a3.65,3.65,0,0,0-4.136-4.226,4.565,4.565,0,0,0-3.476,1.476,5.142,5.142,0,0,0-1.386,3.658v13.816h-6.227Z" fill="#f69f8e"/><path d="M1575.666,147.831a5.072,5.072,0,0,1-1.726-3.954q0-3.183,3.681-4.863a3.82,3.82,0,0,1-2.318-3.59,3.477,3.477,0,0,1,1.181-2.612,6.642,6.642,0,0,1,3.045-1.568,7.06,7.06,0,0,1-3.5-6.453,7.186,7.186,0,0,1,2.749-5.953q2.75-2.182,7.84-2.183a15.293,15.293,0,0,1,4.816.682,5.329,5.329,0,0,0,1.977-2.067,4.724,4.724,0,0,0,.613-2.068h6.09a5.866,5.866,0,0,1-1.341,4.022,6.856,6.856,0,0,1-3.8,2.067,7.21,7.21,0,0,1,2.273,5.5,7.289,7.289,0,0,1-2.659,5.953q-2.656,2.181-7.611,2.181h-3.634a2.092,2.092,0,0,0-1.3.365,1.185,1.185,0,0,0-.478,1,1.232,1.232,0,0,0,.409.931,1.516,1.516,0,0,0,1.09.386h10.862a5.988,5.988,0,0,1,4.408,1.774,6.266,6.266,0,0,1,1.772,4.634,6.553,6.553,0,0,1-1.182,3.864,7.632,7.632,0,0,1-3.226,2.59,10.96,10.96,0,0,1-4.5.908h-11.317A6.119,6.119,0,0,1,1575.666,147.831Zm15.452-2.772a3.137,3.137,0,0,0,1.955-.592,1.983,1.983,0,0,0,.068-3.089,2.769,2.769,0,0,0-1.75-.546h-8.771a2.563,2.563,0,0,0-1.7.591,1.868,1.868,0,0,0-.7,1.5,1.944,1.944,0,0,0,.682,1.545,2.551,2.551,0,0,0,1.727.591Zm-1.181-17.384a4.235,4.235,0,0,0,0-5.772,4.809,4.809,0,0,0-3.317-1.021,4.725,4.725,0,0,0-3.3,1.021,4.3,4.3,0,0,0,0,5.772,4.722,4.722,0,0,0,3.3,1.021A4.805,4.805,0,0,0,1589.937,127.675Z" fill="#f69f8e"/><path d="M1603.565,139.818q-2.113-2-2.113-6.406V119.5h6.225v12.6a3.649,3.649,0,0,0,4.136,4.226,4.567,4.567,0,0,0,3.474-1.477,5.138,5.138,0,0,0,1.386-3.658V119.5h6.226v21.775h-5.314l-.455-3.136h-.317a9.092,9.092,0,0,1-7.454,3.682A8.089,8.089,0,0,1,1603.565,139.818Z" fill="#f69f8e"/><path d="M1528.111,107.564l6.112,5.461,3.193,2.852,2-2.239,6.312-7.067-3.852-3.439-2.158,2.418-2.713,3.037-2.365-2.113-3.089-2.758Z" fill="#f69f8e"/><path d="M1617.325,107.377l-2.5,2.739-2.767,3.035-2.316-2.111-3.457-3.153-1.968,2.159-1.512,1.658,1.512,1.379,4.934,4.5,3.144,2.866,2.043-2.242,6.7-7.348Z" fill="#f69f8e"/></g></g></svg>