<svg xmlns="http://www.w3.org/2000/svg" width="319.612" height="318.58" viewBox="0 0 319.612 318.58">
  <g id="Group_31488" data-name="Group 31488" transform="translate(-55 -268)">
    <g id="Group_31484" data-name="Group 31484" transform="translate(0 10)">
      <g id="Group_746" data-name="Group 746" transform="translate(55 409.823) rotate(-41)">
        <g id="Group_745" data-name="Group 745">
          <g id="Path_70673" data-name="Path 70673" transform="translate(0.843 0.794)">
            <path id="Path_135385" data-name="Path 135385" d="M20.6,55.313C39.163,21.571,75.129-29.67,170.979,21.924S227,170.258,180.686,198.049,60.027,237.474,11.327,163.071C-13.824,124.648,9.123,76.175,20.6,55.313Z" fill="#fff"/>
          </g>
          <g id="Path_70674" data-name="Path 70674">
            <path id="Path_135386" data-name="Path 135386" d="M212.232,169.756c-8.713,12.947-19.473,23.332-30.265,29.811-48.834,29.3-122.788,37.659-170.507-35.241C-6.5,136.891-3.3,99.328,20.7,55.7h0C30.227,38.383,44.128,17.162,67.3,6.639,94.809-5.855,130.11-.7,172.223,21.972c47.861,25.762,58.593,60.513,59.168,85.13C231.935,130.405,223.926,152.384,212.232,169.756ZM22.186,56.514C-1.5,99.563-4.717,136.523,12.878,163.4c47.058,71.895,120.028,63.634,168.215,34.716,24.254-14.551,49.529-51.381,48.6-90.973-.563-24.168-11.13-58.3-58.276-83.681C81.8-24.777,44.593,15.793,22.187,56.513Z"/>
          </g>
        </g>
        <g id="Path_70675" data-name="Path 70675" transform="translate(32.838 180.387)">
          <path id="Path_135387" data-name="Path 135387" d="M96.209,32.735a.849.849,0,0,1-.563.361,111.084,111.084,0,0,1-40.8-.47c-20.619-4.242-39-14.739-54.615-31.2A.846.846,0,0,1,1.459.263C16.838,16.466,34.915,26.8,55.19,30.97a109.434,109.434,0,0,0,40.178.455.845.845,0,0,1,.845,1.308Z"/>
        </g>
        <g id="Path_70676" data-name="Path 70676" transform="translate(177.779 194.14)">
          <path id="Path_135388" data-name="Path 135388" d="M0,0" fill="none" stroke="#000" stroke-miterlimit="10" stroke-width="1"/>
        </g>
        <g id="Path_70677" data-name="Path 70677" transform="translate(204.409 168.581)">
          <path id="Path_135389" data-name="Path 135389" d="M0,0" fill="none" stroke="#000" stroke-miterlimit="10" stroke-width="1"/>
        </g>
        <g id="Path_70678" data-name="Path 70678" transform="translate(202.297 53.721)">
          <path id="Path_135390" data-name="Path 135390" d="M18.328,30.312a.834.834,0,0,1-.435.329.845.845,0,0,1-1.069-.533v0A83.957,83.957,0,0,0,.2,1.4.861.861,0,0,1,.285.208.845.845,0,0,1,1.477.289l0,0A85.7,85.7,0,0,1,18.43,29.57.841.841,0,0,1,18.328,30.312Z"/>
        </g>
        <g id="Path_70679" data-name="Path 70679" transform="translate(107.991 6.727)">
          <path id="Path_135391" data-name="Path 135391" d="M16.123,3.709a.843.843,0,0,1-.891.351A110.2,110.2,0,0,0,.768,1.69.847.847,0,1,1,.926,0a111.451,111.451,0,0,1,14.688,2.4.847.847,0,0,1,.512,1.3Z"/>
        </g>
        <g id="Path_70680" data-name="Path 70680" transform="translate(61.359 8.493)">
          <path id="Path_135392" data-name="Path 135392" d="M21.354,1.32a.843.843,0,0,1-.5.35A66.987,66.987,0,0,0,1.3,9.981.847.847,0,1,1,.4,8.546,68.865,68.865,0,0,1,20.446.027a.845.845,0,0,1,.91,1.293Z"/>
        </g>
        <g id="Path_70681" data-name="Path 70681" transform="translate(6.331 90.561)">
          <path id="Path_135393" data-name="Path 135393" d="M12.266,71.034a.883.883,0,0,1-.239.236.849.849,0,0,1-1.17-.246C-1.518,52.118-3.323,28.423,5.488.591A.846.846,0,0,1,7.1,1.1c-8.65,27.324-6.91,50.538,5.173,69A.85.85,0,0,1,12.266,71.034Z"/>
        </g>
        <g id="Path_70682" data-name="Path 70682" transform="translate(83.07 8.112)">
          <path id="Path_135394" data-name="Path 135394" d="M1.1.119a.706.706,0,1,1-.979.2h0A.706.706,0,0,1,1.1.119Z"/>
        </g>
        <g id="Path_70683" data-name="Path 70683" transform="translate(103.894 6.46)">
          <path id="Path_135395" data-name="Path 135395" d="M1.222.134A.784.784,0,1,1,.134.346h0A.784.784,0,0,1,1.222.134Z"/>
        </g>
        <g id="Path_70684" data-name="Path 70684" transform="translate(175.338 171.601)">
          <path id="Path_135396" data-name="Path 135396" d="M27.394.984C23.219,6.836,17.1,12.564,9.207,18.008c-2.58,1.78-5.394,3.554-8.357,5.273L0,21.818c2.924-1.7,5.7-3.448,8.247-5.2C15.977,11.283,21.955,5.694,26.016,0Z"/>
        </g>
        <g id="Path_70685" data-name="Path 70685" transform="translate(146.53 199.706)">
          <path id="Path_135397" data-name="Path 135397" d="M17.487,1.531A166.167,166.167,0,0,1,.528,8.467L0,6.858A164.675,164.675,0,0,0,16.764,0Z"/>
        </g>
        <g id="Path_70686" data-name="Path 70686" transform="translate(34.631 171.264)">
          <path id="Path_135398" data-name="Path 135398" d="M1.632.178A1.047,1.047,0,1,1,.178.462h0A1.048,1.048,0,0,1,1.632.178Z"/>
        </g>
        <g id="Path_70687" data-name="Path 70687" transform="translate(217.031 95.34)">
          <path id="Path_135399" data-name="Path 135399" d="M2.365.258A1.517,1.517,0,1,1,.258.67,1.517,1.517,0,0,1,2.365.258Z"/>
        </g>
        <g id="Path_70688" data-name="Path 70688" transform="translate(200.902 140.627)">
          <path id="Path_135400" data-name="Path 135400" d="M0,0"/>
        </g>
        <g id="Path_70689" data-name="Path 70689" transform="translate(154.501 40.084)">
          <path id="Path_135401" data-name="Path 135401" d="M1.949.212A1.25,1.25,0,1,1,.213.552h0A1.252,1.252,0,0,1,1.949.212Z"/>
        </g>
        <g id="Path_70690" data-name="Path 70690" transform="translate(160.201 33.35)">
          <path id="Path_135402" data-name="Path 135402" d="M2.266.248A1.454,1.454,0,1,1,.248.642h0A1.454,1.454,0,0,1,2.266.248Z"/>
        </g>
        <g id="Path_70691" data-name="Path 70691" transform="translate(170.881 31.975)">
          <path id="Path_135403" data-name="Path 135403" d="M4.606.5a2.955,2.955,0,1,1-4.1.8h0A2.956,2.956,0,0,1,4.606.5Z"/>
        </g>
        <g id="Path_70692" data-name="Path 70692" transform="translate(168.67 50.836)">
          <path id="Path_135404" data-name="Path 135404" d="M1.732.19a1.111,1.111,0,1,1-1.543.3A1.111,1.111,0,0,1,1.732.19Z"/>
        </g>
      </g>
    </g>
    <g id="like" transform="translate(168.833 375.538)">
      <path id="Path_137359" data-name="Path 137359" d="M2299.752,270.672c-2.581,0-5.445-.072-8.611-.209-16.928-.732-22.631-.979-24.455-12.69-.658-4.242-.472-11.317-.28-18.806.185-7.066.46-17.61-.665-19.78-.89-.005-1.922-.027-3.056-.051-4.711-.1-19.054-.414-19.245,2.638-1.987,31.82.463,41.422,2.033,42.054,3.948.23,16.994.55,17.125.554a1.7,1.7,0,0,1-.042,3.4h-.041c-.538-.012-13.237-.324-17.266-.564a3.6,3.6,0,0,1-2.514-1.3c-3.387-3.822-4.294-18.746-2.7-44.36.367-5.842,10.509-6.1,22.721-5.832,1.286.029,2.447.053,3.4.053a2.607,2.607,0,0,1,1.891.824c2.069,2.124,2.125,8.471,1.759,22.448-.183,7.01-.372,14.257.243,18.195,1.34,8.621,3.64,9.049,21.234,9.812,16.042.7,24.625-.46,25.521-3.445a5.805,5.805,0,0,0-.037-3.665,6.723,6.723,0,0,1-.306-2.648,3.446,3.446,0,0,1,2.246-2.689,4.808,4.808,0,0,0,2.647-2.88c.752-1.775.5-2.332.066-3.256a5.776,5.776,0,0,1-.483-4.36,5.671,5.671,0,0,1,3.023-3.638,3.565,3.565,0,0,0,2.118-3.04c.656-3.725-.458-4.568-1.749-5.544-.965-.731-2.425-1.831-2.249-4.014a4.933,4.933,0,0,1,2.412-4.258c.676-.463,1.125-.768,1.163-2.969.132-7.2-15.254-10.065-28.467-10.335a3.665,3.665,0,0,1-3.1-1.475c-1.56-2.2-.39-5.758,1.373-11.147,1.664-5.084,3.74-11.411,3.344-17.072-.229-3.3-.6-6.92-2.025-8.15a3.152,3.152,0,0,0-2.541-.577c-1.38.669-5.217,8.458-8.3,14.718-1.994,4.052-4.259,8.644-6.618,12.983a123.633,123.633,0,0,0-5.809,12.3,1.7,1.7,0,0,1-3.17-1.245,124.345,124.345,0,0,1,5.983-12.676c2.33-4.28,4.578-8.839,6.559-12.864,5.595-11.35,8.191-16.377,11.088-16.607a6.632,6.632,0,0,1,5.033,1.392c2.426,2.088,2.9,6.155,3.2,10.495.438,6.325-1.748,13-3.507,18.37-.95,2.9-2.385,7.279-1.832,8.117,0-.019.126.032.391.037,9.635.2,32.019,1.935,31.8,13.8-.067,3.66-1.293,4.794-2.654,5.723-.629.427-.84.572-.932,1.713-.018.247-.026.32.907,1.025,1.524,1.151,4.068,3.077,3.047,8.853a6.809,6.809,0,0,1-3.729,5.377c-.857.509-1.247.741-1.475,1.587a2.458,2.458,0,0,0,.286,2.051c.7,1.5,1.215,3.095-.018,6.015a8.137,8.137,0,0,1-4.247,4.59c-.135.068-.3.155-.417.221a4.786,4.786,0,0,0,.229,1.2,9.114,9.114,0,0,1,.008,5.518C2318.8,268.828,2312.923,270.672,2299.752,270.672Z" transform="translate(-2239.304 -168.499)" fill="#f38262"/>
      <path id="Path_137359_-_Outline" data-name="Path 137359 - Outline" d="M2299.722,270.76c-2.559,0-5.378-.069-8.616-.21-8.517-.368-14.143-.612-17.933-2.238a9.237,9.237,0,0,1-4.407-3.688,17.941,17.941,0,0,1-2.227-6.865c-.656-4.233-.475-11.271-.284-18.722l0-.106c.182-6.932.455-17.375-.62-19.659-.858-.006-1.86-.027-2.92-.049h-.07c-1.107-.024-2.779-.06-4.662-.06a75.239,75.239,0,0,0-9.489.476,15.514,15.514,0,0,0-3.555.811c-.906.365-1.381.8-1.412,1.3-.864,13.835-.973,25.144-.317,32.7a39.654,39.654,0,0,0,1.087,6.947c.5,1.786.977,2.188,1.173,2.277,3.753.217,15.707.518,17.06.551h.041a1.822,1.822,0,0,1-.046,3.643h-.041c-.129,0-13.172-.32-17.273-.564a3.715,3.715,0,0,1-2.6-1.341,11.676,11.676,0,0,1-2.1-4.994,57.777,57.777,0,0,1-1.146-9.086,262.005,262.005,0,0,1,.522-30.366c.149-2.379,1.877-3.989,5.284-4.923,2.742-.752,6.535-1.087,12.3-1.087,1.481,0,3.152.021,5.26.067,1.24.028,2.434.053,3.4.053a2.726,2.726,0,0,1,1.976.86c2.1,2.157,2.16,8.523,1.793,22.534v.018c-.182,7-.371,14.232.242,18.156a15.742,15.742,0,0,0,1.4,5.025,5.893,5.893,0,0,0,3.055,2.737c2.979,1.3,8.276,1.585,16.67,1.949,3,.13,5.78.2,8.258.2a64.07,64.07,0,0,0,12.359-.91c2.827-.6,4.437-1.487,4.785-2.648a5.7,5.7,0,0,0-.038-3.6l0-.008a6.8,6.8,0,0,1-.307-2.686,3.544,3.544,0,0,1,2.306-2.778l0,0a4.707,4.707,0,0,0,2.592-2.82c.733-1.728.5-2.237.068-3.16a5.881,5.881,0,0,1-.49-4.441,5.774,5.774,0,0,1,3.078-3.71,3.438,3.438,0,0,0,2.062-2.959,6.5,6.5,0,0,0-.136-3.733,4.428,4.428,0,0,0-1.568-1.695l0,0c-.984-.745-2.471-1.87-2.291-4.115a5.033,5.033,0,0,1,2.464-4.347c.67-.459,1.073-.736,1.111-2.872a5.606,5.606,0,0,0-2.489-4.518,20.34,20.34,0,0,0-6.656-3.132,75.242,75.242,0,0,0-19.206-2.564,3.782,3.782,0,0,1-3.2-1.525c-1.591-2.242-.423-5.814,1.346-11.221l.022-.068c1.657-5.064,3.72-11.367,3.327-16.992-.228-3.273-.587-6.866-1.984-8.068a2.658,2.658,0,0,0-1.9-.573c-.167,0-.346.007-.531.022-1.359.716-5.316,8.744-8.209,14.614l-.02.041c-1.87,3.8-4.2,8.53-6.62,12.987a123.189,123.189,0,0,0-5.8,12.281,1.822,1.822,0,1,1-3.392-1.332,124.932,124.932,0,0,1,5.99-12.69c2.361-4.337,4.687-9.062,6.557-12.86,5.615-11.392,8.223-16.438,11.185-16.674.272-.022.542-.033.8-.033a6.413,6.413,0,0,1,4.319,1.453c2.458,2.116,2.937,6.21,3.244,10.577.44,6.356-1.751,13.043-3.512,18.415-.476,1.453-1.069,3.261-1.478,4.824-.543,2.079-.525,2.86-.4,3.14l.012,0a1.8,1.8,0,0,0,.309.032c3.13.064,6.183.257,9.075.572a63.844,63.844,0,0,1,10.551,1.958,24.2,24.2,0,0,1,8.728,4.165,8.912,8.912,0,0,1,3.567,7.229c-.068,3.716-1.319,4.873-2.706,5.819-.609.414-.793.539-.881,1.624-.014.2-.019.257.861.921,1.544,1.166,4.127,3.117,3.092,8.969a6.909,6.909,0,0,1-3.781,5.456l0,0c-.853.507-1.205.716-1.421,1.516a2.335,2.335,0,0,0,.279,1.969c.707,1.527,1.237,3.143-.016,6.112a8.231,8.231,0,0,1-4.3,4.65c-.129.066-.256.132-.351.185a5.429,5.429,0,0,0,.225,1.1,9.22,9.22,0,0,1,.007,5.583,5.626,5.626,0,0,1-1.9,2.795,11.068,11.068,0,0,1-3.88,1.913C2311.138,270.284,2306.344,270.76,2299.722,270.76Zm-41.737-51.835c1.886,0,3.56.036,4.667.06h.07c1.089.023,2.118.045,2.99.05h.072l.033.064c1.14,2.2.862,12.814.678,19.838l0,.106c-.191,7.44-.371,14.467.281,18.679a17.717,17.717,0,0,0,2.193,6.775,9.009,9.009,0,0,0,4.3,3.6c3.75,1.609,9.359,1.851,17.85,2.219,3.235.141,6.05.209,8.606.209,6.6,0,11.37-.473,14.588-1.447a10.841,10.841,0,0,0,3.8-1.87,5.4,5.4,0,0,0,1.821-2.679,9.013,9.013,0,0,0-.009-5.453,4.777,4.777,0,0,1-.233-1.237v-.068l.059-.034c.1-.058.26-.142.423-.224a8.017,8.017,0,0,0,4.19-4.53c1.216-2.879.7-4.443.02-5.919a2.573,2.573,0,0,1-.293-2.131c.24-.894.671-1.149,1.528-1.659l.005,0a6.7,6.7,0,0,0,3.668-5.292c1.01-5.708-1.5-7.6-3-8.737-.947-.715-.977-.816-.955-1.127.1-1.2.339-1.366.984-1.805,1.333-.909,2.535-2.024,2.6-5.626a8.686,8.686,0,0,0-3.481-7.041,23.968,23.968,0,0,0-8.642-4.119,63.616,63.616,0,0,0-10.512-1.95c-2.885-.314-5.931-.506-9.054-.57a2.033,2.033,0,0,1-.287-.025l-.028.2-.172-.261c-.541-.819.551-4.356,1.818-8.22,1.754-5.353,3.938-12.015,3.5-18.325-.3-4.314-.773-8.357-3.162-10.413a6.182,6.182,0,0,0-4.164-1.4c-.253,0-.517.011-.782.032-1.374.109-2.7,1.329-4.441,4.079-1.708,2.7-3.792,6.869-6.55,12.463-1.87,3.8-4.2,8.527-6.561,12.868a124.662,124.662,0,0,0-5.977,12.662,1.584,1.584,0,1,0,2.948,1.159,123.571,123.571,0,0,1,5.815-12.308c2.421-4.453,4.747-9.18,6.616-12.979l.02-.041c3.246-6.584,6.925-14.047,8.339-14.732l.02-.01.022,0c.2-.017.392-.025.573-.025a2.908,2.908,0,0,1,2.055.631c1.466,1.262,1.835,4.911,2.066,8.232.4,5.671-1.674,12-3.338,17.082l-.022.068c-1.747,5.338-2.9,8.865-1.378,11.009a3.553,3.553,0,0,0,3.007,1.425,75.483,75.483,0,0,1,19.27,2.574,20.571,20.571,0,0,1,6.734,3.173,5.829,5.829,0,0,1,2.58,4.709c-.04,2.259-.531,2.6-1.212,3.063a4.826,4.826,0,0,0-2.364,4.171c-.17,2.114,1.255,3.193,2.2,3.906l0,0a4.612,4.612,0,0,1,1.641,1.787,6.705,6.705,0,0,1,.153,3.872,3.661,3.661,0,0,1-2.174,3.121,5.568,5.568,0,0,0-2.97,3.567,5.671,5.671,0,0,0,.475,4.276c.429.923.711,1.53-.063,3.356a4.909,4.909,0,0,1-2.7,2.94l0,0a3.341,3.341,0,0,0-2.177,2.6,6.607,6.607,0,0,0,.3,2.6l0,.008a5.9,5.9,0,0,1,.036,3.73,3.015,3.015,0,0,1-1.549,1.661,12.42,12.42,0,0,1-3.415,1.151,64.288,64.288,0,0,1-12.408.915c-2.481,0-5.263-.066-8.268-.2-8.422-.365-13.737-.656-16.755-1.969-3.044-1.324-3.934-3.714-4.592-7.944-.616-3.945-.427-11.191-.245-18.2v-.018c.366-13.941.313-20.269-1.725-22.361a2.493,2.493,0,0,0-1.805-.788c-.967,0-2.162-.025-3.4-.053-2.106-.046-3.776-.067-5.255-.067-5.742,0-9.515.333-12.236,1.078-3.3.9-4.967,2.444-5.109,4.708a261.9,261.9,0,0,0-.522,30.337c.448,7.366,1.52,12.055,3.188,13.936a3.482,3.482,0,0,0,2.432,1.261c4.1.244,17.136.561,17.262.564h.038a1.584,1.584,0,0,0,.04-3.167h-.04c-1.356-.034-13.355-.335-17.089-.553h-.02l-.018-.007c-.473-.19-.933-1.034-1.33-2.441a39.883,39.883,0,0,1-1.095-6.991c-.657-7.572-.547-18.893.317-32.74.07-1.113,1.762-1.876,5.173-2.333A75.472,75.472,0,0,1,2257.985,218.925Z" transform="translate(-2239.273 -168.468)" fill="#f38262"/>
    </g>
  </g>
</svg>
