<svg id="Component_39_1" data-name="Component 39 – 1" xmlns="http://www.w3.org/2000/svg" width="76" height="76" viewBox="0 0 76 76">
  <circle id="Ellipse_103" data-name="Ellipse 103" cx="38" cy="38" r="38" fill="#8fd89f"/>
  <g id="chicken" transform="translate(16.369 20)">
    <path id="Path_106159" data-name="Path 106159" d="M2545.713-1135.273c-4.092,0-8.359-1.771-10.568-4.79-5.446-7.442.318-12.337.376-12.385a.709.709,0,0,1,1,.095.708.708,0,0,1-.094,1c-.205.173-4.773,4.122-.137,10.459,2.165,2.957,6.758,4.567,10.77,4.132a14.039,14.039,0,0,1-5.27-3.024c-4.137-3.926-4.091-9.719-4.045-15.323.011-1.334.021-2.641-.025-3.894a13.5,13.5,0,0,1-6.612-5.329c-1.9-3.084-1.428-4.745-.978-5.46a2.378,2.378,0,0,1,2.364-1.039c1.692.177,4.186,1.792,5.651,5.763a17.844,17.844,0,0,1,.948,5.1c1.07.412,2.188.773,3.323,1.139,5.177,1.668,10.532,3.393,12.565,10.695,1.367,4.906.321,8.855-2.866,11.058a51.042,51.042,0,0,0,9.53.188c2.94-.18,5.085-.735,6.416-1.66a8.115,8.115,0,0,1-4.18-4.167,21.541,21.541,0,0,1-1.3-10.618.711.711,0,0,1,.468-.564.708.708,0,0,1,.715.151c.368.344,9,8.5,7.046,13.925-.025.071-.051.141-.08.209,1.428-.351,2.213-1.953,2.213-4.526,0-7.094-6.5-14.992-11.876-16.8-8.125-2.735-13.611,1.3-13.667,1.342a.707.707,0,0,1-.99-.137.708.708,0,0,1,.135-.99c.245-.186,6.107-4.539,14.974-1.556,6.6,2.221,12.84,11.038,12.84,18.143,0,4.7-2.388,5.711-3.415,5.928a4.221,4.221,0,0,1-1.194.074c-1.48,1.532-4.166,2.424-8.017,2.659A47.086,47.086,0,0,1,2550-1136,12.407,12.407,0,0,1,2545.713-1135.273Zm-6.562-23.17c.025,1.088.015,2.205.006,3.342-.043,5.3-.087,10.781,3.605,14.284a14.411,14.411,0,0,0,7.1,3.352q.222-.092.436-.2c3.484-1.691,4.664-5.278,3.321-10.1-1.829-6.569-6.593-8.1-11.636-9.729C2541.035-1157.8,2540.086-1158.1,2539.151-1158.444Zm24.7,6.776a19.3,19.3,0,0,0,1.323,8.372,6.621,6.621,0,0,0,3.99,3.619,3.189,3.189,0,0,0,.309-.63C2570.656-1143.6,2566.483-1148.91,2563.85-1151.668Zm-31.692-17.77a.924.924,0,0,0-.832.4c-.356.565-.285,1.9.985,3.964a11.653,11.653,0,0,0,5.313,4.484,15.337,15.337,0,0,0-.81-3.989c-1.154-3.128-3.125-4.7-4.468-4.845A1.864,1.864,0,0,0,2532.158-1169.438Z" transform="translate(-2529.725 1170.854)" fill="#fff"/>
  </g>
</svg>
