<svg id="Component_39_1" data-name="Component 39 – 1" xmlns="http://www.w3.org/2000/svg" width="76" height="76" viewBox="0 0 76 76">
  <circle id="Ellipse_104" data-name="Ellipse 104" cx="38" cy="38" r="38" fill="#ffbc41"/>
  <g id="coffee" transform="translate(25.215 14)">
    <path id="Path_106160" data-name="Path 106160" d="M2650.762-1132.612c-7.15,0-10.649-1-11.2-6.677-.356-3.681-.209-19.392-.2-20.059a.66.66,0,0,1,.66-.653h.007a.66.66,0,0,1,.653.666c0,.162-.153,16.308.2,19.92.417,4.305,2.542,5.485,9.886,5.485,7.677,0,8.565-3.375,8.565-5.914,0-.732,0-1.985.009-3.5.008-2.294.017-5.184.017-7.743a3.145,3.145,0,0,1,1.642-2.844,3.548,3.548,0,0,1,3.561.121c.763.483,2.016,1.707,1.845,4.475-.233,3.782-1.861,4.647-3.051,5.279-.771.41-1.039.583-1.077,1.212a.38.38,0,0,0,.168.4,2.645,2.645,0,0,0,2.28-.337,6.861,6.861,0,0,0,3.434-6.16c.092-3-.542-5.155-1.882-6.41a5.578,5.578,0,0,0-4.411-1.253,2.058,2.058,0,0,1-1.663-.492,3.634,3.634,0,0,1-.787-2.737,2.179,2.179,0,0,0-.58-1.65c-.506,2.35-4.108,3.871-8.887,3.729-5.83-.177-9.04-1.444-9.04-3.567s1.457-3.258,9.146-3.258a31.7,31.7,0,0,1,5.853.441,12.578,12.578,0,0,0-3.519-1.324,24.691,24.691,0,0,0-5.2-.576c-2.4-.08-4.3-.142-5.015-2.088a1.914,1.914,0,0,1,.3-2c1.924-2.283,9.336-1.14,11.561-.735a2.545,2.545,0,0,0,2.682-.8,1.316,1.316,0,0,0,0-1.5c-.289-.447-1.577-1.85-5.98-1.111-6.336,1.063-10.665.607-12.188-1.288a2.3,2.3,0,0,1-.345-2.387c.65-1.614,2.851-2.887,5.606-3.242a.654.654,0,0,1,.74.569.66.66,0,0,1-.571.739c-2.59.334-4.176,1.492-4.551,2.427a.99.99,0,0,0,.149,1.068c.909,1.129,4.261,1.935,10.941.813,5.06-.849,6.794.9,7.306,1.695a2.65,2.65,0,0,1-.012,2.95,3.853,3.853,0,0,1-4.016,1.365c-6-1.091-9.555-.616-10.317.287a.627.627,0,0,0-.066.7c.387,1.063,1.513,1.147,3.819,1.222a26.114,26.114,0,0,1,5.466.612c3.116.745,5.195,1.993,5.918,3.484a4.529,4.529,0,0,1,1.137.826,3.507,3.507,0,0,1,.983,2.631,2.469,2.469,0,0,0,.367,1.74.742.742,0,0,0,.638.146,6.856,6.856,0,0,1,5.439,1.6c1.63,1.526,2.4,4.02,2.3,7.414a8.165,8.165,0,0,1-4.139,7.286,3.736,3.736,0,0,1-3.609.279,1.684,1.684,0,0,1-.769-1.583,2.625,2.625,0,0,1,1.775-2.3c1.065-.566,2.166-1.15,2.353-4.2a3.417,3.417,0,0,0-1.234-3.28,2.214,2.214,0,0,0-2.219-.079,1.835,1.835,0,0,0-.958,1.688c0,2.56-.01,5.451-.018,7.747,0,1.511-.009,2.763-.009,3.494C2660.646-1135.045,2657.321-1132.612,2650.762-1132.612Zm-.711-30.648c-7.827,0-7.827,1.213-7.827,1.938,0,.969,2.429,2.086,7.761,2.249,4.657.146,7.382-1.335,7.577-2.8a1.26,1.26,0,0,0-.022-.445C2656.02-1162.949,2653.546-1163.26,2650.052-1163.26Z" transform="translate(-2638.01 1181.196)" fill="#fff"/>
  </g>
</svg>
