<svg id="Component_37_1" data-name="Component 37 – 1" xmlns="http://www.w3.org/2000/svg" width="76" height="76" viewBox="0 0 76 76">
  <path id="Path_137348" data-name="Path 137348" d="M38,0A38,38,0,1,1,0,38,38,38,0,0,1,38,0Z" fill="#f38262"/>
  <g id="cupcake" transform="translate(25 17)">
    <path id="Path_106157" data-name="Path 106157" d="M2367.424-1133.4a2.526,2.526,0,0,1-1.994-1.337,2.478,2.478,0,0,1-2.059,1.175,3.649,3.649,0,0,1-2.467-1.231,1.69,1.69,0,0,1-1.51,1.014h0c-5.061,0-6.835-10.967-7.021-12.217a.805.805,0,0,1,.676-.914.8.8,0,0,1,.914.678c.419,2.814,2.316,10.845,5.43,10.845h0a1.347,1.347,0,0,0,.345-.812,24.767,24.767,0,0,1-3.662-9.5c-.074-.61-.3-2.467.979-2.776a2.049,2.049,0,0,1,2.128.9c1.648,2.03,2.664,7.62,2.23,10.964.725.93,1.416,1.446,1.958,1.446.413,0,.829-.463,1.169-1.276-1.533-3.717-2.53-10.323-1.386-12.227a1.389,1.389,0,0,1,1.275-.738c2.657.122,2.573,7.182,2.554,7.988a18.93,18.93,0,0,1-.715,4.914c.594,1.235,1.042,1.5,1.159,1.5.161-.006.764-.375,1.6-1.993.061-.116.12-.234.179-.354a23.706,23.706,0,0,1-.243-3.071c-.031-1.489-.035-8.924,2.863-9.042a1.263,1.263,0,0,1,1.151.628c1.091,1.73-.445,8.017-2.1,11.7a3.979,3.979,0,0,0,.687,1.949c1.2-.487,4.5-6.919,4.35-11.814-.106-3.508-1.979-3.871-2.594-3.991-6.972-1.354-10.6-1.69-16.077.76-2.4,1.074-4.618.934-5.925-.371-1.209-1.207-1.367-3.106-.431-5.211,2.238-5.034,14.68-2.415,20.946-.327a2.911,2.911,0,0,0,3.023-.34,1.476,1.476,0,0,0,.321-1.568c-.407-1.127-1.907-1.931-4.012-2.151a36.4,36.4,0,0,0-6.94.207c-3.47.326-6.211.584-7.35-.95-.64-.86-.618-2.1.066-3.779,1.316-3.233,5.641-2.076,9.116-1.149a12.006,12.006,0,0,0,3.584.654,1.284,1.284,0,0,0-.051-.316c-.376-1.4-1.068-1.583-2.215-1.892a6.966,6.966,0,0,1-2.319-.965,3.964,3.964,0,0,1-1.875-2.6,2.687,2.687,0,0,1,.492-1.979.806.806,0,0,1,1.131-.126.8.8,0,0,1,.126,1.131,1.1,1.1,0,0,0-.154.767,2.559,2.559,0,0,0,1.2,1.49,5.507,5.507,0,0,0,1.819.732,3.9,3.9,0,0,1,3.35,3.026,1.814,1.814,0,0,1-.329,1.863c-.906.91-2.7.432-5.173-.228-3.518-.94-6.487-1.574-7.211.2-.435,1.07-.53,1.857-.263,2.213.6.807,3.3.554,5.906.307a37.513,37.513,0,0,1,7.259-.206c3.94.411,5.06,2.378,5.358,3.2a3.089,3.089,0,0,1-.683,3.237,4.44,4.44,0,0,1-4.682.744c-6.747-2.25-17.443-3.978-18.969-.547-.65,1.463-.614,2.708.1,3.419.806.8,2.389.821,4.133.042,5.873-2.629,9.887-2.262,17.04-.872,2.865.556,4.226,3.113,3.834,7.2-.469,4.877-3.609,11.808-5.919,11.808-.811,0-1.371-.63-1.756-1.552-.755,1.121-1.512,1.684-2.3,1.713Zm-9.8-13.461c-.14,1.095.709,4.649,2.248,7.724a19.2,19.2,0,0,0-1.261-6.219A3.391,3.391,0,0,0,2357.625-1146.856Zm6.815-.814c-.421,1.069-.107,4.963.8,8.295C2365.673-1142.865,2365.1-1146.785,2364.439-1147.67Zm7.283-.02a8.558,8.558,0,0,0-1.015,3.886,26.974,26.974,0,0,0-.14,2.951C2371.463-1143.729,2371.928-1146.648,2371.722-1147.69Z" transform="translate(-2350.285 1173.265)" fill="#fff"/>
  </g>
</svg>
