<svg id="Component_41_82" data-name="Component 41 – 82" xmlns="http://www.w3.org/2000/svg" width="76" height="76" viewBox="0 0 76 76">
  <circle id="Ellipse_98" data-name="Ellipse 98" cx="38" cy="38" r="38" fill="#f69f8e"/>
  <g id="cup" transform="translate(24.371 18)">
    <path id="Path_106154" data-name="Path 106154" d="M2082.647-1132.84c-7.552,0-7.816-3.29-8.584-12.929-.261-3.269-.587-7.338-1.264-12.374a4.456,4.456,0,0,1,.749-3.643c.768-.884,2.044-1.443,4.173-1.752-1.832-3.24-4.229-4.282-9.97-5.778A2.33,2.33,0,0,1,2066-1172c.234-.969,1.253-1.832,3.4-1.354,8.237,1.844,10.75,3.941,12.986,9.515l.411,0c4.5-.021,7.813,1.426,7.853,3.476.017.846-.572,2.732-5.965,3.23.406,1.256.848,2.625,1.346,4.118l.387,1.154c1.02,3.041,1.931,5.759,2.544,8.128.136-3.394.1-7.907-.078-12.065a.723.723,0,0,1,.693-.755.737.737,0,0,1,.755.693c.469,10.962.007,15.478-.565,17.364a5.837,5.837,0,0,1-.956,3.4c-1.074,1.5-3.038,2.24-6,2.258Zm-4.238-29.324c-1.995.24-3.2.673-3.768,1.327a3.014,3.014,0,0,0-.406,2.5c.682,5.076,1.008,9.166,1.271,12.452.762,9.542.926,11.6,7.117,11.6h.167c2.468-.014,4.049-.554,4.833-1.651a3.415,3.415,0,0,0,.514-1.143c-2.211-.21-3.331-4.378-4.722-9.552-.461-1.716-.939-3.491-1.473-5.174l-.63-1.994c-.37-1.17-.705-2.237-1.021-3.212-3.942-.092-4.566-.8-4.612-1.448a.724.724,0,0,1,.671-.774.725.725,0,0,1,.661.332,7.526,7.526,0,0,0,2.795.422C2079.322-1159.925,2078.873-1161.135,2078.409-1162.163Zm3.407,5.154c.276.859.566,1.78.878,2.77l.63,1.992c.544,1.714,1.025,3.5,1.491,5.236.956,3.556,2.253,8.381,3.488,8.482l.009-.016c.031-3-1.483-7.516-3.276-12.862l-.387-1.155c-.537-1.6-1.007-3.067-1.437-4.4-.008-.027-.018-.053-.026-.08l-.23.008Q2082.354-1157.017,2081.817-1157.009Zm-1.9-5.291c.475,1.1.933,2.37,1.424,3.844.421,0,.878-.008,1.379-.022-.476-1.468-.905-2.755-1.328-3.891C2080.871-1162.353,2080.38-1162.33,2079.919-1162.3Zm3.008-.1c.414,1.145.834,2.418,1.294,3.841,3.745-.3,4.983-1.3,4.974-1.783-.015-.747-2.111-2.058-6.234-2.058Zm-5.8,3.828h0Zm0,0v0Zm0,0v0Zm0,0h0Zm0,0Zm-8.863-13.465c-.476,0-.8.133-.855.381a.9.9,0,0,0,.71.943c6.5,1.693,9.133,3.161,11.14,7.011.49-.039,1.013-.07,1.575-.093-2.063-4.882-4.408-6.5-11.754-8.141A3.771,3.771,0,0,0,2068.261-1172.042Z" transform="translate(-2065.943 1173.491)" fill="#fff"/>
  </g>
</svg>
