<svg xmlns="http://www.w3.org/2000/svg" width="76" height="76" viewBox="0 0 76 76">
  <g id="Group_28552" data-name="Group 28552" transform="translate(-2542 -2320)">
    <g id="Component_42_100" data-name="Component 42 – 100" transform="translate(2542 2320)">
      <circle id="Ellipse_97" data-name="Ellipse 97" cx="38" cy="38" r="38" fill="#f38262"/>
      <g id="cutlery" transform="translate(30.183 16)">
        <path id="Path_106153" data-name="Path 106153" d="M1991.062-1131.872a1.2,1.2,0,0,1-.836-.339c-.777-.735-.854-2.534-.888-5.411l-.013-.922c-.05-2.868-.307-18.363-.307-18.363l1.276-.021s.257,15.494.307,18.362l.012.929c.019,1.56.051,4.171.493,4.5.341-.031.786-1.141.728-6.336-.012-1.092-.059-2.3-.109-3.585-.169-4.354-.331-8.466.671-10.033.182-.285.378-.551.576-.818,1.017-1.376,2.07-2.8,1.277-8.43-.665-4.723-2.369-10.557-3.311-11.449-.266.439-.888,2.312-.888,10.221,0,4.04-1.26,4.651-2.664,4.959-.693.153-.951.209-.985,1.36-.029.938.082,3.02.211,5.432.514,9.592.805,17.675-.825,19.441a1.29,1.29,0,0,1-.93.447,1.335,1.335,0,0,1-1.005-.433c-1.754-1.8-1.711-10.2-1.109-22.272.072-1.426.128-2.553.128-3.031,0-.94-.476-1.3-1.2-1.838a4.472,4.472,0,0,1-2.133-4.332,42.7,42.7,0,0,1,1.146-8.125.637.637,0,0,1,.682-.476.639.639,0,0,1,.574.6c.151,2.927.675,5.764,1.163,6.42.437-.765.788-3.834.789-7.065a.637.637,0,0,1,.62-.638.625.625,0,0,1,.655.6c.17,3.269.681,6.354,1.16,7.163.408-.785.725-3.6.715-6.551a.639.639,0,0,1,.636-.641h0a.638.638,0,0,1,.638.636c.005,1.51-.067,6.524-1.225,7.644a1.071,1.071,0,0,1-.793.32c-.676-.025-1.218-.8-1.625-2.323a3.846,3.846,0,0,1-.824,1.937,1.034,1.034,0,0,1-.823.281c-.948-.1-1.531-1.534-1.889-3.388-.151,1.112-.278,2.363-.325,3.648a3.247,3.247,0,0,0,1.624,3.264,3.31,3.31,0,0,1,1.707,2.859c0,.511-.054,1.6-.13,3.1-.172,3.438-.432,8.632-.367,13.174.108,7.731,1.134,8.178,1.178,8.193,1.463-.732.77-13.673.511-18.545-.136-2.542-.243-4.548-.214-5.54.059-1.981.974-2.344,1.987-2.567.855-.188,1.662-.365,1.662-3.714,0-10.542,1.058-11.5,2.048-11.568,2.738-.207,4.671,12.49,4.69,12.619.865,6.147-.4,7.857-1.515,9.366-.18.245-.36.486-.527.747-.786,1.23-.611,5.7-.471,9.295.05,1.292.1,2.512.11,3.621.056,4.988-.236,7.535-1.993,7.611Z" transform="translate(-1979.536 1175.135)" fill="#fff"/>
      </g>
    </g>
  </g>
</svg>
