<svg id="Component_36_2" data-name="Component 36 – 2" xmlns="http://www.w3.org/2000/svg" width="76" height="76" viewBox="0 0 76 76">
  <path id="Path_137298" data-name="Path 137298" d="M38,0A38,38,0,1,1,0,38,38,38,0,0,1,38,0Z" fill="#ffbc41"/>
  <g id="burger" transform="translate(21 20)">
    <path id="Path_106156" data-name="Path 106156" d="M2268.986-1135.076q-.338,0-.684,0c-8.745-.082-12.035-1.183-13.041-4.363-.328-1.032-.6-2.1.031-2.79.678-.751,1.986-.643,4.315-.157,3.946.823,18.795.538,22.141-2.03a1.19,1.19,0,0,0,.556-.8,1.832,1.832,0,0,0-.441-1.44c-1.16-1.253-4.6-1.323-8.233-1.4-1.949-.039-3.964-.079-5.98-.284-3.808-.389-5.315,1.61-6.531,3.215-.939,1.24-2.11,2.784-4.085,1.455-1.286-.866-3.4-2.571-3.124-4.268.1-.6.529-1.392,2.025-1.8a45.571,45.571,0,0,1,20.26-1.566,17.417,17.417,0,0,0,6.13.208c-.74-.374-2.683-1.065-7.569-1.689-5.622-.719-6.154-.5-7.118-.108-1,.409-2.377.969-7.9,1.165-4.151.147-6.556-.406-7.35-1.688a1.86,1.86,0,0,1,0-1.931,4.37,4.37,0,0,1,3.394-2.042,2.051,2.051,0,0,1,1.984.857,1.476,1.476,0,0,1,.095.176c1.422-1.155,3.985-2.409,8.257-2.2a13.176,13.176,0,0,1,6.406,1.814c.567-.681,1.727-1.027,3.537-1.055a19.809,19.809,0,0,1,7.039,1.64c-1.1-1.321-3.407-3.007-8.1-3.517-2.794-.3-6.625.179-10.327.647-4.4.555-8.2,1.035-9.867.113-1.287-.712-2.3-2.8-1.644-5.26.572-2.146,3.24-7.062,15.653-7.062q.357,0,.724.005c7.13.106,11.546,1.612,13.126,4.478a6.005,6.005,0,0,1-.248,5.654.729.729,0,0,1-1,.243.728.728,0,0,1-.243-1,4.605,4.605,0,0,0,.212-4.206c-.9-1.627-3.7-3.593-11.868-3.715-3.123-.05-13.425.247-14.95,5.975-.442,1.665.144,3.172.942,3.614,1.251.692,5.181.2,8.981-.283s7.7-.973,10.667-.65c9,.979,10.278,6.125,10.328,6.344a.727.727,0,0,1-.261.735.732.732,0,0,1-.777.077c-.048-.025-4.747-2.378-8.249-2.378h-.116c-1.82.029-2.318.4-2.427.516-.036.039-.045.063-.044.067a.694.694,0,0,1-.281.845.745.745,0,0,1-.921-.114c-.017-.015-2.007-1.859-6.363-2.073-6.5-.325-8.352,3.022-8.427,3.162l-.007.013a.727.727,0,0,1-.978.309.728.728,0,0,1-.316-.975l.006-.012c.175-.341.338-.947.205-1.159-.056-.088-.273-.173-.713-.169a2.99,2.99,0,0,0-2.149,1.28c-.156.289-.076.417-.042.472.123.2.982,1.183,6.063,1,5.26-.185,6.494-.689,7.4-1.057,1.283-.525,2.094-.725,7.853.012,5.6.715,8.67,1.664,9.138,2.823a1.042,1.042,0,0,1-.16,1.064c-.941,1.171-4.877.986-7.962.473-8.035-1.338-14.349.09-19.64,1.533-.273.074-.913.285-.971.631-.081.5.667,1.59,2.5,2.824.739.5.976.371,2.112-1.127,1.283-1.693,3.225-4.248,7.837-3.784,1.958.2,3.943.239,5.863.278,4.127.083,7.69.155,9.271,1.862a3.275,3.275,0,0,1,.825,2.511,2.544,2.544,0,0,1-1.122,1.876c-4.038,3.1-19.409,3.114-23.325,2.3-2.25-.469-2.812-.379-2.947-.284a3.465,3.465,0,0,0,.284,1.367c.542,1.712,1.842,3.255,11.669,3.348,8.906.092,11.722-1.515,12.6-2.476a1.283,1.283,0,0,0,.431-.895.744.744,0,0,1,.617-.809.709.709,0,0,1,.816.562,2.5,2.5,0,0,1-.669,1.985C2280.406-1136.115,2275.991-1135.076,2268.986-1135.076Z" transform="translate(-2252.125 1171.241)" fill="#fff"/>
  </g>
</svg>
