<svg id="Component_38_1" data-name="Component 38 – 1" xmlns="http://www.w3.org/2000/svg" width="76" height="76" viewBox="0 0 76 76">
  <circle id="Ellipse_102" data-name="Ellipse 102" cx="38" cy="38" r="38" fill="#f69f8e"/>
  <g id="pizza" transform="translate(17 19)">
    <path id="Path_106158" data-name="Path 106158" d="M2439.561-1133.211a3.6,3.6,0,0,1-.548-.041,1.471,1.471,0,0,1-1.128-.816c-.693-1.42.422-4.506,3.844-10.656a17.577,17.577,0,0,1,2.432-3.384,17.147,17.147,0,0,1,2.454-6.322,13.945,13.945,0,0,1,3.708-4.454c.048-.227.1-.446.163-.654a11.961,11.961,0,0,1,3.267-4.8.683.683,0,0,1,.966.061.686.686,0,0,1-.061.967,11.55,11.55,0,0,0-2.657,3.591,3.409,3.409,0,0,1,1.886-.032,2.9,2.9,0,0,1,2.109,2.822,2.216,2.216,0,0,1-1.888,2.109c-1.479.306-2.573.089-3.25-.643a2.683,2.683,0,0,1-.659-1.532,15.779,15.779,0,0,0-2.4,3.257,20.807,20.807,0,0,0-1.85,3.993,9.122,9.122,0,0,1,1.932-1.159c2.86-1.21,5.065-.171,5.9,1.308.731,1.29.694,3.444-1.809,5.269-2.25,1.641-5.025,1.8-6.6.381a3.8,3.8,0,0,1-1.156-2.09,16.725,16.725,0,0,0-1.292,1.981c-3.89,6.99-4.056,8.882-3.809,9.389.017.033.025.05.108.063,1.653.262,4.621-1.462,6.79-2.718l.594-.344a3.013,3.013,0,0,1,3.906.482c.048.042.1.089.158.133a4.044,4.044,0,0,0,.091-.721,2.586,2.586,0,0,1,1.443-2.563,1.836,1.836,0,0,1,1.891.132c1.085.8,1.046,2.633.979,3.385a1.026,1.026,0,0,0,.272.931.068.068,0,0,0,.092,0c.259-.154.714-.993.582-3.065-.127-1.98.015-2.838.546-3.277a1.537,1.537,0,0,1,1.457-.145c.524.135.812.188,1.167-.141a10.253,10.253,0,0,0,1.366-1.685,11.582,11.582,0,0,1,4.381-4.085,8.236,8.236,0,0,0,1.985-1.543q-.641.148-1.308.287c-2.483.511-4.711-.284-5.682-2.023a3.86,3.86,0,0,1,.79-4.613,7.112,7.112,0,0,1,7.75-1.855,3.026,3.026,0,0,1,2.246,2.741,6.5,6.5,0,0,1-.606,3.158c8.229-2.706,10.042-6.784,9.975-9.951a2.56,2.56,0,0,0-.085-.619,7.622,7.622,0,0,1-.293,1.937,3.965,3.965,0,0,1-2.62,2.988,2.283,2.283,0,0,1-2.241-.615c-.445-.467-1.1-1.558-.477-3.615a4.367,4.367,0,0,1,3.414-3.279c-1.076-1.373-3.208-2.416-6.353-3.106-.673-.148-1.415-.324-2.2-.511-4.519-1.077-11.349-2.7-12.837-.108a2.874,2.874,0,0,0-.413,2.684,1.433,1.433,0,0,0,1.052.786,5.979,5.979,0,0,0,2.356-.465.689.689,0,0,1,.61.043.687.687,0,0,1,.334.514h0s.243.822,2.152,1.627a3.471,3.471,0,0,0,3.587-.636.688.688,0,0,1,.724-.138.684.684,0,0,1,.429.6,3.867,3.867,0,0,0,2.435,2.929,12.147,12.147,0,0,0,3.246,1.236.7.7,0,0,1,.636.721.677.677,0,0,1-.674.648h-.016c-.159,0-1.09-.086-3.781-1.368a5.576,5.576,0,0,1-2.945-3,4.631,4.631,0,0,1-4.173.274,5.6,5.6,0,0,1-2.67-1.953,6.286,6.286,0,0,1-2.4.334,2.822,2.822,0,0,1-2.122-1.527c-.394-.776-.635-2.1.448-3.986,2-3.486,8.843-1.854,14.344-.543.773.184,1.506.359,2.172.506,3.892.854,6.353,2.214,7.522,4.156.087.146.168.295.241.446a3.124,3.124,0,0,1,1.969,3.017c.113,5.337-4.121,9.345-12.3,11.7a10.493,10.493,0,0,1-3.575,3.333,10.277,10.277,0,0,0-3.907,3.665,11.317,11.317,0,0,1-1.558,1.9,2.369,2.369,0,0,1-2.438.461c-.079-.02-.174-.044-.25-.059a7.032,7.032,0,0,0-.045,2.067c.192,3.006-.7,4-1.248,4.33a1.435,1.435,0,0,1-1.522-.017,2.307,2.307,0,0,1-.908-2.211,2.769,2.769,0,0,0-.424-2.16c-.044-.032-.177-.13-.554.027-.473.2-.544.558-.6,1.395a2.645,2.645,0,0,1-.588,1.8c-.742.743-1.537.064-1.919-.263a1.68,1.68,0,0,0-2.332-.334l-.589.34C2444.43-1134.821,2441.651-1133.211,2439.561-1133.211Zm5.929-14.3a3.038,3.038,0,0,0,.8,2.546c1.078.972,3.173.769,4.874-.471,1.461-1.065,2.02-2.434,1.423-3.487-.546-.966-2.085-1.6-4.176-.72A9.746,9.746,0,0,0,2445.49-1147.51Zm20.337-9.571a5.443,5.443,0,0,0-4.107,1.843,2.5,2.5,0,0,0-.589,3c.511.917,1.917,1.821,4.207,1.349,1.052-.216,2.03-.45,2.943-.7a6.149,6.149,0,0,0,1.076-3.571,1.666,1.666,0,0,0-1.276-1.565A7.838,7.838,0,0,0,2465.827-1157.081Zm-14.254-.989a2.155,2.155,0,0,0,.289,1.674c.412.444,1.3.372,1.968.233.511-.106.779-.383.8-.823a1.528,1.528,0,0,0-1.123-1.451A2.521,2.521,0,0,0,2451.573-1158.07Zm26.77-5.9a2.938,2.938,0,0,0-2.66,2.35,2.413,2.413,0,0,0,.157,2.274.908.908,0,0,0,.917.231,2.65,2.65,0,0,0,1.632-2.025,5.108,5.108,0,0,0,.086-2.826C2478.432-1163.964,2478.387-1163.966,2478.344-1163.966Z" transform="translate(-2437.689 1171.79)" fill="#fff"/>
  </g>
</svg>
