<svg xmlns="http://www.w3.org/2000/svg" width="17.656" height="25.864" viewBox="0 0 17.656 25.864">
  <g id="search" transform="translate(0.16 0.152)">
    <path id="Path_106192" data-name="Path 106192" d="M2257.2,24.562c-1.439,0-2.633-2.731-3.889-5.606-.355-.812-.73-1.668-1.1-2.406-1.167.338-1.961-.058-2.233-.646a1.323,1.323,0,0,1,.229-1.393c-.145-.018-.3-.035-.469-.053-2.18-.238-6.239-.681-7.988-4.716-2.308-5.327,1.247-8.684,3.712-9.828.143-.066.286-.128.431-.184a8.119,8.119,0,0,1,4.076-.7,7.625,7.625,0,0,1,6.447,4.563c1.922,4.223-.677,7.8-3.164,9.721a2.91,2.91,0,0,1,.9.941l.214.353a1.549,1.549,0,0,0,.562-.72.28.28,0,0,0-.017-.235.34.34,0,0,1,.026-.485.354.354,0,0,1,.5.027.924.924,0,0,1,.184.8,2.238,2.238,0,0,1-.888,1.212c2.052,3.407,4.067,7.035,3.559,8.577a1.068,1.068,0,0,1-.618.68A1.23,1.23,0,0,1,2257.2,24.562Zm-4.332-8.262c.349.706.705,1.52,1.08,2.378,1.027,2.349,2.437,5.566,3.458,5.144a.374.374,0,0,0,.222-.254c.44-1.337-2.065-5.632-3.468-7.959A11.52,11.52,0,0,1,2252.863,16.3Zm-1.869-1.589c-.387.306-.5.657-.385.9.14.3.6.466,1.272.306A3.936,3.936,0,0,0,2250.994,14.711Zm.631-.359a5.973,5.973,0,0,1,.917,1.33,10.9,10.9,0,0,0,1.253-.667l-.243-.4a2.265,2.265,0,0,0-.921-.854A9.568,9.568,0,0,1,2251.625,14.352Zm-9.174-10.835a6.327,6.327,0,0,0-.064,5.949c1.589,3.665,5.386,4.079,7.425,4.3a9.191,9.191,0,0,1,1.109.159c.068-.038.14-.074.215-.11.211-.1.436-.218.669-.356a13.345,13.345,0,0,0-1.842-.263c-2.232-.219-5.012-.492-6.74-3.948A7.781,7.781,0,0,1,2242.451,3.516Zm3.682-3.134a5.852,5.852,0,0,0-2.366,1.972c-.843,1.244-1.514,3.4.08,6.583,1.556,3.113,4.015,3.354,6.186,3.567a10.015,10.015,0,0,1,2.529.46c2.373-1.71,5.037-5.094,3.221-9.084a6.932,6.932,0,0,0-4.6-3.941,7.889,7.889,0,0,1,3.641,3.844,5.561,5.561,0,0,1-.644,5.936,8.452,8.452,0,0,1-2.34,2.1.348.348,0,0,1-.342-.605,7.9,7.9,0,0,0,2.138-1.931,4.833,4.833,0,0,0,.554-5.212,7.057,7.057,0,0,0-3.866-3.744A5.786,5.786,0,0,0,2246.133.382Z" transform="translate(-2241.003 1)" fill="#fff" stroke="#fff" stroke-width="0.3"/>
  </g>
</svg>
