<svg id="Component_40_81" data-name="Component 40 – 81" xmlns="http://www.w3.org/2000/svg" width="76" height="76" viewBox="0 0 76 76">
  <circle id="Ellipse_99" data-name="Ellipse 99" cx="38" cy="38" r="38" fill="#8fd89f"/>
  <g id="broccoli" transform="translate(22.894 21)">
    <path id="Path_106155" data-name="Path 106155" d="M2174.617-1135.379c-3.055,0-3.775-1.853-4.41-3.492-.738-1.9-1.5-3.863-5.635-4.651-.122-.023-.237-.049-.348-.076a4.278,4.278,0,0,1-1.057.644,3.467,3.467,0,0,1-4.7-2.081,2.746,2.746,0,0,1,.66-2.968,2.1,2.1,0,0,1-.157-1.64c.365-1.076,1.609-1.77,3.8-2.12,4.066-.645,4.562,1.783,4.894,3.391a3.248,3.248,0,0,0,.588,1.6,1.8,1.8,0,0,0,2.2-.09c.681-.622.091-1.611-.322-2.145a22.907,22.907,0,0,0-2.97-3.116.771.771,0,0,1-.182-.96.771.771,0,0,1,.905-.371c1.052.322,4.059.868,5.312-.437,2.364-2.458-.124-5.178-.231-5.293a.776.776,0,0,1-.193-.682.772.772,0,0,1,.44-.554c.026-.011,2.707-1.248,2.073-2.979a2.107,2.107,0,0,0-1.735-1.485l-.028,0a3.61,3.61,0,0,1-.452,2.672,3.064,3.064,0,0,1-2.77,1.432,2.266,2.266,0,0,1-1.963-1.359,2.19,2.19,0,0,1,.4-2.266,5.62,5.62,0,0,1,2.636-1.762,5.066,5.066,0,0,0-4.031-2.437,7.81,7.81,0,0,0-6.608,2.948c-.951,1.167-1.148,2.152-.583,2.931a3.188,3.188,0,0,0,1.261.953,5.123,5.123,0,0,1,2.468-1.555c1.6-.347,2.407.306,2.607.974.229.766-.223,1.8-1.748,2.388a4.9,4.9,0,0,1-2.844,0,6.12,6.12,0,0,0-1.318,3.663c.068,1.15.8,1.776,2.252,1.914,1.878.178,3.69-1.213,4.656-2.672.627-.947.655-1.548.594-1.661-.637-.1-.964-.017-1.072.092a.592.592,0,0,0-.091.433.78.78,0,0,1-.626.892.771.771,0,0,1-.894-.6,2.124,2.124,0,0,1,.5-1.792,2.584,2.584,0,0,1,2.386-.544,1.635,1.635,0,0,1,1.343,2c-.272,2.1-3.317,5.744-6.942,5.4-2.2-.212-3.532-1.437-3.646-3.362a7.515,7.515,0,0,1,1.392-4.327,4.566,4.566,0,0,1-1.526-1.283c-.578-.8-1.264-2.483.636-4.814a9.4,9.4,0,0,1,7.943-3.512,6.569,6.569,0,0,1,5.338,3.385c.057.1.11.2.16.3a4.711,4.711,0,0,1,.808.048,3.649,3.649,0,0,1,2.955,2.483c.734,2.008-.72,3.595-2.039,4.453a5.063,5.063,0,0,1-.388,6.658,5.457,5.457,0,0,1-4.311,1.283c.437.466.907,1,1.357,1.585,1.831,2.371.57,3.838.141,4.231a3.313,3.313,0,0,1-4.289.082,4.276,4.276,0,0,1-1.053-2.426c-.333-1.615-.53-2.591-3.136-2.175-1.718.273-2.459.739-2.58,1.084-.092.264.161.624.258.73a.781.781,0,0,1,.2.587.777.777,0,0,1-.29.548c-.008.006-1.065.88-.733,1.612.809,1.778,2.034,1.576,2.7,1.3l.017-.007a1.878,1.878,0,0,1-.663-1.411,1.9,1.9,0,0,1,1.5-1.825,1.647,1.647,0,0,1,1.865,1.176,2,2,0,0,1-.029,1.485c4.637,1.014,5.647,3.615,6.39,5.529.64,1.651,1,2.561,3.134,2.5,2.2-.056,2.441-.822,3.351-4.876q.162-.725.355-1.564c1.625-6.958,6.6-6.814,8.246-6.767a3.007,3.007,0,0,0,2.281-1.775,1.37,1.37,0,0,0,0-1.454,4.44,4.44,0,0,0-2.551-1.438.778.778,0,0,1-.606-.422.774.774,0,0,1,.02-.738c.376-.642,1.265-2.6.887-3.923a1.738,1.738,0,0,0-.919-1.1,4.277,4.277,0,0,0-4.627.642,1.959,1.959,0,0,0-.462,2.411l.006.013c1.274-.249,2.979-.2,3.821.741a1.743,1.743,0,0,1,.323,1.8,2.017,2.017,0,0,1-1.764,1.523c-1.074.068-2.2-.775-3.131-2.225a2.552,2.552,0,0,0-1.53,1.481,2.086,2.086,0,0,0,.087,1.673,2.881,2.881,0,0,0,1.557,1.16.775.775,0,0,1,.517.463.773.773,0,0,1-.063.69,4.953,4.953,0,0,1-2.844,2.518,4.393,4.393,0,0,1-3.344-.843.772.772,0,0,1-.24-1.067.771.771,0,0,1,1.066-.239,3.013,3.013,0,0,0,2.172.643,2.542,2.542,0,0,0,1.372-1.084,3.955,3.955,0,0,1-1.546-1.49,3.59,3.59,0,0,1-.217-2.867,4.023,4.023,0,0,1,2.281-2.4,3.457,3.457,0,0,1,.872-4.019,5.842,5.842,0,0,1,6.415-.889,3.255,3.255,0,0,1,1.685,2.046,6.713,6.713,0,0,1-.591,4.222,6.073,6.073,0,0,1,2.509,1.691,2.779,2.779,0,0,1,.25,3.134,4.515,4.515,0,0,1-3.651,2.668l-.078,0c-1.733-.049-5.356-.155-6.695,5.575-.129.555-.245,1.071-.353,1.55-.9,3.99-1.344,5.993-4.82,6.083C2174.752-1135.38,2174.684-1135.379,2174.617-1135.379Zm-10.909-10.726a.369.369,0,0,0-.241.287c-.012.1.074.249.3.4a.606.606,0,0,0,.079-.46A.476.476,0,0,0,2163.708-1146.1Zm17.9-10.377c.585.763,1.166,1.1,1.444,1.085.184-.01.31-.267.383-.481.063-.184.02-.232-.011-.267A2.5,2.5,0,0,0,2181.612-1156.482Zm-18.429-4.829a2.4,2.4,0,0,0,.991-.1,1.835,1.835,0,0,0,.735-.456,1.985,1.985,0,0,0-.712.048A2.732,2.732,0,0,0,2163.184-1161.311Zm8.783-3.421a4.155,4.155,0,0,0-2.009,1.264c-.124.163-.317.471-.216.7a.736.736,0,0,0,.667.447,1.526,1.526,0,0,0,1.351-.726A2.165,2.165,0,0,0,2171.967-1164.732Z" transform="translate(-2158.255 1170.175)" fill="#fff"/>
  </g>
</svg>
